<svg width="49" height="49" viewBox="0 0 49 49" fill="none" xmlns="http://www.w3.org/2000/svg">
<g id="Group">
<path id="Vector" d="M0 0V49H49V0H0ZM19.9812 45.1597C13.9104 45.1055 12.9579 40.9679 12.9579 40.9679L16.5512 38.7629C16.5512 38.7629 17.1503 41.2129 19.7362 41.2129C22.3221 41.2129 22.1862 39.1164 22.1862 39.1164V22.4564H26.542C26.542 22.4564 26.5146 38.6813 26.542 39.2797C26.5694 39.8788 26.052 45.2146 19.9812 45.1597ZM37.7029 45.1604C33.9191 45.1878 30.952 43.6636 29.1553 40.587L32.8846 38.1919C32.8846 38.1919 34.3549 41.1045 37.322 41.2136C40.2891 41.322 40.67 39.607 40.6429 38.7904C40.6158 37.9737 39.7446 36.0686 34.9808 34.7619C30.217 33.4552 30.5711 28.5278 30.6253 27.9561C30.6796 27.3845 31.0879 22.2656 37.0907 22.2656C42.3579 22.2656 43.7462 25.7505 43.7462 25.7505L40.4524 28.1188C40.4524 28.1188 39.3908 25.9406 36.9408 26.1314C34.4908 26.3221 34.2458 29.3164 36.1241 30.2964C38.0024 31.2764 45.0529 32.7738 45.0258 38.0821C44.9987 43.3905 41.4867 45.1329 37.7029 45.1604Z" fill="white"/>
</g>
</svg>
