<svg width="55" height="49" viewBox="0 0 55 49" fill="none" xmlns="http://www.w3.org/2000/svg">
<g id="Group">
<path id="Vector" d="M55 24.5C55 20.5284 50.6066 17.1546 43.6316 15.1217C43.8603 14.1401 44.0469 13.1817 44.1831 12.2536C45.0361 6.43991 43.9073 2.34383 41.0043 0.71932C40.151 0.24206 39.1812 0 38.1213 0C35.0721 0 31.3039 2.11451 27.5002 5.71144C23.6968 2.11451 19.9279 0 16.8787 0C15.8191 0 14.849 0.24206 13.9957 0.71932C11.0933 2.34383 9.96395 6.43991 10.8176 12.2536C10.9538 13.1817 11.1401 14.1401 11.3691 15.1217C4.39409 17.1546 0 20.5284 0 24.5C0 28.4667 4.3829 31.8376 11.3431 33.8711C9.70925 40.8876 10.5151 46.3324 13.9961 48.281C14.8493 48.7579 15.8188 49 16.8791 49C16.8791 49 16.8791 49 16.8797 49C19.9282 49 23.6971 46.8855 27.5002 43.2889C31.3039 46.8858 35.0728 49 38.1219 49C39.1815 49 40.151 48.7579 41.0043 48.281C44.4855 46.3324 45.2908 40.8876 43.6576 33.8711C50.6174 31.8376 55 28.4667 55 24.5ZM39.5698 3.24478C41.2968 4.21073 41.9408 7.42252 41.2929 11.8358C41.1711 12.6645 41.0046 13.522 40.8025 14.3998C38.7123 13.9405 36.4417 13.5929 34.0339 13.3669C32.5784 11.3069 31.0643 9.43021 29.5361 7.77565C32.9371 4.56974 36.0366 2.89917 38.1213 2.89917C38.6807 2.89917 39.1539 3.01187 39.5698 3.24478ZM38.6985 27.9761C39.222 29.288 39.6696 30.5567 40.0454 31.7758C38.8166 32.044 37.5118 32.276 36.135 32.4654C36.6108 31.6997 37.0791 30.9174 37.5349 30.1151C37.9386 29.4042 38.326 28.6902 38.6985 27.9761ZM34.9908 28.6915C34.151 30.17 33.2898 31.557 32.4181 32.8552C30.8445 32.9718 29.2041 33.0365 27.5002 33.0365C25.7966 33.0365 24.1558 32.9721 22.5829 32.8552C21.7111 31.557 20.849 30.17 20.0102 28.6915C19.2178 27.2963 18.4892 25.8939 17.8261 24.4997C18.478 23.1296 19.2026 21.7302 20.0102 20.3085C20.8493 18.83 21.7111 17.4433 22.5829 16.1448C24.1558 16.0289 25.7969 15.9642 27.5002 15.9642C29.2044 15.9642 30.8445 16.0286 32.4181 16.1448C33.2898 17.4437 34.1514 18.83 34.9908 20.3085C35.7984 21.7305 36.5226 23.1296 37.1749 24.4997C36.5121 25.8936 35.7832 27.2959 34.9908 28.6915ZM27.4998 39.1582C26.5929 38.1687 25.6745 37.0741 24.7583 35.883C25.658 35.9167 26.5715 35.9353 27.4998 35.9353C28.4281 35.9353 29.3423 35.9163 30.242 35.883C29.3259 37.0741 28.4074 38.1684 27.4998 39.1582ZM17.4658 30.1151C17.9216 30.9174 18.3892 31.7001 18.8657 32.4654C17.4892 32.276 16.1844 32.044 14.9553 31.7758C15.3314 30.5571 15.7786 29.288 16.3022 27.9761C16.6747 28.6902 17.062 29.4042 17.4658 30.1151ZM16.3029 21.0217C15.7885 19.7326 15.342 18.4639 14.9606 17.2232C16.188 16.9556 17.4908 16.7237 18.8657 16.5342C18.3892 17.2999 17.9216 18.0823 17.4658 18.8846C17.0594 19.6003 16.674 20.3128 16.3029 21.0217ZM27.4998 9.84214C28.4074 10.831 29.3252 11.9256 30.242 13.1173C29.3423 13.0833 28.4281 13.065 27.4998 13.065C26.5715 13.065 25.658 13.0833 24.7583 13.1173C25.6745 11.9256 26.5932 10.8313 27.4998 9.84214ZM37.5349 18.8846C37.0791 18.0823 36.6108 17.2996 36.135 16.5342C37.5099 16.7237 38.8127 16.9556 40.0401 17.2232C39.658 18.4639 39.2118 19.7326 38.6978 21.0217C38.3266 20.3128 37.9413 19.6003 37.5349 18.8846ZM13.7075 11.8358C13.0595 7.42252 13.7035 4.21073 15.4298 3.24478C15.8458 3.01187 16.3196 2.89884 16.8784 2.89884C18.9631 2.89884 22.0632 4.56909 25.4642 7.77532C23.9353 9.42989 22.4219 11.3069 20.9665 13.3665C18.5586 13.5926 16.2877 13.9402 14.1971 14.3995C13.9957 13.522 13.8292 12.6645 13.7075 11.8358ZM2.92051 24.5C2.92051 22.1402 6.37247 19.6248 12.1299 17.9402C12.7778 20.0642 13.6091 22.2646 14.6085 24.4899C13.5844 26.7543 12.7439 28.9567 12.1016 31.0513C6.36161 29.367 2.92051 26.8556 2.92051 24.5ZM16.8787 46.1008C16.32 46.1008 15.8458 45.9878 15.4302 45.7555C13.3629 44.5985 12.8489 40.3897 14.1899 34.5986C16.2818 35.0585 18.556 35.4067 20.9668 35.6328C22.4223 37.6928 23.9357 39.5701 25.4645 41.2247C22.0636 44.4309 18.9634 46.1015 16.8787 46.1008ZM39.5698 45.7559C39.1539 45.9881 38.6807 46.1012 38.1219 46.1012C36.0373 46.1012 32.9371 44.4312 29.5361 41.225C31.0643 39.5704 32.5784 37.6928 34.0339 35.6331C36.4447 35.4071 38.7179 35.0588 40.8108 34.5989C42.1511 40.39 41.6371 44.5988 39.5698 45.7559ZM42.8981 31.0513C42.2564 28.9567 41.4159 26.7543 40.3912 24.4899C41.3913 22.2646 42.2225 20.0642 42.8704 17.9402C48.6272 19.6248 52.0792 22.1402 52.0792 24.5C52.0795 26.8556 48.639 29.367 42.8981 31.0513Z" fill="white"/>
<path id="Vector_2" d="M27.4998 29.4523C30.255 29.4523 32.4886 27.2351 32.4886 24.5C32.4886 21.7649 30.255 19.5477 27.4998 19.5477C24.7446 19.5477 22.5111 21.7649 22.5111 24.5C22.5111 27.2351 24.7446 29.4523 27.4998 29.4523Z" fill="white"/>
</g>
</svg>
