<svg width="43" height="49" viewBox="0 0 43 49" fill="none" xmlns="http://www.w3.org/2000/svg">
<g id="Group 183">
<path id="Vector" d="M21.5 48.9998C21.1809 48.9998 20.8621 48.9146 20.5787 48.7447L14.3366 44.9907C13.4933 44.483 13.2221 43.3903 13.7305 42.5492C14.2403 41.708 15.3358 41.4385 16.1788 41.9448L21.5036 45.1475L39.4332 34.4566V14.0628L21.7991 3.83654L3.56679 14.4565V34.6327C4.50181 35.256 6.36695 36.4431 9.288 38.0607C9.91048 38.406 10.7751 38.7556 11.3608 38.4639C12.2313 38.0291 12.7441 36.3686 12.8803 35.5327V15.7076C12.8803 14.7253 13.6791 13.9292 14.6636 13.9292C15.6487 13.9292 16.4468 14.7256 16.4468 15.7076V35.6633C16.4468 35.7388 16.4419 35.8149 16.4321 35.89C16.3757 36.3281 15.7984 40.2122 12.9727 41.6358C11.8801 42.1865 10.053 42.5531 7.55522 41.1693C2.89615 38.5886 0.808564 37.0572 0.722072 36.9935C0.267665 36.658 0 36.1279 0 35.5647V13.4353C0 12.8032 0.336137 12.2185 0.883916 11.9L20.8978 0.242878C21.4522 -0.0798685 22.1385 -0.0815018 22.6938 0.241245L42.1131 11.5034C42.6619 11.8219 42.9997 12.4073 42.9997 13.0404V35.4657C42.9997 36.0913 42.6701 36.6708 42.1318 36.9922L22.415 48.748C22.1336 48.9162 21.8168 48.9998 21.5 48.9998Z" fill="white"/>
<path id="Vector_2" d="M26.5686 34.7848C23.584 34.7848 21.005 33.8323 19.4285 32.1307C18.1888 30.7923 17.6273 29.059 17.8471 27.25C17.9657 26.2749 18.8568 25.5856 19.8321 25.6983C20.8101 25.8169 21.5069 26.7028 21.3883 27.6779C21.2936 28.4567 21.5158 29.1423 22.0488 29.7179C23.0163 30.7623 24.8214 31.3117 27.0109 31.2196C31.595 31.0305 31.8354 29.976 32.0474 29.046C32.2872 27.9928 32.1526 27.6393 31.9894 27.4322C31.7863 27.1751 30.8241 26.3317 26.9723 26.2788C23.3626 26.2291 20.8376 25.4105 19.4682 23.8461C18.5036 22.7436 18.4126 21.6244 18.4273 21.1364C18.4119 20.5811 18.4896 18.8598 19.8898 17.3124C21.347 15.7023 23.6803 14.8637 26.8258 14.8193C29.9805 14.7736 32.3505 15.5435 33.8736 17.1034C35.5267 18.7961 35.4959 20.7578 35.4874 20.9757L31.9236 20.8306L31.9223 20.876C31.918 20.6121 31.7463 18.3055 26.8763 18.3757C24.7933 18.4048 23.2931 18.8612 22.5386 19.6951C21.9885 20.3027 21.9885 20.9783 21.9895 20.9842C21.9967 21.0662 21.998 21.1478 21.9941 21.2298C22.0629 21.6199 23.1014 22.6688 27.0224 22.7224C31.0151 22.7776 33.4844 23.575 34.7929 25.2331C36.0322 26.8034 35.8049 28.6108 35.5257 29.8342C34.5969 33.9104 30.9555 34.6169 27.1587 34.7734C26.9598 34.7806 26.7629 34.7848 26.5686 34.7848Z" fill="white"/>
</g>
</svg>
