<svg width="43" height="49" viewBox="0 0 43 49" fill="none" xmlns="http://www.w3.org/2000/svg">
<path id="Vector" d="M21.5 48.9998C21.1809 48.9998 20.8621 48.9146 20.5787 48.7447L14.3366 44.9907C13.4933 44.483 13.2221 43.3903 13.7305 42.5492C14.2403 41.708 15.3358 41.4385 16.1788 41.9448L21.5036 45.1475L39.4332 34.4566V14.0628L21.7991 3.83654L3.56679 14.4565V34.6327C4.50181 35.256 6.36695 36.4431 9.288 38.0607C9.91048 38.406 10.7751 38.7556 11.3608 38.4639C12.2313 38.0291 12.7441 36.3686 12.8803 35.5327V15.7076C12.8803 14.7253 13.6791 13.9292 14.6636 13.9292C15.6487 13.9292 16.4468 14.7256 16.4468 15.7076V35.6633C16.4468 35.7388 16.4419 35.8149 16.4321 35.89C16.3757 36.3281 15.7984 40.2122 12.9727 41.6358C11.8801 42.1866 10.053 42.5531 7.55522 41.1693C2.89615 38.5886 0.808564 37.0572 0.722072 36.9935C0.267665 36.658 0 36.1279 0 35.5647V13.4353C0 12.8032 0.336137 12.2185 0.883916 11.9L20.8978 0.242878C21.4522 -0.0798685 22.1385 -0.0815018 22.6938 0.241245L42.1131 11.5034C42.6619 11.8219 42.9997 12.4073 42.9997 13.0404V35.4657C42.9997 36.0913 42.6701 36.6708 42.1318 36.9922L22.415 48.748C22.1336 48.9162 21.8168 48.9998 21.5 48.9998Z" fill="white"/>
</svg>
