<svg width="49" height="49" viewBox="0 0 49 49" fill="none" xmlns="http://www.w3.org/2000/svg">
<g id="Group">
<path id="Vector" d="M48.5737 23.4758C48.5737 23.4758 27.0118 1.8416 25.6155 0.566948C24.219 -0.708685 22.7787 0.566948 22.7787 0.566948C22.7787 0.566948 20.6817 2.67101 17.7706 5.60023L23.2505 11.1199C23.6412 10.9794 24.0614 10.9004 24.5001 10.9004C26.574 10.9004 28.2533 12.5938 28.2533 14.6816C28.2533 15.1235 28.1745 15.5469 28.0354 15.9405L33.0827 21.0254C33.5366 20.8284 34.0379 20.7184 34.5639 20.7184C36.6374 20.7184 38.318 22.4118 38.318 24.4995C38.318 26.5886 36.6371 28.2807 34.5639 28.2807C32.4909 28.2807 30.8107 26.5882 30.8107 24.4995C30.8107 24.0079 30.9066 23.5391 31.0765 23.1083L26.1022 18.0982C26.0491 18.124 25.9959 18.1508 25.9408 18.1733V31.3749C27.299 31.9436 28.2536 33.2927 28.2536 34.8663C28.2536 36.9557 26.574 38.6475 24.5004 38.6475C22.4278 38.6475 20.7472 36.9553 20.7472 34.8663C20.7472 33.2927 21.7028 31.9436 23.0604 31.3749V18.1733C21.7028 17.6042 20.7472 16.2564 20.7472 14.6819C20.7472 14.1034 20.8792 13.5575 21.1104 13.0682L15.733 7.65137C9.37288 14.0576 0.928111 22.5944 0.388235 23.3016C-0.485294 24.4456 0.388235 25.8526 0.388235 25.8526C0.388235 25.8526 21.4252 47.2225 22.8218 48.4533C24.2183 49.6849 25.7903 48.4533 25.7903 48.4533C25.7903 48.4533 47.6133 26.8192 48.5737 25.5877C49.5332 24.3568 48.5737 23.4758 48.5737 23.4758Z" fill="white"/>
</g>
</svg>
