<svg width="466" height="240" viewBox="0 0 466 240" fill="none" xmlns="http://www.w3.org/2000/svg">
<g clip-path="url(#clip0_48_184)">
<path d="M78.7265 105.525C78.7265 105.525 94.4498 89.0142 114.268 114.558L79.5121 142.423C79.5121 142.423 57.6469 123.106 78.7265 105.525Z" fill="white"/>
<path d="M206.134 192.827C210.506 182.525 236.424 121.727 241.272 116.764C246.569 111.341 244.813 111.698 244.813 111.698L244.008 106.655C244.008 106.655 231.486 108.64 229.565 84.893C227.644 61.1458 233.773 60.7899 233.773 60.7899C233.773 60.7899 247.462 42.6044 256.568 51.3414C265.674 60.0783 267.43 79.9 267.43 79.9C267.43 79.9 269.124 87.8839 265.435 88.8056C265.435 88.8056 261.541 94.6373 265.436 101.404C269.332 108.17 268.776 107.173 268.776 107.173C268.776 107.173 283.575 107.568 296.146 108.825V65.7343H308.447L304.035 36.9456L338.757 37.1542L335.831 65.7343H426.126L424.502 195.142L461.715 195.535L463.082 238.392C463.082 238.392 297.443 235.124 251.027 237.716C204.612 240.309 0.714203 236.403 0.714203 236.403V190.651L206.134 192.827Z" fill="white"/>
<path d="M244.01 110.032C244.01 110.032 235.857 117.952 231.036 122.239C226.215 126.526 219.788 137.243 215.681 152.784C211.575 168.324 207.13 186.901 207.13 186.901V191.009C207.13 191.009 223.127 182.941 238.892 184.172C238.892 184.172 237.999 145.639 242.106 129.562C246.212 113.486 244.01 110.032 244.01 110.032Z" fill="#1B3967"/>
<path d="M269.332 108.171C269.332 108.171 287.277 125.632 289.598 129.919C291.92 134.206 302.454 180.619 301.561 192.244C301.561 192.244 290.55 186.72 287.872 187.2C287.872 187.2 253.815 185.29 252.461 185.135C252.461 185.135 265.846 158.054 269.332 108.171Z" fill="#1B3967"/>
<path d="M349.232 193.689L307.988 192.617V207.443H349.232V193.689Z" fill="#1B3967"/>
<path d="M377.264 174.576L350.839 179.935H306.917L330.842 176.005L377.264 174.576Z" fill="#1B3967"/>
<path d="M314.625 37.0341L308.346 36.9455C308.524 33.373 295.053 16.6708 295.053 16.6708C311.818 18.1012 314.625 37.0341 314.625 37.0341Z" fill="#1B3967"/>
<path d="M310.905 18.5771C314.715 19.5988 317.297 21.4179 319.045 23.4943C321.235 6.50054 332.568 0 332.568 0C324.42 12.4995 325.36 26.5052 326.279 32.4984C335.127 22.2082 343.043 30.7222 343.043 30.7222C337.807 29.5304 335.306 36.9455 335.306 36.9455H313.523C314.952 32.1826 310.905 18.5771 310.905 18.5771Z" fill="#1B3967"/>
<path d="M260.199 90.5032C260.334 97.211 250.73 104.666 244.962 106.274C236.205 108.713 232.993 98.9129 231.393 92.4138C229.522 84.8144 228.768 74.9214 230.679 67.4005" stroke="black" stroke-miterlimit="10" stroke-linecap="round" stroke-linejoin="round"/>
<path d="M247.819 94.5515C246.669 96.2263 242.788 97.7368 240.439 97.6596C238.523 97.5982 234.69 95.4847 234.725 93.5984" stroke="black" stroke-miterlimit="10" stroke-linecap="round" stroke-linejoin="round"/>
<path d="M240.439 78.118C239.756 81.1147 239.016 84.5929 235.708 85.7918C236.559 87.0279 238.796 89.0371 240.202 87.8824" stroke="black" stroke-miterlimit="10" stroke-linecap="round" stroke-linejoin="round"/>
<path d="M248.533 79.0712C250.245 83.0967 245.238 78.4053 248.295 79.3084" stroke="black" stroke-miterlimit="10" stroke-linecap="round" stroke-linejoin="round"/>
<path d="M234.25 77.4035C236.131 81.5876 230.668 75.5315 234.725 77.4035" stroke="black" stroke-miterlimit="10" stroke-linecap="round" stroke-linejoin="round"/>
<path d="M253.057 75.7358C252.877 73.6452 248.679 72.5891 247.105 73.3551" stroke="black" stroke-miterlimit="10" stroke-linecap="round" stroke-linejoin="round"/>
<path d="M235.917 70.9729C234.785 69.9326 233.029 70.197 231.632 70.7343" stroke="black" stroke-miterlimit="10" stroke-linecap="round" stroke-linejoin="round"/>
<path d="M262.103 80.2615C265.184 79.5084 267.922 81.7362 267.358 85.2159C266.845 88.3825 262.617 90.2474 260.674 87.4065" stroke="black" stroke-miterlimit="10" stroke-linecap="round" stroke-linejoin="round"/>
<path d="M264.484 91.6936C264.484 94.9775 264.354 98.257 265.436 101.405C266.363 104.102 269.792 107.824 269.959 110.032" stroke="black" stroke-miterlimit="10" stroke-linecap="round" stroke-linejoin="round"/>
<path d="M244.962 107.174C244.483 109.047 244.724 111.342 244.724 113.367" stroke="black" stroke-miterlimit="10" stroke-linecap="round" stroke-linejoin="round"/>
<path d="M267.34 115.748C262.705 119.411 250.903 121.075 247.581 114.558" stroke="black" stroke-miterlimit="10" stroke-linecap="round" stroke-linejoin="round"/>
<path d="M265.435 123.132C259.983 127.479 249.289 124.252 244.01 121.227" stroke="black" stroke-miterlimit="10" stroke-linecap="round" stroke-linejoin="round"/>
<path d="M289.598 204.228C292.464 204.223 296.817 206.273 298.927 203.552C300.804 201.132 300.908 195.278 299.775 192.617" stroke="black" stroke-miterlimit="10" stroke-linecap="round" stroke-linejoin="round"/>
<path d="M262.638 186.186C257.182 185.932 251.696 184.807 246.174 184.583C241.127 184.377 235.952 183.91 230.897 184.362C222.779 185.083 213.34 186.432 207.13 192.228C207.422 192.3 207.394 192.115 207.647 192.081" stroke="black" stroke-miterlimit="10" stroke-linecap="round" stroke-linejoin="round"/>
<path d="M253.057 198.869C246.381 199.15 239.109 195.965 232.416 196.547C230.205 196.74 227.992 196.75 225.858 197.3C224.414 197.673 221.655 199.952 220.323 199.226" stroke="black" stroke-miterlimit="10" stroke-linecap="round" stroke-linejoin="round"/>
<path d="M220.859 196.725C219.505 197.507 218.254 198.716 216.574 198.69" stroke="black" stroke-miterlimit="10" stroke-linecap="round" stroke-linejoin="round"/>
<path d="M215.681 195.654C213.91 196.678 212.109 199.033 210.146 199.405" stroke="black" stroke-miterlimit="10" stroke-linecap="round" stroke-linejoin="round"/>
<path d="M212.289 193.689C211.845 194.969 210.072 195.144 209.254 196.19" stroke="black" stroke-miterlimit="10" stroke-linecap="round" stroke-linejoin="round"/>
<path d="M68.0253 104.555C65.4671 104.555 62.0191 104.345 59.0981 104.197C53.9389 103.937 12.798 117.814 9.25715 119.748C12.0639 120.91 57.8754 196.933 58.2083 198.822C58.2068 198.666 58.2125 198.506 58.2039 198.35C58.2039 198.523 58.2039 198.696 58.2039 198.869" stroke="black" stroke-miterlimit="10" stroke-linecap="round" stroke-linejoin="round"/>
<path d="M382.798 201.548H371.015L349.232 207.443H313.166L307.989 210.48H354.41L382.798 201.548Z" fill="black"/>
<path d="M265.435 54.1821C265.435 54.1821 278.172 56.147 274.958 71.8661C271.744 87.5851 265.521 80.7287 265.521 80.7287C265.521 80.7287 261.21 78.9411 258.532 74.4211C255.854 69.9012 258.532 67.7577 258.532 65.4355C258.532 63.1134 252.698 60.0768 254.722 55.9684C256.746 51.86 242.077 53.8249 238.075 57.7546C234.073 61.6844 230.546 67.9534 230.546 67.9534C230.546 67.9534 225.441 63.8279 226.811 58.2905C228.181 52.7531 223.486 48.6447 233.957 49.7165C233.957 49.7165 228.061 44.5363 240.44 43.6432C252.82 42.7501 249.428 36.6768 257.462 37.9272C265.496 39.1776 266.625 52.3959 265.435 54.1821Z" fill="black"/>
<path d="M87.6052 100.731C87.6052 100.731 78.7979 86.6934 71.6562 90.5032C64.5144 94.3129 63.8002 100.506 73.0845 111.7C73.0845 111.7 77.6924 105.379 87.6052 100.731Z" fill="black"/>
<path d="M100.352 133.086C90.5132 140.457 80.9891 144.365 79.0798 141.815C77.1705 139.264 83.5989 131.22 93.438 123.849C103.277 116.477 112.801 112.569 114.71 115.12C116.62 117.67 110.191 125.714 100.352 133.086Z" fill="#1B3967"/>
<path d="M119.506 131.23H196.874C196.874 131.23 199.255 128.846 201.398 141.47C203.54 154.094 209.254 200.029 209.254 200.029L244.01 199.225C244.01 199.225 249.726 201.294 250.082 204.964H125.219C125.219 204.964 114.124 139.088 115.03 136.944C115.935 134.801 115.221 132.422 119.506 131.23Z" fill="black"/>
<path d="M79.9877 204.965C79.9877 204.965 71.4191 195.296 54.7545 196.725C38.0899 198.154 32.8521 206.014 32.8521 206.014L79.9877 204.965Z" fill="black"/>
<path d="M276.826 188.207C269.772 188.207 264.054 187.304 264.054 186.189C264.054 185.075 269.772 184.172 276.826 184.172C283.88 184.172 289.598 185.075 289.598 186.189C289.598 187.304 283.88 188.207 276.826 188.207Z" fill="black"/>
<path d="M276.826 215.302C276.826 215.302 288.527 215.124 289.598 207.443C290.67 199.762 289.598 186.189 289.598 186.189C289.598 186.189 286.122 188.843 276.826 188.207C267.53 187.571 264.054 186.189 264.054 186.189V207.443C264.054 207.443 263.16 214.409 276.826 215.302Z" stroke="black" stroke-miterlimit="10" stroke-linecap="round" stroke-linejoin="round"/>
<path d="M257.996 190.116C257.996 190.116 252.997 190.652 252.461 194.939C251.926 199.226 254.932 205.165 264.052 204.965V201.298C264.052 201.298 257.461 200.478 257.461 196.727C257.461 192.976 264.052 193.69 264.052 193.69V190.118H257.996V190.116Z" stroke="black" stroke-miterlimit="10" stroke-linecap="round" stroke-linejoin="round"/>
<path d="M270.196 106.7C273.558 104.577 296.057 105.409 302.578 106.462C313.165 108.171 321.394 112.486 329.711 119.136C336.667 124.701 340.953 131.58 341.625 140.687C342.143 147.713 337.655 170.13 335.424 173.385L334.589 175.889L306.917 179.935L308.286 196.475L300.51 196.19V188.39L289.598 131.05L271.744 114.32L269.602 107.714L270.196 106.7Z" fill="black"/>
<path d="M377.561 174.814C378.429 178.886 377.888 184.78 378.275 188.153" stroke="black" stroke-miterlimit="10" stroke-linecap="round" stroke-linejoin="round"/>
<path d="M350.659 181.245C349.961 183.5 350.876 192.736 350.183 193.154" stroke="black" stroke-miterlimit="10" stroke-linecap="round" stroke-linejoin="round"/>
<path d="M307.809 181.245C307.809 184.739 307.617 188.414 308.286 191.725" stroke="black" stroke-miterlimit="10" stroke-linecap="round" stroke-linejoin="round"/>
<path d="M378.275 188.39C370.013 192.959 358.666 191.875 349.764 194.316C349.508 194.073 349.715 193.895 349.708 193.869" stroke="black" stroke-miterlimit="10" stroke-linecap="round" stroke-linejoin="round"/>
<path d="M371.133 201.728C371.133 199.771 371.52 197.376 370.895 195.535" stroke="black" stroke-miterlimit="10" stroke-linecap="round" stroke-linejoin="round"/>
<path d="M382.797 201.966C382.797 206.08 383.685 211.1 383.001 215.031C380.486 215.487 361.106 222.225 356.857 223.672C351.016 225.66 313.028 222.127 309.018 221.67C306.37 221.367 308.286 214.724 307.988 212.083" stroke="black" stroke-miterlimit="10" stroke-linecap="round" stroke-linejoin="round"/>
<path d="M355.421 210.54C355.545 214.122 354.803 218.023 355.658 221.496" stroke="black" stroke-miterlimit="10" stroke-linecap="round" stroke-linejoin="round"/>
<path d="M348.041 184.58C337.734 185.088 327.23 186.625 316.856 186.009" stroke="black" stroke-miterlimit="10" stroke-linecap="round" stroke-linejoin="round"/>
<path d="M380.179 207.444C372.981 209.499 365.687 211.286 358.515 213.398" stroke="black" stroke-miterlimit="10" stroke-linecap="round" stroke-linejoin="round"/>
<path d="M338.757 37.1542L335.661 65.7343H308.286L304.035 36.9456C304.035 36.9456 334.06 37.2128 338.757 37.1542Z" stroke="black" stroke-miterlimit="10" stroke-linecap="round" stroke-linejoin="round"/>
<path d="M374.704 192.617C380.179 193.154 421.595 194.037 424.459 193.689C424.525 192.936 424.989 71.3488 426.126 65.7343" stroke="black" stroke-miterlimit="10" stroke-linecap="round" stroke-linejoin="round"/>
<path d="M296.146 105.032C297.627 92.1494 296.155 78.6482 296.896 65.7586C300.021 66.7332 406.631 65.5499 421.127 64.7811C422.072 64.7311 423.035 64.7811 423.984 64.7811" stroke="black" stroke-miterlimit="10" stroke-linecap="round" stroke-linejoin="round"/>
<path d="M425.173 108.604C416.295 109.146 407.049 108.146 398.099 107.877C382.071 107.397 365.93 108.129 349.884 108.129C337.188 108.129 324.54 108.72 311.904 108.826" stroke="black" stroke-miterlimit="10" stroke-linecap="round" stroke-linejoin="round"/>
<path d="M424.459 150.046L341.139 151.236" stroke="black" stroke-miterlimit="10" stroke-linecap="round" stroke-linejoin="round"/>
<path d="M119.625 191.724C112.36 191.717 68.0867 192.223 66.2084 190.652" stroke="black" stroke-miterlimit="10" stroke-linecap="round" stroke-linejoin="round"/>
<path d="M463.857 193.867C457.016 195.667 434.359 194.826 426.126 194.939" stroke="black" stroke-miterlimit="10" stroke-linecap="round" stroke-linejoin="round"/>
<path d="M465.286 228.878C460.901 230.064 455.459 229.235 450.979 229.235C437.32 229.234 423.661 228.805 410.003 228.432C357.111 226.988 303.901 227.833 251.014 229.137C198.517 230.43 146.085 232.342 93.5714 230.752C76.804 230.244 58.621 231.34 42.1335 227.805" stroke="black" stroke-miterlimit="10" stroke-linecap="round" stroke-linejoin="round"/>
<path d="M461.715 237.809C456.889 240.277 448.021 238.524 442.846 238.524C426.702 238.522 410.651 237.403 394.524 236.826C344.323 235.033 293.824 236.755 243.613 237.888C192.905 239.033 142.12 239.973 91.406 238.61C71.909 238.085 52.5848 236.285 33.1349 235.023C29.5712 234.791 12.8138 235.933 11.4268 233.521" stroke="black" stroke-miterlimit="10" stroke-linecap="round" stroke-linejoin="round"/>
<path d="M37.1372 226.734C25.419 226.31 12.1581 227.926 0.714188 224.948" stroke="black" stroke-miterlimit="10" stroke-linecap="round" stroke-linejoin="round"/>
<path d="M277.1 122.06C276.673 130.218 276.459 137.968 273.814 146.013C270.751 155.331 264.951 163.483 262.103 172.79" stroke="white" stroke-miterlimit="10" stroke-linecap="round" stroke-linejoin="round"/>
<path d="M231.393 128.133C226.37 132.73 230.472 144.515 231.466 149.881C232.863 157.434 238.276 167.224 237.464 174.933" stroke="white" stroke-miterlimit="10" stroke-linecap="round" stroke-linejoin="round"/>
<path d="M224.966 152.784C225.076 158.231 221.512 165.33 220.333 170.749C219.615 174.053 218.936 181.504 217.11 183.507" stroke="white" stroke-miterlimit="10" stroke-linecap="round" stroke-linejoin="round"/>
<path d="M286.742 134.564C286.485 136.899 284.866 138.938 283.904 141.041C281.768 145.714 281.284 150.37 280.753 155.457C280.033 162.354 280.26 175.809 280.26 182.743C280.26 182.064 280.314 174.897 280.314 174.219" stroke="white" stroke-miterlimit="10" stroke-linecap="round" stroke-linejoin="round"/>
<path d="M332.092 39.5349C332.563 44.9508 331.645 58.0377 330.306 63.4707" stroke="black" stroke-miterlimit="10" stroke-linecap="round" stroke-linejoin="round"/>
<path d="M322.451 39.8921C322.872 43.8319 321.886 48.0131 322.085 52.0358C322.178 53.9378 322.375 55.7969 322.449 57.6989C322.465 58.0805 322.381 60.6913 322.451 59.1837" stroke="black" stroke-miterlimit="10" stroke-linecap="round" stroke-linejoin="round"/>
<path d="M313.523 39.8921C313.535 43.7575 313.852 47.473 314.328 51.3156C314.58 53.3547 316.032 61.5215 315.667 61.6844" stroke="black" stroke-miterlimit="10" stroke-linecap="round" stroke-linejoin="round"/>
<path d="M306.857 195.535C305.587 195.807 304.029 195.984 302.811 195.535" stroke="black" stroke-miterlimit="10" stroke-linecap="round" stroke-linejoin="round"/>
<path d="M79.5121 142.423C79.5121 142.423 62.8489 125.275 73.0845 111.7C83.3201 98.1241 97.6036 92.8839 114.268 114.558C114.268 114.558 107.126 113.606 97.128 121.227C87.1295 128.848 79.0364 136.946 79.5121 142.423Z" stroke="black" stroke-miterlimit="10" stroke-linecap="round" stroke-linejoin="round"/>
<path d="M391.093 71.4502H420.413V77.0333H391.093V71.4502Z" fill="#1B3967"/>
<path d="M391.093 114.32H420.413V119.904H391.093V114.32Z" fill="#1B3967"/>
<path d="M391.093 155.762H420.413V161.345H391.093V155.762Z" fill="#1B3967"/>
</g>
<defs>
<clipPath id="clip0_48_184">
<rect width="466" height="240" fill="white" transform="matrix(-1 0 0 1 466 0)"/>
</clipPath>
</defs>
</svg>
