<svg width="478" height="399" viewBox="0 0 478 399" fill="none" xmlns="http://www.w3.org/2000/svg">
<g clip-path="url(#clip0_48_584)">
<path d="M340.875 61.1272C340.875 61.1272 304.599 117.868 294.701 85.2602C277.891 78.1351 237.647 138.199 189.178 163.742C186.6 167.612 183.997 183.811 207.91 180.709C221.131 178.993 235.754 174.442 245.483 166.45C272.811 144.003 284.527 134.996 284.527 134.996C284.527 134.996 306.691 155.03 308.664 183.322L428.528 181.417C428.528 181.417 417.768 119.216 340.875 61.1272Z" fill="#0B376B"/>
<path d="M383.157 195.646C383.157 195.646 388.28 262.051 388.829 270.77C388.829 270.77 402.751 280.921 416.415 273.782C430.079 266.642 430.337 194.565 430.337 194.565L383.157 195.646Z" fill="#0B376B"/>
<path d="M186.958 370.45C186.958 370.45 181.802 395.13 162.981 399C162.981 399 105.23 372.167 111.934 358.235C118.637 344.302 136.684 352.042 147.254 351.01C157.825 349.978 157.825 349.978 157.825 349.978C157.825 349.978 163.497 370.539 186.958 370.45Z" fill="#0B376B"/>
<path d="M237.402 370.45C237.402 370.45 210.935 385.068 208.099 391.002C205.263 396.936 208.099 399 208.099 399H268.34C268.34 399 276.163 399.258 275.389 389.196C274.616 379.133 271.264 363.052 271.264 363.052C271.264 363.052 246.083 372.345 237.402 370.45Z" fill="#0B376B"/>
<path d="M3.30417 198.101C3.15979 198.101 3.01129 198.07 2.8731 198.006C0.750752 197.027 -0.272264 194.947 0.0659915 192.292C0.48881 188.998 3.15979 184.936 6.31752 184.372C11.5729 183.437 17.4593 183.782 23.1519 184.117C25.9198 184.28 28.531 184.434 31.0349 184.445C46.079 184.509 63.5466 184.527 80.5955 183.918C100.88 183.196 121.549 183.074 141.539 182.957L142.185 182.952C147.807 182.919 153.525 182.779 159.056 182.643C169.992 182.368 181.299 182.09 192.432 182.639C212.94 183.644 323.077 181.978 395.959 180.874C430.1 180.358 454.78 179.976 458.936 180.052C459.971 180.073 461.174 179.997 462.479 179.918C466.765 179.666 472.101 179.349 475.172 181.842C479.116 185.049 478.146 192.045 476.95 195.673C476.771 196.216 476.185 196.511 475.649 196.33C475.106 196.152 474.813 195.568 474.993 195.027C475.952 192.115 476.95 185.947 473.871 183.444C471.42 181.456 466.528 181.747 462.599 181.98C461.256 182.059 459.955 182.135 458.903 182.116C454.747 182.034 428.823 182.441 395.99 182.938C323.079 184.042 212.901 185.72 192.331 184.701C181.272 184.158 170.01 184.436 159.108 184.707C153.568 184.843 147.838 184.988 142.199 185.019L141.552 185.023C121.576 185.14 100.924 185.262 80.6677 185.985C63.5796 186.591 46.0831 186.573 31.0267 186.511C28.4671 186.501 25.827 186.344 23.0302 186.181C17.4593 185.848 11.6945 185.51 6.67847 186.406C4.72731 186.754 2.46265 189.801 2.10996 192.557C1.95527 193.774 2.10996 195.382 3.73317 196.129C4.25087 196.367 4.47568 196.98 4.23849 197.498C4.0673 197.878 3.69192 198.101 3.30417 198.101Z" fill="black"/>
<path d="M11.0386 197.671C10.4714 197.671 10.0094 197.211 10.0073 196.643C10.0053 196.074 10.4652 195.609 11.0345 195.607C14.615 195.593 369.305 194.222 382.439 193.964L383.231 193.948C404.308 193.537 426.098 193.114 447.487 193.972C453.118 194.201 458.792 194.022 464.276 193.855C467.877 193.741 471.602 193.628 475.282 193.628C475.851 193.628 476.313 194.09 476.313 194.66C476.313 195.229 475.851 195.692 475.282 195.692C471.633 195.692 467.927 195.807 464.338 195.917C458.82 196.09 453.122 196.266 447.402 196.036C426.082 195.174 404.316 195.599 383.27 196.012L382.478 196.028C369.329 196.286 14.6233 197.657 11.0427 197.671H11.0386Z" fill="black"/>
<path d="M332.625 194.66C332.614 194.66 332.604 194.66 332.594 194.66C332.027 194.643 331.577 194.168 331.593 193.597C331.631 192.315 331.529 191.083 331.422 189.776C331.315 188.457 331.204 187.093 331.247 185.683C331.265 185.115 331.802 184.715 332.311 184.684C332.88 184.703 333.328 185.177 333.309 185.749C333.268 187.043 333.369 188.29 333.479 189.611C333.586 190.913 333.693 192.261 333.656 193.659C333.639 194.216 333.179 194.66 332.625 194.66Z" fill="black"/>
<path d="M154.558 346.024C154.461 346.024 154.362 346.009 154.263 345.98C153.716 345.817 153.407 345.243 153.568 344.696C155.661 337.67 160.603 330.549 164.965 324.266L166.5 322.048C172.667 313.077 179.255 304.46 185.622 296.127C195.221 283.563 206.278 273.49 217.983 262.827C221.013 260.068 224.055 257.296 227.081 254.47C238.88 243.442 250.336 235.167 262.105 229.173C278.799 220.665 295.959 214.184 313.111 209.911C318.174 208.65 323.384 207.758 328.421 206.898C330.249 206.586 332.074 206.272 333.895 205.942C334.957 205.75 336.327 205.391 337.777 205.013C341.972 203.919 346.728 202.679 349.777 203.651C350.319 203.824 350.618 204.404 350.445 204.949C350.272 205.49 349.696 205.789 349.148 205.618C346.672 204.823 342.026 206.035 338.297 207.011C336.805 207.399 335.401 207.767 334.26 207.975C332.431 208.305 330.601 208.619 328.768 208.933C323.768 209.787 318.597 210.673 313.608 211.915C296.607 216.151 279.591 222.576 263.035 231.012C251.441 236.919 240.139 245.085 228.481 255.979C225.449 258.813 222.403 261.589 219.365 264.355C207.73 274.956 196.739 284.965 187.255 297.382C180.903 305.694 174.331 314.291 168.195 323.218L166.655 325.445C162.381 331.6 157.538 338.577 155.54 345.287C155.412 345.733 155.001 346.024 154.558 346.024Z" fill="black"/>
<path d="M188.932 371.482C188.52 371.482 188.13 371.232 187.971 370.825C187.763 370.295 188.025 369.696 188.557 369.49C190.757 368.629 193.039 366.008 195.05 363.696C195.901 362.716 196.71 361.789 197.454 361.054C203.776 354.806 209.143 349.599 214.79 344.49L214.949 344.348C223.552 336.566 231.676 329.218 238.93 320.576C249.573 307.9 261.135 296.044 271.039 286.12L272.128 285.014C274.502 282.595 277.456 279.584 279.939 278.124C282.507 276.609 286.16 276.966 289.386 277.286C290.293 277.375 291.166 277.46 291.954 277.495C308.497 278.223 326.027 276.743 344.094 273.117C351.804 271.571 359.582 269.721 367.102 267.934L372.856 266.572C373.572 266.402 374.329 266.244 375.104 266.083C378.394 265.391 382.119 264.609 384.167 262.71C384.582 262.322 385.236 262.344 385.623 262.764C386.011 263.18 385.988 263.835 385.57 264.221C383.107 266.51 379.081 267.356 375.529 268.101C374.77 268.26 374.03 268.415 373.331 268.578L367.582 269.94C360.044 271.732 352.247 273.585 344.505 275.14C326.27 278.797 308.551 280.281 291.867 279.559C291.044 279.522 290.134 279.433 289.186 279.342C286.273 279.055 282.975 278.733 280.985 279.903C278.737 281.227 275.769 284.25 273.601 286.461L272.5 287.58C262.624 297.475 251.101 309.292 240.508 321.905C233.163 330.655 224.606 338.395 216.329 345.879L216.17 346.024C210.552 351.107 205.203 356.297 198.902 362.524C198.187 363.23 197.417 364.115 196.603 365.054C194.435 367.546 191.978 370.371 189.303 371.416C189.184 371.459 189.056 371.482 188.932 371.482Z" fill="black"/>
<path d="M198.637 275.874C198.335 275.874 198.03 275.751 197.816 275.526C197.005 274.679 196.644 270.401 196.5 267.924C196.192 262.565 196.667 257.38 197.991 251.603C199.8 243.729 204.618 235.2 210.564 229.346C219.15 220.896 228.983 214.279 238.996 210.212C244.513 207.971 250.216 206.026 255.736 204.146C257.619 203.504 259.504 202.862 261.383 202.208C264.992 200.955 273.098 197.576 279.411 194.546C279.919 194.305 280.54 194.515 280.787 195.031C281.033 195.545 280.816 196.16 280.302 196.408C273.927 199.467 265.722 202.885 262.059 204.159C260.176 204.813 258.289 205.457 256.4 206.101C250.909 207.971 245.233 209.907 239.772 212.124C230.004 216.091 220.402 222.556 212.008 230.818C206.412 236.327 201.699 244.666 200 252.065C198.721 257.647 198.261 262.65 198.558 267.806C198.707 270.353 199.094 273.635 199.387 274.209C199.781 274.619 199.726 275.218 199.313 275.614C199.127 275.79 198.884 275.874 198.637 275.874Z" fill="black"/>
<path d="M237.402 368.041C237.278 368.041 237.154 368.018 237.032 367.973C234.145 366.867 231.579 362.963 229.521 359.83C229.18 359.314 228.861 358.827 228.56 358.385C225.462 353.842 222.244 348.967 219.953 343.685C219.728 343.163 219.967 342.554 220.489 342.327C221.007 342.106 221.619 342.339 221.846 342.864C224.065 347.978 227.221 352.763 230.263 357.223C230.568 357.675 230.898 358.173 231.243 358.699C233.039 361.432 235.502 365.18 237.769 366.049C238.301 366.254 238.567 366.85 238.363 367.383C238.206 367.789 237.816 368.041 237.402 368.041Z" fill="black"/>
<path d="M268.339 365.29C267.77 365.29 267.308 364.827 267.308 364.258C267.308 344.29 265.291 325.344 261.145 306.338C261.022 305.781 261.374 305.232 261.933 305.11C262.496 304.986 263.039 305.339 263.16 305.898C267.339 325.049 269.373 344.139 269.373 364.256C269.371 364.827 268.909 365.29 268.339 365.29Z" fill="black"/>
<path d="M337.389 303.937C333.672 303.937 329.956 303.855 326.276 303.632C320.592 303.283 297.485 301.289 291.78 300.263C283.6 298.79 275.734 293.508 276.594 285.029C276.65 284.463 277.169 284.046 277.724 284.108C278.289 284.164 278.704 284.669 278.644 285.239C277.815 293.425 286.742 297.258 292.147 298.232C297.667 299.225 320.914 301.236 326.4 301.572C334.937 302.094 343.719 301.834 352.213 301.584C356.346 301.461 360.475 301.341 364.582 301.304C370.744 301.248 378.415 301.178 384.922 299.553C385.475 299.419 386.034 299.752 386.172 300.305C386.308 300.858 385.972 301.417 385.421 301.556C378.675 303.238 370.87 303.31 364.6 303.366C360.506 303.403 356.391 303.523 352.27 303.644C347.378 303.791 342.385 303.937 337.389 303.937Z" fill="black"/>
<path d="M421.788 287.827C421.489 287.827 421.194 287.697 420.99 287.448C420.629 287.008 420.693 286.358 421.134 285.997C424.541 283.202 426.954 277.835 427.002 272.941C427.027 270.401 426.42 266.826 423.39 264.245C422.957 263.876 422.906 263.224 423.273 262.79C423.644 262.355 424.296 262.305 424.727 262.673C427.606 265.125 429.106 268.683 429.064 272.96C429.013 278.421 426.288 284.44 422.44 287.592C422.25 287.751 422.017 287.827 421.788 287.827Z" fill="black"/>
<path d="M394.154 314.031C393.985 314.031 393.816 313.989 393.659 313.903C393.16 313.628 392.976 313.001 393.25 312.501C397.462 304.806 400.379 293.374 394.735 286.475C394.375 286.036 394.438 285.386 394.88 285.024C395.319 284.663 395.969 284.727 396.33 285.169C402.627 292.864 399.58 305.236 395.059 313.494C394.87 313.837 394.517 314.031 394.154 314.031Z" fill="black"/>
<path d="M402.402 312.311C401.92 312.311 401.487 311.969 401.392 311.473C401.284 310.914 401.652 310.373 402.21 310.266C405.366 309.659 406.511 302.464 406.529 296.482C406.532 295.914 406.994 295.454 407.561 295.454C408.107 295.363 408.594 295.919 408.592 296.49C408.578 300.899 407.965 311.263 402.598 312.293C402.532 312.305 402.466 312.311 402.402 312.311Z" fill="black"/>
<path d="M409.969 310.592C409.551 310.592 409.155 310.334 409.002 309.919C408.804 309.382 409.076 308.79 409.611 308.592C412.145 307.655 414.041 301.271 413.752 297.954C413.703 297.386 414.123 296.885 414.689 296.835C415.278 296.781 415.759 297.207 415.806 297.772C416.118 301.341 414.227 309.083 410.328 310.528C410.209 310.571 410.087 310.592 409.969 310.592Z" fill="black"/>
<path d="M413.748 310.935C413.445 310.935 413.142 310.8 412.937 310.542C412.585 310.095 412.661 309.446 413.109 309.094C416.361 306.532 419.127 299.747 420.319 294.527C421.351 290.022 420.406 286.676 419.315 282.801C418.774 280.888 418.218 278.909 417.885 276.688C417.801 276.124 418.187 275.6 418.752 275.515C419.313 275.433 419.839 275.817 419.923 276.382C420.237 278.477 420.777 280.389 421.299 282.24C422.421 286.215 423.479 289.968 422.33 294.988C421.348 299.277 418.574 307.415 414.385 310.714C414.196 310.86 413.971 310.935 413.748 310.935Z" fill="black"/>
<path d="M391.06 303.023C390.856 303.023 390.652 302.965 390.475 302.839C388.29 301.329 386.902 298.41 386.453 294.397C385.636 287.122 388.127 276.962 391.677 273.084C392.065 272.665 392.721 272.636 393.135 273.02C393.554 273.408 393.585 274.058 393.199 274.479C390.353 277.586 387.682 286.864 388.501 294.168C388.767 296.538 389.528 299.675 391.646 301.143C392.116 301.467 392.232 302.111 391.908 302.577C391.708 302.866 391.386 303.023 391.06 303.023Z" fill="black"/>
<path d="M428.528 182.451C428.227 182.451 427.932 182.321 427.726 182.069C427.367 181.625 427.435 180.977 427.876 180.616C432.474 176.884 445.373 153.855 447.136 148.606C450.112 139.745 453.049 130.244 454.351 120.799C456.663 104.014 452.913 85.448 444.795 73.5012C435.303 59.5317 419.443 56.9991 402.357 66.7208C402.293 66.76 402.225 66.7868 402.152 66.8096C400.521 67.7632 384.493 80.1558 376.068 91.9994C375.738 92.4659 375.094 92.5711 374.63 92.2409C374.166 91.9106 374.059 91.2646 374.389 90.8022C382.569 79.3095 398.559 66.4298 401.346 64.9416L401.338 64.9271C419.457 54.6151 436.347 57.3892 446.499 72.3412C454.887 84.6864 458.771 103.82 456.393 121.082C455.067 130.694 452.101 140.307 449.089 149.263C447.239 154.78 434.103 178.215 429.178 182.22C428.986 182.374 428.757 182.451 428.528 182.451Z" fill="black"/>
<path d="M294.818 81.8112C291.815 81.8112 289.123 80.5295 285.925 78.4427C279.533 74.2712 280.263 66.2296 280.849 59.7691L281.001 58.0229C281.141 56.2808 281.078 54.0228 281.012 51.6346C280.88 46.9162 280.741 42.0367 282.039 39.0851C282.27 38.565 282.878 38.3338 283.398 38.5547C283.92 38.7838 284.157 39.3927 283.928 39.9149C282.816 42.4434 282.952 47.296 283.074 51.5768C283.142 54.0228 283.206 56.3345 283.056 58.188L282.903 59.9508C282.34 66.1698 281.7 73.2165 287.053 76.7089C291.605 79.6791 294.608 80.7338 299.383 78.6656C309.233 74.4054 316.141 63.6372 319.063 55.7112C319.259 55.1766 319.859 54.9021 320.387 55.1002C320.922 55.2963 321.196 55.8907 320.998 56.4253C317.937 64.7332 310.652 76.0422 300.201 80.5604C298.221 81.4211 296.472 81.8112 294.818 81.8112Z" fill="black"/>
<path d="M295.309 70.4341C293.133 70.4341 290.582 69.5734 288.593 66.3886C288.292 65.9077 288.439 65.2699 288.921 64.9685C289.402 64.6671 290.041 64.8116 290.34 65.2967C291.531 67.2018 292.997 68.2008 294.822 68.3515C297.974 68.5806 301.152 66.2874 302.111 65.4618C302.177 65.3132 302.287 65.177 302.433 65.0738C302.773 64.8281 303.384 64.727 303.747 64.9582C304.102 65.1852 304.285 65.6166 304.203 66.0336C304.015 66.983 300.257 69.6725 296.936 70.2835C296.431 70.3743 295.882 70.4341 295.309 70.4341Z" fill="black"/>
<path d="M297.007 57.2386C296.136 57.2386 295.417 56.9867 294.856 56.4831C292.842 54.6729 293.822 50.487 294.608 47.1226C294.721 46.6417 294.825 46.1958 294.909 45.7975C295.029 45.2381 295.588 44.8934 296.132 45.0007C296.689 45.1184 297.044 45.6654 296.928 46.2247C296.842 46.6313 296.735 47.0958 296.619 47.5911C296.099 49.8141 295.132 53.9526 296.235 54.9454C296.741 55.3954 297.912 55.0816 298.564 54.8546C299.104 54.6626 299.69 54.9495 299.878 55.4882C300.068 56.027 299.783 56.6152 299.245 56.803C298.413 57.0941 297.667 57.2386 297.007 57.2386Z" fill="black"/>
<path d="M306.032 48.3465C305.768 48.3465 305.416 48.3032 304.962 48.2165C304.43 48.1133 304.069 47.6179 304.135 47.0792C304.238 46.2102 304.665 45.7664 305.007 45.4093C305.092 45.3227 305.182 45.2277 305.275 45.1162C305.552 44.7798 306.005 44.658 306.418 44.8046C306.449 44.8149 306.476 44.8273 306.505 44.8417C306.587 44.85 306.668 44.8686 306.746 44.8954C307.059 45.011 307.301 45.2711 307.391 45.593C307.581 46.2783 307.816 47.1328 307.323 47.783C307.035 48.1566 306.602 48.3465 306.032 48.3465Z" fill="black"/>
<path d="M287.674 50.6438C287.49 50.6438 287.309 50.5943 287.152 50.5035C287.138 50.4973 287.123 50.489 287.111 50.4828C286.632 50.4828 286.139 50.1691 286.015 49.7088C285.927 49.3786 286.005 49.0834 286.17 48.8275C286.259 48.3651 286.568 48.0018 286.832 47.6922C286.975 47.523 287.142 47.3351 287.272 47.1122C287.556 46.6168 288.189 46.4497 288.68 46.7304C289.173 47.0152 289.344 47.6447 289.062 48.1401C289.037 48.1835 289.012 48.2268 288.986 48.2681C289.091 48.5013 289.097 48.7593 289.025 48.9946C288.948 49.3951 288.664 50.489 287.847 50.6294C287.785 50.6376 287.729 50.6438 287.674 50.6438Z" fill="black"/>
<path d="M309.51 38.5546C309.06 38.5546 308.648 38.2594 308.52 37.8074C308.256 36.8847 307.344 36.4946 306.624 36.3316C304.98 35.96 302.895 36.4451 302.06 37.3863C301.68 37.8115 301.029 37.8487 300.604 37.473C300.179 37.0932 300.138 36.443 300.517 36.0158C301.858 34.5049 304.679 33.7701 307.082 34.3212C308.864 34.7257 310.079 35.7619 310.502 37.2398C310.659 37.7888 310.343 38.3585 309.794 38.5154C309.697 38.5422 309.6 38.5546 309.51 38.5546Z" fill="black"/>
<path d="M295.39 39.37C295.107 39.37 294.827 39.2523 294.621 39.0253C293.612 37.8942 291.486 37.568 289.895 38.2946C289.38 38.5278 288.767 38.3028 288.53 37.7827C288.295 37.2626 288.524 36.6516 289.041 36.4163C291.483 35.3017 294.538 35.8363 296.159 37.6506C296.539 38.0737 296.502 38.726 296.077 39.1078C295.881 39.2833 295.635 39.37 295.39 39.37Z" fill="black"/>
<path d="M332.14 53.9588C331.746 53.9588 331.368 53.7317 331.197 53.3457C330.966 52.8235 331.201 52.2146 331.721 51.9834C334.25 50.8606 334.565 49.1763 334.386 47.9606C334.136 46.2722 332.804 44.8191 331.828 44.6952C331.635 44.6705 331.142 44.6044 330.715 45.6241C330.496 46.1483 329.894 46.396 329.366 46.1772C328.842 45.9584 328.594 45.3537 328.813 44.8273C329.465 43.2628 330.659 42.4805 332.084 42.6477C334.107 42.9016 336.057 45.1514 336.426 47.6613C336.82 50.3404 335.411 52.6047 332.559 53.8721C332.422 53.9299 332.282 53.9588 332.14 53.9588Z" fill="black"/>
<path d="M335.718 69.0079C335.574 69.0079 335.426 68.9769 335.285 68.9129C328.827 65.9262 327.776 53.9547 327.726 47.0855C327.722 46.5158 328.18 46.0493 328.749 46.0452C329.37 46.0617 329.785 46.5013 329.789 47.0689C329.82 51.0774 330.366 64.3617 336.152 67.0388C336.669 67.2782 336.892 67.8912 336.655 68.4093C336.479 68.785 336.106 69.0079 335.718 69.0079Z" fill="black"/>
<path d="M296.273 88.3584C295.965 88.3584 295.66 88.2222 295.456 87.958C295.107 87.5059 295.19 86.8578 295.642 86.5111C297.591 85.0043 298.909 82.8907 300.305 80.6533C300.816 79.8318 301.328 79.0123 301.87 78.2259C302.192 77.7532 302.836 77.6377 303.304 77.9638C303.772 78.2858 303.89 78.9298 303.566 79.3983C303.044 80.1579 302.549 80.9505 302.054 81.7451C300.627 84.0383 299.148 86.412 296.904 88.1437C296.714 88.2862 296.493 88.3584 296.273 88.3584Z" fill="black"/>
<path d="M334.167 41.4381C334.167 41.4381 339.887 11.5649 330.981 8.74541C322.079 5.92796 328.277 0.400399 317.865 1.42624C307.454 2.45208 309.877 0.140327 296.829 0.00203461C283.786 -0.138322 278.908 7.47807 280.832 12.4731C282.759 17.4661 269.839 14.372 270.617 21.1133C271.39 27.8545 269.814 23.7718 270.138 30.6864C270.462 37.601 286.614 37.6175 292.525 28.9485C298.434 20.2773 303.075 24.2176 306.73 26.5892C310.382 28.9588 312.08 23.9637 318.107 27.064C324.137 30.1663 315 41.4505 320.54 45.0812C326.07 48.7119 326.835 36.7341 334.167 41.4381Z" fill="black"/>
<path d="M49.3482 57.3995C49.3482 57.3995 169.338 50.522 176.215 54.9928C183.091 59.4636 195.809 158.881 195.809 158.881C195.809 158.881 117.432 160.945 116.401 160.945C115.37 160.945 117.432 175.394 117.432 175.394C117.432 175.394 141.151 177.458 147.339 178.835C153.527 180.211 156.633 183.735 156.633 183.735L80.6327 184.952C80.6327 184.952 82.3734 179.869 88.2145 178.147C94.0597 176.426 103.341 177.8 103.341 176.426C103.341 175.051 101.279 160.258 101.279 160.258C101.279 160.258 71.6503 161.635 67.7295 158.539C63.8065 155.443 49.3234 63.5917 49.3482 57.3995Z" fill="black"/>
<path d="M35.6202 196.639H22.5562V396.595H35.6202V196.639Z" fill="black"/>
<path d="M122.886 195.477L122.581 394.75C122.581 394.75 131.528 397.38 132.901 394.75C134.279 392.12 133.207 195.477 133.207 195.477H122.886Z" fill="black"/>
<path d="M349.467 195.849V396.595C349.467 396.595 359.095 397.974 360.126 396.595C361.158 395.217 362.185 195.648 362.185 195.648L349.467 195.849Z" fill="black"/>
<path d="M448.126 196.724V395.92C448.126 395.92 459.47 397.382 459.813 394.752C460.159 392.122 459.813 195.648 459.813 195.648L447.446 195.004L448.126 196.724Z" fill="black"/>
<path d="M332.27 301.991L332.633 372.512C332.633 372.512 292.574 376.122 288.796 383.004L292.748 383.864C292.748 383.864 290.749 391.749 298.251 392.123C305.296 392.473 305.469 385.241 305.469 385.241L325.063 383.864C325.063 383.864 322.912 391.71 331.381 392.43C339.846 393.153 337.441 384.209 337.441 384.209L369.41 383.522C369.41 383.522 367.69 391.435 375.251 392.123C382.816 392.81 380.407 384.209 380.407 384.209L386.595 383.346C386.595 383.346 386.979 372.167 341.908 372.167L340.192 302.891L332.27 301.991Z" fill="black"/>
<path d="M383.155 181.776C382.641 181.776 382.193 181.39 382.134 180.866C381.094 172.11 378.765 162.694 374.805 151.238C372.431 144.363 369.383 137.58 366.434 131.018C365.413 128.748 364.392 126.478 363.393 124.193C360.227 116.942 356.637 109.563 350.686 105.975C350.199 105.68 350.041 105.046 350.333 104.557C350.633 104.068 351.27 103.917 351.75 104.204C358.221 108.107 362.129 116.141 365.285 123.365C366.279 125.642 367.3 127.906 368.317 130.17C371.283 136.771 374.352 143.599 376.757 150.563C380.764 162.161 383.126 171.712 384.182 180.622C384.25 181.186 383.845 181.7 383.278 181.768C383.237 181.774 383.194 181.776 383.155 181.776Z" fill="white"/>
<path d="M209.106 180.544C204.375 180.544 198.958 175.685 196.456 170.867C194.219 166.562 194.297 162.568 196.671 159.911C197.05 159.486 197.706 159.451 198.127 159.829C198.552 160.211 198.589 160.861 198.21 161.286C195.695 164.099 197.426 168.258 198.288 169.916C200.907 174.954 206.109 178.843 209.638 178.449C210.189 178.356 210.715 178.785 210.783 179.353C210.851 179.918 210.447 180.43 209.879 180.498C209.624 180.527 209.366 180.544 209.106 180.544Z" fill="white"/>
<path d="M399.801 267.455C396.522 267.455 393.673 267.063 392.005 266.289C391.487 266.05 391.264 265.434 391.502 264.918C391.741 264.4 392.353 264.177 392.871 264.415C396.285 265.998 407.979 265.767 414.868 262.524C416.6 261.707 418.774 260.328 419.286 258.382C419.43 257.83 419.997 257.492 420.544 257.647C421.097 257.791 421.425 258.357 421.278 258.906C420.705 261.088 418.842 262.933 415.745 264.392C411.372 266.45 405.038 267.455 399.801 267.455Z" fill="white"/>
<path d="M158.295 389.815C155.071 389.815 147.116 385.707 134.574 377.559C134.098 377.249 133.961 376.609 134.273 376.132C134.584 375.655 135.226 375.521 135.698 375.831C146.737 383.003 156.641 388.259 158.293 387.833C158.716 387.454 159.31 387.532 159.687 387.957C160.067 388.385 159.966 389.074 159.541 389.454C159.267 389.695 158.852 389.815 158.295 389.815Z" fill="white"/>
<path d="M121.479 365.942C121.18 365.942 120.885 365.812 120.679 365.562C118.909 363.391 117.554 361.236 116.657 359.157C116.432 358.635 116.671 358.026 117.195 357.801C117.715 357.572 118.323 357.814 118.55 358.34C119.371 360.243 120.627 362.233 122.279 364.256C122.638 364.697 122.574 365.347 122.133 365.709C121.941 365.866 121.71 365.942 121.479 365.942Z" fill="white"/>
<path d="M221.93 394.868C217.465 394.868 213.313 394.327 210.424 392.672C209.929 392.389 209.757 391.759 210.04 391.264C210.32 390.764 210.954 390.599 211.447 390.88C216.869 393.986 228.411 392.585 236.051 391.66C237.793 391.448 239.375 391.258 240.708 391.134C248.898 390.385 256.913 389.681 264.959 389.313C265.037 389.293 274.129 389.185 274.428 391.035C274.513 391.551 274.115 392.11 273.611 392.253C273.24 392.354 272.865 392.246 272.611 391.999C271.374 391.73 267.383 391.272 265.054 391.373C257.053 391.741 249.063 392.442 240.9 393.19C239.584 393.311 238.02 393.499 236.302 393.708C231.944 394.236 226.753 394.868 221.93 394.868Z" fill="white"/>
<path d="M189.794 152.344C189.458 152.344 189.13 152.179 188.932 151.876C188.433 151.114 188.28 150.441 188.297 149.88C185.294 140.845 183.767 131.173 182.291 121.8C182.006 120 181.724 118.199 181.429 116.401C180.684 111.85 180.01 107.267 179.333 102.683C178.399 96.336 177.433 89.7702 176.285 83.3923C175.86 81.0289 175.293 78.5562 174.744 76.166C173.48 70.6632 172.172 64.9726 172.261 59.4409C172.271 58.8712 172.805 58.3882 173.308 58.4254C173.878 58.4357 174.331 58.9021 174.323 59.4739C174.239 64.7558 175.517 70.3205 176.755 75.7036C177.31 78.1186 177.883 80.6161 178.316 83.0249C179.471 89.4358 180.436 96.0161 181.373 102.382C182.047 106.954 182.72 111.525 183.462 116.064C183.759 117.868 184.042 119.672 184.326 121.478C185.725 130.341 187.164 139.475 189.86 148.006C189.877 148.01 189.893 148.014 189.908 148.018C190.328 148.134 190.632 148.499 190.665 148.935L190.844 151.038C190.854 151.147 190.846 151.252 190.823 151.352C190.809 151.674 190.646 151.983 190.355 152.171C190.184 152.289 189.988 152.344 189.794 152.344Z" fill="white"/>
<path d="M165.97 184.517C163.563 184.517 160.917 184.048 159.461 182.292C158.656 181.32 158.347 180.046 158.543 178.504C159.337 172.252 168.369 162.729 171.349 160.57C176.233 157.028 180.022 158.318 184.842 160.522C185.533 160.838 186.222 161.183 186.913 161.527C187.798 161.971 188.681 162.415 189.582 162.797C190.108 163.018 190.351 163.624 190.129 164.149C189.906 164.675 189.297 164.917 188.778 164.696C187.839 164.297 186.915 163.835 185.991 163.373C185.323 163.038 184.657 162.706 183.984 162.398C179.129 160.171 176.423 159.434 172.56 162.242C169.423 164.514 161.249 173.565 160.589 178.764C160.465 179.73 160.618 180.453 161.049 180.973C162.668 182.93 167.651 182.608 170.611 181.916C172.184 181.545 173.063 180.771 174.179 179.794C174.717 179.322 175.28 178.828 175.955 178.343C177.722 177.076 179.581 176.568 181.548 176.03L182.233 175.842C184.11 175.315 185.973 175.144 188.093 175.309C188.66 175.352 189.085 175.848 189.042 176.415C188.998 176.987 188.468 177.448 187.936 177.365C186.059 177.227 184.428 177.369 182.79 177.829L182.093 178.021C180.309 178.508 178.624 178.971 177.157 180.021C176.543 180.465 176.029 180.917 175.538 181.349C174.313 182.424 173.156 183.44 171.081 183.927C170.636 184.028 168.427 184.517 165.97 184.517Z" fill="black"/>
<path d="M169.301 180.905C168.967 180.905 168.639 180.742 168.441 180.44C168.156 180.011 168.097 179.485 168.268 178.956C169.479 175.229 185.768 168.386 185.931 168.324C186.459 168.126 187.06 168.394 187.26 168.931C187.46 169.464 187.187 170.058 186.653 170.26C182.526 171.804 171.141 177.567 170.264 179.503C170.436 179.947 170.283 180.463 169.87 180.736C169.693 180.849 169.497 180.905 169.301 180.905Z" fill="black"/>
<path d="M165.512 181.049C165.448 181.049 165.382 181.043 165.314 181.031C164.755 180.921 164.39 180.383 164.497 179.821C165.328 175.493 169.703 172.133 173.564 169.171C175.206 167.912 176.757 166.721 177.922 165.557C178.324 165.154 178.978 165.154 179.38 165.557C179.783 165.961 179.783 166.615 179.38 167.016C178.118 168.275 176.516 169.507 174.82 170.81C171.252 173.549 167.207 176.653 166.525 180.213C166.428 180.707 165.995 181.049 165.512 181.049Z" fill="black"/>
<path d="M161.183 181.039C161.088 181.039 160.989 181.025 160.892 180.996C160.346 180.837 160.032 180.263 160.193 179.716C161.763 174.349 167.664 166.421 172.574 163.075C173.043 162.76 173.686 162.873 174.006 163.348C174.326 163.821 174.206 164.46 173.734 164.78C169.225 167.85 163.607 175.392 162.171 180.296C162.041 180.746 161.631 181.039 161.183 181.039Z" fill="black"/>
<path d="M239.004 154.408C238.994 154.408 238.981 154.408 238.971 154.408C238.363 154.388 237.83 154.029 237.387 153.339C235.176 149.884 233.559 133.062 234.733 130.269C234.955 129.743 235.56 129.503 236.083 129.718C236.607 129.939 236.855 130.544 236.634 131.07C235.671 133.357 237.401 150.6 239.219 152.363C239.697 152.466 240.05 152.9 240.035 153.405C240.017 153.967 239.559 154.408 239.004 154.408Z" fill="white"/>
<path d="M283.897 136.348C283.753 136.348 283.607 136.317 283.468 136.255C282.951 136.018 282.724 135.405 282.959 134.887C284.801 130.864 285.733 126.544 286.634 122.368C287.315 119.216 288.018 115.955 289.109 112.791C289.297 112.254 289.885 111.967 290.421 112.151C290.96 112.337 291.244 112.925 291.061 113.464C290.009 116.51 289.32 119.707 288.652 122.801C287.728 127.086 286.769 131.518 284.836 135.745C284.661 136.123 284.287 136.348 283.897 136.348Z" fill="white"/>
</g>
<defs>
<clipPath id="clip0_48_584">
<rect width="478" height="399" fill="white"/>
</clipPath>
</defs>
</svg>
