<svg width="1170" height="1364" viewBox="0 0 1170 1364" fill="none" xmlns="http://www.w3.org/2000/svg">
<path d="M680.162 21.5518C674.028 25.1892 669.382 27.3339 666.224 27.986C662.464 28.7603 655.989 28.9488 646.799 28.5515C639.967 28.2611 633.915 26.4882 627.099 25.8616C626.5 25.8109 625.909 25.6877 625.341 25.4948C594.958 15.2856 576.343 9.01953 569.496 6.69649C563.22 4.57722 558.37 3.5023 554.947 3.47173C543.943 3.38003 531.013 2.61588 521.217 3.93023C498.383 7.00725 480.079 18.1996 466.304 37.5074C462.962 42.1841 459.345 49.627 455.453 59.8362C454.505 62.3222 451.627 66.3468 446.818 71.9099C441.927 66.1329 436.807 64.4823 428.982 65.0019C423.776 65.3483 419.548 65.3585 416.297 65.0325C415.759 64.981 415.257 64.7356 414.886 64.342C414.515 63.9484 414.3 63.4334 414.28 62.8928C414.173 59.3166 417.107 56.9629 420.775 56.3822C426.654 55.455 432.034 56.1224 436.914 58.3843C437.049 58.4459 437.198 58.4646 437.344 58.4379C437.489 58.4113 437.622 58.3405 437.726 58.2353C437.83 58.13 437.898 57.9954 437.922 57.8498C437.947 57.7042 437.926 57.5546 437.862 57.4214C435.457 52.4697 433.629 47.9357 432.375 43.8194C431.092 39.6012 430.862 30.6758 436.96 30.1104C444.143 29.4226 443.731 40.0597 444.464 44.7058C445.549 51.7208 447.934 56.5656 452.305 62.1134C452.367 62.1889 452.449 62.2461 452.541 62.2784C452.633 62.3108 452.732 62.3169 452.826 62.2961C452.921 62.2753 453.006 62.2285 453.074 62.161C453.141 62.0935 453.187 62.0081 453.206 61.9147C455.519 51.8787 459.243 42.9177 464.378 35.0315C477.216 15.3468 501.348 2.43248 524.472 0.430376C534.793 -0.466239 546.087 0.0381036 558.355 1.94341C565.028 2.97248 573.724 5.39742 584.443 9.21822C588.447 10.6548 597.026 13.5485 610.18 17.8991C627.338 23.5844 644.491 25.8463 661.639 24.6848C666.57 24.3486 672.744 23.3042 680.162 21.5518Z" fill="#202D3E"/>
<path d="M680.162 21.5516C681.395 20.0539 683.809 18.8822 687.406 18.0365C687.755 17.9561 688.117 17.959 688.465 18.045C688.812 18.1309 689.134 18.2975 689.405 18.5312C689.676 18.7649 689.888 19.0591 690.024 19.3901C690.16 19.721 690.216 20.0793 690.188 20.4359C689.362 30.4617 681.629 36.8654 673.391 43.59C673.106 43.8243 672.734 44.2879 672.276 44.9808C672.19 45.1127 672.144 45.2663 672.143 45.4236C672.141 45.5809 672.185 45.7353 672.268 45.8686C672.352 46.0019 672.472 46.1085 672.614 46.176C672.756 46.2434 672.914 46.2688 673.07 46.2493C681.782 45.1081 689.897 42.2807 697.417 37.7671C697.946 37.4501 698.544 37.2639 699.16 37.2241C699.777 37.1842 700.394 37.2918 700.962 37.5379C703.397 38.6179 705.501 40.4926 707.274 43.1621C714.916 54.6856 716.582 66.632 712.272 79.0012C709.246 87.6515 707.58 93.8259 703.912 99.7405C703.26 100.79 701.686 102.247 699.189 104.111C697.519 105.355 696.138 107.051 695.048 109.201C694.712 109.864 694.552 110.602 694.584 111.344C694.617 112.085 694.839 112.805 695.231 113.434C697.524 117.117 699.296 119.349 700.336 123.047C702.547 130.883 702.705 138.519 700.81 145.957C696.907 161.281 693.163 177.996 689.576 196.101C689.536 196.313 689.536 196.526 689.576 196.728L690.065 199.708C688.904 199.851 688.084 199.265 687.605 197.95C687.523 197.719 687.376 197.517 687.181 197.369C686.987 197.221 686.752 197.132 686.507 197.115C686.261 197.097 686.015 197.15 685.798 197.269C685.58 197.387 685.401 197.566 685.282 197.782C684.304 199.606 683.759 200.808 683.646 201.389C681.935 210.972 678.099 219.653 675.959 229.082C673.728 238.863 672.327 245.374 671.756 248.614C670.972 253.087 669.403 256.047 667.049 257.494C666.101 249.557 665.592 239.297 665.521 226.713C665.48 221.405 664.726 211.69 663.259 197.568C662.342 188.765 660.248 182.041 658.781 172.29C658.485 170.323 657.125 164.047 654.7 153.461C652.897 145.656 651.812 137.979 651.445 130.429C651.44 130.36 651.417 130.294 651.379 130.237C651.34 130.179 651.288 130.133 651.226 130.102C651.164 130.071 651.096 130.057 651.027 130.061C650.958 130.065 650.891 130.086 650.833 130.123L647.196 132.538C642.815 135.656 639.32 137.628 636.712 138.453C615.59 145.167 593.46 147.353 570.322 145.009C550.316 142.977 531.777 137.108 513.636 129.451C506.759 126.547 501.491 123.776 497.833 121.137C493.9 118.304 490.074 115.727 486.356 113.404C486.012 113.19 485.611 113.09 485.208 113.117C484.804 113.145 484.42 113.299 484.109 113.557C480.339 116.695 478.006 120.775 477.109 125.798L467.328 172.382C464.679 176.355 461.79 179.667 458.662 182.316C452.259 187.741 445.335 186.748 437.755 184.18C437.521 184.099 437.307 183.967 437.13 183.792C436.953 183.618 436.817 183.406 436.731 183.171C432.819 172.596 430.312 165.041 429.212 160.506C426.216 148.219 423.837 136.945 422.074 126.685C419.522 111.875 420.592 99.1292 431.367 88.1253C435.85 83.5403 440.317 78.7363 444.77 73.7132C447.246 73.0203 447.929 72.4192 446.818 71.9098C451.627 66.3467 454.505 62.3221 455.453 59.836C459.345 49.6269 462.962 42.1839 466.304 37.5073C480.079 18.1995 498.383 7.00711 521.217 3.93009C531.013 2.61574 543.943 3.37989 554.947 3.47159C558.37 3.50216 563.22 4.57708 569.496 6.69635C576.343 9.01939 594.958 15.2855 625.341 25.4947C625.909 25.6875 626.5 25.8107 627.099 25.8615C633.915 26.4881 639.967 28.2609 646.799 28.5513C655.989 28.9487 662.464 28.7602 666.224 27.9859C669.382 27.3338 674.028 25.189 680.162 21.5516Z" fill="#2A364E"/>
<path d="M444.77 73.7131C440.318 78.7362 435.85 83.5402 431.367 88.1252C420.592 99.1291 419.522 111.875 422.074 126.685C423.837 136.945 426.216 148.219 429.212 160.506C430.312 165.04 432.819 172.595 436.731 183.171C436.817 183.406 436.953 183.618 437.13 183.792C437.307 183.967 437.521 184.099 437.755 184.18C445.335 186.748 452.259 187.741 458.662 182.316C461.79 179.666 464.679 176.355 467.328 172.381C464.18 188.459 462.636 204.66 462.697 220.982C462.728 232.312 462.672 243.637 462.529 254.957C460.991 254.712 459.737 254.249 458.769 253.566L449.584 225.613C447.001 214.135 445.932 205.149 438.733 197.522C429.767 173.365 423.261 152.294 419.216 134.311C418.147 129.563 417.581 122.665 417.52 113.618C417.449 104.611 420.353 95.8025 426.231 87.1929C431.224 79.8876 437.404 75.3943 444.77 73.7131Z" fill="#202D3E"/>
<path d="M647.196 132.538C649.168 135.656 651.139 144.459 646.631 147.424C644.399 148.891 641.674 150.017 638.454 150.802C628.388 153.257 617.654 154.678 606.252 155.066C604.418 155.127 599.197 155.178 590.587 155.219C562.007 155.361 535.42 148.687 510.824 135.198C504.527 131.759 497.619 126.501 491.873 123.643C490.569 123.002 488.567 122.487 485.867 122.1C485.498 122.04 485.119 122.093 484.781 122.253L477.109 125.798C478.006 120.775 480.339 116.695 484.109 113.557C484.42 113.299 484.804 113.145 485.208 113.117C485.611 113.09 486.012 113.19 486.356 113.404C490.074 115.727 493.9 118.304 497.833 121.137C501.491 123.776 506.759 126.547 513.636 129.451C531.777 137.108 550.316 142.977 570.321 145.009C593.46 147.353 615.59 145.167 636.712 138.453C639.32 137.628 642.815 135.656 647.196 132.538Z" fill="#F89983"/>
<path d="M647.196 132.538L650.833 130.123C650.891 130.086 650.958 130.065 651.027 130.061C651.096 130.057 651.164 130.071 651.226 130.102C651.288 130.133 651.34 130.179 651.379 130.237C651.417 130.294 651.44 130.36 651.445 130.429C651.812 137.979 652.897 145.656 654.7 153.461C657.125 164.047 658.485 170.323 658.781 172.29C660.248 182.041 662.342 188.765 663.259 197.568C664.726 211.69 665.48 221.405 665.521 226.713C665.592 239.296 666.101 249.557 667.049 257.494L665.49 279.761C665.476 279.941 665.509 280.121 665.587 280.282C665.665 280.444 665.785 280.58 665.933 280.678L666.315 280.938C665.439 280.632 664.935 280.729 664.802 281.229C663.406 286.506 661.552 293.562 659.239 302.396C655.8 315.478 651.582 326.039 642.703 335.912C642.291 336.364 641.993 336.903 641.832 337.486L641.495 338.785C632.254 349.453 621.821 358.765 610.195 366.723C602.966 371.674 595.05 375.663 586.812 378.796C576.527 382.709 563.903 382.602 552.792 381.395C543.785 380.416 534.757 377.222 525.71 371.812C515.215 365.546 503.875 356.004 491.689 343.187C488.439 339.254 485.174 335.219 481.893 331.082C478.143 326.345 475.316 322.009 473.411 318.076C467.827 306.604 464.679 294.352 463.966 281.32C462.58 272.619 462.101 263.831 462.529 254.957C462.672 243.637 462.728 232.312 462.697 220.982C462.636 204.66 464.18 188.459 467.328 172.382L477.109 125.798L484.781 122.253C485.119 122.093 485.498 122.04 485.867 122.1C488.567 122.487 490.569 123.002 491.873 123.643C497.619 126.501 504.527 131.759 510.824 135.198C535.42 148.687 562.007 155.361 590.587 155.219C599.197 155.178 604.418 155.127 606.252 155.066C617.654 154.678 628.388 153.257 638.454 150.802C641.674 150.017 644.399 148.891 646.631 147.424C651.139 144.459 649.168 135.656 647.196 132.538ZM475.489 202.703C475.214 206.967 479.799 207.013 482.382 205.989C491.43 202.413 500.763 200.431 510.381 200.044C519.072 199.698 524.997 199.458 528.155 199.326C532.74 199.122 534.839 196.804 534.452 192.372C533.886 185.77 529.806 183.233 523.173 183.278C514.044 183.34 505.444 184.292 497.375 186.136C490.482 187.711 476.009 194.298 475.489 202.703ZM651.506 204.919C650.833 195.734 639.707 188.918 631.836 186.763C622.666 184.246 611.948 183.426 599.681 184.302C597.751 184.445 595.946 185.31 594.628 186.724C593.31 188.139 592.577 189.998 592.574 191.929V192.479C592.571 193.429 592.76 194.37 593.128 195.246C593.496 196.121 594.037 196.914 594.717 197.575C595.397 198.237 596.204 198.755 597.088 199.098C597.972 199.44 598.916 199.601 599.864 199.57C610.705 199.244 619.712 199.611 626.885 200.671C629.004 200.987 635.234 202.683 645.576 205.76C646.738 206.106 648.429 206.168 650.65 205.943C650.897 205.916 651.125 205.795 651.284 205.604C651.444 205.413 651.523 205.168 651.506 204.919ZM509.821 244.252C513.281 244.149 516.552 242.456 518.915 239.544C521.277 236.632 522.537 232.741 522.418 228.726C522.299 224.711 520.81 220.901 518.279 218.134C515.748 215.368 512.383 213.871 508.923 213.974C505.463 214.077 502.192 215.77 499.829 218.682C497.467 221.593 496.207 225.485 496.326 229.5C496.445 233.515 497.934 237.325 500.465 240.091C502.996 242.858 506.361 244.354 509.821 244.252ZM617.953 243.769C621.361 243.781 624.636 242.205 627.056 239.387C629.477 236.57 630.844 232.742 630.858 228.745C630.872 224.749 629.531 220.911 627.131 218.076C624.73 215.242 621.467 213.643 618.058 213.631C614.649 213.619 611.374 215.195 608.954 218.013C606.534 220.831 605.166 224.659 605.152 228.655C605.138 232.652 606.479 236.489 608.88 239.324C611.28 242.158 614.544 243.757 617.953 243.769ZM547.152 272.487C546.266 275.991 546.179 278.437 546.892 279.822C549.108 284.163 557.606 289.054 559.944 281.916C561.702 276.521 555.604 275.421 551.936 274.091C556.959 273.745 561.666 274.794 566.058 277.24L566.455 283.429C566.47 283.65 566.569 283.856 566.731 284.006C566.892 284.156 567.105 284.24 567.326 284.239C570.128 284.239 572.711 283.608 575.075 282.344C578.824 280.337 580.001 277.464 578.605 273.724C576.954 267.01 574.718 260.866 571.896 255.293C571.632 254.785 571.427 254.252 571.284 253.703C570.133 249.404 569.231 245.558 568.579 242.165C567.846 238.344 566.455 236.8 562.665 237.58C562.358 237.642 562.07 237.77 561.819 237.954C561.568 238.139 561.361 238.376 561.213 238.65C559.338 242.144 557.494 246.322 555.68 251.182C552.96 258.426 547.412 264.05 547.152 272.487ZM479.738 274.183C485.408 280.709 491.735 283.307 500.095 279.028C511.114 273.388 511.955 263.179 504.222 254.269C498.567 247.743 492.24 245.145 483.88 249.424C472.861 255.064 472.02 265.273 479.738 274.183ZM645.384 277.255C648.556 274.203 650.299 269.926 650.231 265.366C650.162 260.806 648.287 256.336 645.018 252.939C643.4 251.257 641.488 249.889 639.392 248.914C637.295 247.938 635.056 247.374 632.801 247.253C630.546 247.133 628.319 247.458 626.249 248.211C624.179 248.964 622.305 250.129 620.734 251.64C617.562 254.693 615.819 258.969 615.888 263.529C615.956 268.089 617.831 272.56 621.1 275.956C622.718 277.638 624.63 279.006 626.727 279.981C628.823 280.957 631.062 281.521 633.317 281.642C635.572 281.762 637.799 281.437 639.869 280.684C641.939 279.932 643.813 278.766 645.384 277.255ZM516.616 296.481L515.103 299.095C514.685 299.821 514.548 300.676 514.72 301.496C514.892 302.317 515.36 303.045 516.036 303.542C534.437 317.006 552.807 318.688 575.365 317.205C589.349 316.273 601.453 310.664 612.213 301.983C612.631 301.642 612.963 301.208 613.182 300.716C613.401 300.223 613.501 299.686 613.474 299.147C613.447 298.609 613.294 298.084 613.027 297.616C612.761 297.147 612.387 296.748 611.938 296.451L611.647 296.267C610.497 295.511 609.136 295.145 607.765 295.222C606.394 295.299 605.087 295.816 604.036 296.695C583.496 313.965 550.912 317.251 528.339 302.273C525.567 300.44 522.781 298.315 519.979 295.9C519.733 295.687 519.444 295.531 519.13 295.444C518.817 295.356 518.487 295.34 518.166 295.396C517.844 295.451 517.539 295.577 517.271 295.765C517.003 295.953 516.779 296.197 516.616 296.481Z" fill="#F1C4AB"/>
<path d="M475.489 202.703C476.009 194.298 490.482 187.711 497.375 186.136C505.444 184.292 514.044 183.34 523.173 183.278C529.806 183.233 533.886 185.77 534.452 192.372C534.839 196.804 532.74 199.122 528.155 199.326C524.997 199.458 519.072 199.698 510.381 200.044C500.763 200.431 491.43 202.413 482.382 205.989C479.799 207.013 475.214 206.967 475.489 202.703Z" fill="#202D3E"/>
<path d="M650.65 205.944C648.429 206.168 646.738 206.107 645.576 205.76C635.234 202.683 629.004 200.987 626.885 200.671C619.712 199.611 610.705 199.244 599.864 199.571C598.916 199.601 597.972 199.441 597.088 199.098C596.204 198.755 595.397 198.237 594.717 197.575C594.037 196.914 593.496 196.121 593.128 195.246C592.76 194.37 592.571 193.429 592.574 192.479V191.929C592.577 189.998 593.31 188.139 594.628 186.725C595.946 185.31 597.751 184.445 599.681 184.303C611.948 183.426 622.667 184.247 631.836 186.763C639.707 188.918 650.833 195.734 651.506 204.92C651.523 205.168 651.444 205.413 651.284 205.604C651.125 205.795 650.897 205.917 650.65 205.944Z" fill="#202D3E"/>
<path d="M690.066 199.708C690.116 200.054 690.295 200.365 690.6 200.64C690.835 200.844 691.176 200.992 691.624 201.084C699.083 202.602 704.432 207.013 707.672 214.319C709.73 218.965 710.932 222.959 711.279 226.301C714.029 253.627 696.377 281.229 666.315 280.938L665.933 280.678C665.785 280.58 665.665 280.444 665.587 280.282C665.509 280.121 665.476 279.941 665.49 279.761L667.049 257.494C669.403 256.047 670.972 253.087 671.756 248.614C672.327 245.374 673.728 238.864 675.959 229.082C678.099 219.653 681.935 210.972 683.647 201.389C683.759 200.808 684.304 199.606 685.282 197.782C685.401 197.566 685.58 197.387 685.798 197.269C686.015 197.15 686.261 197.097 686.507 197.115C686.752 197.132 686.987 197.221 687.182 197.369C687.376 197.517 687.523 197.719 687.605 197.95C688.084 199.265 688.904 199.851 690.066 199.708ZM674.446 253.841C679.214 252.756 693.565 247.59 696.041 241.767C700.81 230.539 697.493 222.949 686.092 218.995C680.789 217.161 678.695 223.061 677.961 226.927C676.412 235.028 674.986 243.764 673.682 253.138C673.667 253.239 673.676 253.343 673.711 253.44C673.745 253.536 673.802 253.623 673.877 253.693C673.953 253.762 674.044 253.812 674.143 253.838C674.242 253.864 674.346 253.865 674.446 253.841Z" fill="#F89983"/>
<path d="M449.584 225.613C448.3 225.083 447.383 223.799 446.833 221.762C446.653 221.105 446.232 220.541 445.654 220.181C445.076 219.821 444.384 219.693 443.715 219.821C440.21 220.483 437.572 221.731 435.799 223.565C432.436 227.08 427.76 239.49 432.36 243.708C434.571 245.726 436.751 247.04 438.901 247.651C444.892 249.333 451.515 251.304 458.769 253.566C459.737 254.249 460.991 254.712 462.529 254.957C462.101 263.831 462.58 272.619 463.966 281.32L453.298 280.938C452.67 280.918 452.047 280.805 451.449 280.602C432.976 274.203 421.84 261.299 418.04 241.89C417.357 238.415 417.627 232.327 418.85 223.626C420.633 211.012 427.261 202.311 438.733 197.522C445.932 205.149 447.001 214.135 449.584 225.613Z" fill="#F89983"/>
<path d="M496.326 229.5C496.574 237.861 502.616 244.466 509.821 244.252C517.027 244.038 522.666 237.087 522.418 228.726C522.17 220.365 516.128 213.76 508.923 213.974C501.718 214.188 496.078 221.139 496.326 229.5Z" fill="#202D3E"/>
<path d="M605.152 228.655C605.123 236.978 610.854 243.745 617.952 243.769C625.051 243.794 630.829 237.068 630.858 228.745C630.887 220.423 625.156 213.656 618.058 213.631C610.959 213.606 605.181 220.333 605.152 228.655Z" fill="#202D3E"/>
<path d="M673.682 253.138C674.986 243.764 676.412 235.027 677.961 226.927C678.695 223.061 680.788 217.161 686.092 218.995C697.493 222.949 700.809 230.539 696.041 241.767C693.565 247.59 679.214 252.756 674.446 253.841C674.346 253.865 674.242 253.863 674.143 253.838C674.044 253.812 673.953 253.762 673.877 253.692C673.802 253.623 673.744 253.536 673.71 253.44C673.676 253.343 673.667 253.239 673.682 253.138Z" fill="#E66151"/>
<path d="M449.584 225.613L458.769 253.566C451.515 251.304 444.892 249.332 438.901 247.651C436.751 247.04 434.571 245.726 432.36 243.708C427.76 239.49 432.436 227.08 435.799 223.565C437.572 221.731 440.21 220.483 443.715 219.821C444.384 219.692 445.076 219.821 445.654 220.181C446.232 220.541 446.653 221.105 446.833 221.762C447.383 223.799 448.3 225.083 449.584 225.613Z" fill="#ED7966"/>
<path d="M578.605 273.724L566.058 277.24C561.666 274.794 556.959 273.745 551.936 274.091L547.152 272.486C547.412 264.05 552.96 258.426 555.68 251.182C557.494 246.322 559.338 242.144 561.213 238.649C561.361 238.376 561.568 238.139 561.819 237.954C562.07 237.77 562.358 237.642 562.665 237.58C566.455 236.8 567.846 238.344 568.579 242.165C569.231 245.557 570.133 249.404 571.284 253.703C571.427 254.252 571.632 254.785 571.896 255.293C574.718 260.866 576.954 267.01 578.605 273.724Z" fill="#F89983"/>
<path d="M504.222 254.269C511.955 263.179 511.114 273.388 500.095 279.028C491.735 283.307 485.408 280.709 479.738 274.183C472.02 265.273 472.86 255.064 483.88 249.424C492.24 245.145 498.567 247.743 504.222 254.269Z" fill="#F89983"/>
<path d="M621.1 275.956C627.906 283.03 638.779 283.611 645.384 277.255C651.989 270.899 651.825 260.012 645.018 252.939C638.212 245.866 627.339 245.284 620.734 251.64C614.129 257.996 614.293 268.883 621.1 275.956Z" fill="#F89983"/>
<path d="M551.936 274.091C555.604 275.421 561.702 276.521 559.944 281.916C557.606 289.054 549.108 284.163 546.892 279.823C546.179 278.437 546.266 275.992 547.152 272.487L551.936 274.091Z" fill="#E66151"/>
<path d="M578.605 273.725C580.001 277.464 578.824 280.337 575.075 282.344C572.711 283.608 570.128 284.239 567.326 284.239C567.105 284.24 566.892 284.157 566.731 284.006C566.569 283.856 566.47 283.65 566.455 283.429L566.057 277.24L578.605 273.725Z" fill="#E66151"/>
<path d="M516.616 296.481C516.779 296.197 517.003 295.953 517.271 295.765C517.539 295.577 517.844 295.451 518.166 295.396C518.487 295.34 518.817 295.357 519.13 295.444C519.443 295.531 519.733 295.687 519.979 295.901C522.78 298.315 525.567 300.44 528.338 302.274C550.912 317.251 583.496 313.965 604.036 296.695C605.086 295.816 606.394 295.299 607.765 295.222C609.136 295.145 610.497 295.511 611.647 296.267L611.938 296.451C612.387 296.748 612.76 297.147 613.027 297.616C613.294 298.084 613.447 298.609 613.474 299.147C613.501 299.686 613.401 300.223 613.182 300.716C612.962 301.208 612.631 301.643 612.213 301.983C601.453 310.664 589.349 316.273 575.365 317.205C552.807 318.688 534.437 317.007 516.036 303.542C515.36 303.045 514.892 302.317 514.72 301.496C514.548 300.676 514.684 299.821 515.103 299.095L516.616 296.481Z" fill="#E66151"/>
<path d="M641.495 338.785C642.239 339.824 642.621 340.803 642.642 341.72C642.907 352.051 643.187 362.382 643.482 372.714L643.161 379.118C643.132 379.611 642.932 380.076 642.596 380.432C638.571 384.691 633.574 389.424 627.603 394.63C602.798 416.271 576.542 410.356 548.94 398.695C532.771 391.879 516.861 384.482 501.211 376.504L492.056 364.293L491.689 343.187C503.875 356.004 515.215 365.546 525.71 371.812C534.757 377.222 543.785 380.417 552.792 381.395C563.903 382.602 576.527 382.709 586.812 378.797C595.05 375.664 602.966 371.675 610.195 366.723C621.821 358.765 632.254 349.453 641.495 338.785Z" fill="#E66151"/>
<path d="M501.211 376.504C513.244 391.206 527.106 403.82 542.796 414.345C555.909 423.133 570.734 427.703 586.72 431.646C596.369 434.01 606.094 434.061 615.896 431.799C624.108 429.904 630.711 427.682 635.703 425.135C641.419 422.221 646.437 420.275 650.757 419.297C649.198 427.652 647.42 433.821 645.423 437.805C638.209 452.141 628.321 463.532 615.758 471.978C604.5 479.559 592.732 484.465 580.454 486.696C577.754 487.185 573.052 487.404 566.348 487.353C560.275 487.302 555.594 486.961 552.303 486.329C534.156 482.834 518.634 474.658 505.735 461.8C491.674 447.785 481.251 429.308 482.214 409.027C482.233 408.586 482.364 408.157 482.594 407.78C482.823 407.403 483.145 407.091 483.528 406.872L489.534 403.402C489.845 403.232 490.108 402.985 490.299 402.684C491.297 401.186 491.776 399.205 491.735 396.739C491.552 385.929 491.659 375.113 492.056 364.293L501.211 376.504Z" fill="#FAB69C"/>
<path d="M644.644 403.403C635.943 418.574 622.412 427.519 604.052 430.24C600.547 430.759 594.77 431.228 586.72 431.646C570.734 427.703 555.909 423.133 542.797 414.345C527.106 403.82 513.244 391.207 501.211 376.504C516.861 384.482 532.771 391.879 548.94 398.695C576.542 410.356 602.798 416.271 627.603 394.63C633.574 389.423 638.571 384.691 642.596 380.432C642.932 380.076 643.132 379.611 643.161 379.118L643.482 372.714L644.644 403.403Z" fill="#ED7966"/>
<path d="M650.757 419.297C646.437 420.275 641.419 422.221 635.703 425.135C630.711 427.682 624.108 429.903 615.896 431.799C606.094 434.06 596.369 434.01 586.72 431.646C594.769 431.228 600.547 430.759 604.052 430.24C622.412 427.519 635.942 418.573 644.644 403.402C647.16 403.8 649.596 404.859 651.949 406.581C652.045 406.652 652.126 406.741 652.187 406.844C652.248 406.946 652.288 407.059 652.305 407.177C652.322 407.295 652.316 407.415 652.286 407.531C652.257 407.646 652.204 407.755 652.133 407.85C652.082 407.911 651.985 408.003 651.842 408.125C651.794 408.163 651.754 408.211 651.725 408.267C651.696 408.322 651.679 408.383 651.674 408.446L650.757 419.297Z" fill="#F89983"/>
<path d="M698.135 432.12L697.294 432.517C697.146 432.582 697.018 432.686 696.924 432.818C696.83 432.95 696.773 433.104 696.759 433.266C694.987 450.301 690.585 466.328 683.555 481.347C681.15 486.492 676.672 493.385 670.121 502.025C664.267 509.758 658.75 517.492 651.231 522.321C640.451 529.249 630.756 534.889 622.147 539.24C615.504 542.602 608.942 545.078 602.462 546.667C588.982 549.968 579.079 551.756 565.874 550.901C556.399 550.279 551.116 549.907 550.025 549.785C534.671 547.992 520.325 543.692 506.988 536.886C490.711 528.572 479.952 517.828 467.955 503.141C454.291 486.436 446.13 468.631 440.827 447.525C439.013 440.322 439.35 434.331 441.836 429.552L468.566 414.513C468.606 414.492 468.651 414.483 468.693 414.489C468.735 414.495 468.771 414.514 468.795 414.544C468.805 414.554 468.826 414.569 468.856 414.59C468.866 414.603 468.874 414.618 468.879 414.633C468.885 414.649 468.888 414.663 468.888 414.677C468.888 414.69 468.885 414.702 468.879 414.711C468.874 414.719 468.866 414.725 468.856 414.727C464.322 417.152 461.908 420.392 461.612 424.447C460.817 435.584 462.127 447.174 465.54 459.217C468.515 469.691 473.997 479.951 481.985 489.997C491.44 501.887 503.442 511.699 517.992 519.433C529.169 525.373 541.518 528.765 555.038 529.611C572.415 530.696 587.683 530.742 603.715 524.827C628.627 515.627 654.272 496.08 664.986 471.397C671.344 456.756 675.623 440.846 674.079 425.105C673.825 422.527 673.111 420.158 671.94 417.998C671.885 417.895 671.865 417.777 671.882 417.662C671.899 417.546 671.952 417.44 672.034 417.358C672.115 417.277 672.22 417.225 672.333 417.211C672.446 417.197 672.56 417.221 672.658 417.28L698.135 432.12Z" fill="#BF9B83"/>
<path d="M441.836 429.552C439.35 434.331 439.013 440.322 440.827 447.525C446.13 468.631 454.291 486.436 467.955 503.141C479.952 517.828 490.711 528.572 506.988 536.886C520.325 543.692 534.671 547.992 550.025 549.785C551.116 549.907 556.398 550.279 565.874 550.901C579.079 551.756 588.982 549.968 602.462 546.667C608.942 545.078 615.504 542.602 622.147 539.24C630.756 534.889 640.451 529.249 651.231 522.321C658.75 517.492 664.267 509.758 670.121 502.025C676.672 493.385 681.15 486.492 683.555 481.347C690.585 466.328 694.987 450.301 696.759 433.266C696.773 433.104 696.83 432.95 696.924 432.818C697.018 432.686 697.146 432.582 697.294 432.517L698.135 432.12C698.451 432.517 698.863 432.874 699.373 433.189C698.894 437.408 698.996 441.605 699.679 445.783C699.75 446.26 699.765 446.742 699.724 447.219C699.245 452.375 698.115 457.816 696.332 463.542C689.974 483.899 679.892 501.439 666.086 516.162C658.979 523.742 652.194 527.716 641.358 535.327C637.883 537.772 630.104 541.721 618.02 547.172C611.479 550.116 605.977 552.052 601.515 552.979C596.135 554.11 590.337 554.716 584.122 554.798C576.297 554.92 568.105 556.097 559.119 555.486C549.063 554.813 543.28 554.309 541.772 553.973C524.217 550.06 508.684 544.324 495.174 536.764C482.438 529.642 471.577 519.641 462.59 506.763C461.306 504.919 459.162 501.78 456.156 497.348C446.971 483.792 441.561 467.699 438.213 451.453C436.991 445.477 436.93 438.921 436.777 432.517L441.836 429.552Z" fill="#AB7968"/>
<path d="M436.777 432.517C436.93 438.921 436.991 445.477 438.213 451.453C441.56 467.699 446.971 483.792 456.156 497.348C459.162 501.781 461.306 504.919 462.59 506.763C471.577 519.642 482.438 529.642 495.174 536.764C508.684 544.324 524.217 550.06 541.772 553.973C543.28 554.309 549.063 554.813 559.119 555.486C568.105 556.097 576.297 554.92 584.122 554.798C590.337 554.717 596.135 554.11 601.515 552.979C605.977 552.052 611.479 550.116 618.02 547.172C630.104 541.721 637.883 537.772 641.358 535.327C652.194 527.716 658.979 523.743 666.086 516.162C679.892 501.439 689.974 483.899 696.332 463.542C698.115 457.816 699.245 452.375 699.724 447.22C699.765 446.742 699.75 446.26 699.679 445.783C698.996 441.605 698.894 437.408 699.373 433.19C710.514 439.226 722.114 445.217 732.537 451.606C755.523 465.697 775.743 476.838 798.133 490.685C807.843 496.707 816.727 502.045 824.787 506.702C832.072 510.91 838.44 514.792 843.891 518.348C844.37 518.653 844.675 519.015 844.808 519.433C844.951 519.861 844.833 520.115 844.456 520.197C844.371 520.214 844.294 520.257 844.233 520.32C844.173 520.383 844.134 520.463 844.12 520.548L843.448 524.186C843.367 524.658 843.179 525.108 842.897 525.5C841.074 528.057 840.447 530.34 841.018 532.347C837.166 540.386 833.361 548.537 829.601 556.8C825.566 565.644 822.219 573.973 819.56 581.788C815.872 592.66 812.54 602.517 809.565 611.361C801.342 635.723 796.024 657.409 791.76 680.732C790.67 686.661 790.007 691.736 789.773 695.954C788.52 718.675 787.954 740.423 788.077 761.198C788.148 773.832 787.959 782.523 787.511 787.271C786.869 794.041 788 805.809 787.16 813.206C787.149 813.349 787.318 815.82 787.664 820.619C787.684 820.9 787.622 821.181 787.484 821.427C787.345 821.673 787.138 821.873 786.887 822.002C786.636 822.13 786.353 822.182 786.072 822.151C785.792 822.12 785.527 822.007 785.31 821.826C784.169 820.879 782.987 820.537 781.765 820.802C779.228 818.255 776.125 816.951 772.457 816.89C762.615 816.721 753.246 817.394 744.932 817.012C737.199 816.655 728.034 816.518 717.438 816.599C702.216 816.721 681.507 815.636 667.003 815.774C612.045 816.339 559.883 815.377 506.804 816.095C479.05 816.477 454.582 815.254 422.105 816.401C401.513 817.124 381.64 817.262 362.485 816.813C358.104 816.711 354.156 817.71 350.641 819.809C348.97 819.646 348.134 819.101 348.134 818.173C348.226 794.607 347.89 764.438 348.409 740.229C348.827 721.115 348.776 708.634 348.257 702.785C347.37 692.709 344.818 680.013 340.6 664.699C339.836 661.928 338.017 653.589 335.144 639.681C334.303 635.616 332.668 631.306 332.072 627.118C331.613 623.898 330.874 620.776 329.856 617.749C326.34 607.255 323.834 599.435 322.336 594.29C321.725 592.181 318.816 584.524 313.61 571.319C310.176 562.618 306.972 553.341 303.996 543.488C301.459 535.072 297.664 526.601 292.61 518.072C294.159 516.524 296.314 514.802 299.075 512.907C310.049 505.408 321.246 498.255 332.668 491.449C367.422 470.745 391.304 456.69 404.315 449.283C410.49 445.768 421.31 440.179 436.777 432.517Z" fill="#C6A78D"/>
<path d="M292.61 518.072C297.664 526.6 301.459 535.072 303.996 543.488C306.972 553.341 310.176 562.618 313.61 571.319C318.816 584.524 321.725 592.181 322.336 594.29C323.834 599.435 326.34 607.255 329.856 617.749C330.874 620.775 331.613 623.898 332.072 627.118C332.668 631.305 334.303 635.615 335.144 639.681C338.017 653.588 339.836 661.928 340.6 664.699C344.818 680.013 347.37 692.708 348.257 702.785C348.776 708.633 348.827 721.115 348.409 740.229C347.89 764.437 348.226 794.607 348.134 818.173C348.134 819.1 348.97 819.646 350.641 819.809C349.123 820.471 347.839 821.479 346.789 822.835C346.749 822.89 346.692 822.932 346.627 822.952C346.561 822.973 346.491 822.972 346.426 822.95C346.361 822.928 346.304 822.885 346.265 822.829C346.226 822.772 346.206 822.705 346.209 822.636V768.121C346.202 767.875 346.11 767.638 345.95 767.452C345.789 767.265 345.569 767.14 345.326 767.097C345.084 767.054 344.834 767.095 344.619 767.215C344.404 767.335 344.237 767.525 344.145 767.754C343.305 769.955 342.785 771.957 341.272 774.601C329.779 794.703 320.095 811.708 312.219 825.616C312.168 825.698 309.05 830.726 302.865 840.701C301.663 842.647 301.184 844.812 301.429 847.196C302.529 857.772 302.809 868.185 302.269 878.435C302.199 879.738 301.888 881.018 301.352 882.21L300.497 884.09C300.262 884.66 299.218 884.243 297.364 882.836L294.72 870.625C294.689 870.493 294.648 870.365 294.597 870.243C289.156 858.322 281.729 848.347 272.314 840.319C266.466 835.336 263.16 832.514 262.396 831.852C247.968 819.243 226.526 816.156 207.238 818.678C192.546 820.593 179.54 825.957 168.22 834.771C161.027 840.364 155.571 845.367 151.852 849.779C143.997 859.091 138.23 869.586 134.552 881.262C134.512 881.387 134.518 881.522 134.568 881.645C134.618 881.767 134.709 881.87 134.827 881.935L167.181 900.626C167.286 900.686 167.402 900.724 167.523 900.739C167.643 900.753 167.764 900.744 167.881 900.711C167.997 900.679 168.106 900.623 168.201 900.548C168.296 900.473 168.376 900.38 168.434 900.275C176.045 886.581 186.239 875.908 199.016 868.256C203.683 865.465 207.845 863.116 211.502 861.211C220.591 856.483 230.393 854.501 240.907 855.266C249.456 855.877 256.486 857.186 261.998 859.193C267.908 861.353 273.394 865.103 278.458 870.442C265.162 865.352 252.492 861.516 238.309 864.909C221.253 862.036 199.368 868.516 187.752 880.666C184.329 884.253 182.602 886.056 182.571 886.076C180.177 888.206 178.027 890.702 176.122 893.565C173.31 897.763 171.578 900.59 170.926 902.047C164.568 916.154 165.362 929.099 167.472 943.985L150.003 941.279C148.362 938.559 147.099 936.761 146.213 935.884C133.023 922.863 123.487 909.628 120.843 891.196C124.46 885.603 126.462 881.42 126.849 878.649C128.041 870.258 130.471 860.08 136.279 852.958C142.861 844.898 149.208 838.184 155.321 832.815C159.83 828.856 167.777 823.431 172.24 820.145C175.653 817.638 180.605 815.331 187.095 813.221C196.387 810.195 207.142 808.153 219.358 807.093C226.684 806.461 232.471 806.563 236.72 807.399C240.449 808.132 245.91 809.706 253.103 812.121C253.741 812.324 254.34 812.628 254.876 813.023C262.08 818.239 269.665 822.06 277.633 824.485C277.74 824.516 277.854 824.515 277.96 824.482C278.066 824.449 278.161 824.385 278.231 824.299C278.301 824.212 278.344 824.107 278.355 823.996C278.365 823.885 278.343 823.773 278.29 823.675C270.618 809.37 259.527 798.677 245.019 791.596C231.294 784.902 219.745 780.159 210.372 777.367C205.848 776.022 199.48 774.489 191.268 772.767C181.593 770.749 172.851 771.468 163.544 771.361C162.749 771.361 162.204 771.121 161.908 770.642C161.603 770.143 161.44 769.527 161.419 768.793C161.603 768.325 161.659 767.851 161.588 767.372C162.301 767.148 163.009 767.428 163.712 768.212C163.879 768.398 164.09 768.536 164.324 768.611C164.558 768.686 164.806 768.696 165.042 768.64C198.634 760.754 232.104 773.317 260.286 791.214C261.468 791.968 262.66 792.34 263.863 792.329C264.089 792.329 264.308 792.247 264.481 792.099C264.654 791.951 264.771 791.746 264.81 791.519C265.228 789.115 265.809 787.668 266.553 787.179C274.429 781.983 280.623 777.102 285.137 772.538C289.753 767.871 292.361 765.303 292.962 764.835C295.326 762.991 297.878 760.372 300.619 756.979C301.332 756.093 304.689 752.608 310.69 746.526C319.738 737.34 328.664 723.616 337.222 711.267C339.591 707.859 340.554 704.344 340.248 700.477C338.995 684.674 336.611 670.736 331.415 655.422C330.508 652.773 329.361 648.204 327.976 641.713C325.785 631.484 323.116 621.606 319.967 612.079C319.488 610.643 318.948 608.875 318.347 606.776C316.483 600.275 314.684 593.887 312.952 587.611C311.261 581.447 309.045 575.216 306.304 568.919C301.811 558.608 298.892 551.512 297.547 547.63C293.278 535.312 290.216 527.079 288.362 522.932L292.61 518.072Z" fill="#AB7968"/>
<path d="M849.668 522.046C848.033 527.089 846.764 532.026 844.579 536.718C835.714 555.791 828.419 575.751 822.693 596.597C819.575 607.892 814.394 620.989 811.49 629.869C810.084 634.209 808.699 639.462 807.333 645.626C802.433 665.25 798.882 685.194 796.681 705.46C796.601 706.168 796.723 706.879 797.033 707.508C806.202 726.602 816.529 744.595 828.012 761.488C835.938 773.144 847.747 787.474 863.438 804.48C863.556 804.608 863.699 804.712 863.857 804.785C864.016 804.859 864.188 804.9 864.362 804.907C864.537 804.915 864.711 804.887 864.875 804.827C865.039 804.767 865.189 804.675 865.318 804.556L878.889 792.1C879.193 791.817 879.539 791.585 879.913 791.412C882.41 790.251 884.875 788.687 887.31 786.721C894.784 780.668 905.299 777.046 914.484 774.249C920.852 772.538 927.332 770.852 933.924 769.191C940.511 767.525 948.489 766.012 954.159 765.63C963.105 765.039 971.745 766.796 980.079 770.902C980.266 770.999 980.415 771.155 980.503 771.346C980.591 771.537 980.613 771.752 980.566 771.956C980.519 772.161 980.405 772.344 980.242 772.477C980.079 772.61 979.877 772.685 979.667 772.691C966.355 772.736 957.2 772.996 944.561 774.479C939.518 775.08 933.669 776.618 927.016 779.094C915.584 783.353 908.34 786.272 905.283 787.851C905.16 787.913 905.054 788.004 904.974 788.115C904.893 788.227 904.84 788.357 904.819 788.494C904.798 788.631 904.81 788.772 904.853 788.904C904.897 789.037 904.971 789.158 905.07 789.258L918.381 802.569C918.547 802.739 918.751 802.866 918.977 802.941C919.203 803.015 919.444 803.034 919.68 802.997C924.856 802.141 929.681 800.537 934.153 798.183C935.355 797.557 936.667 797.163 938.02 797.021C943.43 796.461 948.82 795.885 954.19 795.294C965.988 793.995 980.202 795.463 991.588 801.591C993.299 802.508 996.28 803.624 997.869 804.067C998.091 804.133 998.326 804.144 998.555 804.098C998.783 804.053 998.999 803.953 999.183 803.807C1000.32 802.911 1001.44 803.135 1002.52 804.48C1001.41 805.835 1000.79 807.501 1000.65 809.477C996.361 808.377 992.153 807.119 988.027 805.702C978.658 802.523 973.645 801.851 965.025 801.912C949.549 802.014 938.738 802.498 932.595 803.364C930.567 803.649 928.916 804.383 927.643 805.565C927.541 805.659 927.468 805.779 927.431 805.912C927.394 806.045 927.394 806.186 927.432 806.319C927.47 806.452 927.544 806.572 927.646 806.665C927.748 806.759 927.874 806.822 928.01 806.849C938.616 808.988 947.526 810.058 957.078 813.711C972.514 819.61 986.605 827.985 996.906 840.242C998.068 841.608 1000.8 844.323 1005.1 848.388C1006.35 849.57 1008.74 852.423 1012.27 856.947C1012.4 857.128 1012.59 857.268 1012.81 857.354C1013.02 857.44 1013.26 857.468 1013.49 857.436C1014.57 857.273 1015.4 857.349 1015.98 857.665C1017.55 860.936 1018.49 864.329 1018.81 867.844C1019.86 879.673 1018.71 890.718 1015.35 900.978C1014.25 904.36 1010.7 911.518 1004.7 922.451C1004.4 923.019 1004.02 923.543 1003.58 924.01L987.752 941.28L974.975 943.175L974.684 934.372C974.756 920.719 972.198 909.098 967.012 899.511C960.746 887.936 950.736 878.685 936.981 871.756C932.212 869.352 928.412 867.711 925.58 866.835C911.804 862.546 897.881 861.155 883.811 862.663C871.421 864.364 859.531 867.971 848.14 873.483C860.611 863.916 875.109 857.884 891.636 855.388C903.893 853.539 918.947 856.106 929.706 860.844C938.677 864.802 950.461 871.267 958.056 879.031C964.842 885.949 969.514 892.776 972.071 899.511C972.113 899.623 972.177 899.725 972.26 899.811C972.343 899.898 972.442 899.967 972.552 900.014C972.662 900.061 972.78 900.085 972.9 900.086C973.019 900.086 973.138 900.062 973.248 900.015L1005.91 886C1006.12 885.904 1006.3 885.74 1006.42 885.533C1006.53 885.327 1006.58 885.089 1006.55 884.854C1005.1 874.818 1001.35 865.398 995.302 856.595C981.669 836.773 963.069 823.339 939.029 819.442C931.866 818.28 924.224 817.914 916.104 818.341C909.206 818.708 901.692 820.114 893.561 822.56C874.182 828.383 856.836 845.255 846.03 862.632C842.464 868.358 840.783 873.916 840.987 879.306C840.437 880.57 839.316 881.889 837.625 883.265C837.535 883.335 837.428 883.381 837.315 883.398C837.202 883.414 837.086 883.401 836.98 883.36C836.873 883.318 836.779 883.249 836.707 883.16C836.636 883.071 836.588 882.965 836.57 882.852L836.265 880.911C833.009 871.879 833.59 862.388 836.081 853.141C837.059 849.519 836.112 845.958 834.385 843.375C828.445 834.47 824.843 828.912 823.579 826.701C816.457 814.271 806.264 794.912 792.998 768.625C791.836 766.333 790.812 765.477 789.926 766.058C789.86 766.104 789.806 766.166 789.768 766.238C789.731 766.31 789.712 766.389 789.712 766.47V826.151C789.714 826.265 789.683 826.376 789.622 826.473C789.561 826.569 789.474 826.645 789.369 826.693C789.265 826.741 789.148 826.759 789.033 826.744C788.918 826.73 788.809 826.683 788.718 826.61L781.765 820.802C782.987 820.537 784.169 820.879 785.31 821.826C785.527 822.007 785.792 822.12 786.072 822.151C786.353 822.182 786.636 822.13 786.887 822.002C787.138 821.873 787.345 821.673 787.484 821.427C787.622 821.181 787.684 820.9 787.664 820.619C787.318 815.82 787.149 813.349 787.16 813.206C788 805.809 786.869 794.041 787.511 787.271C787.959 782.523 788.148 773.832 788.077 761.198C787.954 740.423 788.52 718.675 789.773 695.954C790.007 691.735 790.67 686.661 791.76 680.732C796.024 657.409 801.342 635.722 809.565 611.361C812.54 602.517 815.872 592.66 819.56 581.788C822.219 573.973 825.566 565.644 829.601 556.8C833.361 548.537 837.166 540.386 841.018 532.347L847.085 521.542C847.212 521.316 847.415 521.144 847.657 521.057C847.899 520.97 848.162 520.974 848.399 521.068C848.827 521.231 849.25 521.557 849.668 522.046Z" fill="#AB7968"/>
<path d="M867.61 548.639C872.481 557.32 877.402 566.021 882.374 574.742C893.133 593.617 902.808 613.103 912.253 629.41C921.56 645.458 929.569 663.874 937.776 679.616C944.612 692.719 949.977 703.488 953.869 711.924C962.917 730.753 973.324 749.552 979.713 768.839C979.985 769.652 980.434 770.395 981.025 771.016C981.617 771.636 982.337 772.119 983.136 772.431C989.219 774.769 994.904 776.954 999.092 781.815C1004.56 788.183 1005.7 795.737 1002.52 804.479C1001.44 803.135 1000.32 802.91 999.183 803.807C998.999 803.953 998.783 804.053 998.555 804.098C998.326 804.143 998.091 804.133 997.869 804.067C996.28 803.624 993.3 802.508 991.588 801.591C980.202 795.462 965.988 793.995 954.19 795.294C948.82 795.885 943.43 796.461 938.02 797.021C936.667 797.163 935.355 797.557 934.153 798.183C929.681 800.536 924.856 802.141 919.68 802.997C919.444 803.034 919.203 803.015 918.977 802.94C918.751 802.866 918.547 802.739 918.381 802.569L905.07 789.257C904.971 789.158 904.897 789.037 904.854 788.904C904.81 788.772 904.798 788.631 904.819 788.494C904.84 788.356 904.893 788.227 904.974 788.115C905.054 788.003 905.161 787.913 905.283 787.851C908.34 786.272 915.584 783.353 927.016 779.094C933.67 776.618 939.518 775.08 944.561 774.479C957.201 772.996 966.355 772.736 979.667 772.69C979.877 772.685 980.079 772.61 980.242 772.477C980.405 772.344 980.519 772.161 980.566 771.956C980.613 771.752 980.591 771.537 980.503 771.346C980.415 771.155 980.266 770.999 980.079 770.902C971.745 766.796 963.105 765.039 954.159 765.63C948.489 766.012 940.511 767.525 933.924 769.191C927.332 770.851 920.852 772.538 914.484 774.249C900.576 768.024 888.9 760.54 879.455 751.798C865.079 738.502 852.5 722.393 841.721 703.473C830.707 684.134 819.244 664.852 807.333 645.626C808.699 639.462 810.084 634.209 811.49 629.869C814.394 620.989 819.575 607.892 822.693 596.597C828.419 575.751 835.714 555.791 844.579 536.718C846.764 532.026 848.033 527.089 849.668 522.046C857.019 529.321 862.246 539.713 867.61 548.639Z" fill="#C6A78D"/>
<path d="M288.362 522.932C290.216 527.079 293.278 535.312 297.547 547.63C298.892 551.512 301.811 558.608 306.304 568.92C309.045 575.216 311.261 581.447 312.952 587.611C314.684 593.887 316.483 600.276 318.347 606.776C318.948 608.875 319.488 610.643 319.967 612.079C323.116 621.606 325.785 631.484 327.976 641.713C329.361 648.204 330.508 652.773 331.414 655.422C336.611 670.736 338.995 684.674 340.248 700.477C340.554 704.344 339.591 707.859 337.222 711.267C328.663 723.616 319.738 737.34 310.69 746.526C304.689 752.608 301.332 756.093 300.619 756.979C297.878 760.372 295.326 762.991 292.962 764.835C292.361 765.304 289.752 767.871 285.137 772.538C280.623 777.102 274.429 781.983 266.553 787.179C265.809 787.668 265.228 789.115 264.81 791.519C264.771 791.746 264.654 791.951 264.481 792.099C264.308 792.247 264.089 792.329 263.863 792.329C262.66 792.34 261.468 791.968 260.286 791.214C232.104 773.317 198.634 760.754 165.042 768.64C164.806 768.696 164.558 768.686 164.324 768.611C164.09 768.536 163.879 768.398 163.712 768.212C163.009 767.428 162.301 767.148 161.588 767.372C162.596 763.521 163.503 760.642 164.308 758.737C169.474 746.582 175.302 732.664 181.792 716.983C184.084 711.451 189.403 704.206 192.674 697.344C199.286 683.508 205.384 670.711 210.968 658.953C227.677 623.72 247.097 586.979 269.227 548.73C273.751 540.89 280.735 530.024 288.362 522.932Z" fill="#C6A78D"/>
<path d="M914.484 774.249C905.299 777.046 894.784 780.668 887.31 786.72C884.875 788.687 882.41 790.251 879.913 791.412C879.539 791.585 879.193 791.817 878.889 792.1L865.318 804.556C865.189 804.675 865.039 804.767 864.875 804.827C864.711 804.887 864.537 804.915 864.362 804.907C864.188 804.9 864.016 804.859 863.857 804.785C863.699 804.712 863.556 804.608 863.438 804.48C847.747 787.474 835.938 773.144 828.012 761.488C816.529 744.595 806.202 726.602 797.033 707.508C796.723 706.879 796.601 706.168 796.681 705.46C798.882 685.194 802.433 665.25 807.333 645.626C819.244 664.852 830.707 684.135 841.721 703.473C852.5 722.394 865.078 738.502 879.455 751.798C888.9 760.54 900.576 768.024 914.484 774.249Z" fill="#BF9B83"/>
<path d="M161.419 768.793C161.44 769.527 161.603 770.144 161.908 770.643C162.204 771.122 162.749 771.361 163.544 771.361C172.851 771.468 181.593 770.75 191.267 772.767C199.48 774.489 205.848 776.022 210.371 777.367C219.745 780.159 231.294 784.902 245.019 791.596C259.527 798.677 270.618 809.37 278.29 823.675C278.343 823.774 278.365 823.885 278.355 823.996C278.344 824.107 278.301 824.212 278.231 824.299C278.161 824.386 278.066 824.449 277.96 824.483C277.854 824.516 277.74 824.517 277.633 824.485C269.665 822.061 262.08 818.24 254.876 813.023C254.34 812.628 253.741 812.324 253.103 812.121C245.91 809.707 240.449 808.132 236.72 807.399C232.471 806.563 226.684 806.461 219.358 807.093C207.142 808.153 196.387 810.196 187.095 813.222C180.605 815.331 175.653 817.639 172.24 820.145C167.777 823.431 159.83 828.856 155.321 832.815C149.208 838.184 142.86 844.899 136.279 852.958C130.471 860.08 128.041 870.259 126.849 878.649C126.462 881.42 124.46 885.603 120.842 891.197C119.824 883.148 119.599 876.122 120.17 870.121C120.888 862.617 123.013 853.172 123.303 844.109C123.563 835.917 123.655 824.501 129.401 818.173C130.552 816.91 133.074 814.623 136.966 811.311C140.767 809.528 144.511 807.939 148.199 806.543C153.992 804.357 159.417 804.266 165.118 802.676C168.755 801.652 172.851 801.622 176.672 801.24C179.362 800.975 182.261 800.873 185.368 800.934C199.622 801.199 207.814 801.352 209.944 801.393C210.172 801.397 210.396 801.328 210.583 801.196C210.769 801.064 210.909 800.876 210.98 800.659C211.052 800.442 211.053 800.208 210.982 799.99C210.91 799.773 210.772 799.584 210.585 799.452C209.322 798.545 207.468 797.964 205.022 797.709C195.669 796.741 182.699 796.247 166.111 796.227C163.136 796.227 159.692 797.052 155.78 798.703C148.413 801.8 142.427 804.638 137.822 807.215C137.211 804.597 136.839 801.372 136.706 797.541C136.34 786.751 140.991 779.105 150.66 774.601C153.482 773.287 156.381 772.084 159.356 770.994C160.029 770.75 160.716 770.016 161.419 768.793Z" fill="#BF9B83"/>
<path d="M136.966 811.311C137.72 809.936 138.006 808.57 137.822 807.215C142.428 804.637 148.413 801.8 155.78 798.702C159.692 797.052 163.136 796.227 166.111 796.227C182.699 796.247 195.669 796.741 205.022 797.709C207.468 797.964 209.322 798.544 210.585 799.451C210.772 799.584 210.911 799.773 210.982 799.99C211.053 800.207 211.052 800.442 210.981 800.659C210.909 800.876 210.769 801.064 210.583 801.196C210.396 801.328 210.172 801.397 209.944 801.392C207.814 801.352 199.622 801.199 185.368 800.934C182.261 800.873 179.362 800.974 176.672 801.239C172.851 801.621 168.755 801.652 165.118 802.676C159.417 804.265 153.992 804.357 148.199 806.543C144.511 807.939 140.767 809.528 136.966 811.311Z" fill="#AB7968"/>
<path d="M1000.65 809.477C1003.8 812.024 1006.2 814.281 1007.85 816.248C1015.31 825.127 1015.63 834.801 1013.58 845.79C1013.03 848.735 1013.83 852.693 1015.98 857.665C1015.4 857.349 1014.57 857.273 1013.49 857.436C1013.26 857.468 1013.02 857.44 1012.81 857.354C1012.59 857.268 1012.4 857.128 1012.27 856.947C1008.74 852.423 1006.35 849.57 1005.1 848.388C1000.8 844.323 998.068 841.608 996.906 840.242C986.605 827.985 972.514 819.61 957.078 813.711C947.526 810.058 938.616 808.988 928.01 806.848C927.874 806.822 927.748 806.759 927.646 806.665C927.544 806.572 927.47 806.452 927.432 806.319C927.394 806.186 927.394 806.045 927.431 805.912C927.468 805.779 927.541 805.659 927.643 805.565C928.916 804.383 930.567 803.649 932.595 803.364C938.738 802.498 949.549 802.014 965.025 801.912C973.645 801.851 978.658 802.523 988.027 805.702C992.153 807.118 996.361 808.377 1000.65 809.477Z" fill="#BF9B83"/>
<path d="M297.364 882.836C291.434 877.895 285.132 873.763 278.458 870.442C273.394 865.103 267.908 861.353 261.998 859.193C256.486 857.186 249.456 855.877 240.907 855.266C230.393 854.501 220.591 856.483 211.502 861.211C207.845 863.116 203.683 865.465 199.016 868.256C186.239 875.908 176.045 886.581 168.434 900.275C168.376 900.38 168.296 900.473 168.201 900.548C168.106 900.623 167.997 900.679 167.881 900.711C167.764 900.744 167.643 900.753 167.523 900.739C167.402 900.724 167.286 900.686 167.181 900.626L134.827 881.935C134.709 881.87 134.618 881.767 134.568 881.644C134.517 881.522 134.512 881.387 134.552 881.262C138.23 869.586 143.997 859.091 151.852 849.779C155.571 845.367 161.027 840.364 168.22 834.771C179.54 825.957 192.546 820.593 207.238 818.678C226.526 816.156 247.968 819.243 262.396 831.852C263.16 832.514 266.466 835.336 272.314 840.319C281.729 848.347 289.156 858.322 294.597 870.243C294.648 870.365 294.689 870.493 294.72 870.625L297.364 882.836Z" fill="#BF9B83"/>
<path d="M848.14 873.483C846.795 875.643 844.411 877.584 840.987 879.306C840.783 873.916 842.464 868.358 846.031 862.632C856.836 845.255 874.182 828.382 893.561 822.559C901.692 820.114 909.206 818.708 916.104 818.341C924.224 817.913 931.866 818.28 939.029 819.442C963.069 823.339 981.669 836.773 995.302 856.595C1001.35 865.398 1005.1 874.818 1006.55 884.854C1006.58 885.088 1006.53 885.327 1006.42 885.533C1006.3 885.74 1006.12 885.903 1005.91 886L973.248 900.015C973.138 900.062 973.019 900.086 972.9 900.085C972.78 900.085 972.662 900.061 972.552 900.014C972.442 899.967 972.343 899.898 972.26 899.811C972.177 899.725 972.113 899.622 972.071 899.51C969.514 892.776 964.842 885.949 958.056 879.031C950.461 871.267 938.677 864.802 929.706 860.844C918.947 856.106 903.893 853.538 891.636 855.388C875.109 857.884 860.611 863.916 848.14 873.483Z" fill="#BF9B83"/>
<path d="M792.249 925.247L790.216 1017.66C789.055 1021.62 788.902 1024.64 789.758 1026.73L789.956 1071.66C788.887 1078.69 785.519 1083.89 779.854 1087.25C777.042 1088.92 773.063 1089.9 767.918 1090.2C751.534 1091.15 735.349 1090.34 719.027 1089.79C699.648 1089.51 666.972 1090.05 607.261 1090.49C531.869 1091.04 460.451 1089.65 382.613 1089.71C370.244 1089.73 363.244 1089.47 361.614 1088.93C354.91 1086.76 350.111 1081.88 347.217 1074.3C346.623 1072.77 346.352 1071.13 346.423 1069.49C347.034 1054.94 346.652 1040.39 345.276 1025.83L345.139 1006.95C342.877 976.456 341.664 946.16 341.501 916.062C341.929 899.006 341.955 882.037 341.578 865.154C341.466 859.703 341.425 855.963 341.456 853.936C341.557 848.77 341.996 845.082 342.77 842.871C348.73 825.815 369.836 830.43 383.698 830.323C455.213 829.783 525.577 829.483 594.79 829.422C615.504 829.401 632.738 829.457 646.493 829.59C685.205 829.972 726.623 828.795 762.905 829.146C769.294 829.208 774.765 828.933 780.68 833.365C782.941 835.056 785.993 837.603 789.834 841.006C792.264 843.161 792.814 844.735 792.845 848.082C793.079 870.64 792.57 892.241 791.317 912.883C791.057 917.193 791.714 920.999 792.249 925.247ZM560.861 979.015C565.964 981.266 571.775 981.347 577.014 979.241C582.253 977.135 586.492 973.014 588.799 967.785C591.105 962.556 591.29 956.646 589.312 951.357C587.334 946.068 583.357 941.832 578.253 939.582C573.15 937.331 567.34 937.25 562.101 939.356C556.862 941.462 552.622 945.583 550.316 950.812C548.01 956.041 547.825 961.95 549.803 967.239C551.78 972.528 555.758 976.764 560.861 979.015Z" fill="#A5B1BD"/>
<path d="M974.685 934.371L963.895 924.269C963.533 923.927 963.255 923.509 963.085 923.046C958.581 910.779 952.142 899.709 943.767 889.836C935.677 881.777 926.751 875.669 916.99 871.512C906.761 867.151 895.701 864.201 883.811 862.663C897.881 861.155 911.804 862.545 925.58 866.835C928.412 867.711 932.213 869.352 936.981 871.756C950.736 878.684 960.746 887.936 967.012 899.51C972.198 909.098 974.756 920.718 974.685 934.371Z" fill="#ED7966"/>
<path d="M883.811 862.663C895.701 864.201 906.761 867.151 916.99 871.512C926.751 875.669 935.677 881.777 943.767 889.836C942.921 896.245 942.631 902.491 942.896 908.573C943.614 924.758 951.546 936.129 963.497 946.965C956.324 949.135 949.483 952.008 942.972 955.584C935.554 959.67 930.531 962.319 927.903 963.532C915.493 969.258 903.317 975.254 891.376 981.52L859.526 997.078C863.031 993.533 866.301 991.001 869.337 989.483C878.217 985.035 885.568 981.627 885.996 972.518C886.18 968.652 884.162 966.787 880.723 965.396C880.294 965.227 879.818 965.179 879.348 965.259C874.182 966.237 870.056 968.208 865.242 969.401C848.593 973.537 832.128 978.998 815.846 985.784C808.653 988.78 801.765 992.555 795.183 997.109C792.753 998.805 791.699 1000.82 791.393 1003.57C790.853 1008.27 790.461 1012.97 790.216 1017.66L792.249 925.247C793.584 921.202 796.274 917.346 800.318 913.678C806.921 907.672 812.912 902.093 820.615 896.347C824.66 893.321 829.239 889.683 834.354 885.435C836.046 884.029 836.682 882.521 836.265 880.911L836.57 882.852C836.588 882.965 836.636 883.071 836.708 883.16C836.779 883.249 836.873 883.318 836.98 883.359C837.086 883.401 837.202 883.414 837.315 883.398C837.428 883.381 837.535 883.335 837.625 883.264C839.316 881.889 840.437 880.569 840.987 879.306C844.411 877.584 846.795 875.643 848.14 873.483C859.531 867.971 871.421 864.364 883.811 862.663Z" fill="#FAB69C"/>
<path d="M238.309 864.909C224.264 867.263 217.127 872.092 205.741 881.201C200.035 885.745 195.985 890.035 193.591 894.07C188.241 903.041 182.724 912.639 181.135 922.787C180.401 927.494 179.887 930.418 179.591 931.559C177.467 939.95 173.845 940.546 167.792 944.092C167.691 944.051 167.584 944.015 167.472 943.985C165.362 929.099 164.568 916.154 170.926 902.048C171.578 900.591 173.31 897.763 176.122 893.565C178.027 890.702 180.177 888.206 182.571 886.077C182.602 886.056 184.329 884.253 187.752 880.666C199.368 868.516 221.253 862.036 238.309 864.909Z" fill="#ED7966"/>
<path d="M278.458 870.442C285.132 873.764 291.434 877.895 297.363 882.837C299.218 884.243 300.262 884.661 300.497 884.09C300.965 885.73 301.76 886.938 302.881 887.712C314.119 895.384 325.215 903.27 336.168 911.371C337.268 912.186 339.046 913.75 341.501 916.062C341.664 946.16 342.877 976.457 345.139 1006.95L343.045 1000.04C342.969 999.795 342.839 999.566 342.665 999.374C342.49 999.181 342.276 999.029 342.036 998.928C331.659 994.588 322.29 988.811 312.096 984.944C293.971 978.077 277.933 972.682 263.985 968.759C263.803 968.707 263.609 968.718 263.435 968.791C263.26 968.863 263.115 968.991 263.022 969.156C258.238 977.944 262.961 986.029 270.419 990.644C276.726 994.537 283.186 998.052 289.798 1001.19C292.213 1002.34 294.653 1004.15 297.119 1006.63C284.571 1002.12 272.941 996.269 260.806 990.858C238.569 980.924 218.319 968.514 196.739 956.456C188.404 951.402 178.756 947.281 167.792 944.092C173.845 940.546 177.467 939.95 179.591 931.56C179.887 930.419 180.401 927.494 181.135 922.787C182.724 912.639 188.241 903.041 193.591 894.07C195.985 890.035 200.035 885.746 205.741 881.202C217.127 872.093 224.264 867.263 238.309 864.91C252.492 861.517 265.162 865.353 278.458 870.442Z" fill="#FAB69C"/>
<path d="M974.684 934.372L974.975 943.175C974.527 943.46 974.394 943.501 974.577 943.297L963.497 946.965C951.546 936.129 943.614 924.759 942.895 908.574C942.631 902.491 942.921 896.245 943.767 889.836C952.142 899.709 958.581 910.779 963.084 923.047C963.255 923.509 963.533 923.927 963.895 924.269L974.684 934.372Z" fill="#F89983"/>
<path d="M550.316 950.812C545.513 961.702 550.235 974.329 560.861 979.015C571.488 983.702 583.996 978.674 588.799 967.785C593.601 956.896 588.88 944.269 578.253 939.582C567.627 934.895 555.119 939.923 550.316 950.812Z" fill="#E4E5E1"/>
<path d="M1074.3 1085.98C1065.23 1088.1 1056.84 1092.31 1049.11 1098.62C1045.89 1101.26 1043.42 1103.11 1041.69 1104.17C1038.21 1106.32 1035.52 1107.85 1033.6 1108.77C1011.04 1119.49 987.619 1130.43 963.329 1141.61C951.948 1146.85 940.277 1151.94 928.315 1156.88C906.226 1166.04 894.453 1170.87 892.996 1171.38C886.302 1173.77 872.832 1179 852.587 1187.09C840.707 1191.85 821.822 1198.91 795.932 1208.26C790.206 1210.33 786.156 1211.72 783.782 1212.42C773.481 1215.46 764.051 1219.62 753.582 1222.99C732.767 1229.7 707.667 1238.11 678.282 1248.24C674.522 1249.54 666.713 1251.91 654.853 1255.35C643.36 1258.68 629.911 1263.69 618.357 1266.61C595.88 1272.27 576.144 1277.62 559.149 1282.68C555.135 1283.88 547.565 1285.69 536.439 1288.1C528.858 1289.75 523.142 1291.65 515.226 1294.18C514.897 1294.29 514.539 1294.27 514.225 1294.13C513.91 1293.98 513.662 1293.72 513.529 1293.4C509.392 1283.31 506.32 1273.94 504.313 1265.3C503.376 1261.28 501.664 1255.37 499.178 1247.55C496.662 1239.61 494.736 1231.5 493.401 1223.24C502.372 1212.37 513.193 1207.39 527.146 1200.93C556.261 1187.45 589.441 1176.95 615.728 1166.81C634.638 1159.52 653.865 1151.48 673.407 1142.71C683.82 1138.04 693.845 1132.81 703.484 1127.05C703.522 1127.03 703.553 1127 703.57 1126.96C703.588 1126.93 703.592 1126.89 703.58 1126.85C703.569 1126.81 703.544 1126.77 703.509 1126.75C703.474 1126.73 703.433 1126.72 703.392 1126.73H702.98C702.965 1126.72 702.951 1126.72 702.939 1126.71C702.927 1126.71 702.917 1126.7 702.91 1126.68C702.904 1126.67 702.901 1126.66 702.903 1126.65C702.904 1126.64 702.91 1126.63 702.919 1126.62C703.723 1125.49 705.939 1123.61 709.567 1120.99C729.603 1106.55 750.465 1099.67 774.306 1094.13C774.367 1094.11 774.429 1094.08 774.49 1094.04L787.374 1086.53C787.445 1086.49 787.511 1086.44 787.572 1086.38C791.556 1082.14 796.37 1077.62 802.015 1072.81C805.917 1069.47 811.215 1066.13 817.909 1062.78C821.761 1060.86 839.999 1051.58 872.623 1034.97C893.561 1024.31 921.55 1011.64 956.589 996.971C957.975 996.391 961.918 995.377 968.418 993.93C968.807 993.844 969.171 993.668 969.479 993.415C969.787 993.163 970.032 992.841 970.193 992.476C970.353 992.112 970.426 991.714 970.404 991.316C970.383 990.918 970.268 990.531 970.069 990.186L968.724 987.863C968.391 987.282 967.89 986.817 967.287 986.527C966.684 986.238 966.007 986.139 965.346 986.243C961.51 986.854 957.491 987.465 953.685 988.688C941.123 992.677 925.014 996.589 911.366 1003.51C911.116 1003.63 910.831 1003.67 910.56 1003.6C910.29 1003.54 910.049 1003.38 909.88 1003.16C909.712 1002.94 909.624 1002.67 909.633 1002.39C909.642 1002.11 909.747 1001.84 909.93 1001.63L921.957 988.077C922.77 987.163 923.467 986.157 924.036 985.081C928.682 976.217 932.121 968.392 938.983 963.669C947.195 958.015 955.957 953.404 965.27 949.838C968.092 948.758 971.195 946.578 974.577 943.297C974.394 943.501 974.527 943.46 974.975 943.175L987.752 941.279C1010.81 938.956 1034.59 942.808 1053.19 956.578C1071.79 970.363 1088.3 991.959 1091.42 1014.93C1093.25 1028.41 1093.51 1041.48 1089.28 1054.91C1086.54 1063.58 1084.78 1072.78 1080.44 1079.55C1078.59 1082.43 1076.54 1084.57 1074.3 1085.98Z" fill="#364359"/>
<path d="M150.003 941.28L167.472 943.985C167.584 944.015 167.691 944.051 167.793 944.092C178.756 947.281 188.404 951.402 196.739 956.456L208.92 981.001C208.96 981.082 209.006 981.164 209.057 981.245C213.214 987.104 218.67 992.942 225.426 998.76C227.382 1000.43 229.129 1002.38 230.668 1004.6C230.786 1004.76 230.844 1004.96 230.832 1005.16C230.819 1005.36 230.738 1005.55 230.601 1005.7C230.464 1005.85 230.28 1005.94 230.08 1005.97C229.881 1006 229.678 1005.96 229.506 1005.85C223.556 1002.3 216.577 998.571 208.568 994.679C205.664 993.263 196.673 990.43 181.593 986.182C179.606 985.621 176.713 985.845 172.912 986.854C172.448 986.972 172.032 987.253 171.736 987.649C170.004 989.941 169.759 992.229 171.002 994.511C171.147 994.777 171.345 995.01 171.584 995.197C171.823 995.383 172.099 995.519 172.393 995.596C178.73 997.247 185.215 999.06 191.848 1001.04C194.375 1001.78 199.093 1004.07 206.001 1007.91C211.024 1010.71 215.741 1012.89 220.153 1014.47C229.486 1017.83 239.42 1022.6 249.955 1028.76C264 1036.98 279.559 1044.15 294.475 1051.72C299.141 1066.13 304.165 1077.53 309.544 1085.92C317.125 1097.73 322.183 1105.77 324.72 1110.05C331.338 1121.19 335.465 1135.65 321.618 1143.29C310.843 1149.24 295.239 1148.73 283.303 1148.31C265.727 1147.69 248.254 1147 230.882 1146.23C201.461 1144.93 178.628 1135.48 145.785 1123.94C133.482 1118.55 119.574 1113.51 108.876 1107.53C105.401 1105.59 98.2947 1102.2 87.5557 1097.35C76.888 1092.55 69.98 1086.38 62.4607 1078.63C62.0276 1078.19 61.5063 1077.84 60.9324 1077.62C58.701 1076.77 56.6786 1076.89 54.865 1078C39.2761 1045.57 42.7454 1003.47 65.9605 975.117C86.7253 949.736 114.739 938.457 150.003 941.28Z" fill="#364359"/>
<path d="M974.578 943.297C971.195 946.578 968.092 948.758 965.27 949.838C955.957 953.404 947.195 958.015 938.983 963.669C932.121 968.392 928.682 976.217 924.036 985.081C923.468 986.157 922.77 987.163 921.957 988.077L909.93 1001.63C909.747 1001.84 909.642 1002.11 909.633 1002.39C909.624 1002.67 909.712 1002.94 909.881 1003.16C910.05 1003.38 910.29 1003.54 910.56 1003.6C910.831 1003.67 911.116 1003.63 911.366 1003.51C925.014 996.589 941.123 992.677 953.685 988.688C957.491 987.465 961.51 986.854 965.347 986.243C966.007 986.139 966.684 986.238 967.287 986.527C967.891 986.817 968.392 987.282 968.724 987.863L970.069 990.186C970.268 990.531 970.383 990.918 970.404 991.316C970.426 991.714 970.353 992.112 970.193 992.476C970.032 992.841 969.787 993.163 969.479 993.415C969.171 993.668 968.807 993.844 968.418 993.93C961.918 995.377 957.975 996.391 956.589 996.971C921.55 1011.64 893.561 1024.31 872.623 1034.97C839.999 1051.58 821.761 1060.86 817.909 1062.78C811.215 1066.13 805.917 1069.47 802.015 1072.81C796.37 1077.62 791.556 1082.14 787.572 1086.38C787.512 1086.44 787.445 1086.49 787.374 1086.53L774.49 1094.04C774.429 1094.08 774.367 1094.11 774.306 1094.13C750.465 1099.67 729.603 1106.55 709.567 1120.99C705.94 1123.61 703.724 1125.49 702.919 1126.62C702.91 1126.63 702.904 1126.64 702.903 1126.65C702.901 1126.66 702.904 1126.67 702.91 1126.68C702.917 1126.7 702.927 1126.71 702.939 1126.71C702.951 1126.72 702.965 1126.72 702.98 1126.73H703.392C703.433 1126.72 703.475 1126.73 703.509 1126.75C703.544 1126.77 703.569 1126.81 703.58 1126.85C703.592 1126.89 703.588 1126.93 703.57 1126.96C703.553 1127 703.522 1127.03 703.484 1127.05C693.845 1132.81 683.82 1138.04 673.407 1142.71C653.865 1151.48 634.638 1159.52 615.728 1166.81C589.441 1176.95 556.261 1187.45 527.146 1200.93C513.193 1207.39 502.372 1212.37 493.401 1223.24C491.2 1213.32 488.052 1200.57 482.183 1192.17C481.979 1191.88 481.85 1191.54 481.808 1191.18C481.765 1190.83 481.811 1190.47 481.941 1190.14C482.071 1189.8 482.281 1189.51 482.553 1189.28C482.824 1189.04 483.149 1188.88 483.498 1188.81C491.149 1187.13 498.659 1184.64 506.025 1181.36C515.99 1176.92 526.016 1172.62 536.102 1168.46C545.502 1164.58 552.547 1160.84 560.219 1158.12C567.443 1155.57 573.516 1153.11 578.437 1150.75C587.301 1146.5 596.441 1143.72 606.91 1138.75C613.104 1135.83 628.153 1129.11 652.056 1118.6C664.68 1113.05 674.4 1110.75 686.718 1105.18C694.024 1101.87 702.17 1098.4 711.156 1094.77C712.685 1094.15 715.308 1092.49 719.027 1089.79C735.35 1090.34 751.535 1091.15 767.918 1090.2C773.063 1089.9 777.042 1088.92 779.854 1087.25C785.519 1083.89 788.887 1078.69 789.956 1071.66C793.319 1067.31 796.355 1064.15 799.065 1062.18C804.368 1058.32 813.523 1053.98 819.85 1049.82C827.584 1044.74 835.572 1040.25 843.814 1036.36C862.46 1027.58 873.326 1021.61 894.998 1010.73C901.254 1007.58 907.683 1002.23 914.285 994.694C914.465 994.491 914.586 994.243 914.634 993.976C914.683 993.709 914.657 993.435 914.56 993.181C912.13 986.778 907.882 983.599 900.683 984.776C895.915 985.56 893.225 986.12 892.614 986.457C881.518 992.56 870.58 997.522 859.801 1001.34C859.77 1001.35 859.736 1001.36 859.703 1001.36C859.67 1001.36 859.637 1001.35 859.607 1001.34C859.577 1001.32 859.55 1001.3 859.529 1001.28C859.507 1001.25 859.49 1001.22 859.48 1001.19V1001.17C859.468 1001.14 859.462 1001.11 859.463 1001.07C859.464 1001.04 859.472 1001.01 859.486 1000.97C859.5 1000.94 859.521 1000.92 859.546 1000.89C859.571 1000.87 859.6 1000.85 859.633 1000.84C867.845 997.782 876.943 993.507 886.928 988.016C890.953 985.805 892.435 983.639 891.376 981.52C903.317 975.254 915.493 969.258 927.903 963.532C930.531 962.319 935.554 959.67 942.972 955.585C949.483 952.008 956.324 949.135 963.497 946.965L974.578 943.297Z" fill="#2A364E"/>
<path d="M196.739 956.456C218.319 968.514 238.569 980.924 260.806 990.858C272.941 996.268 284.571 1002.12 297.119 1006.63C309.957 1012.21 322.861 1017.62 335.831 1022.85C338.379 1023.89 341.527 1024.88 345.276 1025.83C346.652 1040.39 347.034 1054.94 346.423 1069.49C346.352 1071.13 346.623 1072.77 347.217 1074.3C350.111 1081.88 354.91 1086.76 361.614 1088.93C363.244 1089.47 370.244 1089.73 382.613 1089.71C460.451 1089.65 531.869 1091.04 607.261 1090.49C666.972 1090.05 699.648 1089.51 719.027 1089.79C715.308 1092.49 712.685 1094.15 711.156 1094.77C702.17 1098.4 694.024 1101.87 686.718 1105.18C674.4 1110.75 664.68 1113.05 652.056 1118.6C628.153 1129.11 613.104 1135.83 606.909 1138.75C596.44 1143.72 587.301 1146.5 578.437 1150.75C573.516 1153.11 567.443 1155.57 560.219 1158.12C552.547 1160.84 545.502 1164.58 536.102 1168.46C526.016 1172.62 515.99 1176.92 506.025 1181.36C498.659 1184.64 491.149 1187.12 483.498 1188.81C483.149 1188.88 482.824 1189.04 482.553 1189.28C482.281 1189.51 482.071 1189.8 481.941 1190.14C481.811 1190.47 481.765 1190.83 481.808 1191.18C481.85 1191.54 481.979 1191.88 482.183 1192.17C488.052 1200.57 491.2 1213.32 493.401 1223.24C494.736 1231.5 496.662 1239.61 499.178 1247.55C501.664 1255.37 503.376 1261.28 504.313 1265.3C506.321 1273.94 509.392 1283.31 513.529 1293.4C513.662 1293.72 513.91 1293.98 514.225 1294.13C514.539 1294.27 514.897 1294.29 515.226 1294.18C523.142 1291.65 528.858 1289.75 536.439 1288.1C547.565 1285.69 555.135 1283.88 559.149 1282.68C576.144 1277.62 595.88 1272.27 618.357 1266.61C629.911 1263.69 643.36 1258.68 654.853 1255.35C666.713 1251.91 674.522 1249.54 678.282 1248.24C707.667 1238.11 732.767 1229.7 753.582 1222.99C764.051 1219.62 773.481 1215.46 783.782 1212.42C786.156 1211.72 790.206 1210.33 795.932 1208.26C821.822 1198.91 840.707 1191.85 852.587 1187.09C872.832 1179 886.302 1173.77 892.996 1171.38C894.453 1170.87 906.226 1166.04 928.315 1156.88C940.277 1151.94 951.948 1146.85 963.329 1141.61C987.619 1130.43 1011.04 1119.49 1033.6 1108.77C1035.52 1107.85 1038.21 1106.32 1041.69 1104.17C1043.42 1103.11 1045.89 1101.26 1049.11 1098.62C1056.84 1092.31 1065.23 1088.1 1074.3 1085.98C1073.1 1090.6 1071.6 1094.62 1069.81 1098.04C1068.58 1100.38 1066.08 1099.87 1064.55 1101.86C1062.29 1104.79 1060.84 1107.29 1057.86 1109.98C1048.71 1118.2 1038.57 1125.52 1027.44 1131.95C1007.52 1143.45 987.14 1154.56 966.294 1165.3C950.501 1173.3 934.006 1180.8 916.807 1187.8C898.049 1194.92 879.185 1202.24 860.213 1209.76C842.5 1216.79 824.512 1222.05 809.412 1228.19C799.111 1232.38 787.817 1234.82 777.012 1238.98C763.119 1244.31 749.838 1248.53 736.037 1252.87L714.014 1260.21C713.768 1260.29 713.548 1260.43 713.376 1260.62C713.204 1260.81 713.087 1261.04 713.036 1261.29C710.173 1274.29 706.052 1286.91 700.672 1299.18C697.875 1308.12 690.111 1307.19 681.522 1306.2C675.205 1305.46 668.307 1304.45 660.829 1303.16C635.907 1298.86 621.041 1296.26 616.232 1295.38C606.237 1293.54 599.604 1294.31 589.93 1296.31C559.486 1302.6 529.393 1309 499.652 1315.49C492.637 1317.02 487.884 1309.34 484.812 1303.16L507.523 1297.29C507.609 1297.26 507.688 1297.22 507.756 1297.17C507.823 1297.11 507.877 1297.04 507.912 1296.96C507.947 1296.87 507.964 1296.79 507.96 1296.7C507.956 1296.61 507.932 1296.52 507.89 1296.45C504.69 1290.64 502.291 1284.96 500.691 1279.42C493.936 1255.87 487.864 1235.71 482.474 1218.91C479.631 1210.1 478.882 1203.86 478.072 1194.92C478.03 1194.44 477.809 1194 477.453 1193.67C477.097 1193.34 476.631 1193.16 476.146 1193.16H469.177C469.005 1193.16 468.84 1193.14 468.688 1193.09C450.033 1186.83 433.353 1176.8 418.651 1162.99C391.437 1137.46 368.66 1116.24 350.32 1099.32C341.293 1091.01 331.073 1079.58 319.662 1065.03C319.239 1064.48 318.702 1064.04 318.088 1063.73L294.475 1051.72C279.559 1044.15 264 1036.98 249.955 1028.76C239.42 1022.6 229.486 1017.83 220.153 1014.47C215.741 1012.89 211.024 1010.71 206 1007.91C199.092 1004.07 194.375 1001.78 191.848 1001.04C185.215 999.06 178.73 997.247 172.393 995.596C172.099 995.519 171.823 995.383 171.584 995.196C171.345 995.01 171.147 994.776 171.002 994.511C169.759 992.228 170.003 989.941 171.736 987.649C172.032 987.253 172.448 986.972 172.912 986.854C176.713 985.845 179.606 985.621 181.593 986.181C196.673 990.43 205.664 993.263 208.568 994.679C216.577 998.571 223.556 1002.29 229.506 1005.85C229.678 1005.96 229.881 1006 230.08 1005.97C230.28 1005.94 230.464 1005.85 230.601 1005.7C230.738 1005.55 230.819 1005.36 230.832 1005.16C230.844 1004.96 230.786 1004.76 230.668 1004.6C229.129 1002.38 227.382 1000.43 225.425 998.759C218.67 992.942 213.214 987.104 209.057 981.245C209.006 981.164 208.96 981.082 208.92 981L196.739 956.456Z" fill="#202D3E"/>
<path d="M859.526 997.078L789.758 1026.73C788.902 1024.64 789.055 1021.62 790.216 1017.66C790.461 1012.97 790.853 1008.27 791.393 1003.57C791.699 1000.82 792.753 998.805 795.183 997.109C801.765 992.555 808.653 988.78 815.846 985.784C832.128 978.998 848.593 973.537 865.242 969.401C870.056 968.208 874.182 966.237 879.348 965.259C879.818 965.179 880.294 965.227 880.723 965.396C884.162 966.787 886.179 968.652 885.996 972.518C885.568 981.627 878.217 985.035 869.337 989.483C866.301 991.001 863.03 993.533 859.526 997.078Z" fill="#F89983"/>
<path d="M345.139 1006.95L345.276 1025.83C341.527 1024.88 338.378 1023.89 335.831 1022.85C322.861 1017.62 309.957 1012.21 297.119 1006.63C294.653 1004.15 292.213 1002.34 289.798 1001.19C283.186 998.051 276.726 994.536 270.419 990.644C262.961 986.029 258.238 977.944 263.022 969.156C263.115 968.991 263.26 968.862 263.435 968.79C263.609 968.718 263.803 968.707 263.985 968.759C277.933 972.681 293.971 978.076 312.096 984.943C322.29 988.81 331.659 994.587 342.036 998.928C342.276 999.028 342.49 999.18 342.665 999.373C342.839 999.566 342.969 999.795 343.045 1000.04L345.139 1006.95Z" fill="#F89983"/>
<path d="M891.376 981.521C892.435 983.64 890.953 985.805 886.928 988.016C876.943 993.508 867.845 997.782 859.633 1000.84C859.6 1000.85 859.571 1000.87 859.546 1000.89C859.521 1000.92 859.5 1000.94 859.486 1000.97C859.472 1001.01 859.464 1001.04 859.463 1001.07C859.462 1001.11 859.468 1001.14 859.48 1001.17V1001.19C859.49 1001.22 859.507 1001.25 859.529 1001.28C859.55 1001.3 859.577 1001.32 859.607 1001.34C859.637 1001.35 859.67 1001.36 859.703 1001.36C859.737 1001.36 859.77 1001.35 859.801 1001.34C870.581 997.522 881.518 992.56 892.614 986.457C893.225 986.121 895.915 985.56 900.683 984.776C907.882 983.599 912.13 986.778 914.56 993.182C914.657 993.435 914.683 993.71 914.634 993.977C914.586 994.243 914.465 994.492 914.285 994.695C907.683 1002.23 901.254 1007.58 894.998 1010.73C873.326 1021.61 862.46 1027.58 843.814 1036.36C835.572 1040.25 827.584 1044.74 819.85 1049.82C813.523 1053.98 804.369 1058.32 799.065 1062.19C796.355 1064.15 793.319 1067.31 789.957 1071.66L789.758 1026.73L859.526 997.079L891.376 981.521Z" fill="#202D3E"/>
<path d="M484.812 1303.16C484.384 1302.72 484.033 1302.09 483.757 1301.28L482.932 1299.53C473.059 1273.8 467.404 1250.6 459.946 1225.91L457.134 1208.38C457.105 1208.2 457.036 1208.02 456.933 1207.86C456.829 1207.7 456.692 1207.57 456.532 1207.47C456.371 1207.37 456.191 1207.3 456.002 1207.27C455.813 1207.25 455.621 1207.26 455.438 1207.31L435.982 1213.08L422.579 1213.89C411.809 1213.09 401.065 1212.6 390.346 1212.4C379.353 1212.21 370.916 1211.11 365.038 1209.1C349.938 1203.95 334.909 1198.67 319.952 1193.28C301.2 1186.51 281.53 1181.79 263.572 1173.37C252.13 1168.01 243.393 1164.2 237.362 1161.92C232.838 1160.22 219.791 1154.78 198.221 1145.59C189.77 1141.99 179.652 1139.04 170.528 1134.81C162.367 1131.01 154.119 1127.39 145.785 1123.94C178.628 1135.48 201.461 1144.93 230.882 1146.23C248.253 1147 265.727 1147.69 283.303 1148.31C295.239 1148.73 310.843 1149.24 321.618 1143.29C335.465 1135.65 331.338 1121.19 324.72 1110.05C322.183 1105.77 317.125 1097.73 309.544 1085.92C304.164 1077.53 299.141 1066.13 294.475 1051.72L318.088 1063.73C318.701 1064.04 319.239 1064.48 319.662 1065.03C331.073 1079.58 341.292 1091.01 350.32 1099.32C368.66 1116.24 391.437 1137.46 418.651 1162.99C433.353 1176.8 450.032 1186.83 468.688 1193.09C468.84 1193.14 469.005 1193.16 469.177 1193.16H476.146C476.631 1193.16 477.097 1193.34 477.453 1193.67C477.809 1194 478.03 1194.44 478.072 1194.92C478.882 1203.86 479.631 1210.1 482.474 1218.91C487.864 1235.71 493.936 1255.87 500.691 1279.42C502.291 1284.96 504.69 1290.64 507.89 1296.45C507.932 1296.52 507.956 1296.61 507.96 1296.7C507.964 1296.79 507.947 1296.87 507.912 1296.96C507.876 1297.04 507.823 1297.11 507.756 1297.17C507.688 1297.22 507.609 1297.26 507.523 1297.29L484.812 1303.16Z" fill="#2A364E"/>
<path d="M145.785 1123.94C154.119 1127.39 162.367 1131.01 170.528 1134.81C179.652 1139.04 189.77 1141.99 198.221 1145.59C219.791 1154.78 232.838 1160.22 237.362 1161.92C243.393 1164.2 252.13 1168.01 263.572 1173.37C281.53 1181.79 301.2 1186.51 319.952 1193.28C334.909 1198.67 349.938 1203.95 365.038 1209.1C370.916 1211.11 379.353 1212.21 390.347 1212.4C401.065 1212.6 411.809 1213.09 422.579 1213.89C399.97 1215.65 377.524 1214.86 355.241 1211.53C346.071 1210.16 339.372 1208.76 335.144 1207.35C319.173 1202 303.171 1196.83 287.292 1191.18C267.098 1183.97 246.16 1182.25 224.478 1186.01C220.514 1186.19 217.392 1185.68 215.109 1184.47C200.57 1176.77 186.127 1169.84 171.781 1163.67C158.23 1157.22 140.767 1148.42 119.391 1137.27C105.962 1130.27 94.0358 1122.84 83.6126 1114.99C71.6102 1105.94 62.0277 1093.61 54.8649 1078C56.6785 1076.89 58.701 1076.77 60.9324 1077.62C61.5063 1077.84 62.0276 1078.19 62.4607 1078.63C69.98 1086.38 76.888 1092.55 87.5557 1097.35C98.2947 1102.2 105.401 1105.59 108.876 1107.53C119.574 1113.51 133.482 1118.55 145.785 1123.94Z" fill="#202D3E"/>
<path d="M916.807 1187.8L939.793 1194.46L961.113 1208.58C961.816 1209.37 962.438 1210.25 962.978 1211.23C963.619 1212.38 964.2 1213.27 964.72 1213.92C970.313 1220.74 974.893 1228.16 978.459 1236.15L978.719 1252.43L979.988 1261.94C978.633 1261.66 977.863 1262.12 977.68 1263.31C974.878 1281.59 965.275 1294.68 948.871 1302.57C935.85 1308.84 924.678 1310.29 909.165 1312.57C887.769 1315.7 864.615 1315.86 844.319 1315.06C823.457 1314.25 811.032 1314.63 793.365 1313.03C789.625 1312.69 783.166 1312.4 773.985 1312.16C757.133 1311.72 740.103 1309.1 722.894 1304.29C729.415 1295 733.449 1285.29 734.998 1275.14C736.17 1267.47 736.516 1260.05 736.037 1252.87C749.838 1248.53 763.119 1244.32 777.012 1238.98C787.817 1234.82 799.111 1232.38 809.412 1228.19C824.512 1222.05 842.5 1216.79 860.213 1209.76C879.185 1202.24 898.049 1194.92 916.807 1187.8ZM920.414 1212.95C925.411 1225.99 925.641 1237.56 926.298 1253.59C926.93 1269.19 925.89 1284.47 923.18 1299.44C923.15 1299.59 923.178 1299.75 923.259 1299.88C923.341 1300.01 923.469 1300.11 923.619 1300.15C923.768 1300.19 923.927 1300.17 924.064 1300.1C924.202 1300.03 924.306 1299.91 924.357 1299.76C931.25 1281.09 931.632 1262 929.675 1242.24C928.59 1231.28 928.514 1220.9 921.163 1212.51C921.094 1212.43 921.001 1212.38 920.9 1212.37C920.798 1212.35 920.694 1212.37 920.606 1212.42C920.517 1212.48 920.449 1212.56 920.414 1212.65C920.379 1212.75 920.379 1212.86 920.414 1212.95Z" fill="#C5BFC0"/>
<path d="M459.946 1225.91C458.245 1225.12 456.879 1223.92 455.85 1222.31C455.81 1222.24 455.754 1222.19 455.687 1222.16C455.621 1222.13 455.546 1222.11 455.47 1222.12C455.395 1222.12 455.321 1222.14 455.256 1222.19C455.192 1222.23 455.138 1222.29 455.101 1222.35C441.245 1249.15 437.979 1277.27 445.305 1306.7C445.362 1306.94 445.335 1307.18 445.228 1307.4C445.122 1307.61 444.943 1307.78 444.724 1307.88L443.135 1308.57C443.122 1308.57 443.113 1308.59 443.108 1308.6C443.102 1308.61 443.101 1308.63 443.104 1308.64C443.108 1308.66 443.115 1308.67 443.126 1308.68C443.137 1308.69 443.15 1308.7 443.165 1308.7C456.716 1306.74 469.972 1303.68 482.932 1299.53L483.757 1301.28C466.763 1306.35 449.65 1309.59 432.421 1311.01C429.008 1307.41 426.624 1304.45 425.269 1302.13C420.001 1293.18 416.751 1283.95 415.518 1274.47C414.744 1268.56 414.708 1260.78 415.411 1251.13C416.053 1242.24 419.308 1232.66 425.177 1222.41C427.765 1217.89 431.367 1214.78 435.982 1213.08L455.438 1207.31C455.621 1207.26 455.813 1207.25 456.002 1207.28C456.191 1207.3 456.371 1207.37 456.532 1207.47C456.692 1207.57 456.829 1207.7 456.933 1207.86C457.037 1208.02 457.105 1208.2 457.134 1208.38L459.946 1225.91Z" fill="#F89983"/>
<path d="M921.163 1212.51C928.514 1220.9 928.59 1231.28 929.675 1242.24C931.632 1262 931.25 1281.09 924.357 1299.76C924.306 1299.91 924.201 1300.03 924.064 1300.1C923.927 1300.17 923.768 1300.19 923.619 1300.15C923.469 1300.11 923.341 1300.01 923.259 1299.88C923.178 1299.75 923.15 1299.59 923.18 1299.44C925.89 1284.47 926.929 1269.19 926.298 1253.59C925.641 1237.56 925.411 1225.99 920.414 1212.95C920.379 1212.86 920.379 1212.75 920.414 1212.65C920.449 1212.56 920.517 1212.48 920.605 1212.42C920.694 1212.37 920.798 1212.35 920.9 1212.37C921.001 1212.38 921.094 1212.43 921.163 1212.51Z" fill="#A5B1BD"/>
<path d="M210.769 1215.55C210.827 1215.49 210.904 1215.44 210.989 1215.43C211.074 1215.41 211.162 1215.42 211.24 1215.46C211.318 1215.5 211.382 1215.56 211.421 1215.64C211.46 1215.71 211.472 1215.8 211.457 1215.89C208.543 1231.74 207.335 1248.16 207.834 1265.13C208.247 1279.07 212.985 1291.89 215.98 1304.82C216.009 1304.97 215.985 1305.12 215.912 1305.25C215.84 1305.38 215.723 1305.49 215.583 1305.54C215.443 1305.6 215.289 1305.6 215.146 1305.55C215.004 1305.5 214.882 1305.41 214.804 1305.28C208.492 1293.85 204.9 1281.32 204.335 1268.14C204.029 1261.37 203.127 1254.29 203.418 1249.13C204.029 1238.18 205.364 1229 207.422 1221.6C208.064 1219.29 209.179 1217.27 210.769 1215.55Z" fill="#C5BFC0"/>
<path d="M459.946 1225.91C467.404 1250.6 473.059 1273.8 482.932 1299.53C469.972 1303.68 456.716 1306.74 443.165 1308.7C443.15 1308.7 443.137 1308.69 443.126 1308.68C443.115 1308.67 443.108 1308.66 443.104 1308.64C443.101 1308.63 443.102 1308.61 443.108 1308.6C443.113 1308.59 443.122 1308.57 443.135 1308.57L444.724 1307.88C444.943 1307.78 445.122 1307.61 445.228 1307.4C445.335 1307.18 445.362 1306.94 445.305 1306.7C437.979 1277.27 441.245 1249.15 455.101 1222.35C455.138 1222.29 455.192 1222.23 455.256 1222.19C455.321 1222.14 455.395 1222.12 455.47 1222.12C455.546 1222.11 455.621 1222.13 455.687 1222.16C455.754 1222.19 455.81 1222.24 455.85 1222.31C456.879 1223.92 458.245 1225.12 459.946 1225.91Z" fill="#ED7966"/>
<path d="M736.037 1252.87C736.516 1260.05 736.17 1267.47 734.998 1275.14C733.449 1285.29 729.415 1295 722.894 1304.29C719.083 1303.26 714.524 1302.47 709.215 1301.92C706.322 1301.62 703.474 1300.71 700.672 1299.18C706.052 1286.91 710.173 1274.29 713.036 1261.29C713.087 1261.04 713.205 1260.81 713.376 1260.62C713.548 1260.43 713.769 1260.29 714.014 1260.21L736.037 1252.87Z" fill="#ED7966"/>
<path d="M979.988 1261.94C985.928 1262.7 991.898 1263.37 997.9 1263.95C1012.21 1265.34 1026.63 1266.75 1041.14 1268.19C1049.49 1269.01 1059.86 1270.28 1072.24 1271.98C1082.59 1273.39 1092.96 1274.66 1103.35 1275.78C1111.04 1276.62 1121.48 1278.73 1134.7 1282.11C1146.05 1284.92 1159.7 1288.76 1168.61 1297.45C1170.26 1299.94 1170.2 1302.36 1168.43 1304.7C1163.74 1310.89 1157.84 1315.26 1150.72 1317.81L1125.54 1324.64C1108.1 1329.21 1096.54 1331.89 1090.85 1332.7C1063.7 1336.57 1036.57 1340.59 1009.45 1344.77C1002.05 1345.91 990.304 1347.52 974.226 1349.6C962.448 1351.12 950.71 1352.88 939.013 1354.87C922.385 1356.37 906.093 1357.79 889.099 1358.45C846.764 1360.1 804.256 1361.69 761.576 1363.2L688.277 1363.86C684.558 1364.03 680.829 1363.99 677.09 1363.72C664.665 1362.84 651.46 1363.05 640.38 1362.55C621.963 1361.69 608.193 1362.73 590.786 1362C586.343 1361.81 578.315 1361.69 566.699 1361.63C539.786 1361.48 509.311 1361.92 476.987 1361.06C469.875 1360.87 457.817 1360.78 440.812 1360.79C413.628 1360.79 384.483 1359.42 353.376 1356.68C350.096 1356.07 346.769 1355.82 343.397 1355.93C341.563 1355.99 339.744 1355.33 337.65 1355.24C320.92 1354.51 304.231 1353.89 287.582 1353.38C282.844 1352.05 279.013 1351.35 276.089 1351.27C249.588 1350.52 223.102 1349.08 196.601 1348.09L127.491 1343.12C127.004 1343.08 126.531 1342.97 126.085 1342.8C124.057 1342.05 119.956 1341.39 113.782 1340.83C102.37 1339.79 92.1152 1338.36 83.0166 1336.53C78.1056 1335.55 70.1787 1334.21 59.2359 1332.53C51.2479 1331.31 43.321 1329.89 35.4553 1328.27C29.0567 1326.85 24.3699 1325.28 21.3947 1323.56C17.0136 1321 12.9126 1318.84 9.09175 1317.06C5.3168 1314.04 -1.56065 1308.24 0.319186 1303.11C1.83732 1298.92 4.68 1295.06 8.84722 1291.53C21.9093 1285.82 35.5979 1281.68 49.9132 1279.12C61.019 1276.53 68.4262 1275.09 72.135 1274.79C83.6992 1273.86 93.8779 1272.7 102.671 1271.29C122.193 1268.17 139.875 1265.81 155.719 1264.21C156.941 1267.19 158.113 1270.16 159.234 1273.12C162.718 1282.39 168.755 1290.56 176.626 1295.85C187.732 1303.31 200.132 1308.13 213.826 1310.32C224.371 1312 240.541 1313.84 252.66 1314.19C269.472 1314.68 280.934 1315.52 295.667 1315.53C343.228 1315.6 370.596 1315.5 377.768 1315.24C400.158 1314.47 413.699 1313.93 432.421 1311.01C449.65 1309.59 466.763 1306.35 483.757 1301.28C484.033 1302.09 484.384 1302.72 484.812 1303.16C487.884 1309.35 492.637 1317.02 499.652 1315.49C529.393 1309 559.486 1302.61 589.93 1296.31C599.604 1294.31 606.237 1293.54 616.232 1295.38C621.041 1296.26 635.907 1298.86 660.829 1303.16C668.307 1304.45 675.205 1305.46 681.522 1306.2C690.111 1307.19 697.875 1308.12 700.672 1299.18C703.474 1300.71 706.322 1301.62 709.215 1301.92C714.524 1302.47 719.083 1303.26 722.894 1304.29C740.103 1309.1 757.133 1311.72 773.985 1312.16C783.166 1312.4 789.625 1312.69 793.365 1313.03C811.032 1314.63 823.457 1314.25 844.319 1315.06C864.615 1315.86 887.769 1315.7 909.165 1312.57C924.678 1310.29 935.85 1308.84 948.871 1302.57C965.275 1294.68 974.878 1281.59 977.68 1263.31C977.863 1262.12 978.633 1261.66 979.988 1261.94Z" fill="#88A5BB"/>
<path d="M287.582 1353.38L277.236 1354.55L234.183 1353.88C228.11 1352 224.213 1350.91 222.491 1350.61C216.734 1349.63 208.104 1348.79 196.601 1348.09C223.102 1349.08 249.588 1350.52 276.089 1351.27C279.013 1351.35 282.844 1352.05 287.582 1353.38Z" fill="#A5B1BD"/>
<path d="M287.582 1353.38C304.231 1353.89 320.92 1354.51 337.65 1355.24C339.744 1355.33 341.563 1355.99 343.397 1355.93C346.769 1355.82 350.096 1356.07 353.376 1356.68C341.557 1357.33 324.868 1357.6 303.309 1357.5C293.273 1357.45 284.582 1356.47 277.236 1354.55L287.582 1353.38Z" fill="#B6C8D2"/>
</svg>
