<svg width="446" height="331" viewBox="0 0 446 331" fill="none" xmlns="http://www.w3.org/2000/svg">
<g clip-path="url(#clip0_48_705)">
<path d="M181.688 67.2164C175.592 67.2164 170.974 63.1749 168.143 59.7295C162.912 53.3445 157.028 45.501 157.75 41.1435C157.851 40.5294 158.416 40.1094 159.048 40.2133C159.662 40.3149 160.077 40.8951 159.975 41.5115C159.549 44.1034 162.873 49.7389 169.861 58.262C172.477 61.45 176.747 65.1437 182.141 64.9495C186.71 64.7712 190.894 62.5789 193.925 58.7722C197.223 54.6315 198.631 49.197 197.692 44.2366C197.593 43.7106 197.877 43.1868 198.374 42.9836C199.647 42.4598 200.737 40.9425 201.36 38.8247C202.15 36.138 201.972 33.2209 200.933 31.7285C200.484 31.0851 199.753 30.2993 198.828 30.2226C197.95 30.1684 197.142 30.7577 196.623 31.2815C196.083 31.8301 195.772 32.889 195.499 33.8237L195.067 35.1762C195 35.3726 194.9 35.6593 194.819 35.919C195.065 36.3615 194.997 36.9169 194.605 37.2736C193.831 37.9781 193.156 37.6281 192.964 37.5039C192.077 36.9192 192.42 35.9325 192.932 34.4401L193.332 33.1893C193.664 32.0582 194.077 30.6516 195.013 29.6988C196.564 28.1228 198.062 27.8835 199.013 27.9738C200.437 28.0935 201.739 28.9447 202.782 30.4371C204.43 32.801 204.342 36.6731 203.522 39.4614C202.816 41.8727 201.595 43.6812 200.044 44.6521C200.805 50.0166 199.207 55.7649 195.688 60.1811C192.244 64.5093 187.461 67.0041 182.227 67.2073C182.047 67.2141 181.866 67.2164 181.688 67.2164Z" fill="black"/>
<path d="M178.53 60.276C176.853 60.276 175.366 59.2103 174.402 57.2573C174.127 56.6974 174.354 56.0223 174.916 55.7469C175.469 55.4737 176.151 55.7017 176.426 56.2594C177.133 57.6976 178.049 58.262 179.144 57.9211C180.785 57.4154 182.511 55.0086 182.198 52.7779C182.112 52.1615 182.541 51.5903 183.159 51.5022C183.757 51.4074 184.346 51.8432 184.432 52.4618C184.877 55.6227 182.717 59.1809 179.81 60.0773C179.374 60.2105 178.945 60.276 178.53 60.276Z" fill="black"/>
<path d="M172.637 50.615C172.091 50.615 171.549 50.5247 171.032 50.4389C170.725 50.3892 170.405 50.335 170.066 50.2966C169.766 50.2628 169.493 50.1092 169.306 49.8722C169.121 49.6351 169.037 49.3326 169.073 49.0323C169.154 48.3978 169.254 47.7386 169.355 47.0635C169.791 44.1984 170.242 41.2361 169.441 38.6532C169.256 38.0572 169.588 37.425 170.184 37.2421C170.789 37.0592 171.411 37.3911 171.597 37.9872C172.551 41.0646 172.039 44.4309 171.587 47.4044C171.545 47.6799 171.504 47.953 171.463 48.224C172.651 48.4204 173.086 48.4452 173.492 48.0456C173.939 47.6144 174.655 47.6212 175.088 48.0682C175.521 48.5152 175.512 49.231 175.066 49.6644C174.307 50.4073 173.468 50.615 172.637 50.615Z" fill="black"/>
<path d="M179.162 37.6236C178.889 37.6236 178.629 37.5243 178.428 37.3527C178.372 37.3143 178.311 37.2714 178.241 37.2218C178.18 37.1766 178.112 37.1269 178.056 37.0908C177.679 36.9418 177.399 36.5918 177.352 36.1651C177.268 35.4065 177.426 34.675 177.821 33.9931C178.072 33.5596 178.58 33.3406 179.065 33.4603C179.078 33.4625 179.094 33.4671 179.112 33.4738C179.514 33.4874 179.877 33.7109 180.067 34.0654C180.144 34.1986 180.518 34.6343 180.76 34.8646C181.107 35.2033 181.2 35.7294 180.988 36.1696C180.979 36.1809 180.053 37.6236 179.162 37.6236Z" fill="black"/>
<path d="M163.751 43.6407C163.464 43.6407 163.184 43.5323 162.97 43.3268C161.929 42.3312 162.264 41.2926 162.462 40.6694C162.521 40.4798 162.595 40.2653 162.636 40.0147C162.737 39.4006 163.329 38.9806 163.934 39.0867C164.317 39.1499 164.624 39.4028 164.776 39.7324C165.083 39.9831 165.243 40.3827 165.175 40.7913L165.073 41.4687C165.001 41.9789 164.927 42.4779 164.839 42.8008C164.737 43.1869 164.437 43.4917 164.053 43.6C163.956 43.6249 163.852 43.6407 163.751 43.6407Z" fill="black"/>
<path d="M174.662 31.5457C174.526 31.5457 174.393 31.5232 174.26 31.4712C173.678 31.25 173.384 30.5975 173.605 30.015C174.215 28.4164 175.759 26.6802 177.53 26.4567C178.691 26.3009 179.724 26.8179 180.474 27.8836C180.83 28.3939 180.708 29.0983 180.2 29.455C179.688 29.8118 178.986 29.6921 178.627 29.1818C178.248 28.6445 177.943 28.6806 177.815 28.6964C177.093 28.7867 176.113 29.7779 175.718 30.8165C175.544 31.2703 175.115 31.5457 174.662 31.5457Z" fill="black"/>
<path d="M158.862 38.6939C158.686 38.6939 158.508 38.6532 158.343 38.5674C157.79 38.2807 157.574 37.5988 157.862 37.0457C158.569 35.682 160.038 34.1919 161.722 33.9299C162.774 33.7674 163.758 34.097 164.55 34.885C164.99 35.3253 164.99 36.041 164.55 36.4835C164.11 36.9238 163.394 36.9238 162.954 36.4835C162.679 36.2081 162.422 36.1065 162.065 36.1606C161.32 36.2758 160.375 37.1021 159.862 38.0865C159.661 38.4726 159.269 38.6939 158.862 38.6939Z" fill="black"/>
<path d="M174.662 81.5917C174.05 81.5917 173.549 81.104 173.533 80.4899C173.517 79.8532 173.585 78.7063 173.673 77.2861C173.881 73.8498 174.194 68.6546 173.558 65.6472C173.429 65.0376 173.817 64.4371 174.429 64.3084C175.032 64.1887 175.639 64.568 175.768 65.1799C176.469 68.4853 176.142 73.8633 175.925 77.4216C175.844 78.7605 175.779 79.8397 175.79 80.4357C175.804 81.0589 175.312 81.5759 174.689 81.5917C174.68 81.5917 174.671 81.5917 174.662 81.5917Z" fill="black"/>
<path d="M207.011 78.205C206.815 78.205 206.618 78.1553 206.438 78.0492C203.804 76.4958 203.077 70.7994 202.556 65.0963C202.504 64.507 202.454 63.9855 202.409 63.5678C202.224 61.8993 201.924 60.1766 201.608 58.35C200.94 54.5276 200.249 50.5742 200.624 46.8602C200.685 46.237 201.281 45.79 201.858 45.8487C202.477 45.9119 202.933 46.4651 202.867 47.0837C202.526 50.4907 203.19 54.2883 203.829 57.9617C204.14 59.7408 204.461 61.5787 204.653 63.3172C204.7 63.7484 204.75 64.2812 204.804 64.8886C205.079 67.9163 205.727 75.0057 207.582 76.1007C208.119 76.4168 208.298 77.1099 207.982 77.6473C207.772 78.0063 207.397 78.205 207.011 78.205Z" fill="black"/>
<path d="M192.165 99.3153C186.443 99.3153 180.852 97.2653 176.291 93.4677C173.488 91.1331 167.933 84.8385 168.655 80.2868C168.753 79.6704 169.337 79.2414 169.946 79.3498C170.563 79.4469 170.982 80.0249 170.885 80.6412C170.398 83.7028 174.623 89.144 177.733 91.7315C182.218 95.4636 187.788 97.333 193.401 97.0214C197.703 96.7776 202.657 94.5221 206.648 90.9909C208.501 89.3495 211.69 85.2923 211.36 83.8247C211.338 83.7344 211.302 83.5651 210.837 83.4318C210.236 83.2603 209.891 82.6349 210.063 82.0343C210.232 81.4337 210.862 81.086 211.458 81.2621C212.588 81.5872 213.333 82.321 213.563 83.328C214.358 86.8434 208.207 92.6278 208.144 92.6842C203.723 96.5992 198.396 99.0015 193.53 99.277C193.074 99.3018 192.618 99.3153 192.165 99.3153Z" fill="black"/>
<path d="M270.959 185.45C270.718 185.45 270.472 185.373 270.264 185.213C269.772 184.829 269.684 184.12 270.068 183.628C270.894 182.567 271.754 181.519 272.614 180.471C277.414 174.621 281.949 169.094 281.129 161.109C280.31 153.123 276.333 144.744 272.824 137.352L272.09 135.806C268.7 128.628 264.678 121.895 259.43 114.619C256.844 111.035 254.614 107.132 252.454 103.354C250.423 99.8007 248.319 96.1228 245.952 92.7745C241.708 86.7756 237.612 82.47 230.306 79.5371C226.221 77.898 222.921 76.8526 219.093 76.6946C218.402 76.6652 217.533 76.6698 216.601 76.6698C212.852 76.6878 210.092 76.6201 208.69 75.7937C208.156 75.4776 207.975 74.7845 208.291 74.2471C208.607 73.7075 209.3 73.5314 209.837 73.8453C210.814 74.421 214.283 74.4255 216.597 74.4097C217.558 74.4097 218.461 74.4052 219.183 74.4368C223.334 74.6084 226.837 75.7125 231.146 77.4419C238.962 80.578 243.311 85.1342 247.791 91.4695C250.222 94.9059 252.352 98.6312 254.411 102.232C256.539 105.958 258.744 109.809 261.256 113.296C266.587 120.687 270.677 127.533 274.128 134.839L274.859 136.384C278.448 143.943 282.515 152.509 283.371 160.881C284.285 169.801 279.238 175.956 274.356 181.907C273.507 182.941 272.659 183.973 271.846 185.021C271.627 185.301 271.293 185.45 270.959 185.45Z" fill="black"/>
<path d="M233.057 159.456C232.82 159.456 232.583 159.381 232.387 159.235C232.116 159.034 231.951 158.724 231.931 158.392C231.922 158.259 231.915 158.131 231.908 157.997C231.904 157.984 231.899 157.972 231.895 157.959C231.823 157.738 231.82 157.514 231.877 157.304C231.825 156.008 231.807 154.669 231.789 153.312C231.728 148.806 231.662 144.146 230.322 140.283C229.363 137.526 227.859 134.805 226.406 132.177C223.122 126.242 219.727 120.105 221.72 112.535C221.876 111.932 222.501 111.575 223.097 111.731C223.702 111.889 224.061 112.508 223.901 113.11C222.14 119.805 225.171 125.284 228.378 131.085C229.879 133.796 231.432 136.603 232.455 139.542C233.915 143.748 233.983 148.596 234.046 153.281C234.064 154.663 234.082 156.026 234.138 157.345C234.314 157.55 234.565 157.979 234.391 158.526C234.29 158.839 234.026 159.246 233.324 159.42C233.238 159.447 233.148 159.456 233.057 159.456Z" fill="black"/>
<path d="M147.578 159.862C147.092 159.862 146.645 159.548 146.496 159.063C146.054 157.602 145.734 156.117 145.422 154.681C144.964 152.561 144.49 150.366 143.614 148.255C142.962 146.686 142.014 145.103 141.095 143.577C139.809 141.434 138.477 139.219 137.816 136.837C136.067 130.54 138.24 125.621 140.342 120.861C141.772 117.624 143.251 114.275 143.438 110.514C143.467 109.893 144.027 109.421 144.619 109.441C145.242 109.473 145.72 110.004 145.691 110.625C145.483 114.804 143.919 118.346 142.407 121.773C140.375 126.373 138.455 130.714 139.989 136.232C140.572 138.318 141.766 140.308 143.032 142.412C143.991 144.01 144.984 145.663 145.702 147.39C146.654 149.689 147.151 151.983 147.629 154.204C147.943 155.661 148.241 157.035 148.656 158.406C148.837 159.004 148.501 159.634 147.905 159.815C147.794 159.846 147.686 159.862 147.578 159.862Z" fill="black"/>
<path d="M109.96 157.227C109.502 157.227 109.068 156.945 108.901 156.489C107.136 151.707 109.158 145.327 110.784 140.199C111.011 139.488 111.224 138.808 111.418 138.172C113.835 130.163 117.153 123.679 121.854 117.768C125.594 113.067 127.896 107.978 130.334 102.587C131.164 100.749 132.009 98.8841 132.925 96.9966C135.245 92.2214 141.799 80.7405 152.468 77.2364C156.637 75.8727 166.857 72.9105 171.703 74.9042C172.28 75.1412 172.554 75.8005 172.314 76.3785C172.08 76.9542 171.421 77.2274 170.843 76.9926C167.448 75.5928 159.49 77.311 153.173 79.3836C143.321 82.619 137.148 93.4722 134.952 97.9877C134.047 99.8549 133.212 101.702 132.388 103.519C129.891 109.04 127.535 114.255 123.619 119.177C119.101 124.858 115.909 131.1 113.575 138.827C113.379 139.474 113.16 140.163 112.934 140.886C111.492 145.431 109.517 151.655 111.014 155.712C111.23 156.297 110.933 156.945 110.346 157.162C110.222 157.205 110.088 157.227 109.96 157.227Z" fill="black"/>
<path d="M235.224 144.435C235.208 144.435 235.193 144.435 235.177 144.435C234.556 144.408 234.071 143.882 234.096 143.259C234.208 140.651 237.422 137.65 240.557 135.83C242.025 134.979 245.703 133.132 248.155 134.404C248.708 134.688 248.926 135.37 248.64 135.925C248.351 136.481 247.667 136.695 247.119 136.408C246.146 135.909 243.968 136.463 241.69 137.786C238.458 139.66 236.402 142.136 236.353 143.358C236.326 143.961 235.825 144.435 235.224 144.435Z" fill="black"/>
<path d="M349.375 301.572C349.068 301.572 348.707 301.446 348.341 301.032C348.118 300.784 348.018 300.445 348.07 300.116C348.519 297.165 348.133 293.952 347.761 290.841C347.481 288.515 347.219 286.316 347.325 284.359C347.359 283.738 347.806 283.223 348.513 283.293C349.133 283.327 349.609 283.857 349.578 284.481C349.483 286.242 349.736 288.344 350.002 290.57C350.325 293.259 350.686 296.262 350.451 299.131C350.494 299.179 350.53 299.235 350.562 299.292C350.763 299.648 350.749 300.068 350.562 300.4C350.469 301.118 350.083 301.391 349.763 301.504C349.65 301.543 349.517 301.572 349.375 301.572Z" fill="black"/>
<path d="M377.039 280.654C376.662 280.654 376.292 280.464 376.078 280.119C375.538 279.243 372.861 274.725 373.292 271.835C373.383 271.218 373.974 270.789 374.572 270.884C375.188 270.975 375.615 271.548 375.522 272.164C375.308 273.623 376.603 276.673 378.001 278.931C378.328 279.462 378.163 280.157 377.633 280.484C377.445 280.599 377.242 280.654 377.039 280.654Z" fill="black"/>
<path d="M282.355 158.733C282.355 158.733 308.954 144.06 321.367 152.714C333.781 161.368 343.563 179.056 349.58 195.612C355.597 212.168 380.05 261.84 378.921 267.861C377.793 273.883 339.424 292.428 339.424 292.428C339.424 292.428 326.635 252.808 313.468 234.746C300.3 216.684 296.163 211.039 296.163 211.039C296.163 211.039 281.495 233.617 264.942 240.391C248.389 247.164 252.903 199.751 252.903 199.751C252.903 199.751 278.701 186.953 282.355 158.733Z" fill="#0B376B"/>
<path d="M138.303 171.153C138.303 171.153 92.6529 142.556 78.3592 151.962C64.0655 161.368 56.5406 177.173 64.4402 186.204C72.3398 195.235 77.6076 211.414 82.1217 216.684C86.6357 221.954 136.665 243.025 136.665 243.025L138.303 171.153Z" fill="#0B376B"/>
<path d="M348.429 303.055V330.329C348.429 330.329 434.595 331.835 442.118 330.329C449.641 328.823 445.124 316.031 437.979 314.525C430.833 313.019 390.207 292.317 385.316 284.417C385.316 284.417 372.482 306.261 348.429 303.055Z" fill="#0B376B"/>
<path d="M180.893 264.854C180.893 264.854 215.285 293.069 241.429 284.417C241.429 284.417 258.279 275.014 245.809 264.854H180.893Z" fill="#0B376B"/>
<path d="M264.94 160.427H136.572C136.572 160.427 133.186 160.991 132.622 174.82C132.058 188.649 134.315 257.229 135.161 260.051C136.008 262.874 254.501 265.696 264.94 261.745C264.94 261.745 268.528 250.332 268.325 219.129C268.122 187.927 267.197 160.427 264.94 160.427Z" fill="black"/>
<path d="M174.285 2.94633C174.285 2.94633 157.449 -2.69812 152.653 11.413C147.857 25.5242 155.761 32.862 147.577 46.9731C139.393 61.0842 135.444 70.2079 136.572 77.0761C137.701 83.9443 138.867 89.3246 138.867 89.3246C138.867 89.3246 150.211 77.4893 161.307 75.3534C172.402 73.2176 175.413 77.0761 175.413 77.0761L174.285 63.7665C174.285 63.7665 154.915 46.1264 158.862 32.2975C162.81 18.4686 167.324 16.7753 167.324 16.7753C167.324 16.7753 171.371 24.113 175.413 23.5486C179.455 22.9842 194.209 34.1873 194.209 34.1873C194.209 34.1873 197.776 27.1249 201.31 30.4168C204.845 33.7086 204.483 40.8703 200.432 42.5095C200.432 42.5095 198.38 73.9265 212.507 75.4618C226.634 76.9971 236.231 78.0334 242.767 86.9155C249.303 95.7976 263.893 119.069 263.893 119.069C263.893 119.069 280.173 105.427 269.452 89.3223C258.731 73.2176 214.527 64.1887 212.507 50.9242C210.487 37.6597 205.506 43.1507 207.009 27.5629C208.512 11.9752 191.966 -7.49591 174.285 2.94633Z" fill="black"/>
<path d="M295.787 209.156C295.362 209.156 294.954 208.915 294.762 208.502C292.13 202.812 290.939 196.867 290.898 189.218C290.896 188.595 291.399 188.085 292.02 188.082H292.026C292.647 188.082 293.153 188.584 293.155 189.204C293.193 196.513 294.322 202.173 296.811 207.553C297.071 208.118 296.827 208.791 296.261 209.053C296.107 209.125 295.945 209.156 295.787 209.156Z" fill="white"/>
<path d="M131.778 178.299C131.464 178.299 131.153 178.168 130.929 177.913C127.7 174.226 120.579 169.88 116.369 168.458C115.778 168.259 115.462 167.618 115.663 167.026C115.862 166.439 116.505 166.125 117.094 166.32C121.583 167.839 129.07 172.364 132.629 176.43C133.04 176.897 132.992 177.611 132.523 178.022C132.306 178.207 132.042 178.299 131.778 178.299Z" fill="white"/>
<path d="M420.676 327.313C420.561 327.313 420.441 327.295 420.329 327.259C413.503 325.042 405.256 325.358 397.28 325.669C393.332 325.821 389.608 325.965 386.004 325.825C376.504 325.453 365.451 325.055 354.469 325.055C353.846 325.055 353.34 324.549 353.34 323.926C353.34 323.303 353.846 322.797 354.469 322.797C365.492 322.797 376.572 323.195 386.092 323.567C389.595 323.705 393.287 323.563 397.192 323.411C405.374 323.098 413.817 322.77 421.026 325.112C421.62 325.304 421.942 325.94 421.75 326.534C421.595 327.01 421.152 327.313 420.676 327.313Z" fill="white"/>
<path d="M39.1209 190.209C38.5183 190.209 38.0195 189.735 37.9924 189.128C37.6968 182.305 39.6062 174.418 41.2899 167.462L41.8813 165.008C43.7478 157.146 45.3616 150.517 47.1649 143.726C49.598 134.562 52.6359 122.561 54.5589 110.999C54.6627 110.385 55.2563 109.963 55.8567 110.071C56.4706 110.173 56.8859 110.756 56.7843 111.37C54.8456 123.027 51.7896 135.092 49.3452 144.304C47.5464 151.073 45.9371 157.686 44.0751 165.527L43.4815 167.993C41.8339 174.804 39.9628 182.524 40.2472 189.028C40.2743 189.649 39.7913 190.178 39.1661 190.205C39.1548 190.209 39.1367 190.209 39.1209 190.209Z" fill="black"/>
<path d="M35.3583 186.822C34.9362 186.822 34.5322 186.585 34.3381 186.177C32.8078 182.944 32.3023 178.107 31.8531 173.84C31.668 172.086 31.492 170.402 31.255 168.939C31.0338 167.564 30.8713 166.152 30.7088 164.737C30.4718 162.642 30.2213 160.476 29.7631 158.476C29.5306 157.471 29.1786 156.451 28.8016 155.372C28.0184 153.121 27.2104 150.793 27.4632 148.327C27.5264 147.704 28.0862 147.246 28.7001 147.32C29.3207 147.384 29.7721 147.937 29.7067 148.558C29.5058 150.526 30.1987 152.52 30.9323 154.629C31.3114 155.719 31.7042 156.846 31.9615 157.973C32.449 160.093 32.704 162.326 32.95 164.482C33.1058 165.859 33.266 167.238 33.4804 168.58C33.7219 170.079 33.9047 171.806 34.0921 173.605C34.5209 177.694 35.0062 182.327 36.3739 185.213C36.6402 185.775 36.401 186.45 35.8368 186.716C35.6855 186.786 35.5208 186.822 35.3583 186.822Z" fill="black"/>
<path d="M42.5065 190.209C42.3801 190.209 42.256 190.189 42.1296 190.146C41.5428 189.936 41.2358 189.292 41.4412 188.703C41.7233 187.906 42.0325 186.685 42.3553 185.391C42.8699 183.357 43.4477 181.049 44.1857 179.313C45.0253 177.326 46.0523 175.351 47.0476 173.441C47.9866 171.637 48.9571 169.774 49.747 167.936C49.993 167.365 50.6566 167.094 51.2299 167.347C51.8009 167.593 52.065 168.257 51.819 168.83C50.9974 170.743 50.0066 172.641 49.0496 174.484C48.0746 176.353 47.0679 178.29 46.2622 180.194C45.5964 181.767 45.0366 183.987 44.5446 185.942C44.2083 187.288 43.8856 188.559 43.5696 189.457C43.4048 189.92 42.9715 190.209 42.5065 190.209Z" fill="black"/>
<path d="M61.1898 113.144C59.8491 113.144 58.5604 112.846 57.3709 112.167C57.3325 112.146 57.2987 112.124 57.2648 112.099C49.7828 110.083 41.0798 101.108 39.9716 94.0502C39.0033 87.8955 42.601 81.6392 45.7766 76.1189C47.343 73.3937 48.8236 70.8199 49.7151 68.4131C49.8483 68.0541 50.153 67.7854 50.5276 67.7041C50.9046 67.6251 51.2928 67.7335 51.5659 68.0044C52.8591 69.2823 53.9312 70.7318 54.9672 72.1316C55.0687 72.2671 55.1681 72.4026 55.2696 72.538C55.1748 72.1768 55.0845 71.8178 54.9943 71.4588C54.5857 69.8513 54.2021 68.3318 53.5746 66.9749C53.3557 66.5007 53.4911 65.9363 53.9041 65.6112C55.9106 64.0375 58.0864 62.868 60.1877 61.7368C63.1331 60.1518 65.916 58.6572 68.2881 56.1285C69.051 55.3157 69.868 54.4893 70.7076 53.6449C74.4317 49.888 78.6546 45.632 79.4581 40.6649C79.528 40.2179 79.8621 39.8566 80.2999 39.7483C80.7401 39.6421 81.2027 39.8025 81.4758 40.1682C87.5156 48.224 87.642 60.5041 87.2132 69.0385C87.1861 69.5758 86.7866 70.0184 86.2539 70.0996C85.6423 70.1922 84.656 70.339 83.6809 70.5106C85.1458 71.233 86.6444 71.8855 88.1544 72.1294C88.4636 72.1791 88.7367 72.3552 88.9105 72.6148C89.0842 72.8745 89.1452 73.1928 89.073 73.4976C87.1929 81.6618 84.7779 91.0857 79.8779 99.6202C77.113 104.445 68.4167 113.144 61.1898 113.144ZM59.2397 110.552C65.2276 112.727 75.1201 103.382 77.921 98.498C82.4464 90.6116 84.8072 81.8469 86.6173 74.1072C84.8072 73.6263 83.1257 72.7683 81.4894 71.933C80.9748 71.6711 80.4647 71.4114 79.9546 71.1653C79.5619 70.9779 79.3136 70.5783 79.3159 70.1425C79.3181 69.7068 79.5709 69.3117 79.9636 69.1265C80.8868 68.693 82.8887 68.3341 85.0013 68.0067C85.3241 60.6215 85.1096 50.7279 81.0177 43.5842C79.3881 48.0998 75.6595 51.859 72.3101 55.2389C71.4863 56.0698 70.6805 56.8803 69.9312 57.6773C67.3085 60.4725 64.2322 62.1274 61.2552 63.7282C59.4022 64.7239 57.6372 65.6721 55.9828 66.8733C56.4929 68.1805 56.8405 69.5623 57.1791 70.9079C57.7907 73.3283 58.3685 75.6154 59.7882 77.4081C60.138 77.8506 60.1109 78.4828 59.7205 78.8892C59.3323 79.2979 58.7025 79.3565 58.2466 79.0269C56.1318 77.5052 54.6196 75.4574 53.1525 73.4773C52.4799 72.5697 51.8322 71.6936 51.1393 70.8763C50.2139 72.9332 48.9996 75.0419 47.7289 77.25C44.5939 82.7003 41.3529 88.3358 42.1992 93.7048C43.2081 100.142 51.7532 108.712 58.5265 110.083C58.8289 110.141 59.0795 110.318 59.2397 110.552Z" fill="black"/>
<path d="M19.2253 152.028C17.4761 152.028 15.7563 151.691 14.1944 150.98C7.74385 148.054 7.14574 141.658 6.61986 136.016L6.1504 131.179C5.3469 122.812 4.65626 115.569 1.35424 107.8C1.2775 107.8 1.20076 107.8 1.12177 107.8C0.498831 107.796 -0.00448391 107.288 3.01277e-05 106.664C0.00454416 106.044 0.510116 105.542 1.12854 105.542H1.13531C7.22023 105.578 14.1222 105.895 19.0086 109.22C19.4984 109.554 19.6474 110.209 19.3494 110.722C18.7039 111.833 18.2345 113.138 17.8169 114.465C18.8642 113.381 20.101 112.329 21.9224 112.013C22.4122 111.93 22.8884 112.167 23.1164 112.602C24.3216 114.91 26.1476 116.926 28.0773 119.057C30.4178 121.643 32.8374 124.314 34.2503 127.684C36.9226 134.049 34.2751 141.899 30.6842 146.501C27.9419 150.016 23.4956 152.028 19.2253 152.028ZM3.80987 107.841C6.9223 115.571 7.60843 122.735 8.39387 130.965L8.86108 135.808C9.35536 141.084 9.86319 146.541 15.122 148.928C19.5277 150.926 25.7052 149.21 28.9034 145.112C32.2054 140.883 34.3857 133.839 32.1693 128.558C30.9031 125.544 28.6167 123.015 26.4026 120.572C24.6647 118.653 22.8749 116.678 21.5591 114.449C20.5028 114.869 19.7151 115.723 18.8281 116.687C18.0178 117.567 17.1804 118.477 16.0429 119.157C15.6299 119.403 15.113 119.365 14.7451 119.057C14.3772 118.753 14.2395 118.249 14.4043 117.8C14.7113 116.962 14.9753 116.07 15.2439 115.167C15.7066 113.618 16.1806 112.027 16.8848 110.559C13.2668 108.489 8.44579 107.974 3.80987 107.841Z" fill="black"/>
<path d="M53.9718 170.481C52.0782 170.481 50.0491 170.106 48.8823 168.751C46.7381 166.263 47.3971 158.937 47.4039 158.864C48.7468 145.322 59.7949 140.843 70.4796 136.51L71.9332 135.921C72.5335 135.677 73.1271 135.435 73.723 135.205C74.1112 134.487 74.5603 133.778 75.0862 133.083C75.4654 132.584 76.1741 132.491 76.6661 132.864C77.1649 133.241 77.262 133.947 76.8851 134.444C76.8106 134.543 76.7384 134.643 76.6639 134.742C76.9144 134.93 77.0859 135.221 77.1108 135.557C77.1582 136.178 76.691 136.72 76.0703 136.767C76.0432 136.77 76.0184 136.772 75.9935 136.772C75.7746 136.846 75.5579 136.923 75.3368 137.004C74.1338 139.563 73.7094 142.308 73.2716 145.173C72.8111 148.169 72.3349 151.269 70.8814 154.17C70.7415 154.448 70.4932 154.658 70.1953 154.746C69.8996 154.841 69.5791 154.8 69.306 154.642C68.4867 154.168 67.5907 154.071 66.5953 154.173C67.3763 154.902 68.2655 155.509 69.1615 155.57C69.5814 155.602 69.9515 155.861 70.1185 156.248C70.2855 156.636 70.2246 157.083 69.9583 157.41C68.902 158.709 68.0579 160.21 67.2431 161.664C65.2885 165.141 63.2685 168.738 58.2782 169.948C57.6959 170.09 55.9061 170.481 53.9718 170.481ZM72.4613 138.142L71.326 138.605C60.7993 142.872 50.8571 146.905 49.6496 159.088C49.3856 161.748 49.6158 166.15 50.5908 167.281C51.611 168.462 55.0326 168.41 57.7456 167.755C61.7811 166.776 63.3994 163.897 65.2727 160.56C65.8731 159.492 66.487 158.399 67.2002 157.345C65.7061 156.643 64.4647 155.315 63.4852 154.123C63.2369 153.818 63.1624 153.405 63.2933 153.035C63.4242 152.662 63.7379 152.384 64.1239 152.303C65.5706 152.001 67.4575 151.597 69.3015 152.193C70.2585 149.885 70.6376 147.422 71.0371 144.832C71.3802 142.615 71.7278 140.355 72.4613 138.142Z" fill="black"/>
<path d="M56.7978 109.681C56.2584 109.681 55.7799 109.29 55.6873 108.739C54.841 103.682 58.811 95.2198 60.9417 90.6726C61.603 89.2637 62.2643 87.8323 62.9301 86.3941C64.4175 83.1768 65.9206 79.9278 67.4509 76.8301L68.3018 75.1007C70.0262 71.5876 71.8092 67.9525 73.8969 64.69C74.2536 64.1301 74.802 63.3783 75.434 62.5203C76.9665 60.4341 80.5506 55.546 79.8577 54.1033C79.5891 53.5411 79.8261 52.866 80.3881 52.5974C80.9433 52.3309 81.625 52.5612 81.8936 53.1257C83.074 55.5889 80.4897 59.4429 77.2531 63.8547C76.655 64.6675 76.1359 65.3741 75.7951 65.9047C73.7751 69.0611 72.0214 72.6352 70.3241 76.0941L69.4709 77.8303C67.9474 80.9122 66.4556 84.1408 64.975 87.3424C64.3091 88.7828 63.6456 90.2188 62.9843 91.6322C61.0997 95.6488 57.1815 104.005 57.9105 108.367C58.0143 108.981 57.5968 109.563 56.9851 109.667C56.9242 109.676 56.8587 109.681 56.7978 109.681Z" fill="black"/>
<path d="M26.7074 146.559C26.3305 146.559 25.9626 146.37 25.7482 146.027C23.3061 142.094 21.3064 137.594 19.3744 133.243C18.3 130.832 17.2889 128.556 16.2078 126.364C15.3253 124.578 13.8785 122.753 12.346 120.821C10.15 118.053 7.8794 115.192 7.17747 112.196C7.03527 111.589 7.4122 110.981 8.01708 110.839C8.62873 110.697 9.23361 111.074 9.37354 111.681C9.96262 114.185 12.0729 116.845 14.1155 119.419C15.6548 121.358 17.246 123.363 18.2323 125.363C19.336 127.596 20.4036 130.001 21.4373 132.326C23.34 136.607 25.3081 141.035 27.6689 144.837C27.9984 145.365 27.8337 146.063 27.3055 146.39C27.1182 146.503 26.9128 146.559 26.7074 146.559Z" fill="black"/>
<path d="M51.5347 167.254C51.4421 167.254 51.3496 167.243 51.2548 167.218C50.6499 167.065 50.2866 166.448 50.4423 165.845C51.4286 161.996 53.3674 156.336 57.0215 151.242C58.2155 149.578 59.7164 148.232 61.1699 146.932C62.7295 145.53 64.2078 144.209 65.2551 142.565C65.5936 142.039 66.2911 141.888 66.8147 142.222C67.3383 142.556 67.494 143.256 67.1577 143.782C65.9412 145.686 64.2823 147.174 62.6753 148.614C61.2511 149.89 59.906 151.098 58.8564 152.563C56.1255 156.367 53.9723 161.156 52.6293 166.408C52.4984 166.913 52.0403 167.254 51.5347 167.254Z" fill="black"/>
<path d="M57.1208 252.239H57.114C52.3359 252.208 47.8286 251.914 43.055 251.605C40.6355 251.449 38.1889 251.289 35.6814 251.165C34.5619 251.117 32.5689 251.253 30.4586 251.4C23.735 251.871 18.8418 252.084 17.0361 250.501C15.2373 248.925 14.7046 244.766 14.2352 241.1C14.0569 239.711 13.8899 238.402 13.6867 237.625C12.3551 232.547 11.8856 227.79 11.3868 222.751L11.3146 222.015C11.0077 218.942 10.7504 215.837 10.4908 212.728C10.1658 208.827 9.83175 204.794 9.40292 200.879C9.28781 199.825 9.08468 198.741 8.8838 197.646C8.464 195.373 8.03065 193.027 8.26538 190.701C8.26538 190.573 8.28118 190.446 8.31052 190.327C8.37146 189.992 8.58136 189.703 8.87929 189.539C9.08468 189.261 9.4142 189.08 9.78661 189.08C15.6616 189.08 21.7511 188.622 28.1971 188.139C40.9199 187.181 54.076 186.193 66.3971 188.794C66.7018 188.857 66.9659 189.044 67.1261 189.311C67.2886 189.577 67.3338 189.898 67.2502 190.2C65.4446 196.736 64.6344 204.045 63.8489 211.114C63.2711 216.332 62.673 221.723 61.6777 226.844C60.1023 234.945 58.9805 242.915 58.2493 251.212C58.1928 251.792 57.7031 252.239 57.1208 252.239ZM35.1194 248.896C35.3609 248.896 35.5866 248.9 35.792 248.912C38.3108 249.036 40.7687 249.196 43.2017 249.352C47.5894 249.639 51.7558 249.909 56.0916 249.97C56.8273 241.967 57.931 234.249 59.4545 226.408C60.4341 221.38 61.0254 216.034 61.5987 210.861C62.348 204.119 63.1199 197.159 64.7562 190.767C53.0784 188.527 40.5159 189.473 28.3596 190.388C22.1189 190.855 16.2123 191.3 10.4705 191.334C10.3576 193.228 10.7323 195.26 11.0957 197.233C11.3101 198.385 11.52 199.523 11.6396 200.629C12.0707 204.575 12.4093 208.624 12.7343 212.536C12.9916 215.634 13.2511 218.725 13.5513 221.787L13.6258 222.525C14.1156 227.472 14.5783 232.145 15.8602 237.049C16.0995 237.966 16.271 239.282 16.4674 240.808C16.8217 243.588 17.3612 247.787 18.5167 248.801C19.7558 249.887 26.3509 249.422 30.2939 249.146C32.201 249.015 33.8893 248.896 35.1194 248.896Z" fill="black"/>
<path d="M23.5112 201.552C20.5432 201.552 17.679 201.229 15.0474 200.304C14.4583 200.096 14.1513 199.453 14.3567 198.866C14.5621 198.276 15.2054 197.965 15.7967 198.175C20.9788 199.999 27.4835 199.213 33.7783 198.455C36.5545 198.12 39.1794 197.802 41.6373 197.714C44.1561 197.626 46.7697 197.721 49.2998 197.816C53.6694 197.974 58.1744 198.143 62.3544 197.36C62.5102 197.226 62.702 197.138 62.9164 197.107C63.1579 197.071 63.3927 197.05 63.6251 197.03C63.7651 196.989 63.8982 196.978 64.0494 196.987L64.0833 196.985C64.6611 196.901 65.2186 197.312 65.3269 197.897C65.4375 198.484 65.0741 199.053 64.4963 199.197C64.4241 199.218 64.3496 199.236 64.2751 199.252C63.9073 199.482 63.3927 199.717 62.8577 199.561C58.4069 200.41 53.7462 200.241 49.2141 200.071C46.7246 199.979 44.1493 199.882 41.7163 199.972C39.3532 200.055 36.7779 200.367 34.0492 200.697C30.5328 201.121 26.9509 201.552 23.5112 201.552Z" fill="black"/>
<path d="M56.8948 100.591C56.7391 100.591 56.5834 100.559 56.4389 100.494C56.1545 100.37 55.9356 100.133 55.8318 99.8414C55.1005 97.7868 53.7892 95.6736 52.3989 93.4361C50.3517 90.1375 48.2324 86.726 47.7787 83.1045C47.702 82.4858 48.1399 81.9214 48.7583 81.8424C49.3587 81.7747 49.941 82.2014 50.02 82.8223C50.4127 85.9561 52.3989 89.1531 54.3173 92.244C55.4887 94.1315 56.694 96.0732 57.5291 98.0036C59.1767 97.403 60.9823 96.9199 62.736 96.4457C63.6501 96.1996 64.5574 95.9558 65.4241 95.7007C67.311 95.1452 71.2901 93.8041 72.4051 93.26C72.6985 92.8084 73.283 92.6188 73.7863 92.8333C74.2265 93.0184 74.5515 93.5129 74.5244 93.9893C74.486 94.6485 74.4476 95.3981 66.0606 97.8659C65.1736 98.1278 64.2527 98.3761 63.3228 98.6267C61.2509 99.1844 59.109 99.7601 57.3282 100.505C57.1905 100.564 57.0415 100.591 56.8948 100.591Z" fill="black"/>
<path d="M65.5282 82.1539C65.1761 82.1539 64.8308 81.9891 64.6141 81.6843C62.409 78.6272 61.048 74.9042 59.7299 71.3007C59.4049 70.4134 59.0867 69.5397 58.7572 68.693C58.5337 68.1105 58.8226 67.458 59.4049 67.2345C59.9827 67.0087 60.6395 67.2999 60.863 67.8802C61.1925 68.7404 61.5175 69.6255 61.8493 70.5263C63.0004 73.6737 64.1876 76.9204 65.9164 79.5913C69.6947 77.9499 75.0686 77.3922 78.716 77.7016C79.3366 77.7535 79.7971 78.3021 79.7429 78.923C79.6887 79.5439 79.138 80.0067 78.5219 79.9503C74.9874 79.6523 69.4125 80.2709 66.0518 82.0275C65.8848 82.1133 65.7065 82.1539 65.5282 82.1539Z" fill="black"/>
<path d="M71.5363 71.6259C71.3625 71.6259 71.1887 71.5853 71.0285 71.5063C70.7554 71.3685 70.55 71.1292 70.4597 70.838L70.0805 69.6346C69.2816 67.0833 68.4578 64.4462 67.4173 61.9491C67.1803 61.3733 67.4511 60.7141 68.0267 60.4747C68.6045 60.2377 69.2658 60.5063 69.5028 61.0843C70.5816 63.674 71.4212 66.3608 72.2337 68.9617L72.2653 69.0566C74.2493 68.3815 76.3189 67.7154 78.3367 67.1962C78.9303 67.0381 79.5532 67.4061 79.709 68.009C79.8625 68.614 79.4991 69.2282 78.8965 69.3839C76.583 69.98 74.168 70.7838 71.902 71.5672C71.7869 71.6056 71.6605 71.6259 71.5363 71.6259Z" fill="black"/>
<path d="M25.8701 143.886C25.7414 143.886 25.615 143.864 25.4909 143.821C20.6518 142.094 16.0272 141.29 10.9286 141.29C10.9218 141.29 10.9151 141.29 10.9083 141.29C10.2854 141.29 9.77979 140.784 9.77979 140.161C9.77979 139.531 10.326 138.98 10.9286 139.032C15.8918 139.032 20.4306 139.757 25.1117 141.303C25.8046 139.258 26.9963 137.284 28.1564 135.368C29.6528 132.898 31.0634 130.565 31.2237 128.411C31.2711 127.788 31.8241 127.328 32.4335 127.371C33.0541 127.418 33.5213 127.96 33.4762 128.581C33.2731 131.272 31.6525 133.947 30.0862 136.535C28.7951 138.673 27.4567 140.883 26.9692 143.008C26.897 143.324 26.6939 143.593 26.4117 143.746C26.2447 143.839 26.0574 143.886 25.8701 143.886Z" fill="black"/>
<path d="M22.0533 132.663C22.015 132.663 21.9789 132.661 21.9405 132.658C20.1258 132.475 18.3744 131.967 16.6794 131.475C14.235 130.766 11.9238 130.103 9.53141 130.371C8.92201 130.437 8.35324 129.999 8.27876 129.38C8.20879 128.761 8.65117 128.201 9.26959 128.129C12.1247 127.797 14.7564 128.565 17.3068 129.308C18.5843 129.68 19.8099 130.035 21.0332 130.254C21.7193 126.603 25.2425 121.674 25.4118 121.439C25.7729 120.931 26.4816 120.818 26.9849 121.184C27.4927 121.55 27.6056 122.254 27.24 122.76C25.6172 125.016 23.078 129.378 23.1751 131.484C23.1909 131.812 23.0622 132.13 22.8252 132.356C22.6198 132.552 22.34 132.663 22.0533 132.663Z" fill="black"/>
<path d="M62.339 161.009C60.8426 161.009 59.3055 160.951 57.7956 160.89C56.8093 160.851 55.8546 160.817 54.954 160.799C54.3627 160.788 53.8819 160.323 53.8503 159.734C53.7014 157.074 53.4441 154.243 53.0468 150.827C52.9769 150.208 53.4192 149.648 54.0377 149.574C54.6403 149.513 55.2136 149.946 55.2903 150.565C55.6401 153.588 55.8839 156.162 56.0419 158.566C56.64 158.587 57.2539 158.609 57.8814 158.632C60.5672 158.736 63.3501 158.84 65.7132 158.602C66.3158 158.537 66.8891 158.991 66.95 159.609C67.0132 160.23 66.5618 160.786 65.9434 160.847C64.7969 160.966 63.5826 161.009 62.339 161.009Z" fill="black"/>
<path d="M59.7863 150.556C59.5154 150.556 59.2491 150.459 59.0392 150.274C58.7187 149.991 58.5878 149.556 58.6939 149.142C59.125 147.483 59.1001 145.695 59.0708 143.803L59.0573 142.419C59.0573 141.796 59.5628 141.29 60.1858 141.29C60.8087 141.29 61.3143 141.796 61.3143 142.419L61.3278 143.771C61.3481 145.108 61.3684 146.474 61.2172 147.828C62.7542 147.499 64.3748 147.406 65.9592 147.318C67.8551 147.214 69.6472 147.115 71.1097 146.618C71.7033 146.419 72.3421 146.74 72.5407 147.325C72.7415 147.916 72.4233 148.555 71.8342 148.756C70.0805 149.35 68.0492 149.463 66.0856 149.571C64.0295 149.684 61.9011 149.804 60.2061 150.474C60.0684 150.529 59.9285 150.556 59.7863 150.556Z" fill="black"/>
</g>
<defs>
<clipPath id="clip0_48_705">
<rect width="446" height="331" fill="white"/>
</clipPath>
</defs>
</svg>
