<svg width="39" height="38" viewBox="0 0 39 38" fill="none" xmlns="http://www.w3.org/2000/svg">
<rect x="2" y="1.93585" width="35" height="23" fill="white"/>
<path d="M37.482 31.3181H1.46578C0.65583 31.3181 0 30.6742 0 29.8789V1.43918C0 0.643928 0.65583 0 1.46578 0H37.482C38.2919 0 38.9478 0.643928 38.9478 1.43918V29.8789C38.9478 30.6742 38.2919 31.3181 37.482 31.3181ZM2.93155 28.4398H36.0162V2.87835H2.93155V28.4398Z" fill="#0B376B"/>
<path d="M26.7934 37.9358H12.1533C11.3433 37.9358 10.6875 37.2919 10.6875 36.4967C10.6875 35.7014 11.3433 35.0575 12.1533 35.0575H26.7934C27.6034 35.0575 28.2592 35.7014 28.2592 36.4967C28.2592 37.2919 27.6034 37.9358 26.7934 37.9358Z" fill="#0B376B"/>
<path d="M19.4738 37.9359C18.6639 37.9359 18.0081 37.2919 18.0081 36.4967V30.4357C18.0081 29.6404 18.6639 28.9965 19.4738 28.9965C20.2838 28.9965 20.9396 29.6404 20.9396 30.4357V36.4967C20.9396 37.2919 20.2838 37.9359 19.4738 37.9359Z" fill="#0B376B"/>
<path d="M37.4818 24.5696H1.46558V29.8789H37.4818V24.5696Z" fill="#0B376B"/>
<path d="M37.9007 30.2901H1.04688V24.1584H37.9007V30.2901ZM1.88446 29.4677H37.0631V24.9808H1.88446V29.4677Z" fill="#0B376B"/>
<path d="M19.4931 29.0401C19.1095 29.0401 18.7988 28.9225 18.5609 28.689C18.323 28.4554 18.2041 28.1577 18.2041 27.7934C18.2041 27.4307 18.323 27.1346 18.5609 26.9077C18.7988 26.6807 19.1095 26.5664 19.4931 26.5664C19.8768 26.5664 20.1808 26.6807 20.4061 26.9077C20.6306 27.1346 20.7428 27.4307 20.7428 27.7934C20.7428 28.1569 20.6298 28.4554 20.4061 28.689C20.1816 28.9225 19.8768 29.0401 19.4931 29.0401Z" fill="#2197F9"/>
<path d="M19.4932 29.4513C18.9966 29.4513 18.5828 29.2934 18.2645 28.9801C17.9462 28.6676 17.7854 28.2687 17.7854 27.7942C17.7854 27.3172 17.9479 26.92 18.2687 26.6133C18.587 26.3098 18.9991 26.1552 19.4932 26.1552C19.9924 26.1552 20.4003 26.3114 20.7061 26.6207C21.0084 26.9274 21.1617 27.3221 21.1617 27.7934C21.1617 28.2621 21.0101 28.6593 20.7111 28.971C20.4045 29.2893 19.995 29.4513 19.4932 29.4513ZM19.4932 26.9776C19.221 26.9776 19.0116 27.0516 18.8525 27.2021C18.695 27.3518 18.623 27.5393 18.623 27.7934C18.623 28.05 18.6975 28.2416 18.8567 28.3978C19.1699 28.7062 19.8115 28.7079 20.1013 28.4061C20.2513 28.2506 20.3241 28.0491 20.3241 27.7934C20.3241 27.5393 20.2521 27.3427 20.1047 27.1939C19.9615 27.0483 19.7613 26.9776 19.4932 26.9776Z" fill="#2197F9"/>
<path d="M20.5284 20.0103C20.0142 20.0103 19.5158 19.7447 19.2478 19.2735C18.8524 18.5794 19.1054 17.7027 19.8123 17.3153L25.327 14.2898L19.8123 11.2651C19.1054 10.8777 18.8524 10.001 19.2478 9.30695C19.6414 8.61368 20.5318 8.36285 21.2421 8.75266L29.0467 13.0332C29.5107 13.2873 29.7972 13.7684 29.7972 14.289C29.7972 14.8095 29.5099 15.2915 29.0467 15.5448L21.2421 19.8261C21.0151 19.9519 20.7697 20.0103 20.5284 20.0103Z" fill="#2197F9"/>
<path d="M12.2146 20.7957C12.1485 21.0029 12.0429 21.1534 11.8972 21.2439C11.7515 21.3343 11.5931 21.3804 11.4214 21.3804C11.2497 21.3804 11.0939 21.3376 10.9549 21.2538C10.8159 21.1699 10.717 21.049 10.6576 20.8935C10.5989 20.7381 10.6023 20.5498 10.6676 20.3286L15.3296 6.14981C15.395 5.94257 15.5013 5.7896 15.6471 5.69174C15.792 5.5947 15.9469 5.54947 16.1136 5.55605C16.2786 5.56263 16.431 5.60786 16.5692 5.69174C16.7083 5.77727 16.8071 5.89322 16.8666 6.0429C16.9261 6.19257 16.9294 6.37679 16.8766 6.59801L12.2146 20.7957Z" fill="#2197F9"/>
<path d="M11.4213 21.9972C11.1324 21.9972 10.8643 21.9232 10.6248 21.7776C10.3693 21.623 10.1775 21.3919 10.0695 21.109C9.96227 20.8245 9.96059 20.5054 10.0645 20.1551L14.7315 5.95903C14.837 5.62431 15.0271 5.36033 15.2918 5.18269C15.5331 5.01986 15.7986 4.93762 16.0817 4.93762C16.4108 4.94996 16.6663 5.02562 16.8975 5.16542C17.1571 5.32332 17.3414 5.54208 17.4511 5.81593C17.5583 6.08403 17.5709 6.39407 17.4871 6.73865L12.8126 20.984C12.702 21.3294 12.5069 21.5934 12.2346 21.7628C11.9867 21.9191 11.7128 21.9972 11.4213 21.9972ZM16.0867 6.17202C16.0624 6.17202 16.0398 6.17531 16.0004 6.20081C15.977 6.21726 15.9493 6.26578 15.9292 6.33157L11.2647 20.5177C11.232 20.6296 11.2463 20.6781 11.2463 20.6781C11.4021 20.8253 11.4699 20.7801 11.5604 20.7233C11.5604 20.7233 11.5872 20.6995 11.6148 20.6107L16.2785 6.40805C16.2927 6.34144 16.2869 6.2814 16.2819 6.26742C16.1931 6.18847 16.1445 6.17449 16.0892 6.17202C16.0875 6.17202 16.0867 6.17202 16.0867 6.17202Z" fill="#2197F9"/>
</svg>
