<svg width="129" height="38" xmlns="http://www.w3.org/2000/svg" fill="none">
 <defs>
  <clipPath id="clip0_133_147">
   <rect id="svg_1" fill="white" height="38" width="129"/>
  </clipPath>
 </defs>
 <g>
  <title>Layer 1</title>
  <rect stroke="#ffffff" id="svg_3" height="20.78431" width="32.54902" y="3.21569" x="3.24509" fill="#fff"/>
  <g clip-path="url(#clip0_133_147)" id="nuevo logo Devs Learning-01 1">
   <g id="Group">
    <path fill="#0B376B" d="m37.482,31.3823l-36.01622,0c-0.80995,0 -1.46578,-0.644 -1.46578,-1.4392l0,-28.43978c0,-0.79524 0.65583,-1.43917 1.46578,-1.43917l36.01622,0c0.8099,0 1.4658,0.64393 1.4658,1.43917l0,28.43978c0,0.7952 -0.6559,1.4392 -1.4658,1.4392zm-34.55045,-2.8784l33.08465,0l0,-25.5614l-33.08465,0l0,25.5614z" id="Vector"/>
    <path fill="#0B376B" d="m26.7934,38l-14.6401,0c-0.81,0 -1.4658,-0.6439 -1.4658,-1.4392c0,-0.7952 0.6558,-1.4392 1.4658,-1.4392l14.6401,0c0.81,0 1.4658,0.644 1.4658,1.4392c0,0.7953 -0.6558,1.4392 -1.4658,1.4392z" id="Vector_2"/>
    <path fill="#0B376B" d="m19.4738,38c-0.8099,0 -1.4657,-0.6439 -1.4657,-1.4392l0,-6.061c0,-0.7952 0.6558,-1.4391 1.4657,-1.4391c0.81,0 1.4658,0.6439 1.4658,1.4391l0,6.061c0,0.7953 -0.6558,1.4392 -1.4658,1.4392z" id="Vector_3"/>
    <g id="Group_2">
     <g id="Group_3">
      <g id="Group_4">
       <path fill="#0B376B" d="m53.6221,14.1418c-0.3576,0 -0.6315,-0.0938 -0.8233,-0.2829c-0.1918,-0.1884 -0.2873,-0.4581 -0.2873,-0.8076l0,-11.54962c0,-0.35034 0.0955,-0.62008 0.2873,-0.80758c0.1918,-0.18833 0.4657,-0.28291 0.8233,-0.28291l3.8286,0c2.3,0 4.0757,0.58801 5.3254,1.7632c1.2488,1.17519 1.8737,2.8726 1.8737,5.09222c0,1.10446 -0.1583,2.08392 -0.4758,2.94089c-0.3174,0.8569 -0.784,1.5748 -1.3979,2.1521c-0.6148,0.5782 -1.3653,1.019 -2.2514,1.3241c-0.8862,0.3051 -1.9106,0.4581 -3.074,0.4581l-3.8286,0zm0.9515,-1.6942l2.7573,0c0.8728,0 1.6292,-0.1069 2.2716,-0.3215c0.6407,-0.2147 1.1801,-0.5354 1.6165,-0.9639c0.4364,-0.4284 0.7597,-0.9679 0.9725,-1.61676c0.211,-0.64887 0.3174,-1.40875 0.3174,-2.27883c0,-1.72702 -0.4339,-3.01816 -1.2999,-3.87509c-0.8661,-0.85775 -2.1585,-1.28539 -3.8781,-1.28539l-2.7573,0l0,10.34147z" id="Vector_4"/>
       <path fill="#0B376B" d="m57.4508,14.5529l-3.8286,0c-0.4707,0 -0.8476,-0.1356 -1.1198,-0.4029c-0.2714,-0.2665 -0.4096,-0.6366 -0.4096,-1.0987l0,-11.54962c0,-0.46218 0.1382,-0.83226 0.4096,-1.09871c0.2738,-0.26728 0.6499,-0.40297 1.1198,-0.40297l3.8286,0c2.4014,0 4.2901,0.63159 5.6152,1.87669c1.3292,1.25084 2.0035,3.06421 2.0035,5.38991c0,1.14723 -0.1684,2.18344 -0.5017,3.0815c-0.3376,0.9128 -0.8435,1.69 -1.5018,2.3092c-0.655,0.616 -1.4633,1.0922 -2.403,1.4154c-0.9264,0.3191 -2.0069,0.4802 -3.2122,0.4802zm-3.8286,-13.73051c-0.2429,0 -0.4163,0.05263 -0.5285,0.16283c-0.1097,0.10773 -0.1633,0.27714 -0.1633,0.51646l0,11.54962c0,0.2393 0.0536,0.4087 0.1641,0.5173c0.1114,0.1093 0.284,0.162 0.5277,0.162l3.8286,0c1.1107,0 2.0982,-0.1464 2.9349,-0.4343c0.8259,-0.2845 1.5328,-0.6998 2.1015,-1.2335c0.5645,-0.5313 1.0001,-1.2024 1.2941,-1.996c0.299,-0.80755 0.4506,-1.75001 0.4506,-2.8002c0,-2.09297 -0.5871,-3.70649 -1.7447,-4.79533c-1.1642,-1.09377 -2.8587,-1.64888 -5.0364,-1.64888l-3.8286,0zm3.7088,12.03641l-3.1761,0l0,-11.16386l3.1761,0c1.8276,0 3.2323,0.47369 4.1754,1.40792c0.9423,0.93259 1.4205,2.33394 1.4205,4.16374c0,0.90792 -0.1139,1.71632 -0.3367,2.40466c-0.2328,0.70974 -0.5946,1.30924 -1.0754,1.78214c-0.4791,0.4704 -1.0772,0.8281 -1.7774,1.0625c-0.6818,0.227 -1.4909,0.3429 -2.4064,0.3429zm-2.3385,-0.8224l2.3385,0c0.8225,0 1.542,-0.1003 2.1367,-0.2993c0.5771,-0.1933 1.0671,-0.4844 1.4549,-0.8652c0.3861,-0.3799 0.6793,-0.8684 0.8703,-1.45229c0.1968,-0.6061 0.2965,-1.33062 0.2965,-2.15301c0,-1.60529 -0.3971,-2.81173 -1.1777,-3.58478c-0.7806,-0.77222 -1.9851,-1.1645 -3.5807,-1.1645l-2.3385,0l0,9.51908z" id="Vector_5"/>
      </g>
      <g id="Group_5">
       <path fill="#0B376B" d="m71.7326,14.3169c-1.0587,0 -1.9674,-0.1973 -2.7271,-0.5937c-0.7606,-0.3956 -1.3494,-0.9614 -1.7657,-1.695c-0.4162,-0.7335 -0.6248,-1.6069 -0.6248,-2.62009c0,-0.98604 0.2052,-1.85037 0.6148,-2.58969c0.4096,-0.74015 0.9716,-1.31829 1.686,-1.7336c0.7145,-0.4153 1.5278,-0.62336 2.4399,-0.62336c0.6751,0 1.2757,0.10773 1.805,0.32155c0.5285,0.21464 0.9817,0.52633 1.3586,0.93505c0.3769,0.40955 0.6617,0.90627 0.8535,1.49099c0.1918,0.58389 0.2881,1.24016 0.2881,1.96715c0,0.22122 -0.067,0.38652 -0.1985,0.49672c-0.1323,0.11102 -0.3317,0.16612 -0.5947,0.16612l-6.6655,0l0,-1.20809l6.1094,0l-0.3367,0.27304c0,-0.64969 -0.0964,-1.20151 -0.2882,-1.65629c-0.1918,-0.45478 -0.4757,-0.80183 -0.8526,-1.04196c-0.3769,-0.24014 -0.8435,-0.36021 -1.3988,-0.36021c-0.6215,0 -1.1475,0.1431 -1.5772,0.42847c-0.4305,0.28536 -0.7572,0.68093 -0.9816,1.18752c-0.2262,0.50577 -0.3367,1.09706 -0.3367,1.77224l0,0.11678c0,1.14316 0.273,2.00336 0.8225,2.58146c0.5478,0.5773 1.3443,0.8668 2.3904,0.8668c0.3971,0 0.8167,-0.0518 1.2598,-0.1554c0.4431,-0.1045 0.8627,-0.2796 1.2597,-0.5264c0.2245,-0.1299 0.4272,-0.1883 0.6056,-0.1751c0.1784,0.0131 0.3241,0.0715 0.4364,0.1751c0.1122,0.1037 0.1817,0.2336 0.2085,0.3899c0.026,0.1554 0,0.3149 -0.0804,0.4769c-0.0787,0.1621 -0.2178,0.3084 -0.4154,0.4384c-0.4498,0.2985 -0.9725,0.523 -1.5672,0.671c-0.5972,0.1489 -1.1717,0.2237 -1.7271,0.2237z" id="Vector_6"/>
       <path fill="#0B376B" d="m71.7326,14.7281c-1.1232,0 -2.1065,-0.2163 -2.9232,-0.6414c-0.8292,-0.431 -1.4808,-1.0568 -1.9356,-1.8578c-0.4498,-0.792 -0.6785,-1.741 -0.6785,-2.81997c0,-1.05101 0.2245,-1.98853 0.6659,-2.78707c0.4439,-0.80182 1.0637,-1.43835 1.8402,-1.89066c0.7764,-0.45231 1.6693,-0.68094 2.6534,-0.68094c0.7246,0 1.3854,0.11925 1.965,0.35198c0.5847,0.23767 1.0922,0.58719 1.5093,1.0395c0.4172,0.45231 0.7338,1.00496 0.9415,1.64066c0.2044,0.62419 0.3082,1.32733 0.3082,2.09297c0,0.42929 -0.1884,0.67765 -0.3459,0.80923c-0.2094,0.1752 -0.5017,0.264 -0.8661,0.264l-5.8379,0c0.1022,0.5929 0.3166,1.0625 0.639,1.4022c0.4708,0.495 1.1517,0.736 2.084,0.736c0.361,0 0.7513,-0.0494 1.1625,-0.1447c0.397,-0.093 0.7781,-0.2533 1.1333,-0.4737c0.2789,-0.1612 0.5377,-0.2402 0.7806,-0.2402c0.356,0.0222 0.588,0.1193 0.7723,0.2887c0.1792,0.1661 0.2923,0.3742 0.3342,0.6201c0.041,0.2434 0.0016,0.4868 -0.1165,0.7253c-0.1097,0.2262 -0.2981,0.4293 -0.5595,0.6003c-0.4866,0.3241 -1.0587,0.5683 -1.6969,0.7287c-0.6265,0.1579 -1.2422,0.2368 -1.8293,0.2368zm-0.3778,-9.85463c-0.8317,0 -1.5813,0.18997 -2.2263,0.5658c-0.6457,0.37501 -1.1609,0.90627 -1.5311,1.57569c-0.3744,0.67601 -0.5645,1.48194 -0.5645,2.39397c0,0.93757 0.1918,1.75087 0.5721,2.41947c0.3744,0.6595 0.9121,1.1752 1.5964,1.5313c1.0604,0.551 2.5304,0.7385 4.1528,0.3339c0.5452,-0.1366 1.0285,-0.343 1.4364,-0.6135c0.1357,-0.0889 0.227,-0.1818 0.2722,-0.2747c0.0436,-0.0872 0.057,-0.1612 0.0453,-0.2336c-0.0118,-0.0658 -0.0369,-0.1151 -0.083,-0.1562c-0.0259,-0.0239 -0.0728,-0.0568 -0.1792,-0.0642c-0.1039,0.005 -0.191,0.0181 -0.3618,0.1193c-0.423,0.2623 -0.8896,0.4572 -1.3762,0.5715c-1.7673,0.4129 -3.1954,0.074 -4.0539,-0.8306c-0.4624,-0.4868 -0.7555,-1.1456 -0.8744,-1.963l-0.3987,0l0,-2.02966l0.4271,0c0.062,-0.3306 0.1575,-0.63982 0.2831,-0.9219c0.2555,-0.57649 0.6358,-1.0362 1.1316,-1.36351c0.4975,-0.33142 1.1065,-0.49919 1.8109,-0.49919c0.6349,0 1.1818,0.14392 1.6266,0.42682c0.4472,0.28701 0.7873,0.70067 1.0109,1.22946c0.1399,0.33225 0.2346,0.71055 0.2823,1.12914l0.8208,0c-0.0444,-0.31333 -0.1122,-0.60857 -0.2018,-0.88406c-0.1717,-0.52551 -0.4297,-0.97618 -0.7656,-1.34132c-0.3317,-0.36102 -0.7379,-0.64064 -1.2069,-0.83143c-0.4758,-0.19162 -1.0294,-0.28948 -1.6451,-0.28948zm2.6301,4.55355l0.8819,0c0.2245,0 0.3041,-0.05181 0.3233,-0.06825c0.0428,-0.03537 0.052,-0.11925 0.052,-0.1834c0,-0.25411 -0.0126,-0.49918 -0.0377,-0.73603l-1.2195,0.98768zm-5.0264,0l4.5958,0l0,-0.38569l-4.5933,0c-0.0025,0.06332 -0.0033,0.12746 -0.0033,0.19243l0,0.11678c0,0.0255 0,0.05181 0.0008,0.07648zm0.1055,-1.20808l4.4476,0c-0.0419,-0.30428 -0.113,-0.57732 -0.2127,-0.81416c-0.1592,-0.37912 -0.3861,-0.65874 -0.6935,-0.85446c-0.3066,-0.19491 -0.7003,-0.2936 -1.1701,-0.2936c-0.5336,0 -0.985,0.12007 -1.3427,0.35856c-0.3669,0.24261 -0.6391,0.57321 -0.8317,1.01072c-0.0821,0.18257 -0.1474,0.38076 -0.1969,0.59294z" id="Vector_7"/>
      </g>
      <g id="Group_6">
       <path fill="#0B376B" d="m81.5899,14.2783c-0.278,0 -0.5184,-0.0716 -0.7236,-0.2147c-0.2053,-0.1431 -0.3736,-0.3626 -0.5059,-0.6628l-3.3119,-7.55611c-0.1063,-0.23355 -0.1465,-0.45478 -0.1189,-0.66202c0.026,-0.20806 0.124,-0.37336 0.2965,-0.49672c0.1717,-0.12253 0.4029,-0.18503 0.6944,-0.18503c0.2504,0 0.4489,0.05838 0.5955,0.17516c0.1449,0.1176 0.2772,0.31827 0.3962,0.60364l2.9952,7.24518l-0.5553,0l3.0546,-7.24518c0.1198,-0.2862 0.2547,-0.48686 0.4063,-0.60364c0.1516,-0.11678 0.3668,-0.17516 0.6449,-0.17516c0.2379,0 0.4263,0.06167 0.5654,0.18503c0.139,0.12336 0.2253,0.28619 0.2588,0.48686c0.0327,0.20148 -0.0034,0.41941 -0.1097,0.65297l-3.3521,7.57582c-0.1197,0.2993 -0.2847,0.5197 -0.4958,0.6628c-0.2128,0.1423 -0.4565,0.2139 -0.7346,0.2139z" id="Vector_8"/>
       <path fill="#0B376B" d="m81.59,14.6895c-0.3652,0 -0.6893,-0.0979 -0.9657,-0.2903c-0.2672,-0.1867 -0.4858,-0.4672 -0.6483,-0.8348l-3.3118,-7.5577c-0.1366,-0.29853 -0.1877,-0.59623 -0.15,-0.87749c0.0402,-0.31662 0.2011,-0.58636 0.4657,-0.77551c0.4682,-0.33471 1.3343,-0.36678 1.8,0.00329c0.2052,0.16612 0.3744,0.41695 0.5201,0.76893l2.3369,5.65058l2.3838,-5.65304c0.1482,-0.35527 0.3233,-0.60692 0.5352,-0.77058c0.4347,-0.33471 1.2924,-0.37336 1.7489,0.02714c0.211,0.18833 0.3417,0.43175 0.3911,0.72617c0.0469,0.28372 -0.0008,0.58142 -0.1407,0.88735l-3.3495,7.57176c-0.1441,0.3602 -0.3618,0.6472 -0.6424,0.8371c-0.2848,0.1908 -0.6115,0.2871 -0.9733,0.2871zm-3.6695,-9.77657c-0.1985,0 -0.3492,0.03536 -0.4481,0.10608c-0.0787,0.05593 -0.1156,0.11925 -0.1273,0.21547c-0.0176,0.1324 0.0117,0.28043 0.0855,0.44327l3.3143,7.56185c0.1005,0.2253 0.2236,0.3914 0.3643,0.4893c0.2706,0.1892 0.6961,0.1875 0.98,-0.0033c0.139,-0.0946 0.2546,-0.2549 0.3417,-0.4737l3.3579,-7.58978c0.0737,-0.16119 0.0997,-0.30264 0.0804,-0.42435c-0.0176,-0.10773 -0.0578,-0.18668 -0.1256,-0.24754c-0.0209,-0.01809 -0.088,-0.07813 -0.2839,-0.07813c-0.1759,0 -0.3125,0.03125 -0.3862,0.08718c-0.0527,0.04029 -0.1574,0.15132 -0.2772,0.43586l-2.7096,6.42526l0.4439,1.0749l-1.8033,0l0.454,-1.0781l-2.6552,-6.4237c-0.1198,-0.28784 -0.2236,-0.39968 -0.2747,-0.44162c-0.0679,-0.05099 -0.1801,-0.07895 -0.3309,-0.07895z" id="Vector_9"/>
      </g>
      <g id="Group_7">
       <path fill="#0B376B" d="m91.5481,14.3169c-0.5821,0 -1.1793,-0.0649 -1.7949,-0.194c-0.6148,-0.13 -1.181,-0.3512 -1.6961,-0.6629c-0.1717,-0.1168 -0.2915,-0.2467 -0.3568,-0.3898c-0.067,-0.1431 -0.0897,-0.2887 -0.0704,-0.4375c0.0201,-0.1497 0.0804,-0.2796 0.1792,-0.3898c0.0989,-0.111 0.2254,-0.1793 0.377,-0.2048c0.1516,-0.0255 0.3141,0.0066 0.4858,0.097c0.5151,0.2862 1.0109,0.4844 1.4867,0.5946c0.4757,0.1102 0.9456,0.1653 1.4088,0.1653c0.7011,0 1.2304,-0.1233 1.5872,-0.37c0.3577,-0.2468 0.5369,-0.5774 0.5369,-0.9935c0,-0.3372 -0.1198,-0.5995 -0.3576,-0.7887c-0.2379,-0.1883 -0.5947,-0.3338 -1.0713,-0.4375l-1.8837,-0.37004c-0.82,-0.16859 -1.4424,-0.46711 -1.8653,-0.8964c-0.4239,-0.42846 -0.6349,-0.97371 -0.6349,-1.63573c0,-0.59705 0.165,-1.11597 0.4958,-1.55842c0.3309,-0.4408 0.7932,-0.78209 1.3887,-1.02222c0.5947,-0.24014 1.2824,-0.36021 2.063,-0.36021c0.5813,0 1.1308,0.07155 1.6459,0.21464c0.5159,0.1431 0.9925,0.35774 1.4281,0.64229c0.1717,0.09128 0.2847,0.21135 0.3375,0.3602c0.0528,0.14885 0.0628,0.29524 0.0302,0.43833c-0.0344,0.1431 -0.1031,0.26892 -0.2094,0.37995c-0.1056,0.1102 -0.2337,0.17516 -0.3862,0.19408c-0.1524,0.01891 -0.3208,-0.01645 -0.5059,-0.10691c-0.3978,-0.24672 -0.7907,-0.42271 -1.181,-0.52633c-0.3894,-0.10362 -0.7773,-0.15543 -1.16,-0.15543c-0.7019,0 -1.2271,0.12665 -1.5772,0.37994c-0.3509,0.2533 -0.526,0.59377 -0.526,1.02223c0,0.32484 0.1055,0.5913 0.3174,0.79854c0.212,0.20806 0.542,0.35773 0.9926,0.4482l1.8845,0.37007c0.8586,0.16859 1.5102,0.45478 1.9533,0.85693c0.4431,0.40219 0.6642,0.94739 0.6642,1.63569c0,0.8956 -0.3635,1.6037 -1.0905,2.1226c-0.7262,0.5206 -1.6928,0.7796 -2.8956,0.7796z" id="Vector_10"/>
       <path fill="#0B376B" d="m91.548,14.7281c-0.6072,0 -1.2396,-0.0682 -1.882,-0.2031c-0.66,-0.1398 -1.2748,-0.3808 -1.8285,-0.7147c-0.2546,-0.171 -0.423,-0.3602 -0.5193,-0.5707c-0.098,-0.2089 -0.1332,-0.4317 -0.1038,-0.6595c0.0318,-0.2328 0.1264,-0.4367 0.2805,-0.6086c0.16,-0.1793 0.3744,-0.2961 0.6199,-0.338c0.2437,-0.042 0.5008,0.0057 0.7555,0.1406c0.4866,0.2698 0.9498,0.4564 1.3837,0.5568c0.4439,0.1019 0.8853,0.1546 1.3125,0.1546c0.6097,0 1.0629,-0.0995 1.3451,-0.2953c0.2488,-0.171 0.3593,-0.3733 0.3593,-0.657c0,-0.2739 -0.108,-0.394 -0.2018,-0.4688c-0.186,-0.1472 -0.4883,-0.2665 -0.8987,-0.3561l-1.8746,-0.3684c-0.9037,-0.1859 -1.6039,-0.52717 -2.0839,-1.0132c-0.4992,-0.50413 -0.7521,-1.15052 -0.7521,-1.92192c0,-0.6834 0.1935,-1.2895 0.5762,-1.80103c0.3761,-0.50165 0.9029,-0.89146 1.5672,-1.15956c0.6441,-0.25905 1.3912,-0.39146 2.2221,-0.39146c0.6173,0 1.2094,0.07731 1.7597,0.22945c0.5554,0.15461 1.0755,0.38817 1.5471,0.69656c0.2328,0.12171 0.4129,0.31991 0.5008,0.56663c0.0796,0.22204 0.0939,0.44573 0.0444,0.66448c-0.0527,0.21876 -0.1574,0.40955 -0.3132,0.57156c-0.1734,0.18093 -0.3887,0.28866 -0.6374,0.32073l-0.1357,0.00823c-0.1952,0 -0.4012,-0.05181 -0.6106,-0.15461c-0.3987,-0.24507 -0.7572,-0.40462 -1.1031,-0.49672c-0.3526,-0.09376 -0.7061,-0.14145 -1.0504,-0.14145c-0.6064,0 -1.0536,0.10115 -1.3292,0.29934c-0.2421,0.17517 -0.3551,0.39393 -0.3551,0.69163c0,0.21629 0.0611,0.37748 0.1934,0.50659c0.1533,0.1505 0.4155,0.26316 0.7815,0.33636l1.8821,0.37007c0.9314,0.18339 1.6567,0.50495 2.1559,0.95808c0.5294,0.4811 0.7982,1.13324 0.7982,1.93754c0,1.0313 -0.4246,1.8578 -1.263,2.4548c-0.7958,0.5683 -1.8536,0.8561 -3.1427,0.8561zm-3.259,-2.287c-0.0896,0.0131 -0.1298,0.0337 -0.165,0.074c-0.0453,0.0502 -0.0695,0.1044 -0.0796,0.1727c-0.0092,0.0715 0.0025,0.139 0.036,0.2113c0.0344,0.0749 0.1081,0.1514 0.2144,0.2229c0.454,0.273 0.98,0.4786 1.5471,0.5987c0.5838,0.1225 1.1584,0.1859 1.7061,0.1859c1.1082,0 2.0002,-0.2352 2.6502,-0.7007c0.6173,-0.4408 0.9179,-1.0263 0.9179,-1.7903c0,-0.5741 -0.1733,-1.0108 -0.5301,-1.334c-0.3837,-0.34864 -0.9733,-0.60276 -1.7506,-0.75573l-1.8846,-0.37007c-0.5394,-0.10855 -0.9322,-0.29112 -1.2061,-0.56087c-0.2923,-0.28536 -0.4397,-0.65215 -0.4397,-1.08884c0,-0.55757 0.2412,-1.02469 0.6968,-1.35364c0.4281,-0.30922 1.0253,-0.45972 1.8251,-0.45972c0.418,0 0.8452,0.05675 1.2698,0.17024c0.4264,0.11349 0.8619,0.30675 1.2949,0.57484c0.0553,0.02468 0.1366,0.04853 0.2002,0.04853c0.0838,-0.00823 0.1231,-0.02879 0.1625,-0.06991c0.0553,-0.05674 0.0888,-0.11924 0.1072,-0.19244c0.0151,-0.06414 0.0092,-0.13158 -0.0176,-0.20806c-0.0067,-0.01809 -0.0259,-0.07319 -0.1424,-0.13487c-0.4313,-0.27961 -0.871,-0.47781 -1.3426,-0.60774c-1.1106,-0.30922 -2.4885,-0.25248 -3.4358,0.13076c-0.5201,0.2097 -0.9272,0.50741 -1.2111,0.88488c-0.2781,0.37254 -0.4138,0.80347 -0.4138,1.315c0,0.55758 0.1684,0.99838 0.516,1.34953c0.3626,0.36761 0.9179,0.62995 1.6508,0.78045l1.8796,0.36925c0.5528,0.12011 0.9599,0.29031 1.2522,0.52061c0.3358,0.2664 0.5134,0.6496 0.5134,1.1094c0,0.5477 -0.2471,1.0074 -0.7153,1.3298c-0.433,0.2993 -1.0302,0.4449 -1.8276,0.4449c-0.4917,0 -0.9976,-0.0592 -1.5043,-0.1768c-0.5118,-0.1185 -1.0495,-0.3323 -1.5973,-0.6357c-0.0636,-0.0354 -0.1256,-0.0543 -0.1767,-0.0543z" id="Vector_11"/>
      </g>
     </g>
    </g>
    <g id="Group_8">
     <path fill="#0B376B" d="m60.7232,28.573l-5.7307,0l0,-10.6326c0,-0.4491 -0.1307,-0.8052 -0.3895,-1.0585c-0.2588,-0.2557 -0.6156,-0.3848 -1.0612,-0.3848c-0.4456,0 -0.8024,0.1291 -1.0604,0.384c-0.2597,0.2541 -0.3903,0.6102 -0.3903,1.0593l0,11.7445c0,0.4358 0.1348,0.7894 0.4003,1.0493c0.2655,0.2607 0.6257,0.3939 1.0696,0.3939l7.1614,0c0.4045,0 0.7312,-0.1192 0.9708,-0.3544c0.2387,-0.2344 0.3601,-0.5485 0.3601,-0.9334c0,-0.3882 -0.1231,-0.7015 -0.3668,-0.9301c-0.2371,-0.2229 -0.5612,-0.3372 -0.9633,-0.3372z" id="Vector_12"/>
     <path fill="#0B376B" d="m71.7852,26.5606c0.1574,-0.1316 0.3459,-0.38 0.3459,-0.8092c0,-0.7657 -0.1039,-1.4688 -0.3083,-2.093c-0.2077,-0.6357 -0.5243,-1.1884 -0.9414,-1.6407c-0.4171,-0.4523 -0.9247,-0.8018 -1.5093,-1.0395c-0.5788,-0.2327 -1.2397,-0.3519 -1.965,-0.3519c-0.9842,0 -1.8762,0.2286 -2.6535,0.6809c-0.7773,0.4523 -1.3962,1.0888 -1.8402,1.8907c-0.4414,0.7985 -0.6658,1.7352 -0.6658,2.787c0,1.079 0.2278,2.028 0.6784,2.82c0.4548,0.801 1.1056,1.426 1.9357,1.8578c0.8175,0.4259 1.7999,0.6414 2.9231,0.6414c0.5872,0 1.2037,-0.0798 1.8293,-0.2368c0.6391,-0.1588 1.2103,-0.4046 1.697,-0.7287c0.2613,-0.171 0.4498,-0.3742 0.5595,-0.6003c0.1181,-0.2385 0.1575,-0.4819 0.1164,-0.7254c-0.0427,-0.2458 -0.1558,-0.4539 -0.3342,-0.62c-0.1843,-0.1694 -0.4163,-0.2657 -0.7722,-0.2887c-0.2429,0 -0.5018,0.079 -0.7807,0.2401c-0.3551,0.2213 -0.7362,0.3808 -1.1332,0.4737c-0.4104,0.0954 -0.8016,0.1448 -1.1626,0.1448c-0.9322,0 -1.614,-0.241 -2.0839,-0.7361c-0.3225,-0.3396 -0.5369,-0.8092 -0.6391,-1.4021l5.838,0c0.3643,0 0.6567,-0.0888 0.8661,-0.264zm-6.4721,-2.3594c0.1927,-0.4375 0.4657,-0.7681 0.8317,-1.0107c0.3577,-0.2377 0.8092,-0.3586 1.3427,-0.3586c0.4707,0 0.8635,0.0987 1.1701,0.2936c0.3074,0.1957 0.5344,0.4753 0.6935,0.8544c0.0997,0.2369 0.1709,0.5099 0.2128,0.8142l-4.4476,0c0.0494,-0.2113 0.1147,-0.4104 0.1968,-0.5929z" id="Vector_13"/>
     <path fill="#0B376B" d="m80.2751,21.0769c-0.9825,-0.4655 -2.4122,-0.6077 -4.0665,-0.2656c-0.598,0.1217 -1.2095,0.3289 -1.7857,0.6003c-0.3099,0.1143 -0.5352,0.2961 -0.6676,0.5395c-0.1223,0.2204 -0.18,0.4523 -0.1708,0.69c0.01,0.2377 0.0837,0.4597 0.2194,0.6612c0.1499,0.2187 0.3652,0.3684 0.6249,0.4326c0.2571,0.0616 0.5327,0.0238 0.8669,-0.1308c0.4581,-0.2303 0.902,-0.3956 1.3208,-0.491c0.4247,-0.0962 0.8368,-0.1455 1.2246,-0.1455c0.6056,0 1.031,0.1209 1.2656,0.3602c0.2378,0.2434 0.3593,0.685 0.3593,1.3125l0,0.0946l-0.2555,0c-1.4515,0 -2.6258,0.0913 -3.4885,0.2722c-0.9264,0.1933 -1.6115,0.5321 -2.0345,1.0082c-0.4297,0.4844 -0.6475,1.1358 -0.6475,1.9359c0,0.6399 0.1776,1.2221 0.5277,1.7303c0.3434,0.4992 0.8217,0.8997 1.4214,1.1892c0.5913,0.287 1.2648,0.4318 2.0002,0.4318c0.5972,0 1.1399,-0.1028 1.6157,-0.3068c0.3601,-0.1546 0.6809,-0.3635 0.9565,-0.625c0.0611,0.1941 0.1616,0.3619 0.299,0.5025c0.253,0.259 0.588,0.3906 0.9967,0.3906c0.5336,0 0.8426,-0.2187 1.0068,-0.4013c0.2278,-0.2508 0.3434,-0.5888 0.3434,-1.0033l0,-5.0059c0,-0.9424 -0.1541,-1.7303 -0.4581,-2.3421c-0.32,-0.639 -0.8158,-1.1226 -1.4742,-1.4343zm-1.8217,7.7239c-0.3058,0.1875 -0.655,0.2779 -1.068,0.2779c-0.5059,0 -0.8811,-0.1151 -1.1475,-0.3528c-0.2546,-0.2237 -0.3777,-0.5156 -0.3777,-0.8914c0,-0.2599 0.0703,-0.4532 0.2161,-0.5872c0.1164,-0.1078 0.3777,-0.2558 0.9615,-0.3512c0.5311,-0.0863 1.269,-0.1307 2.192,-0.1307l0.2354,0l0,0.1151c0,0.4342 -0.0922,0.8191 -0.2756,1.1464c-0.1843,0.329 -0.4255,0.5822 -0.7362,0.7739z" id="Vector_14"/>
     <path fill="#0B376B" d="m90.4969,20.8944c-0.206,-0.1916 -0.4724,-0.2895 -0.7898,-0.2895l-0.0938,0.0025c-0.9599,0.0707 -1.7665,0.3322 -2.3955,0.7779c-0.1231,0.0864 -0.2396,0.1826 -0.3485,0.2854c-0.0536,-0.2508 -0.1624,-0.4605 -0.3258,-0.6275c-0.2471,-0.2508 -0.5921,-0.3783 -1.0252,-0.3783c-0.4188,0 -0.7588,0.125 -1.0109,0.3734c-0.2522,0.2475 -0.3795,0.5946 -0.3795,1.0313l0,7.7904c0,0.4211 0.1257,0.7624 0.3728,1.014c0.2529,0.2591 0.6089,0.3907 1.057,0.3907c0.4649,0 0.825,-0.1333 1.0713,-0.3948c0.2378,-0.2533 0.3593,-0.5929 0.3593,-1.0099l0,-4.4211c0,-0.6867 0.1817,-1.2048 0.557,-1.5839c0.3744,-0.3792 0.9473,-0.6061 1.7061,-0.6752l0.3686,-0.0387c0.4137,-0.0345 0.7345,-0.176 0.9532,-0.4202c0.2244,-0.2492 0.3182,-0.5732 0.2822,-0.9433c-0.0184,-0.3783 -0.1382,-0.676 -0.3585,-0.8832z" id="Vector_15"/>
     <path fill="#0B376B" d="m99.2999,21.0975c-0.5713,-0.3134 -1.2832,-0.4712 -2.1191,-0.4712c-0.8803,0 -1.6735,0.2064 -2.3587,0.6143c-0.201,0.12 -0.3878,0.2574 -0.5586,0.4112c-0.0553,-0.2426 -0.1625,-0.4458 -0.3208,-0.607c-0.2463,-0.2516 -0.5922,-0.3791 -1.0269,-0.3791c-0.4171,0 -0.7572,0.125 -1.0093,0.3734c-0.253,0.2484 -0.3811,0.5954 -0.3811,1.0313l0,7.7904c0,0.4203 0.1265,0.7616 0.3744,1.014c0.2529,0.2591 0.6022,0.3907 1.0361,0.3907c0.9096,0 1.4306,-0.5116 1.4306,-1.4047l0,-4.5182c0,-0.7278 0.1985,-1.2854 0.6072,-1.7015c0.4037,-0.4128 0.9381,-0.6135 1.6325,-0.6135c0.5628,0 0.9548,0.1374 1.1969,0.4186c0.2571,0.2985 0.387,0.8125 0.387,1.5264l0,4.8882c0,0.4203 0.1264,0.7616 0.3744,1.014c0.2529,0.2591 0.6089,0.3907 1.057,0.3907c0.4345,0 0.7835,-0.1308 1.0345,-0.3898c0.249,-0.2542 0.375,-0.5955 0.375,-1.0149l0,-5.0058c0,-0.9088 -0.138,-1.6818 -0.412,-2.297c-0.287,-0.6455 -0.7312,-1.1365 -1.3191,-1.4605z" id="Vector_16"/>
     <path fill="#0B376B" d="m104.362,20.7044c-0.436,0 -0.787,0.1357 -1.041,0.4038c-0.245,0.259 -0.369,0.6159 -0.369,1.0592l0,7.5956c0,0.4408 0.122,0.7985 0.365,1.0633c0.175,0.1908 0.498,0.4194 1.046,0.4194c0.452,0 0.809,-0.1406 1.065,-0.4194c0.242,-0.2648 0.365,-0.6225 0.365,-1.0633l0,-7.5956c0,-0.4466 -0.129,-0.8051 -0.385,-1.065c-0.262,-0.264 -0.614,-0.398 -1.046,-0.398z" id="Vector_17"/>
     <path fill="#2197F9" d="m104.362,16.4592c-0.5,0 -0.903,0.1291 -1.199,0.3849c-0.312,0.2689 -0.47,0.6513 -0.47,1.1365c0,0.4704 0.157,0.8479 0.464,1.121c0.296,0.2648 0.701,0.3996 1.205,0.3996c0.502,0 0.907,-0.134 1.203,-0.3988c0.308,-0.2739 0.465,-0.6514 0.465,-1.1218c0,-0.4852 -0.157,-0.8676 -0.471,-1.1373c-0.294,-0.255 -0.698,-0.3841 -1.197,-0.3841z" id="Vector_18"/>
     <path fill="#0B376B" d="m115.545,21.0975c-0.57,-0.3125 -1.282,-0.4712 -2.118,-0.4712c-0.881,0 -1.675,0.2064 -2.36,0.6143c-0.201,0.12 -0.388,0.2574 -0.559,0.4112c-0.055,-0.2426 -0.161,-0.4458 -0.32,-0.6078c-0.247,-0.2508 -0.593,-0.3783 -1.026,-0.3783c-0.418,0 -0.758,0.125 -1.011,0.3734c-0.252,0.2475 -0.38,0.5954 -0.38,1.0313l0,7.7904c0,0.4203 0.126,0.7624 0.374,1.014c0.253,0.2591 0.602,0.3907 1.036,0.3907c0.91,0 1.43,-0.5116 1.43,-1.4047l0,-4.5182c0,-0.727 0.199,-1.2845 0.608,-1.7015c0.403,-0.4128 0.938,-0.6135 1.632,-0.6135c0.564,0 0.956,0.1374 1.198,0.4186c0.257,0.2985 0.387,0.8125 0.387,1.5264l0,4.8882c0,0.4203 0.126,0.7624 0.373,1.014c0.253,0.2591 0.609,0.3907 1.058,0.3907c0.434,0 0.783,-0.1308 1.035,-0.3898c0.249,-0.2533 0.374,-0.5955 0.374,-1.0149l0,-5.0058c0,-0.9104 -0.138,-1.6835 -0.411,-2.297c-0.287,-0.6455 -0.732,-1.1373 -1.32,-1.4605z" id="Vector_19"/>
     <path fill="#0B376B" d="m128.62,21.0391c-0.253,-0.2484 -0.599,-0.3734 -1.03,-0.3734c-0.414,0 -0.756,0.1234 -1.013,0.3668c-0.172,0.1612 -0.288,0.3651 -0.349,0.6086c-0.128,-0.1152 -0.268,-0.2229 -0.418,-0.3224c-0.696,-0.4605 -1.518,-0.6933 -2.445,-0.6933c-0.701,0 -1.355,0.1259 -1.941,0.375c-0.59,0.25 -1.1,0.6094 -1.517,1.0683c-0.411,0.4548 -0.732,0.9984 -0.955,1.6168c-0.219,0.6135 -0.331,1.3084 -0.331,2.065c0,1.0075 0.195,1.9039 0.578,2.6662c0.391,0.7731 0.951,1.3866 1.661,1.8208c0.712,0.4358 1.553,0.6571 2.503,0.6571c0.915,0 1.733,-0.2328 2.434,-0.6925c0.151,-0.0987 0.291,-0.2048 0.42,-0.3199l0,0.2698c0,0.7796 -0.192,1.3668 -0.574,1.7467c-0.576,0.5732 -1.712,0.7163 -3.155,0.4128c-0.482,-0.1028 -1.001,-0.3018 -1.545,-0.5929c-0.265,-0.1406 -0.543,-0.1776 -0.79,-0.1151c-0.233,0.0592 -0.434,0.1809 -0.594,0.3577c-0.155,0.1694 -0.258,0.3701 -0.306,0.6003c-0.051,0.2402 -0.025,0.477 0.076,0.7048c0.105,0.2344 0.3,0.4285 0.563,0.5658c0.58,0.3471 1.234,0.5995 1.943,0.7517c0.695,0.1488 1.422,0.2229 2.162,0.2229c1.601,0 2.847,-0.4195 3.705,-1.2476c0.86,-0.8298 1.296,-2.056 1.296,-3.6432l0,-7.8488c0.002,-0.4326 -0.126,-0.7805 -0.378,-1.028zm-3.52,7.1712c-0.337,0.2146 -0.762,0.324 -1.261,0.324c-0.725,0 -1.283,-0.2335 -1.706,-0.7146c-0.433,-0.4918 -0.651,-1.1867 -0.651,-2.0683c0,-0.5848 0.103,-1.0913 0.306,-1.5075c0.198,-0.4071 0.463,-0.7113 0.811,-0.9326c0.344,-0.2179 0.751,-0.324 1.24,-0.324c0.738,0 1.3,0.2328 1.715,0.7122c0.427,0.4926 0.644,1.1826 0.644,2.051c0,0.5872 -0.1,1.0996 -0.298,1.5231c-0.194,0.412 -0.454,0.7179 -0.8,0.9367z" id="Vector_20"/>
    </g>
    <g id="Group_9">
     <path fill="#0B376B" d="m37.4818,24.6338l-36.01622,0l0,5.3093l36.01622,0l0,-5.3093z" id="Vector_21"/>
     <path fill="#0B376B" d="m37.9007,30.3543l-36.85382,0l0,-6.1317l36.85382,0l0,6.1317zm-36.01624,-0.8224l35.17864,0l0,-4.4869l-35.17864,0l0,4.4869z" id="Vector_22"/>
    </g>
    <g id="Group_10">
     <g id="Group_11">
      <g id="Group_12">
       <path fill="#2197F9" d="m19.4931,29.1043c-0.3836,0 -0.6943,-0.1176 -0.9322,-0.3512c-0.2379,-0.2336 -0.3568,-0.5313 -0.3568,-0.8956c0,-0.3626 0.1189,-0.6587 0.3568,-0.8857c0.2379,-0.227 0.5486,-0.3413 0.9322,-0.3413c0.3837,0 0.6877,0.1143 0.913,0.3413c0.2245,0.227 0.3367,0.5231 0.3367,0.8857c0,0.3635 -0.113,0.662 -0.3367,0.8956c-0.2245,0.2336 -0.5293,0.3512 -0.913,0.3512z" id="Vector_23"/>
       <path fill="#2197F9" d="m19.4932,29.5155c-0.4966,0 -0.9104,-0.1579 -1.2287,-0.4713c-0.3183,-0.3125 -0.4791,-0.7113 -0.4791,-1.1859c0,-0.4769 0.1625,-0.8742 0.4833,-1.1809c0.3183,-0.3035 0.7304,-0.4581 1.2245,-0.4581c0.4992,0 0.9071,0.1563 1.2129,0.4655c0.3023,0.3068 0.4556,0.7015 0.4556,1.1727c0,0.4688 -0.1516,0.866 -0.4506,1.1777c-0.3066,0.3182 -0.7161,0.4803 -1.2179,0.4803zm0,-2.4738c-0.2722,0 -0.4816,0.074 -0.6407,0.2245c-0.1575,0.1497 -0.2295,0.3372 -0.2295,0.5913c0,0.2566 0.0745,0.4482 0.2337,0.6045c0.3132,0.3084 0.9548,0.31 1.2446,0.0082c0.15,-0.1554 0.2228,-0.3569 0.2228,-0.6127c0,-0.2541 -0.072,-0.4506 -0.2194,-0.5995c-0.1432,-0.1456 -0.3434,-0.2163 -0.6115,-0.2163z" id="Vector_24"/>
      </g>
     </g>
    </g>
    <g id="Group_13">
     <path fill="#2197F9" d="m20.5284,20.0744c-0.5142,0 -1.0126,-0.2656 -1.2806,-0.7368c-0.3954,-0.6941 -0.1424,-1.5708 0.5645,-1.9581l5.5147,-3.0256l-5.5147,-3.0247c-0.7069,-0.3874 -0.9599,-1.264 -0.5645,-1.95813c0.3936,-0.69327 1.284,-0.9441 1.9943,-0.55429l7.8046,4.28052c0.464,0.2541 0.7505,0.7352 0.7505,1.2558c0,0.5206 -0.2873,1.0025 -0.7505,1.2558l-7.8046,4.2813c-0.227,0.1258 -0.4724,0.1842 -0.7137,0.1842z" id="Vector_25"/>
     <g id="Group_14">
      <g id="Group_15">
       <path fill="#2197F9" d="m12.2146,20.8598c-0.0661,0.2072 -0.1717,0.3577 -0.3174,0.4482c-0.1457,0.0905 -0.3041,0.1365 -0.4758,0.1365c-0.1717,0 -0.3275,-0.0427 -0.4665,-0.1266c-0.139,-0.0839 -0.2379,-0.2048 -0.2973,-0.3602c-0.0587,-0.1555 -0.0553,-0.3438 0.01,-0.565l4.662,-14.17877c0.0654,-0.20724 0.1717,-0.36021 0.3175,-0.45807c0.1449,-0.09704 0.2998,-0.14228 0.4665,-0.1357c0.165,0.00658 0.3174,0.05181 0.4556,0.1357c0.1391,0.08553 0.2379,0.20148 0.2974,0.35116c0.0595,0.14967 0.0628,0.33389 0.01,0.55511l-4.662,14.19767z" id="Vector_26"/>
       <path fill="#2197F9" d="m11.4213,22.0613c-0.2889,0 -0.557,-0.074 -0.7965,-0.2196c-0.2555,-0.1546 -0.4473,-0.3857 -0.5553,-0.6686c-0.10723,-0.2845 -0.10891,-0.6036 -0.005,-0.9539l4.667,-14.19606c0.1055,-0.33471 0.2956,-0.59869 0.5603,-0.77633c0.2413,-0.16283 0.5068,-0.24507 0.7899,-0.24507c0.3291,0.01234 0.5846,0.088 0.8158,0.2278c0.2596,0.1579 0.4439,0.37665 0.5536,0.65051c0.1072,0.2681 0.1198,0.57814 0.036,0.92272l-4.6745,14.24533c-0.1106,0.3454 -0.3057,0.6094 -0.578,0.7788c-0.2479,0.1563 -0.5218,0.2344 -0.8133,0.2344zm4.6654,-15.82516c-0.0243,0 -0.0469,0.00329 -0.0863,0.02878c-0.0234,0.01645 -0.0511,0.06497 -0.0712,0.13076l-4.6645,14.18612c-0.0327,0.1119 -0.0184,0.1604 -0.0184,0.1604c0.1558,0.1472 0.2236,0.102 0.3141,0.0452c0,0 0.0268,-0.0238 0.0544,-0.1126l4.6637,-14.20263c0.0142,-0.06662 0.0084,-0.12665 0.0034,-0.14063c-0.0888,-0.07895 -0.1374,-0.09293 -0.1927,-0.0954c-0.0017,0 -0.0025,0 -0.0025,0z" id="Vector_27"/>
      </g>
     </g>
    </g>
   </g>
  </g>
 </g>
</svg>