<svg width="77" height="82" viewBox="0 0 77 82" fill="none" xmlns="http://www.w3.org/2000/svg">
<path d="M1.53105 61.1418C1.1734 61.1418 0.899508 61.048 0.707701 60.8589C0.515894 60.6705 0.42041 60.4008 0.42041 60.0513V48.5017C0.42041 48.1513 0.515894 47.8816 0.707701 47.6941C0.899508 47.5058 1.1734 47.4112 1.53105 47.4112H5.35966C7.65967 47.4112 9.43535 47.9992 10.685 49.1744C11.9339 50.3496 12.5587 52.047 12.5587 54.2666C12.5587 55.3711 12.4004 56.3505 12.083 57.2075C11.7655 58.0644 11.299 58.7823 10.685 59.3596C10.0702 59.9378 9.31976 60.3786 8.4336 60.6837C7.54743 60.9888 6.52307 61.1418 5.35966 61.1418H1.53105ZM2.48255 59.4476H5.23988C6.11264 59.4476 6.86899 59.3407 7.51142 59.1261C8.15217 58.9114 8.69157 58.5907 9.12795 58.1622C9.56433 57.7338 9.88765 57.1943 10.1004 56.5454C10.3115 55.8966 10.4178 55.1367 10.4178 54.2666C10.4178 52.5396 9.98397 51.2484 9.11791 50.3915C8.25184 49.5338 6.95944 49.1061 5.23988 49.1061H2.48255V59.4476Z" fill="#0B376B"/>
<path d="M5.35975 61.5529H1.53114C1.06041 61.5529 0.683503 61.4173 0.411287 61.15C0.139909 60.8835 0.00170898 60.5134 0.00170898 60.0513V48.5017C0.00170898 48.0395 0.139909 47.6694 0.411287 47.403C0.685178 47.1357 1.06125 47 1.53114 47H5.35975C7.76111 47 9.64986 47.6316 10.9749 48.8767C12.3042 50.1275 12.9784 51.9409 12.9784 54.2666C12.9784 55.4138 12.8101 56.45 12.4767 57.3481C12.1392 58.2609 11.6333 59.0381 10.9749 59.6573C10.3199 60.2733 9.51166 60.7495 8.57189 61.0727C7.64552 61.3918 6.56504 61.5529 5.35975 61.5529ZM1.53114 47.8224C1.28824 47.8224 1.11486 47.875 1.00262 47.9852C0.8929 48.093 0.839295 48.2624 0.839295 48.5017V60.0513C0.839295 60.2906 0.8929 60.46 1.00346 60.5686C1.11486 60.6779 1.2874 60.7306 1.53114 60.7306H5.35975C6.47039 60.7306 7.4579 60.5842 8.29465 60.2963C9.12051 60.0118 9.82743 59.5965 10.3961 59.0628C10.9607 58.5315 11.3962 57.8604 11.6902 57.0668C11.9892 56.2592 12.1408 55.3168 12.1408 54.2666C12.1408 52.1736 11.5537 50.5601 10.3961 49.4713C9.2319 48.3775 7.53747 47.8224 5.35975 47.8224H1.53114ZM5.23997 59.8588H2.06384V48.6949H5.23997C7.06758 48.6949 8.47222 49.1686 9.41534 50.1029C10.3576 51.0354 10.8359 52.4368 10.8359 54.2666C10.8359 55.1745 10.722 55.9829 10.4992 56.6713C10.2663 57.381 9.90449 57.9805 9.42372 58.4534C8.94462 58.9238 8.34658 59.2815 7.64636 59.5159C6.96456 59.7429 6.15545 59.8588 5.23997 59.8588ZM2.90143 59.0364H5.23997C6.06248 59.0364 6.78197 58.9361 7.37666 58.7371C7.95375 58.5438 8.44374 58.2527 8.83154 57.8719C9.21767 57.492 9.51083 57.0035 9.7018 56.4196C9.89863 55.8135 9.9983 55.089 9.9983 54.2666C9.9983 52.6613 9.60128 51.4549 8.82065 50.6818C8.04002 49.9096 6.83557 49.5173 5.23997 49.5173H2.90143V59.0364Z" fill="#0B376B"/>
<path d="M19.6416 61.3169C18.5829 61.3169 17.6741 61.1195 16.9144 60.7231C16.1539 60.3276 15.565 59.7618 15.1488 59.0282C14.7325 58.2946 14.5239 57.4213 14.5239 56.4081C14.5239 55.422 14.7291 54.5577 15.1387 53.8184C15.5483 53.0782 16.1103 52.5001 16.8248 52.0848C17.5392 51.6695 18.3525 51.4614 19.2647 51.4614C19.9398 51.4614 20.5403 51.5692 21.0697 51.783C21.5982 51.9976 22.0513 52.3093 22.4282 52.718C22.8051 53.1276 23.0899 53.6243 23.2817 54.209C23.4735 54.7929 23.5699 55.4492 23.5699 56.1762C23.5699 56.3974 23.5029 56.5627 23.3714 56.6729C23.239 56.7839 23.0397 56.839 22.7767 56.839H16.1112V55.6309H22.2205L21.8838 55.904C21.8838 55.2543 21.7875 54.7024 21.5957 54.2477C21.4039 53.7929 21.1199 53.4458 20.743 53.2057C20.3661 52.9656 19.8996 52.8455 19.3442 52.8455C18.7227 52.8455 18.1967 52.9886 17.7671 53.274C17.3365 53.5593 17.0099 53.9549 16.7854 54.4615C16.5593 54.9673 16.4487 55.5586 16.4487 56.2337V56.3505C16.4487 57.4936 16.7218 58.3538 17.2712 58.932C17.819 59.5093 18.6155 59.7988 19.6617 59.7988C20.0587 59.7988 20.4783 59.747 20.9214 59.6433C21.3645 59.5389 21.7841 59.3637 22.1811 59.117C22.4056 58.9871 22.6083 58.9287 22.7867 58.9419C22.9651 58.955 23.1109 59.0134 23.2231 59.117C23.3353 59.2206 23.4049 59.3506 23.4317 59.5068C23.4576 59.6623 23.4317 59.8218 23.3512 59.9838C23.2725 60.1458 23.1335 60.2922 22.9358 60.4221C22.486 60.7207 21.9634 60.9452 21.3687 61.0932C20.7715 61.2421 20.1969 61.3169 19.6416 61.3169Z" fill="#0B376B"/>
<path d="M19.6415 61.7281C18.5183 61.7281 17.535 61.5118 16.7184 61.0866C15.8891 60.6557 15.2375 60.0299 14.7827 59.2289C14.3329 58.4369 14.1042 57.4879 14.1042 56.4089C14.1042 55.3579 14.3287 54.4204 14.7701 53.6218C15.214 52.82 15.8339 52.1835 16.6103 51.7312C17.3868 51.2789 18.2796 51.0502 19.2638 51.0502C19.9883 51.0502 20.6491 51.1695 21.2288 51.4022C21.8134 51.6399 22.321 51.9894 22.7381 52.4417C23.1552 52.894 23.4718 53.4467 23.6795 54.0824C23.8839 54.7066 23.9878 55.4097 23.9878 56.1753C23.9878 56.6046 23.7993 56.853 23.6418 56.9846C23.4324 57.1597 23.1401 57.2486 22.7758 57.2486H16.9378C17.04 57.8415 17.2544 58.3111 17.5769 58.6507C18.0476 59.1458 18.7286 59.3868 19.6608 59.3868C20.0218 59.3868 20.4121 59.3374 20.8234 59.242C21.2204 59.1491 21.6015 58.9887 21.9566 58.7683C22.2355 58.6071 22.4943 58.5282 22.7372 58.5282C23.0932 58.5504 23.3252 58.6474 23.5095 58.8168C23.6888 58.983 23.8018 59.191 23.8437 59.4369C23.8847 59.6804 23.8454 59.9238 23.7273 60.1623C23.6176 60.3884 23.4291 60.5916 23.1678 60.7626C22.6811 61.0866 22.1091 61.3309 21.4708 61.4912C20.8443 61.6491 20.2287 61.7281 19.6415 61.7281ZM19.2638 51.8734C18.4321 51.8734 17.6824 52.0634 17.0375 52.4392C16.3917 52.8143 15.8766 53.3455 15.5064 54.0149C15.132 54.6909 14.9418 55.4969 14.9418 56.4089C14.9418 57.3464 15.1336 58.1598 15.5139 58.8284C15.8883 59.4879 16.426 60.0036 17.1103 60.3596C18.1707 60.9106 19.6407 61.0981 21.2631 60.6935C21.8084 60.557 22.2917 60.3506 22.6996 60.08C22.8352 59.9912 22.9265 59.8983 22.9718 59.8054C23.0153 59.7182 23.0287 59.6442 23.017 59.5718C23.0053 59.506 22.9801 59.4567 22.9341 59.4155C22.9081 59.3917 22.8612 59.3588 22.7548 59.3514C22.651 59.3563 22.5639 59.3695 22.393 59.4706C21.97 59.733 21.5035 59.9279 21.0168 60.0422C19.2495 60.455 17.8215 60.1162 16.9629 59.2116C16.5006 58.7247 16.2074 58.066 16.0885 57.2486H15.6898V55.2189H16.117C16.1789 54.8883 16.2744 54.5791 16.4001 54.297C16.6555 53.7205 17.0358 53.2608 17.5317 52.9335C18.0292 52.6021 18.6381 52.4343 19.3425 52.4343C19.9774 52.4343 20.5243 52.5782 20.9691 52.8611C21.4164 53.1481 21.7564 53.5618 21.9801 54.0906C22.1199 54.4228 22.2146 54.8011 22.2623 55.2197H23.0832C23.0388 54.9064 22.9709 54.6112 22.8813 54.3357C22.7096 53.8102 22.4516 53.3595 22.1158 52.9944C21.7841 52.6333 21.3778 52.3537 20.9088 52.1629C20.433 51.9713 19.8794 51.8734 19.2638 51.8734ZM21.8938 56.427H22.7758C23.0003 56.427 23.0798 56.3752 23.0991 56.3587C23.1418 56.3234 23.151 56.2395 23.151 56.1753C23.151 55.9212 23.1385 55.6762 23.1133 55.4393L21.8938 56.427ZM16.8674 56.427H21.4633V56.0413H16.87C16.8674 56.1046 16.8666 56.1688 16.8666 56.2337V56.3505C16.8666 56.376 16.8666 56.4023 16.8674 56.427ZM16.973 55.2189H21.4206C21.3787 54.9146 21.3075 54.6416 21.2078 54.4047C21.0487 54.0256 20.8217 53.746 20.5143 53.5503C20.2077 53.3554 19.8141 53.2567 19.3442 53.2567C18.8106 53.2567 18.3592 53.3768 18.0015 53.6153C17.6347 53.8579 17.3625 54.1885 17.1698 54.626C17.0877 54.8085 17.0224 55.0067 16.973 55.2189Z" fill="#0B376B"/>
<path d="M29.4989 61.2783C29.2208 61.2783 28.9804 61.2067 28.7752 61.0636C28.57 60.9205 28.4016 60.701 28.2693 60.4008L24.9575 52.8447C24.8511 52.6111 24.8109 52.3899 24.8385 52.1827C24.8645 51.9746 24.9625 51.8093 25.135 51.686C25.3067 51.5634 25.5379 51.5009 25.8294 51.5009C26.0798 51.5009 26.2783 51.5593 26.4249 51.6761C26.5698 51.7937 26.7022 51.9943 26.8211 52.2797L29.8163 59.5249H29.261L32.3157 52.2797C32.4354 51.9935 32.5703 51.7929 32.7219 51.6761C32.8735 51.5593 33.0888 51.5009 33.3668 51.5009C33.6047 51.5009 33.7932 51.5626 33.9322 51.686C34.0713 51.8093 34.1575 51.9721 34.191 52.1728C34.2237 52.3743 34.1877 52.5922 34.0813 52.8258L30.7293 60.4016C30.6095 60.7009 30.4445 60.9213 30.2334 61.0644C30.0207 61.2067 29.7769 61.2783 29.4989 61.2783Z" fill="#0B376B"/>
<path d="M29.4989 61.6895C29.1338 61.6895 28.8096 61.5916 28.5332 61.3992C28.266 61.2125 28.0474 60.9321 27.8849 60.5645L24.5731 53.0067C24.4366 52.7082 24.3855 52.4105 24.4232 52.1292C24.4634 51.8126 24.6242 51.5429 24.8889 51.3537C25.3571 51.019 26.2231 50.9869 26.6888 51.357C26.894 51.5231 27.0632 51.774 27.209 52.126L29.5458 57.7766L31.9296 52.1235C32.0779 51.7682 32.2529 51.5166 32.4648 51.3529C32.8995 51.0182 33.7572 50.9795 34.2137 51.3801C34.4248 51.5684 34.5554 51.8118 34.6049 52.1062C34.6518 52.3899 34.604 52.6876 34.4641 52.9936L31.1146 60.5653C30.9706 60.9255 30.7528 61.2125 30.4722 61.4025C30.1874 61.5933 29.8608 61.6895 29.4989 61.6895ZM25.8295 51.913C25.631 51.913 25.4802 51.9483 25.3814 52.019C25.3026 52.075 25.2658 52.1383 25.2541 52.2345C25.2365 52.3669 25.2658 52.5149 25.3395 52.6778L28.6538 60.2396C28.7543 60.465 28.8774 60.6311 29.0182 60.7289C29.2887 60.9181 29.7142 60.9164 29.9981 60.7256C30.1372 60.6311 30.2528 60.4707 30.3399 60.252L33.6978 52.6622C33.7715 52.501 33.7974 52.3595 33.7782 52.2378C33.7606 52.1301 33.7204 52.0511 33.6525 51.9903C33.6316 51.9722 33.5646 51.9121 33.3686 51.9121C33.1927 51.9121 33.0562 51.9434 32.9825 51.9993C32.9297 52.0396 32.825 52.1506 32.7052 52.4352L29.9956 58.8605L30.4395 59.9353H28.6362L29.0902 58.8572L26.435 52.4335C26.3153 52.1457 26.2114 52.0338 26.1603 51.9919C26.0925 51.9409 25.9802 51.913 25.8295 51.913Z" fill="#0B376B"/>
<path d="M39.4571 61.3169C38.8749 61.3169 38.2777 61.252 37.6621 61.1229C37.0473 60.9929 36.4811 60.7717 35.966 60.46C35.7943 60.3432 35.6745 60.2133 35.6092 60.0702C35.5422 59.9271 35.5196 59.7815 35.5388 59.6327C35.5589 59.483 35.6192 59.3531 35.7181 59.2429C35.8169 59.1319 35.9434 59.0636 36.095 59.0381C36.2466 59.0126 36.4091 59.0447 36.5808 59.1351C37.0959 59.4213 37.5918 59.6195 38.0675 59.7297C38.5433 59.8399 39.0131 59.895 39.4763 59.895C40.1774 59.895 40.7067 59.7717 41.0636 59.525C41.4212 59.2782 41.6005 58.9476 41.6005 58.5315C41.6005 58.1943 41.4807 57.932 41.2428 57.7428C41.0049 57.5545 40.6481 57.409 40.1715 57.3053L38.2878 56.9353C37.4678 56.7667 36.8455 56.4681 36.4225 56.0389C35.9987 55.6104 35.7876 55.0652 35.7876 54.4031C35.7876 53.8061 35.9526 53.2872 36.2835 52.8447C36.6143 52.4039 37.0766 52.0626 37.6722 51.8225C38.2669 51.5823 38.9545 51.4623 39.7352 51.4623C40.3164 51.4623 40.8659 51.5338 41.381 51.6769C41.897 51.82 42.3735 52.0347 42.8091 52.3192C42.9808 52.4105 43.0939 52.5306 43.1466 52.6794C43.1994 52.8283 43.2095 52.9746 43.1768 53.1177C43.1424 53.2608 43.0738 53.3867 42.9674 53.4977C42.8619 53.6079 42.7337 53.6729 42.5813 53.6918C42.4288 53.7107 42.2605 53.6753 42.0754 53.5849C41.6775 53.3381 41.2847 53.1622 40.8944 53.0585C40.5049 52.9549 40.1171 52.9031 39.7343 52.9031C39.0324 52.9031 38.5072 53.0297 38.1571 53.283C37.8062 53.5363 37.6311 53.8768 37.6311 54.3053C37.6311 54.6301 37.7367 54.8966 37.9486 55.1038C38.1605 55.3119 38.4905 55.4615 38.9411 55.552L40.8257 55.9221C41.6842 56.0907 42.3359 56.3769 42.7789 56.779C43.222 57.1812 43.4431 57.7264 43.4431 58.4147C43.4431 59.3103 43.0796 60.0184 42.3526 60.5373C41.6264 61.0579 40.6598 61.3169 39.4571 61.3169Z" fill="#0B376B"/>
<path d="M39.457 61.7281C38.8497 61.7281 38.2173 61.6599 37.5749 61.525C36.9149 61.3852 36.3001 61.1442 35.7465 60.8103C35.4918 60.6393 35.3235 60.4501 35.2272 60.2396C35.1292 60.0307 35.094 59.8079 35.1233 59.5801C35.1551 59.3473 35.2498 59.1434 35.4039 58.9715C35.5639 58.7922 35.7783 58.6754 36.0237 58.6335C36.2674 58.5915 36.5246 58.6392 36.7792 58.7741C37.2658 59.0439 37.729 59.2305 38.1629 59.3309C38.6068 59.4328 39.0482 59.4855 39.4754 59.4855C40.0852 59.4855 40.5383 59.386 40.8206 59.1902C41.0693 59.0192 41.1799 58.8169 41.1799 58.5332C41.1799 58.2593 41.0718 58.1392 40.978 58.0644C40.7921 57.9172 40.4897 57.7979 40.0793 57.7083L38.2048 57.3399C37.301 57.154 36.6008 56.8127 36.1209 56.3267C35.6217 55.8226 35.3687 55.1762 35.3687 54.4048C35.3687 53.7214 35.5622 53.1153 35.945 52.6038C36.321 52.1021 36.8479 51.7123 37.5121 51.4442C38.1562 51.1851 38.9033 51.0527 39.7342 51.0527C40.3515 51.0527 40.9437 51.13 41.494 51.2822C42.0493 51.4368 42.5694 51.6703 43.041 51.9787C43.2738 52.1005 43.4539 52.2986 43.5419 52.5454C43.6214 52.7674 43.6357 52.9911 43.5863 53.2099C43.5335 53.4286 43.4288 53.6194 43.273 53.7814C43.0996 53.9623 42.8844 54.0701 42.6356 54.1021L42.4999 54.1104C42.3048 54.1104 42.0987 54.0586 41.8893 53.9558C41.4906 53.7107 41.1321 53.5511 40.7862 53.459C40.4336 53.3653 40.0801 53.3176 39.7359 53.3176C39.1295 53.3176 38.6822 53.4187 38.4066 53.6169C38.1646 53.7921 38.0515 54.0109 38.0515 54.3086C38.0515 54.5248 38.1126 54.686 38.245 54.8152C38.3983 54.9656 38.6604 55.0783 39.0264 55.1515L40.9085 55.5216C41.8399 55.705 42.5653 56.0265 43.0645 56.4797C43.5938 56.9608 43.8627 57.6129 43.8627 58.4172C43.8627 59.4485 43.438 60.275 42.5996 60.872C41.8039 61.4403 40.746 61.7281 39.457 61.7281ZM36.1979 59.4411C36.1083 59.4542 36.0681 59.4748 36.0329 59.5151C35.9877 59.5653 35.9634 59.6195 35.9533 59.6878C35.9441 59.7593 35.9559 59.8268 35.9894 59.8991C36.0237 59.974 36.0974 60.0505 36.2038 60.122C36.6578 60.395 37.1838 60.6006 37.7508 60.7207C38.3346 60.8432 38.9092 60.9066 39.457 60.9066C40.5651 60.9066 41.4571 60.6714 42.1071 60.2059C42.7244 59.7651 43.0251 59.1796 43.0251 58.4156C43.0251 57.8415 42.8517 57.4048 42.4949 57.0816C42.1113 56.733 41.5216 56.4788 40.7443 56.3259L38.8598 55.9558C38.3204 55.8472 37.9275 55.6647 37.6536 55.3949C37.3613 55.1096 37.2139 54.7428 37.2139 54.3061C37.2139 53.7485 37.4551 53.2814 37.9108 52.9524C38.3388 52.6432 38.936 52.4927 39.7359 52.4927C40.1538 52.4927 40.581 52.5495 41.0057 52.663C41.432 52.7765 41.8675 52.9697 42.3006 53.2378C42.3559 53.2625 42.4371 53.2863 42.5008 53.2863C42.5845 53.2781 42.6239 53.2576 42.6632 53.2164C42.7185 53.1597 42.752 53.0972 42.7705 53.024C42.7855 52.9598 42.7797 52.8924 42.7529 52.8159C42.7462 52.7978 42.7269 52.7427 42.6105 52.6811C42.1791 52.4014 41.7394 52.2033 41.2678 52.0733C40.1572 51.7641 38.7794 51.8208 37.832 52.2041C37.3119 52.4138 36.9048 52.7115 36.6209 53.089C36.3428 53.4615 36.2071 53.8924 36.2071 54.404C36.2071 54.9615 36.3755 55.4023 36.7231 55.7535C37.0858 56.1211 37.6411 56.3834 38.374 56.5339L40.2535 56.9032C40.8063 57.0233 41.2134 57.1935 41.5057 57.4238C41.8416 57.6902 42.0191 58.0734 42.0191 58.5332C42.0191 59.0809 41.7721 59.5406 41.3038 59.863C40.8708 60.1623 40.2736 60.3079 39.4762 60.3079C38.9846 60.3079 38.4787 60.2487 37.9719 60.1311C37.4602 60.0126 36.9224 59.7988 36.3747 59.4954C36.311 59.46 36.249 59.4411 36.1979 59.4411Z" fill="#0B376B"/>
<path d="M8.63216 75.573H2.9014V64.9404C2.9014 64.4913 2.77074 64.1352 2.51192 63.8819C2.25311 63.6262 1.89629 63.4971 1.4507 63.4971C1.0051 63.4971 0.648291 63.6262 0.390315 63.8811C0.130663 64.1352 0 64.4913 0 64.9404V76.6849C0 77.1207 0.134849 77.4743 0.400364 77.7342C0.665878 77.9949 1.02604 78.1281 1.46996 78.1281H8.63133C9.03588 78.1281 9.36254 78.0089 9.60209 77.7737C9.8408 77.5393 9.96225 77.2252 9.96225 76.8403C9.96225 76.4521 9.83913 76.1388 9.59539 75.9102C9.35835 75.6873 9.0342 75.573 8.63216 75.573Z" fill="#0B376B"/>
<path d="M19.6941 73.5606C19.8516 73.429 20.04 73.1807 20.04 72.7514C20.04 71.9858 19.9362 71.2826 19.7318 70.6584C19.5241 70.0227 19.2074 69.4701 18.7903 69.0178C18.3732 68.5654 17.8656 68.2159 17.281 67.9783C16.7022 67.7455 16.0414 67.6263 15.316 67.6263C14.3319 67.6263 13.4398 67.8549 12.6625 68.3072C11.8853 68.7595 11.2663 69.3961 10.8224 70.1979C10.381 70.9964 10.1565 71.9331 10.1565 72.985C10.1565 74.0639 10.3843 75.013 10.8349 75.8049C11.2897 76.6059 11.9406 77.2309 12.7706 77.6627C13.5881 78.0887 14.5706 78.3041 15.6938 78.3041C16.2809 78.3041 16.8974 78.2244 17.5231 78.0673C18.1621 77.9086 18.7334 77.6627 19.22 77.3387C19.4813 77.1676 19.6698 76.9645 19.7795 76.7383C19.8976 76.4998 19.937 76.2564 19.8959 76.013C19.8532 75.7671 19.7402 75.559 19.5617 75.3929C19.3775 75.2235 19.1455 75.1273 18.7895 75.1042C18.5466 75.1042 18.2878 75.1832 18.0089 75.3444C17.6537 75.5656 17.2726 75.7251 16.8756 75.8181C16.4652 75.9135 16.074 75.9628 15.713 75.9628C14.7808 75.9628 14.099 75.7219 13.6291 75.2268C13.3067 74.8871 13.0922 74.4175 12.99 73.8246H18.828C19.1924 73.8246 19.4847 73.7358 19.6941 73.5606ZM13.2221 71.2012C13.4147 70.7637 13.6878 70.4331 14.0538 70.1905C14.4114 69.9528 14.8629 69.8319 15.3964 69.8319C15.8672 69.8319 16.26 69.9306 16.5665 70.1255C16.8739 70.3212 17.1009 70.6009 17.2601 70.98C17.3597 71.2168 17.4309 71.4899 17.4728 71.7941H13.0252C13.0746 71.5828 13.14 71.3838 13.2221 71.2012Z" fill="#0B376B"/>
<path d="M28.184 68.0769C27.2016 67.6114 25.7718 67.4692 24.1176 67.8113C23.5195 67.933 22.9081 68.1402 22.3318 68.4116C22.0219 68.5259 21.7966 68.7077 21.6643 68.9511C21.542 69.1715 21.4842 69.4034 21.4934 69.6411C21.5035 69.8788 21.5772 70.1008 21.7128 70.3023C21.8628 70.521 22.078 70.6707 22.3377 70.7349C22.5948 70.7965 22.8704 70.7587 23.2046 70.6041C23.6628 70.3738 24.1067 70.2085 24.5255 70.1131C24.9501 70.0169 25.3622 69.9676 25.75 69.9676C26.3556 69.9676 26.7811 70.0885 27.0156 70.3278C27.2535 70.5712 27.3749 71.0128 27.3749 71.6403V71.7349H27.1195C25.6679 71.7349 24.4936 71.8262 23.6309 72.0071C22.7046 72.2004 22.0194 72.5392 21.5964 73.0153C21.1667 73.4997 20.949 74.1511 20.949 74.9512C20.949 75.5911 21.1265 76.1733 21.4767 76.6815C21.8201 77.1807 22.2983 77.5812 22.898 77.8707C23.4894 78.1577 24.1628 78.3025 24.8982 78.3025C25.4954 78.3025 26.0381 78.1997 26.5139 77.9957C26.8741 77.8411 27.1949 77.6322 27.4704 77.3707C27.5316 77.5648 27.6321 77.7326 27.7694 77.8732C28.0224 78.1322 28.3574 78.2638 28.7662 78.2638C29.2997 78.2638 29.6088 78.0451 29.7729 77.8625C30.0008 77.6117 30.1164 77.2737 30.1164 76.8592V71.8533C30.1164 70.9109 29.9622 70.123 29.6582 69.5112C29.3382 68.8722 28.8424 68.3886 28.184 68.0769ZM26.3623 75.8008C26.0566 75.9883 25.7073 76.0787 25.2944 76.0787C24.7885 76.0787 24.4132 75.9636 24.1469 75.7259C23.8923 75.5022 23.7691 75.2103 23.7691 74.8345C23.7691 74.5746 23.8395 74.3813 23.9852 74.2473C24.1016 74.1395 24.363 73.9915 24.9468 73.8961C25.4778 73.8098 26.2157 73.7654 27.1387 73.7654H27.3741V73.8805C27.3741 74.3147 27.282 74.6996 27.0985 75.0269C26.9143 75.3559 26.673 75.6091 26.3623 75.8008Z" fill="#0B376B"/>
<path d="M38.4059 67.8943C38.1998 67.7027 37.9335 67.6049 37.616 67.6049L37.5222 67.6073C36.5623 67.6781 35.7557 67.9396 35.1267 68.3853C35.0036 68.4717 34.8872 68.5679 34.7783 68.6707C34.7247 68.4198 34.6158 68.2101 34.4525 68.0432C34.2054 67.7924 33.8603 67.6649 33.4273 67.6649C33.0085 67.6649 32.6684 67.7899 32.4163 68.0383C32.1642 68.2858 32.0369 68.6328 32.0369 69.0695V76.86C32.0369 77.2811 32.1625 77.6223 32.4096 77.874C32.6625 78.133 33.0185 78.2646 33.4666 78.2646C33.9315 78.2646 34.2916 78.1314 34.5379 77.8699C34.7758 77.6166 34.8972 77.2769 34.8972 76.86V72.4388C34.8972 71.7522 35.079 71.234 35.4542 70.8549C35.8286 70.4758 36.4015 70.2488 37.1604 70.1797L37.5289 70.1411C37.9427 70.1066 38.2635 69.9651 38.4821 69.7209C38.7066 69.4717 38.8004 69.1477 38.7644 68.7776C38.7459 68.3993 38.6262 68.1016 38.4059 67.8943Z" fill="#0B376B"/>
<path d="M47.2088 68.0975C46.6376 67.7842 45.9256 67.6263 45.0897 67.6263C44.2094 67.6263 43.4162 67.8327 42.7311 68.2406C42.53 68.3607 42.3433 68.498 42.1724 68.6518C42.1171 68.4092 42.0099 68.2061 41.8516 68.0449C41.6053 67.7932 41.2594 67.6658 40.8247 67.6658C40.4076 67.6658 40.0675 67.7908 39.8154 68.0391C39.5625 68.2875 39.4343 68.6345 39.4343 69.0704V76.8609C39.4343 77.2811 39.5608 77.6224 39.8087 77.8749C40.0617 78.1339 40.411 78.2655 40.8448 78.2655C41.7544 78.2655 42.2754 77.754 42.2754 76.8609V72.3427C42.2754 71.6149 42.4739 71.0573 42.8827 70.6411C43.2864 70.2283 43.8208 70.0276 44.5151 70.0276C45.078 70.0276 45.47 70.165 45.712 70.4462C45.9692 70.7448 46.099 71.2588 46.099 71.9726V76.8609C46.099 77.2811 46.2255 77.6224 46.4734 77.8749C46.7264 78.1339 47.0823 78.2655 47.5304 78.2655C47.9651 78.2655 48.3136 78.1347 48.5649 77.8757C48.8136 77.6216 48.9401 77.2803 48.9401 76.8609V71.855C48.9401 70.9463 48.8019 70.1732 48.528 69.5581C48.2407 68.9125 47.7968 68.4215 47.2088 68.0975Z" fill="#0B376B"/>
<path d="M52.2713 67.7044C51.835 67.7044 51.484 67.8401 51.2302 68.1082C50.9848 68.3672 50.8608 68.7242 50.8608 69.1674V76.763C50.8608 77.2038 50.9831 77.5615 51.226 77.8263C51.4011 78.0171 51.7244 78.2458 52.2722 78.2458C52.7236 78.2458 53.0813 78.1051 53.3367 77.8263C53.5788 77.5615 53.7019 77.2038 53.7019 76.763V69.1674C53.7019 68.7209 53.5729 68.3623 53.3166 68.1024C53.0545 67.8385 52.7027 67.7044 52.2713 67.7044Z" fill="#0B376B"/>
<path d="M52.2714 63.4592C51.7705 63.4592 51.3676 63.5883 51.0719 63.8441C50.7604 64.113 50.6021 64.4954 50.6021 64.9806C50.6021 65.451 50.7587 65.8285 51.0661 66.1016C51.3617 66.3664 51.7671 66.5012 52.2705 66.5012C52.7731 66.5012 53.1776 66.3672 53.4741 66.1024C53.7824 65.8285 53.939 65.451 53.939 64.9806C53.939 64.4954 53.7815 64.113 53.4683 63.8433C53.1734 63.5883 52.7697 63.4592 52.2714 63.4592Z" fill="#2197F9"/>
<path d="M63.4538 68.0975C62.8842 67.785 62.1715 67.6263 61.3356 67.6263C60.4553 67.6263 59.6612 67.8327 58.9761 68.2406C58.7751 68.3607 58.5883 68.498 58.4174 68.6518C58.3621 68.4092 58.2557 68.2061 58.0966 68.0441C57.8495 67.7932 57.5044 67.6658 57.0706 67.6658C56.6526 67.6658 56.3125 67.7908 56.0604 68.0391C55.8075 68.2867 55.6802 68.6345 55.6802 69.0704V76.8609C55.6802 77.2811 55.8058 77.6232 56.0537 77.8749C56.3067 78.1339 56.656 78.2655 57.0898 78.2655C57.9995 78.2655 58.5204 77.754 58.5204 76.8609V72.3427C58.5204 71.6157 58.7189 71.0581 59.1277 70.6411C59.5314 70.2283 60.0658 70.0276 60.7601 70.0276C61.3238 70.0276 61.7158 70.165 61.9579 70.4462C62.215 70.7448 62.3448 71.2588 62.3448 71.9726V76.8609C62.3448 77.2811 62.4705 77.6232 62.7184 77.8749C62.9714 78.1339 63.3273 78.2655 63.7754 78.2655C64.2101 78.2655 64.5594 78.1347 64.8107 77.8757C65.0595 77.6224 65.1851 77.2803 65.1851 76.8609V71.855C65.1851 70.9446 65.0469 70.1716 64.7738 69.5581C64.4866 68.9125 64.0418 68.4207 63.4538 68.0975Z" fill="#0B376B"/>
<path d="M76.5285 68.0391C76.2764 67.7907 75.9297 67.6657 75.4991 67.6657C75.0845 67.6657 74.7428 67.7891 74.4857 68.0325C74.314 68.1937 74.1975 68.3976 74.1372 68.6411C74.0091 68.5259 73.8692 68.4182 73.7193 68.3187C73.0232 67.8582 72.2007 67.6254 71.2735 67.6254C70.5725 67.6254 69.9191 67.7513 69.3328 68.0004C68.7432 68.2504 68.2331 68.6098 67.816 69.0687C67.4047 69.5235 67.0839 70.0671 66.8611 70.6855C66.6417 71.299 66.5303 71.9939 66.5303 72.7505C66.5303 73.758 66.7246 74.6544 67.1082 75.4167C67.4994 76.1898 68.0589 76.8033 68.7691 77.2375C69.4811 77.6733 70.322 77.8946 71.2718 77.8946C72.1865 77.8946 73.0048 77.6618 73.7059 77.2021C73.8566 77.1034 73.9965 76.9973 74.1263 76.8822V77.152C74.1263 77.9316 73.9337 78.5188 73.5518 78.8987C72.9763 79.4719 71.8397 79.615 70.3974 79.3115C69.915 79.2087 69.3957 79.0097 68.8521 78.7186C68.5874 78.578 68.3093 78.541 68.0622 78.6035C67.8285 78.6627 67.6275 78.7844 67.4684 78.9612C67.3134 79.1306 67.2104 79.3313 67.1618 79.5615C67.1107 79.8017 67.1367 80.0385 67.238 80.2663C67.3427 80.5007 67.5379 80.6948 67.8009 80.8321C68.3805 81.1792 69.0347 81.4316 69.7441 81.5838C70.4393 81.7326 71.1663 81.8067 71.9059 81.8067C73.5065 81.8067 74.7529 81.3872 75.6114 80.5591C76.4707 79.7293 76.9071 78.5031 76.9071 76.9159V69.0671C76.9088 68.6345 76.7807 68.2866 76.5285 68.0391ZM73.009 75.2103C72.6715 75.4249 72.2468 75.5343 71.7484 75.5343C71.0231 75.5343 70.4652 75.3008 70.0423 74.8197C69.6092 74.3279 69.3906 73.633 69.3906 72.7514C69.3906 72.1666 69.4937 71.6601 69.6972 71.2439C69.8949 70.8368 70.1604 70.5326 70.508 70.3113C70.8522 70.0934 71.2584 69.9873 71.7484 69.9873C72.4863 69.9873 73.0475 70.2201 73.463 70.6995C73.8901 71.1921 74.1071 71.8821 74.1071 72.7505C74.1071 73.3377 74.0066 73.8501 73.8089 74.2736C73.6154 74.6856 73.3549 74.9915 73.009 75.2103Z" fill="#0B376B"/>
<rect x="2" y="1.93585" width="35" height="23" fill="white"/>
<path d="M37.482 31.3181H1.46578C0.65583 31.3181 0 30.6742 0 29.8789V1.43918C0 0.643928 0.65583 0 1.46578 0H37.482C38.2919 0 38.9478 0.643928 38.9478 1.43918V29.8789C38.9478 30.6742 38.2919 31.3181 37.482 31.3181ZM2.93155 28.4398H36.0162V2.87835H2.93155V28.4398Z" fill="#0B376B"/>
<path d="M26.7934 37.9358H12.1533C11.3433 37.9358 10.6875 37.2919 10.6875 36.4967C10.6875 35.7014 11.3433 35.0575 12.1533 35.0575H26.7934C27.6034 35.0575 28.2592 35.7014 28.2592 36.4967C28.2592 37.2919 27.6034 37.9358 26.7934 37.9358Z" fill="#0B376B"/>
<path d="M19.4738 37.9359C18.6639 37.9359 18.0081 37.2919 18.0081 36.4967V30.4357C18.0081 29.6404 18.6639 28.9965 19.4738 28.9965C20.2838 28.9965 20.9396 29.6404 20.9396 30.4357V36.4967C20.9396 37.2919 20.2838 37.9359 19.4738 37.9359Z" fill="#0B376B"/>
<path d="M37.4818 24.5696H1.46558V29.8789H37.4818V24.5696Z" fill="#0B376B"/>
<path d="M37.9007 30.2901H1.04688V24.1584H37.9007V30.2901ZM1.88446 29.4677H37.0631V24.9808H1.88446V29.4677Z" fill="#0B376B"/>
<path d="M19.4931 29.0401C19.1095 29.0401 18.7988 28.9225 18.5609 28.689C18.323 28.4554 18.2041 28.1577 18.2041 27.7934C18.2041 27.4307 18.323 27.1346 18.5609 26.9077C18.7988 26.6807 19.1095 26.5664 19.4931 26.5664C19.8768 26.5664 20.1808 26.6807 20.4061 26.9077C20.6306 27.1346 20.7428 27.4307 20.7428 27.7934C20.7428 28.1569 20.6298 28.4554 20.4061 28.689C20.1816 28.9225 19.8768 29.0401 19.4931 29.0401Z" fill="#2197F9"/>
<path d="M19.4932 29.4513C18.9966 29.4513 18.5828 29.2934 18.2645 28.9801C17.9462 28.6676 17.7854 28.2687 17.7854 27.7942C17.7854 27.3172 17.9479 26.92 18.2687 26.6133C18.587 26.3098 18.9991 26.1552 19.4932 26.1552C19.9924 26.1552 20.4003 26.3114 20.7061 26.6207C21.0084 26.9274 21.1617 27.3221 21.1617 27.7934C21.1617 28.2621 21.0101 28.6593 20.7111 28.971C20.4045 29.2893 19.995 29.4513 19.4932 29.4513ZM19.4932 26.9776C19.221 26.9776 19.0116 27.0516 18.8525 27.2021C18.695 27.3518 18.623 27.5393 18.623 27.7934C18.623 28.05 18.6975 28.2416 18.8567 28.3978C19.1699 28.7062 19.8115 28.7079 20.1013 28.4061C20.2513 28.2506 20.3241 28.0491 20.3241 27.7934C20.3241 27.5393 20.2521 27.3427 20.1047 27.1939C19.9615 27.0483 19.7613 26.9776 19.4932 26.9776Z" fill="#2197F9"/>
<path d="M20.5284 20.0103C20.0142 20.0103 19.5158 19.7447 19.2478 19.2735C18.8524 18.5794 19.1054 17.7027 19.8123 17.3153L25.327 14.2898L19.8123 11.2651C19.1054 10.8777 18.8524 10.001 19.2478 9.30695C19.6414 8.61368 20.5318 8.36285 21.2421 8.75266L29.0467 13.0332C29.5107 13.2873 29.7972 13.7684 29.7972 14.289C29.7972 14.8095 29.5099 15.2915 29.0467 15.5448L21.2421 19.8261C21.0151 19.9519 20.7697 20.0103 20.5284 20.0103Z" fill="#2197F9"/>
<path d="M12.2146 20.7957C12.1485 21.0029 12.0429 21.1534 11.8972 21.2439C11.7515 21.3343 11.5931 21.3804 11.4214 21.3804C11.2497 21.3804 11.0939 21.3376 10.9549 21.2538C10.8159 21.1699 10.717 21.049 10.6576 20.8935C10.5989 20.7381 10.6023 20.5498 10.6676 20.3286L15.3296 6.14981C15.395 5.94257 15.5013 5.7896 15.6471 5.69174C15.792 5.5947 15.9469 5.54947 16.1136 5.55605C16.2786 5.56263 16.431 5.60786 16.5692 5.69174C16.7083 5.77727 16.8071 5.89322 16.8666 6.0429C16.9261 6.19257 16.9294 6.37679 16.8766 6.59801L12.2146 20.7957Z" fill="#2197F9"/>
<path d="M11.4213 21.9972C11.1324 21.9972 10.8643 21.9232 10.6248 21.7776C10.3693 21.623 10.1775 21.3919 10.0695 21.109C9.96227 20.8245 9.96059 20.5054 10.0645 20.1551L14.7315 5.95903C14.837 5.62431 15.0271 5.36033 15.2918 5.18269C15.5331 5.01986 15.7986 4.93762 16.0817 4.93762C16.4108 4.94996 16.6663 5.02562 16.8975 5.16542C17.1571 5.32332 17.3414 5.54208 17.4511 5.81593C17.5583 6.08403 17.5709 6.39407 17.4871 6.73865L12.8126 20.984C12.702 21.3294 12.5069 21.5934 12.2346 21.7628C11.9867 21.9191 11.7128 21.9972 11.4213 21.9972ZM16.0867 6.17202C16.0624 6.17202 16.0398 6.17531 16.0004 6.20081C15.977 6.21726 15.9493 6.26578 15.9292 6.33157L11.2647 20.5177C11.232 20.6296 11.2463 20.6781 11.2463 20.6781C11.4021 20.8253 11.4699 20.7801 11.5604 20.7233C11.5604 20.7233 11.5872 20.6995 11.6148 20.6107L16.2785 6.40805C16.2927 6.34144 16.2869 6.2814 16.2819 6.26742C16.1931 6.18847 16.1445 6.17449 16.0892 6.17202C16.0875 6.17202 16.0867 6.17202 16.0867 6.17202Z" fill="#2197F9"/>
</svg>
