<svg width="129" height="38" viewBox="0 0 129 38" fill="none" xmlns="http://www.w3.org/2000/svg">
<g id="nuevo logo Devs Learning-01 1" clip-path="url(#clip0_110_97)">
<g id="Group">
<path id="Vector" d="M37.482 31.3823H1.46578C0.65583 31.3823 0 30.7383 0 29.9431V1.50332C0 0.708076 0.65583 0.0641479 1.46578 0.0641479H37.482C38.2919 0.0641479 38.9478 0.708076 38.9478 1.50332V29.9431C38.9478 30.7383 38.2919 31.3823 37.482 31.3823ZM2.93155 28.5039H36.0162V2.9425H2.93155V28.5039Z" fill="white"/>
<path id="Vector_2" d="M26.7936 38H12.1534C11.3435 38 10.6876 37.3561 10.6876 36.5608C10.6876 35.7656 11.3435 35.1216 12.1534 35.1216H26.7936C27.6035 35.1216 28.2593 35.7656 28.2593 36.5608C28.2593 37.3561 27.6035 38 26.7936 38Z" fill="white"/>
<path id="Vector_3" d="M19.4738 38C18.6639 38 18.0081 37.3561 18.0081 36.5608V30.4998C18.0081 29.7046 18.6639 29.0607 19.4738 29.0607C20.2838 29.0607 20.9396 29.7046 20.9396 30.4998V36.5608C20.9396 37.3561 20.2838 38 19.4738 38Z" fill="white"/>
<g id="Group_2">
<g id="Group_3">
<g id="Group_4">
<path id="Vector_4" d="M53.6222 14.1418C53.2646 14.1418 52.9907 14.048 52.7989 13.8589C52.6071 13.6705 52.5116 13.4008 52.5116 13.0513V1.50168C52.5116 1.15134 52.6071 0.881599 52.7989 0.694095C52.9907 0.505768 53.2646 0.411194 53.6222 0.411194H57.4508C59.7509 0.411194 61.5265 0.9992 62.7762 2.17439C64.0251 3.34958 64.6499 5.04699 64.6499 7.26661C64.6499 8.37107 64.4916 9.35053 64.1741 10.2075C63.8567 11.0644 63.3902 11.7823 62.7762 12.3596C62.1614 12.9378 61.411 13.3786 60.5248 13.6837C59.6386 13.9888 58.6143 14.1418 57.4508 14.1418H53.6222ZM54.5737 12.4476H57.3311C58.2038 12.4476 58.9602 12.3407 59.6026 12.1261C60.2434 11.9114 60.7828 11.5907 61.2191 11.1622C61.6555 10.7338 61.9788 10.1943 62.1916 9.54544C62.4027 8.89657 62.509 8.13669 62.509 7.26661C62.509 5.53959 62.0752 4.24845 61.2091 3.39152C60.343 2.53377 59.0506 2.10613 57.3311 2.10613H54.5737V12.4476Z" fill="white"/>
<path id="Vector_5" d="M57.4508 14.5529H53.6222C53.1515 14.5529 52.7746 14.4173 52.5024 14.15C52.231 13.8835 52.0928 13.5134 52.0928 13.0513V1.50168C52.0928 1.0395 52.231 0.669422 52.5024 0.402969C52.7762 0.135694 53.1523 0 53.6222 0H57.4508C59.8522 0 61.7409 0.631593 63.066 1.87669C64.3952 3.12753 65.0695 4.9409 65.0695 7.2666C65.0695 8.41383 64.9011 9.45004 64.5678 10.3481C64.2302 11.2609 63.7243 12.0381 63.066 12.6573C62.411 13.2733 61.6027 13.7495 60.663 14.0727C59.7366 14.3918 58.6561 14.5529 57.4508 14.5529ZM53.6222 0.822386C53.3793 0.822386 53.2059 0.875019 53.0937 0.985219C52.984 1.09295 52.9304 1.26236 52.9304 1.50168V13.0513C52.9304 13.2906 52.984 13.46 53.0945 13.5686C53.2059 13.6779 53.3785 13.7306 53.6222 13.7306H57.4508C58.5615 13.7306 59.549 13.5842 60.3857 13.2963C61.2116 13.0118 61.9185 12.5965 62.4872 12.0628C63.0517 11.5315 63.4873 10.8604 63.7813 10.0668C64.0803 9.25925 64.2319 8.31679 64.2319 7.2666C64.2319 5.17363 63.6448 3.56011 62.4872 2.47127C61.323 1.3775 59.6285 0.822386 57.4508 0.822386H53.6222ZM57.331 12.8588H54.1549V1.69494H57.331C59.1586 1.69494 60.5633 2.16863 61.5064 3.10286C62.4487 4.03545 62.9269 5.4368 62.9269 7.2666C62.9269 8.17452 62.813 8.98292 62.5902 9.67126C62.3574 10.381 61.9956 10.9805 61.5148 11.4534C61.0357 11.9238 60.4376 12.2815 59.7374 12.5159C59.0556 12.7429 58.2465 12.8588 57.331 12.8588ZM54.9925 12.0364H57.331C58.1535 12.0364 58.873 11.9361 59.4677 11.7371C60.0448 11.5438 60.5348 11.2527 60.9226 10.8719C61.3087 10.492 61.6019 10.0035 61.7929 9.41961C61.9897 8.81351 62.0894 8.08899 62.0894 7.2666C62.0894 5.66131 61.6923 4.45487 60.9117 3.68182C60.1311 2.9096 58.9266 2.51732 57.331 2.51732H54.9925V12.0364Z" fill="white"/>
</g>
<g id="Group_5">
<path id="Vector_6" d="M71.7325 14.3169C70.6738 14.3169 69.765 14.1195 69.0053 13.7231C68.2448 13.3276 67.656 12.7618 67.2397 12.0282C66.8234 11.2946 66.6149 10.4213 66.6149 9.40808C66.6149 8.42204 66.8201 7.55771 67.2297 6.81838C67.6392 6.07824 68.2013 5.5001 68.9157 5.08479C69.6302 4.66949 70.4435 4.46143 71.3556 4.46143C72.0307 4.46143 72.6313 4.56916 73.1606 4.78298C73.6891 4.99762 74.1423 5.30931 74.5192 5.71803C74.8961 6.12758 75.1809 6.6243 75.3727 7.20902C75.5645 7.79291 75.6608 8.44918 75.6608 9.17617C75.6608 9.39739 75.5938 9.56269 75.4623 9.67289C75.33 9.78391 75.1306 9.83901 74.8676 9.83901H68.2021V8.63092H74.3114L73.9747 8.90396C73.9747 8.25427 73.8784 7.70245 73.6866 7.24767C73.4948 6.79289 73.2109 6.44584 72.8339 6.20571C72.457 5.96557 71.9905 5.8455 71.4352 5.8455C70.8137 5.8455 70.2877 5.9886 69.858 6.27397C69.4275 6.55933 69.1008 6.9549 68.8764 7.46149C68.6502 7.96726 68.5396 8.55855 68.5396 9.23373V9.35051C68.5396 10.4936 68.8127 11.3538 69.3621 11.932C69.9099 12.5093 70.7065 12.7988 71.7526 12.7988C72.1496 12.7988 72.5693 12.747 73.0124 12.6433C73.4554 12.5389 73.8751 12.3637 74.2721 12.117C74.4966 11.9871 74.6993 11.9287 74.8777 11.9419C75.0561 11.955 75.2018 12.0134 75.314 12.117C75.4263 12.2206 75.4958 12.3506 75.5226 12.5068C75.5486 12.6623 75.5226 12.8218 75.4422 12.9838C75.3635 13.1458 75.2244 13.2922 75.0267 13.4221C74.577 13.7207 74.0543 13.9452 73.4596 14.0932C72.8624 14.2421 72.2878 14.3169 71.7325 14.3169Z" fill="white"/>
<path id="Vector_7" d="M71.7325 14.7281C70.6093 14.7281 69.6259 14.5118 68.8093 14.0866C67.9801 13.6557 67.3284 13.0299 66.8736 12.2289C66.4239 11.4369 66.1952 10.4879 66.1952 9.4089C66.1952 8.35789 66.4197 7.42037 66.8611 6.62183C67.305 5.82001 67.9248 5.18348 68.7013 4.73117C69.4777 4.27885 70.3706 4.05023 71.3547 4.05023C72.0792 4.05023 72.7401 4.16948 73.3197 4.40221C73.9043 4.63988 74.4119 4.9894 74.829 5.44171C75.2461 5.89402 75.5628 6.44667 75.7705 7.08237C75.9748 7.70656 76.0787 8.4097 76.0787 9.17534C76.0787 9.60463 75.8903 9.85299 75.7328 9.98457C75.5234 10.1597 75.2311 10.2486 74.8667 10.2486H69.0287C69.1309 10.8415 69.3454 11.3111 69.6678 11.6507C70.1385 12.1458 70.8195 12.3868 71.7517 12.3868C72.1127 12.3868 72.5031 12.3374 72.9143 12.242C73.3113 12.1491 73.6924 11.9887 74.0476 11.7683C74.3265 11.6071 74.5853 11.5282 74.8282 11.5282C75.1842 11.5504 75.4162 11.6474 75.6004 11.8168C75.7797 11.983 75.8928 12.191 75.9346 12.4369C75.9757 12.6804 75.9363 12.9238 75.8182 13.1623C75.7085 13.3884 75.52 13.5916 75.2587 13.7626C74.7721 14.0866 74.2 14.3309 73.5618 14.4912C72.9352 14.6491 72.3196 14.7281 71.7325 14.7281ZM71.3547 4.87344C70.523 4.87344 69.7734 5.06341 69.1284 5.43924C68.4826 5.81425 67.9675 6.34551 67.5973 7.01493C67.2229 7.69094 67.0328 8.49687 67.0328 9.4089C67.0328 10.3464 67.2246 11.1598 67.6048 11.8284C67.9792 12.4879 68.517 13.0036 69.2013 13.3596C70.2617 13.9106 71.7316 14.0981 73.354 13.6935C73.8993 13.557 74.3826 13.3506 74.7905 13.08C74.9262 12.9912 75.0175 12.8983 75.0627 12.8054C75.1063 12.7182 75.1197 12.6442 75.1079 12.5718C75.0962 12.506 75.0711 12.4567 75.025 12.4155C74.9991 12.3917 74.9522 12.3588 74.8458 12.3514C74.7419 12.3563 74.6548 12.3695 74.4839 12.4706C74.061 12.733 73.5944 12.9279 73.1078 13.0422C71.3405 13.455 69.9124 13.1162 69.0539 12.2116C68.5915 11.7247 68.2984 11.066 68.1794 10.2486H67.7807V8.21891H68.2079C68.2699 7.88831 68.3654 7.57909 68.491 7.29701C68.7465 6.72052 69.1267 6.26081 69.6226 5.9335C70.1201 5.60207 70.729 5.43431 71.4335 5.43431C72.0683 5.43431 72.6153 5.57823 73.06 5.86113C73.5073 6.14814 73.8474 6.5618 74.071 7.09059C74.2109 7.42284 74.3055 7.80114 74.3533 8.21973H75.1741C75.1297 7.9064 75.0619 7.61116 74.9723 7.33566C74.8006 6.81016 74.5426 6.35949 74.2067 5.99435C73.875 5.63333 73.4688 5.35371 72.9997 5.16292C72.524 4.9713 71.9704 4.87344 71.3547 4.87344ZM73.9847 9.42699H74.8667C75.0912 9.42699 75.1708 9.37518 75.19 9.35874C75.2327 9.32337 75.242 9.23949 75.242 9.17534C75.242 8.92123 75.2294 8.67615 75.2043 8.43931L73.9847 9.42699ZM68.9584 9.42699H73.5542V9.04129H68.9609C68.9584 9.10462 68.9576 9.16876 68.9576 9.23373V9.35051C68.9576 9.37601 68.9576 9.40232 68.9584 9.42699ZM69.0639 8.21891H73.5115C73.4696 7.91463 73.3984 7.64159 73.2988 7.40475C73.1396 7.02562 72.9126 6.74601 72.6052 6.55029C72.2987 6.35538 71.905 6.25669 71.4351 6.25669C70.9016 6.25669 70.4501 6.37676 70.0925 6.61525C69.7256 6.85786 69.4534 7.18846 69.2608 7.62597C69.1787 7.80854 69.1133 8.00673 69.0639 8.21891Z" fill="white"/>
</g>
<g id="Group_6">
<path id="Vector_8" d="M81.5901 14.2783C81.312 14.2783 81.0716 14.2067 80.8664 14.0636C80.6612 13.9205 80.4928 13.701 80.3605 13.4008L77.0487 5.84469C76.9423 5.61114 76.9021 5.38991 76.9297 5.18267C76.9557 4.97461 77.0537 4.80931 77.2262 4.68595C77.3979 4.56342 77.6291 4.50092 77.9206 4.50092C78.171 4.50092 78.3695 4.5593 78.5161 4.67608C78.661 4.79368 78.7934 4.99435 78.9123 5.27972L81.9075 12.5249H81.3522L84.4069 5.27972C84.5266 4.99352 84.6615 4.79286 84.8131 4.67608C84.9647 4.5593 85.1799 4.50092 85.458 4.50092C85.6959 4.50092 85.8844 4.56259 86.0234 4.68595C86.1624 4.80931 86.2487 4.97214 86.2822 5.17281C86.3149 5.37429 86.2789 5.59222 86.1725 5.82578L82.8205 13.4016C82.7007 13.7009 82.5357 13.9213 82.3246 14.0644C82.1119 14.2067 81.8681 14.2783 81.5901 14.2783Z" fill="white"/>
<path id="Vector_9" d="M81.59 14.6895C81.2248 14.6895 80.9007 14.5916 80.6243 14.3992C80.3571 14.2125 80.1385 13.9321 79.976 13.5645L76.6642 6.00673C76.5276 5.7082 76.4765 5.4105 76.5142 5.12924C76.5544 4.81263 76.7153 4.54288 76.9799 4.35373C77.4481 4.01902 78.3142 3.98695 78.7799 4.35702C78.9851 4.52315 79.1543 4.77397 79.3 5.12595L81.6369 10.7766L84.0207 5.12349C84.1689 4.76822 84.344 4.51657 84.5559 4.35291C84.9906 4.0182 85.8483 3.97955 86.3048 4.38005C86.5158 4.56838 86.6465 4.8118 86.6959 5.10622C86.7428 5.38994 86.6951 5.68764 86.5552 5.99357L83.2057 13.5653C83.0616 13.9255 82.8439 14.2125 82.5633 14.4025C82.2785 14.5933 81.9518 14.6895 81.59 14.6895ZM77.9205 4.91296C77.722 4.91296 77.5713 4.94832 77.4724 5.01904C77.3937 5.07497 77.3568 5.13829 77.3451 5.23451C77.3275 5.36691 77.3568 5.51494 77.4306 5.67778L80.7449 13.2396C80.8454 13.465 80.9685 13.6311 81.1092 13.7289C81.3798 13.9181 81.8053 13.9164 82.0892 13.7256C82.2282 13.6311 82.3438 13.4707 82.4309 13.252L85.7888 5.66215C85.8625 5.50096 85.8885 5.35951 85.8692 5.2378C85.8516 5.13007 85.8114 5.05112 85.7436 4.99026C85.7227 4.97217 85.6556 4.91213 85.4597 4.91213C85.2838 4.91213 85.1472 4.94338 85.0735 4.99931C85.0208 5.0396 84.9161 5.15063 84.7963 5.43517L82.0867 11.8605L82.5306 12.9353H80.7273L81.1813 11.8572L78.5261 5.43353C78.4063 5.14569 78.3025 5.03385 78.2514 4.99191C78.1835 4.94092 78.0713 4.91296 77.9205 4.91296Z" fill="white"/>
</g>
<g id="Group_7">
<path id="Vector_10" d="M91.5481 14.3169C90.966 14.3169 90.3688 14.252 89.7532 14.1229C89.1384 13.9929 88.5722 13.7717 88.0571 13.46C87.8854 13.3432 87.7656 13.2133 87.7003 13.0702C87.6333 12.9271 87.6106 12.7815 87.6299 12.6327C87.65 12.483 87.7103 12.3531 87.8091 12.2429C87.908 12.1319 88.0345 12.0636 88.1861 12.0381C88.3377 12.0126 88.5002 12.0447 88.6719 12.1351C89.187 12.4213 89.6828 12.6195 90.1586 12.7297C90.6343 12.8399 91.1042 12.895 91.5674 12.895C92.2685 12.895 92.7978 12.7717 93.1546 12.525C93.5123 12.2782 93.6915 11.9476 93.6915 11.5315C93.6915 11.1943 93.5717 10.932 93.3339 10.7428C93.096 10.5545 92.7392 10.409 92.2626 10.3053L90.3789 9.93526C89.5589 9.76667 88.9365 9.46815 88.5136 9.03886C88.0897 8.6104 87.8787 8.06515 87.8787 7.40313C87.8787 6.80608 88.0437 6.28716 88.3745 5.84471C88.7054 5.40391 89.1677 5.06262 89.7632 4.82249C90.3579 4.58235 91.0456 4.46228 91.8262 4.46228C92.4075 4.46228 92.957 4.53383 93.4721 4.67692C93.988 4.82002 94.4646 5.03466 94.9002 5.31921C95.0719 5.41049 95.1849 5.53056 95.2377 5.67941C95.2905 5.82826 95.3005 5.97465 95.2679 6.11774C95.2335 6.26084 95.1648 6.38666 95.0585 6.49769C94.9529 6.60789 94.8248 6.67285 94.6723 6.69177C94.5199 6.71068 94.3515 6.67532 94.1664 6.58486C93.7686 6.33814 93.3757 6.16215 92.9854 6.05853C92.596 5.95491 92.2081 5.9031 91.8254 5.9031C91.1235 5.9031 90.5983 6.02975 90.2482 6.28304C89.8973 6.53634 89.7222 6.87681 89.7222 7.30527C89.7222 7.63011 89.8277 7.89657 90.0396 8.10381C90.2516 8.31187 90.5816 8.46154 91.0322 8.55201L92.9167 8.92208C93.7753 9.09067 94.4269 9.37686 94.87 9.77901C95.3131 10.1812 95.5342 10.7264 95.5342 11.4147C95.5342 12.3103 95.1707 13.0184 94.4437 13.5373C93.7175 14.0579 92.7509 14.3169 91.5481 14.3169Z" fill="white"/>
<path id="Vector_11" d="M91.5482 14.7281C90.9409 14.7281 90.3085 14.6599 89.6661 14.525C89.0061 14.3852 88.3913 14.1442 87.8376 13.8103C87.583 13.6393 87.4147 13.4501 87.3183 13.2396C87.2203 13.0307 87.1852 12.8079 87.2145 12.5801C87.2463 12.3473 87.341 12.1434 87.4951 11.9715C87.6551 11.7922 87.8695 11.6754 88.1149 11.6335C88.3586 11.5915 88.6158 11.6392 88.8704 11.7741C89.357 12.0439 89.8202 12.2305 90.2541 12.3309C90.698 12.4328 91.1394 12.4855 91.5666 12.4855C92.1763 12.4855 92.6295 12.386 92.9117 12.1902C93.1605 12.0192 93.2711 11.8169 93.2711 11.5332C93.2711 11.2593 93.163 11.1392 93.0692 11.0644C92.8833 10.9172 92.5809 10.7979 92.1705 10.7083L90.296 10.3399C89.3922 10.154 88.692 9.81273 88.212 9.3267C87.7128 8.82257 87.4599 8.17618 87.4599 7.40478C87.4599 6.72138 87.6534 6.11528 88.0362 5.60375C88.4122 5.1021 88.9391 4.71229 89.6033 4.44419C90.2474 4.18514 90.9945 4.05273 91.8254 4.05273C92.4427 4.05273 93.0349 4.13004 93.5852 4.28218C94.1405 4.43679 94.6606 4.67035 95.1322 4.97874C95.365 5.10045 95.5451 5.29865 95.6331 5.54537C95.7126 5.76741 95.7269 5.9911 95.6775 6.20985C95.6247 6.42861 95.52 6.6194 95.3642 6.78141C95.1908 6.96234 94.9756 7.07007 94.7268 7.10214L94.5911 7.11037C94.3959 7.11037 94.1899 7.05856 93.9805 6.95576C93.5818 6.71069 93.2233 6.55114 92.8774 6.45904C92.5248 6.36528 92.1713 6.31759 91.8271 6.31759C91.2207 6.31759 90.7734 6.41874 90.4978 6.61693C90.2558 6.7921 90.1427 7.01086 90.1427 7.30856C90.1427 7.52485 90.2038 7.68604 90.3362 7.81515C90.4894 7.96565 90.7516 8.07831 91.1176 8.15151L92.9997 8.52158C93.9311 8.70497 94.6564 9.02653 95.1556 9.47966C95.685 9.96076 95.9539 10.6129 95.9539 11.4172C95.9539 12.4485 95.5292 13.275 94.6908 13.872C93.8951 14.4403 92.8372 14.7281 91.5482 14.7281ZM88.2891 12.4411C88.1995 12.4542 88.1593 12.4748 88.1241 12.5151C88.0789 12.5653 88.0546 12.6195 88.0445 12.6878C88.0353 12.7593 88.047 12.8268 88.0805 12.8991C88.1149 12.974 88.1886 13.0505 88.295 13.122C88.7489 13.395 89.2749 13.6006 89.842 13.7207C90.4258 13.8432 91.0004 13.9066 91.5482 13.9066C92.6563 13.9066 93.5483 13.6714 94.1983 13.2059C94.8156 12.7651 95.1163 12.1796 95.1163 11.4156C95.1163 10.8415 94.9429 10.4048 94.5861 10.0816C94.2025 9.73296 93.6128 9.47884 92.8355 9.32587L90.951 8.9558C90.4115 8.84725 90.0187 8.66468 89.7448 8.39493C89.4525 8.10957 89.3051 7.74278 89.3051 7.30609C89.3051 6.74852 89.5463 6.2814 90.002 5.95245C90.43 5.64323 91.0272 5.49273 91.8271 5.49273C92.245 5.49273 92.6722 5.54948 93.0969 5.66297C93.5232 5.77646 93.9587 5.96972 94.3918 6.23781C94.447 6.26249 94.5283 6.28634 94.5919 6.28634C94.6757 6.27811 94.7151 6.25755 94.7544 6.21643C94.8097 6.15969 94.8432 6.09719 94.8616 6.02399C94.8767 5.95985 94.8709 5.89241 94.8441 5.81593C94.8374 5.79784 94.8181 5.74274 94.7017 5.68106C94.2703 5.40145 93.8306 5.20325 93.359 5.07332C92.2484 4.7641 90.8705 4.82084 89.9232 5.20408C89.4031 5.41378 88.996 5.71149 88.7121 6.08896C88.434 6.4615 88.2983 6.89243 88.2983 7.40396C88.2983 7.96154 88.4667 8.40234 88.8143 8.75349C89.1769 9.1211 89.7323 9.38344 90.4652 9.53394L92.3447 9.90319C92.8975 10.0233 93.3046 10.1935 93.5969 10.4238C93.9328 10.6902 94.1103 11.0734 94.1103 11.5332C94.1103 12.0809 93.8632 12.5406 93.395 12.863C92.962 13.1623 92.3648 13.3079 91.5674 13.3079C91.0758 13.3079 90.5699 13.2487 90.0631 13.1311C89.5513 13.0126 89.0136 12.7988 88.4658 12.4954C88.4022 12.46 88.3402 12.4411 88.2891 12.4411Z" fill="white"/>
</g>
</g>
</g>
<g id="Group_8">
<path id="Vector_12" d="M60.7233 28.573H54.9926V17.9404C54.9926 17.4913 54.8619 17.1352 54.6031 16.8819C54.3443 16.6262 53.9875 16.4971 53.5419 16.4971C53.0963 16.4971 52.7395 16.6262 52.4815 16.8811C52.2218 17.1352 52.0912 17.4913 52.0912 17.9404V29.6849C52.0912 30.1207 52.226 30.4743 52.4916 30.7342C52.7571 30.9949 53.1172 31.1281 53.5611 31.1281H60.7225C61.1271 31.1281 61.4537 31.0089 61.6933 30.7737C61.932 30.5393 62.0534 30.2252 62.0534 29.8403C62.0534 29.4521 61.9303 29.1388 61.6866 28.9102C61.4495 28.6873 61.1254 28.573 60.7233 28.573Z" fill="white"/>
<path id="Vector_13" d="M71.7854 26.5606C71.9429 26.429 72.1313 26.1807 72.1313 25.7514C72.1313 24.9858 72.0275 24.2826 71.8231 23.6584C71.6154 23.0227 71.2988 22.4701 70.8816 22.0178C70.4645 21.5654 69.9569 21.2159 69.3723 20.9783C68.7935 20.7455 68.1327 20.6263 67.4073 20.6263C66.4232 20.6263 65.5311 20.8549 64.7539 21.3072C63.9766 21.7595 63.3576 22.3961 62.9137 23.1979C62.4723 23.9964 62.2478 24.9331 62.2478 25.985C62.2478 27.0639 62.4756 28.013 62.9262 28.8049C63.3811 29.6059 64.0319 30.2309 64.8619 30.6627C65.6794 31.0887 66.6619 31.3041 67.7851 31.3041C68.3722 31.3041 68.9887 31.2244 69.6144 31.0673C70.2535 30.9086 70.8247 30.6627 71.3113 30.3387C71.5726 30.1676 71.7611 29.9645 71.8708 29.7383C71.9889 29.4998 72.0283 29.2564 71.9873 29.013C71.9445 28.7671 71.8315 28.559 71.6531 28.3929C71.4688 28.2235 71.2368 28.1273 70.8808 28.1042C70.6379 28.1042 70.3791 28.1832 70.1002 28.3444C69.745 28.5656 69.3639 28.7251 68.9669 28.8181C68.5565 28.9135 68.1654 28.9628 67.8044 28.9628C66.8721 28.9628 66.1903 28.7219 65.7204 28.2268C65.398 27.8871 65.1835 27.4175 65.0814 26.8246H70.9193C71.2837 26.8246 71.576 26.7358 71.7854 26.5606ZM65.3134 24.2012C65.506 23.7637 65.7791 23.4331 66.1451 23.1905C66.5027 22.9528 66.9542 22.8319 67.4877 22.8319C67.9585 22.8319 68.3513 22.9306 68.6578 23.1255C68.9652 23.3212 69.1922 23.6009 69.3514 23.98C69.451 24.2168 69.5222 24.4899 69.5641 24.7941H65.1165C65.1659 24.5828 65.2313 24.3838 65.3134 24.2012Z" fill="white"/>
<path id="Vector_14" d="M80.2751 21.0769C79.2926 20.6114 77.8629 20.4692 76.2086 20.8113C75.6106 20.933 74.9991 21.1402 74.4229 21.4116C74.113 21.5259 73.8877 21.7077 73.7553 21.9511C73.633 22.1715 73.5753 22.4034 73.5845 22.6411C73.5945 22.8788 73.6682 23.1008 73.8039 23.3023C73.9538 23.521 74.1691 23.6707 74.4288 23.7349C74.6859 23.7965 74.9615 23.7587 75.2957 23.6041C75.7538 23.3738 76.1977 23.2085 76.6165 23.1131C77.0412 23.0169 77.4533 22.9676 77.8411 22.9676C78.4467 22.9676 78.8721 23.0885 79.1067 23.3278C79.3445 23.5712 79.466 24.0128 79.466 24.6403V24.7349H79.2105C77.759 24.7349 76.5847 24.8262 75.722 25.0071C74.7956 25.2004 74.1105 25.5392 73.6875 26.0153C73.2578 26.4997 73.04 27.1511 73.04 27.9512C73.04 28.5911 73.2176 29.1733 73.5677 29.6815C73.9111 30.1807 74.3894 30.5812 74.9891 30.8707C75.5804 31.1577 76.2539 31.3025 76.9893 31.3025C77.5865 31.3025 78.1292 31.1997 78.605 30.9957C78.9651 30.8411 79.2859 30.6322 79.5615 30.3707C79.6226 30.5648 79.7231 30.7326 79.8605 30.8732C80.1135 31.1322 80.4485 31.2638 80.8572 31.2638C81.3908 31.2638 81.6998 31.0451 81.864 30.8625C82.0918 30.6117 82.2074 30.2737 82.2074 29.8592V24.8533C82.2074 23.9109 82.0533 23.123 81.7493 22.5112C81.4293 21.8722 80.9335 21.3886 80.2751 21.0769ZM78.4534 28.8008C78.1476 28.9883 77.7984 29.0787 77.3854 29.0787C76.8795 29.0787 76.5043 28.9636 76.2379 28.7259C75.9833 28.5022 75.8602 28.2103 75.8602 27.8345C75.8602 27.5746 75.9305 27.3813 76.0763 27.2473C76.1927 27.1395 76.454 26.9915 77.0378 26.8961C77.5689 26.8098 78.3068 26.7654 79.2298 26.7654H79.4652V26.8805C79.4652 27.3147 79.373 27.6996 79.1896 28.0269C79.0053 28.3559 78.7641 28.6091 78.4534 28.8008Z" fill="white"/>
<path id="Vector_15" d="M90.4971 20.8943C90.291 20.7027 90.0247 20.6049 89.7072 20.6049L89.6134 20.6073C88.6535 20.6781 87.8469 20.9396 87.2179 21.3853C87.0948 21.4717 86.9784 21.5679 86.8695 21.6707C86.8159 21.4198 86.707 21.2101 86.5436 21.0432C86.2966 20.7924 85.9515 20.6649 85.5184 20.6649C85.0996 20.6649 84.7596 20.7899 84.5075 21.0383C84.2554 21.2858 84.1281 21.6328 84.1281 22.0695V29.86C84.1281 30.2811 84.2537 30.6223 84.5008 30.874C84.7537 31.133 85.1097 31.2646 85.5578 31.2646C86.0227 31.2646 86.3828 31.1314 86.6291 30.8699C86.867 30.6166 86.9884 30.2769 86.9884 29.86V25.4388C86.9884 24.7522 87.1702 24.234 87.5454 23.8549C87.9198 23.4758 88.4927 23.2488 89.2516 23.1797L89.6201 23.1411C90.0339 23.1066 90.3547 22.9651 90.5733 22.7209C90.7977 22.4717 90.8916 22.1477 90.8555 21.7776C90.8371 21.3993 90.7173 21.1016 90.4971 20.8943Z" fill="white"/>
<path id="Vector_16" d="M99.3001 21.0975C98.7289 20.7842 98.0169 20.6263 97.181 20.6263C96.3007 20.6263 95.5075 20.8327 94.8224 21.2406C94.6214 21.3607 94.4346 21.498 94.2637 21.6518C94.2084 21.4092 94.1012 21.2061 93.9429 21.0449C93.6967 20.7932 93.3507 20.6658 92.916 20.6658C92.4989 20.6658 92.1588 20.7908 91.9067 21.0391C91.6538 21.2875 91.5256 21.6345 91.5256 22.0704V29.8609C91.5256 30.2811 91.6521 30.6224 91.9 30.8749C92.153 31.1339 92.5023 31.2655 92.9361 31.2655C93.8457 31.2655 94.3667 30.754 94.3667 29.8609V25.3427C94.3667 24.6149 94.5652 24.0573 94.974 23.6411C95.3777 23.2283 95.9121 23.0276 96.6064 23.0276C97.1693 23.0276 97.5613 23.165 97.8033 23.4462C98.0605 23.7448 98.1903 24.2588 98.1903 24.9726V29.8609C98.1903 30.2811 98.3168 30.6224 98.5647 30.8749C98.8177 31.1339 99.1736 31.2655 99.6217 31.2655C100.056 31.2655 100.405 31.1347 100.656 30.8757C100.905 30.6216 101.031 30.2803 101.031 29.8609V24.855C101.031 23.9463 100.893 23.1732 100.619 22.5581C100.332 21.9125 99.8881 21.4215 99.3001 21.0975Z" fill="white"/>
<path id="Vector_17" d="M104.362 20.7044C103.926 20.7044 103.575 20.8401 103.321 21.1082C103.076 21.3672 102.952 21.7242 102.952 22.1674V29.763C102.952 30.2038 103.074 30.5615 103.317 30.8263C103.492 31.0171 103.815 31.2458 104.363 31.2458C104.815 31.2458 105.172 31.1051 105.428 30.8263C105.67 30.5615 105.793 30.2038 105.793 29.763V22.1674C105.793 21.7209 105.664 21.3623 105.408 21.1024C105.146 20.8385 104.794 20.7044 104.362 20.7044Z" fill="white"/>
<path id="Vector_18" d="M104.362 16.4592C103.862 16.4592 103.459 16.5883 103.163 16.8441C102.851 17.113 102.693 17.4954 102.693 17.9806C102.693 18.451 102.85 18.8285 103.157 19.1016C103.453 19.3664 103.858 19.5012 104.362 19.5012C104.864 19.5012 105.269 19.3672 105.565 19.1024C105.873 18.8285 106.03 18.451 106.03 17.9806C106.03 17.4954 105.873 17.113 105.559 16.8433C105.265 16.5883 104.861 16.4592 104.362 16.4592Z" fill="#2197F9"/>
<path id="Vector_19" d="M115.545 21.0975C114.975 20.785 114.263 20.6263 113.427 20.6263C112.546 20.6263 111.752 20.8327 111.067 21.2406C110.866 21.3607 110.679 21.498 110.509 21.6518C110.453 21.4092 110.347 21.2061 110.188 21.0441C109.941 20.7932 109.596 20.6658 109.162 20.6658C108.744 20.6658 108.404 20.7908 108.152 21.0391C107.899 21.2867 107.771 21.6345 107.771 22.0704V29.8609C107.771 30.2811 107.897 30.6232 108.145 30.8749C108.398 31.1339 108.747 31.2655 109.181 31.2655C110.091 31.2655 110.612 30.754 110.612 29.8609V25.3427C110.612 24.6157 110.81 24.0581 111.219 23.6411C111.623 23.2283 112.157 23.0276 112.851 23.0276C113.415 23.0276 113.807 23.165 114.049 23.4462C114.306 23.7448 114.436 24.2588 114.436 24.9726V29.8609C114.436 30.2811 114.562 30.6232 114.81 30.8749C115.063 31.1339 115.419 31.2655 115.867 31.2655C116.301 31.2655 116.651 31.1347 116.902 30.8757C117.151 30.6224 117.276 30.2803 117.276 29.8609V24.855C117.276 23.9446 117.138 23.1716 116.865 22.5581C116.578 21.9125 116.133 21.4207 115.545 21.0975Z" fill="white"/>
<path id="Vector_20" d="M128.62 21.0391C128.368 20.7907 128.021 20.6657 127.59 20.6657C127.176 20.6657 126.834 20.7891 126.577 21.0325C126.405 21.1937 126.289 21.3976 126.228 21.6411C126.1 21.5259 125.96 21.4182 125.81 21.3187C125.114 20.8582 124.292 20.6254 123.365 20.6254C122.664 20.6254 122.01 20.7513 121.424 21.0004C120.834 21.2504 120.324 21.6098 119.907 22.0687C119.496 22.5235 119.175 23.0671 118.952 23.6855C118.733 24.299 118.621 24.9939 118.621 25.7505C118.621 26.758 118.816 27.6544 119.199 28.4167C119.591 29.1898 120.15 29.8033 120.86 30.2375C121.572 30.6733 122.413 30.8946 123.363 30.8946C124.278 30.8946 125.096 30.6618 125.797 30.2021C125.948 30.1034 126.088 29.9973 126.218 29.8822V30.152C126.218 30.9316 126.025 31.5188 125.643 31.8987C125.068 32.4719 123.931 32.615 122.489 32.3115C122.006 32.2087 121.487 32.0097 120.943 31.7186C120.679 31.578 120.4 31.541 120.153 31.6035C119.92 31.6627 119.719 31.7844 119.56 31.9612C119.405 32.1306 119.302 32.3313 119.253 32.5615C119.202 32.8017 119.228 33.0385 119.329 33.2663C119.434 33.5007 119.629 33.6948 119.892 33.8321C120.472 34.1792 121.126 34.4316 121.835 34.5838C122.53 34.7326 123.257 34.8067 123.997 34.8067C125.598 34.8067 126.844 34.3872 127.703 33.5591C128.562 32.7293 128.998 31.5031 128.998 29.9159V22.0671C129 21.6345 128.872 21.2866 128.62 21.0391ZM125.1 28.2103C124.763 28.4249 124.338 28.5343 123.84 28.5343C123.114 28.5343 122.556 28.3008 122.133 27.8197C121.7 27.3279 121.482 26.633 121.482 25.7514C121.482 25.1666 121.585 24.6601 121.788 24.2439C121.986 23.8368 122.252 23.5326 122.599 23.3113C122.943 23.0934 123.35 22.9873 123.84 22.9873C124.578 22.9873 125.139 23.2201 125.554 23.6995C125.981 24.1921 126.198 24.8821 126.198 25.7505C126.198 26.3377 126.098 26.8501 125.9 27.2736C125.707 27.6856 125.446 27.9915 125.1 28.2103Z" fill="white"/>
</g>
<g id="Group_9">
<path id="Vector_21" d="M37.482 24.6337H1.46582V29.9431H37.482V24.6337Z" fill="white"/>
<path id="Vector_22" d="M37.9008 30.3542H1.047V24.2225H37.9008V30.3542ZM1.88458 29.5319H37.0632V25.0449H1.88458V29.5319Z" fill="white"/>
</g>
<g id="Group_10">
<g id="Group_11">
<g id="Group_12">
<path id="Vector_23" d="M19.4931 29.1042C19.1095 29.1042 18.7988 28.9866 18.5609 28.7531C18.323 28.5195 18.2041 28.2218 18.2041 27.8575C18.2041 27.4948 18.323 27.1988 18.5609 26.9718C18.7988 26.7448 19.1095 26.6305 19.4931 26.6305C19.8768 26.6305 20.1808 26.7448 20.4061 26.9718C20.6306 27.1988 20.7428 27.4948 20.7428 27.8575C20.7428 28.221 20.6298 28.5195 20.4061 28.7531C20.1816 28.9866 19.8768 29.1042 19.4931 29.1042Z" fill="#2197F9"/>
<path id="Vector_24" d="M19.4931 29.5154C18.9964 29.5154 18.5827 29.3575 18.2644 29.0442C17.9461 28.7317 17.7853 28.3328 17.7853 27.8583C17.7853 27.3813 17.9478 26.9841 18.2686 26.6774C18.5868 26.3739 18.9989 26.2193 19.4931 26.2193C19.9923 26.2193 20.4002 26.3756 20.7059 26.6848C21.0083 26.9915 21.1616 27.3863 21.1616 27.8575C21.1616 28.3263 21.01 28.7235 20.711 29.0351C20.4044 29.3534 19.9948 29.5154 19.4931 29.5154ZM19.4931 27.0417C19.2209 27.0417 19.0115 27.1157 18.8524 27.2662C18.6949 27.4159 18.6229 27.6034 18.6229 27.8575C18.6229 28.1141 18.6974 28.3057 18.8566 28.4619C19.1698 28.7703 19.8114 28.772 20.1012 28.4702C20.2511 28.3147 20.324 28.1133 20.324 27.8575C20.324 27.6034 20.252 27.4068 20.1046 27.258C19.9613 27.1124 19.7611 27.0417 19.4931 27.0417Z" fill="#2197F9"/>
</g>
</g>
</g>
<g id="Group_13">
<path id="Vector_25" d="M20.5284 20.0745C20.0142 20.0745 19.5158 19.8089 19.2478 19.3376C18.8524 18.6435 19.1054 17.7669 19.8123 17.3795L25.327 14.354L19.8123 11.3292C19.1054 10.9419 18.8524 10.0652 19.2478 9.37113C19.6414 8.67786 20.5318 8.42703 21.2421 8.81684L29.0467 13.0974C29.5107 13.3515 29.7972 13.8326 29.7972 14.3531C29.7972 14.8737 29.5099 15.3556 29.0467 15.6089L21.2421 19.8903C21.0151 20.0161 20.7697 20.0745 20.5284 20.0745Z" fill="#2197F9"/>
<g id="Group_14">
<g id="Group_15">
<path id="Vector_26" d="M12.2145 20.8598C12.1483 21.0671 12.0428 21.2176 11.8971 21.308C11.7513 21.3985 11.593 21.4445 11.4213 21.4445C11.2496 21.4445 11.0938 21.4018 10.9548 21.3179C10.8157 21.234 10.7169 21.1131 10.6574 20.9577C10.5988 20.8023 10.6022 20.6139 10.6675 20.3927L15.3295 6.21396C15.3948 6.00672 15.5012 5.85375 15.6469 5.75589C15.7918 5.65885 15.9468 5.61362 16.1135 5.62019C16.2785 5.62677 16.4309 5.672 16.5691 5.75589C16.7082 5.84142 16.807 5.95737 16.8665 6.10705C16.9259 6.25672 16.9293 6.44094 16.8765 6.66216L12.2145 20.8598Z" fill="#2197F9"/>
<path id="Vector_27" d="M11.4213 22.0613C11.1324 22.0613 10.8643 21.9873 10.6248 21.8418C10.3693 21.6872 10.1775 21.4561 10.0695 21.1732C9.96227 20.8886 9.96059 20.5695 10.0645 20.2192L14.7315 6.02317C14.837 5.68846 15.0271 5.42448 15.2918 5.24684C15.5331 5.08401 15.7986 5.00177 16.0817 5.00177C16.4108 5.01411 16.6663 5.08977 16.8975 5.22957C17.1571 5.38747 17.3414 5.60622 17.4511 5.88008C17.5583 6.14818 17.5709 6.45822 17.4871 6.8028L12.8126 21.0482C12.702 21.3936 12.5069 21.6576 12.2346 21.827C11.9867 21.9832 11.7128 22.0613 11.4213 22.0613ZM16.0867 6.23617C16.0624 6.23617 16.0398 6.23946 16.0004 6.26496C15.977 6.2814 15.9493 6.32992 15.9292 6.39571L11.2647 20.5819C11.232 20.6937 11.2463 20.7422 11.2463 20.7422C11.4021 20.8894 11.4699 20.8442 11.5604 20.7875C11.5604 20.7875 11.5872 20.7636 11.6148 20.6748L16.2785 6.4722C16.2927 6.40558 16.2869 6.34555 16.2819 6.33157C16.1931 6.25262 16.1445 6.23864 16.0892 6.23617C16.0875 6.23617 16.0867 6.23617 16.0867 6.23617Z" fill="#2197F9"/>
</g>
</g>
</g>
</g>
</g>
<defs>
<clipPath id="clip0_110_97">
<rect width="129" height="38" fill="white"/>
</clipPath>
</defs>
</svg>
