<svg width="129" height="38" viewBox="0 0 129 38" fill="none" xmlns="http://www.w3.org/2000/svg">
<g id="nuevo logo Devs Learning-01 1" clip-path="url(#clip0_133_147)">
<g id="Group">
<path id="Vector" d="M37.482 31.3823H1.46578C0.65583 31.3823 0 30.7383 0 29.9431V1.50332C0 0.708076 0.65583 0.0641479 1.46578 0.0641479H37.482C38.2919 0.0641479 38.9478 0.708076 38.9478 1.50332V29.9431C38.9478 30.7383 38.2919 31.3823 37.482 31.3823ZM2.93155 28.5039H36.0162V2.9425H2.93155V28.5039Z" fill="#0B376B"/>
<path id="Vector_2" d="M26.7934 38H12.1533C11.3433 38 10.6875 37.3561 10.6875 36.5608C10.6875 35.7656 11.3433 35.1216 12.1533 35.1216H26.7934C27.6034 35.1216 28.2592 35.7656 28.2592 36.5608C28.2592 37.3561 27.6034 38 26.7934 38Z" fill="#0B376B"/>
<path id="Vector_3" d="M19.4738 38C18.6639 38 18.0081 37.3561 18.0081 36.5608V30.4998C18.0081 29.7046 18.6639 29.0607 19.4738 29.0607C20.2838 29.0607 20.9396 29.7046 20.9396 30.4998V36.5608C20.9396 37.3561 20.2838 38 19.4738 38Z" fill="#0B376B"/>
<g id="Group_2">
<g id="Group_3">
<g id="Group_4">
<path id="Vector_4" d="M53.6221 14.1418C53.2645 14.1418 52.9906 14.048 52.7988 13.8589C52.607 13.6705 52.5115 13.4008 52.5115 13.0513V1.50168C52.5115 1.15134 52.607 0.881599 52.7988 0.694095C52.9906 0.505768 53.2645 0.411194 53.6221 0.411194H57.4507C59.7507 0.411194 61.5264 0.9992 62.7761 2.17439C64.0249 3.34958 64.6498 5.04699 64.6498 7.26661C64.6498 8.37107 64.4915 9.35053 64.174 10.2075C63.8566 11.0644 63.39 11.7823 62.7761 12.3596C62.1613 12.9378 61.4108 13.3786 60.5247 13.6837C59.6385 13.9888 58.6141 14.1418 57.4507 14.1418H53.6221ZM54.5736 12.4476H57.3309C58.2037 12.4476 58.9601 12.3407 59.6025 12.1261C60.2432 11.9114 60.7826 11.5907 61.219 11.1622C61.6554 10.7338 61.9787 10.1943 62.1915 9.54544C62.4025 8.89657 62.5089 8.13669 62.5089 7.26661C62.5089 5.53959 62.075 4.24845 61.209 3.39152C60.3429 2.53377 59.0505 2.10613 57.3309 2.10613H54.5736V12.4476Z" fill="#0B376B"/>
<path id="Vector_5" d="M57.4508 14.5529H53.6222C53.1515 14.5529 52.7746 14.4173 52.5024 14.15C52.231 13.8835 52.0928 13.5134 52.0928 13.0513V1.50168C52.0928 1.0395 52.231 0.669422 52.5024 0.402969C52.7762 0.135694 53.1523 0 53.6222 0H57.4508C59.8522 0 61.7409 0.631593 63.066 1.87669C64.3952 3.12753 65.0695 4.9409 65.0695 7.2666C65.0695 8.41383 64.9011 9.45004 64.5678 10.3481C64.2302 11.2609 63.7243 12.0381 63.066 12.6573C62.411 13.2733 61.6027 13.7495 60.663 14.0727C59.7366 14.3918 58.6561 14.5529 57.4508 14.5529ZM53.6222 0.822386C53.3793 0.822386 53.2059 0.875019 53.0937 0.985219C52.984 1.09295 52.9304 1.26236 52.9304 1.50168V13.0513C52.9304 13.2906 52.984 13.46 53.0945 13.5686C53.2059 13.6779 53.3785 13.7306 53.6222 13.7306H57.4508C58.5615 13.7306 59.549 13.5842 60.3857 13.2963C61.2116 13.0118 61.9185 12.5965 62.4872 12.0628C63.0517 11.5315 63.4873 10.8604 63.7813 10.0668C64.0803 9.25925 64.2319 8.31679 64.2319 7.2666C64.2319 5.17363 63.6448 3.56011 62.4872 2.47127C61.323 1.3775 59.6285 0.822386 57.4508 0.822386H53.6222ZM57.331 12.8588H54.1549V1.69494H57.331C59.1586 1.69494 60.5633 2.16863 61.5064 3.10286C62.4487 4.03545 62.9269 5.4368 62.9269 7.2666C62.9269 8.17452 62.813 8.98292 62.5902 9.67126C62.3574 10.381 61.9956 10.9805 61.5148 11.4534C61.0357 11.9238 60.4376 12.2815 59.7374 12.5159C59.0556 12.7429 58.2465 12.8588 57.331 12.8588ZM54.9925 12.0364H57.331C58.1535 12.0364 58.873 11.9361 59.4677 11.7371C60.0448 11.5438 60.5348 11.2527 60.9226 10.8719C61.3087 10.492 61.6019 10.0035 61.7929 9.41961C61.9897 8.81351 62.0894 8.08899 62.0894 7.2666C62.0894 5.66131 61.6923 4.45487 60.9117 3.68182C60.1311 2.9096 58.9266 2.51732 57.331 2.51732H54.9925V12.0364Z" fill="#0B376B"/>
</g>
<g id="Group_5">
<path id="Vector_6" d="M71.7326 14.3169C70.6739 14.3169 69.7652 14.1196 69.0055 13.7232C68.2449 13.3276 67.6561 12.7618 67.2398 12.0282C66.8236 11.2947 66.615 10.4213 66.615 9.40811C66.615 8.42207 66.8202 7.55774 67.2298 6.81842C67.6394 6.07827 68.2014 5.50013 68.9158 5.08482C69.6303 4.66952 70.4436 4.46146 71.3557 4.46146C72.0308 4.46146 72.6314 4.56919 73.1607 4.78301C73.6892 4.99765 74.1424 5.30934 74.5193 5.71806C74.8962 6.12761 75.181 6.62433 75.3728 7.20905C75.5646 7.79294 75.6609 8.44921 75.6609 9.1762C75.6609 9.39742 75.5939 9.56272 75.4624 9.67292C75.3301 9.78394 75.1307 9.83904 74.8677 9.83904H68.2022V8.63095H74.3116L73.9749 8.90399C73.9749 8.2543 73.8785 7.70248 73.6867 7.2477C73.4949 6.79292 73.211 6.44587 72.8341 6.20574C72.4572 5.9656 71.9906 5.84553 71.4353 5.84553C70.8138 5.84553 70.2878 5.98863 69.8581 6.274C69.4276 6.55936 69.1009 6.95493 68.8765 7.46152C68.6503 7.96729 68.5398 8.55858 68.5398 9.23376V9.35054C68.5398 10.4937 68.8128 11.3539 69.3623 11.932C69.9101 12.5093 70.7066 12.7988 71.7527 12.7988C72.1498 12.7988 72.5694 12.747 73.0125 12.6434C73.4556 12.5389 73.8752 12.3638 74.2722 12.117C74.4967 11.9871 74.6994 11.9287 74.8778 11.9419C75.0562 11.955 75.2019 12.0134 75.3142 12.117C75.4264 12.2207 75.4959 12.3506 75.5227 12.5069C75.5487 12.6623 75.5227 12.8218 75.4423 12.9838C75.3636 13.1459 75.2245 13.2922 75.0269 13.4222C74.5771 13.7207 74.0544 13.9452 73.4597 14.0932C72.8625 14.2421 72.288 14.3169 71.7326 14.3169Z" fill="#0B376B"/>
<path id="Vector_7" d="M71.7326 14.7281C70.6094 14.7281 69.6261 14.5118 68.8094 14.0867C67.9802 13.6557 67.3286 13.0299 66.8738 12.2289C66.424 11.4369 66.1953 10.4879 66.1953 9.40893C66.1953 8.35792 66.4198 7.4204 66.8612 6.62186C67.3051 5.82004 67.9249 5.18351 68.7014 4.7312C69.4778 4.27889 70.3707 4.05026 71.3548 4.05026C72.0794 4.05026 72.7402 4.16951 73.3198 4.40224C73.9045 4.63991 74.412 4.98943 74.8291 5.44174C75.2463 5.89405 75.5629 6.4467 75.7706 7.0824C75.975 7.70659 76.0788 8.40973 76.0788 9.17537C76.0788 9.60466 75.8904 9.85302 75.7329 9.9846C75.5235 10.1598 75.2312 10.2486 74.8668 10.2486H69.0289C69.1311 10.8415 69.3455 11.3111 69.6679 11.6508C70.1387 12.1458 70.8196 12.3868 71.7519 12.3868C72.1129 12.3868 72.5032 12.3374 72.9144 12.2421C73.3114 12.1491 73.6925 11.9888 74.0477 11.7684C74.3266 11.6072 74.5854 11.5282 74.8283 11.5282C75.1843 11.5504 75.4163 11.6475 75.6006 11.8169C75.7798 11.983 75.8929 12.1911 75.9348 12.437C75.9758 12.6804 75.9364 12.9238 75.8183 13.1623C75.7086 13.3885 75.5202 13.5916 75.2588 13.7626C74.7722 14.0867 74.2001 14.3309 73.5619 14.4913C72.9354 14.6492 72.3197 14.7281 71.7326 14.7281ZM71.3548 4.87347C70.5231 4.87347 69.7735 5.06344 69.1285 5.43927C68.4828 5.81428 67.9676 6.34554 67.5974 7.01496C67.223 7.69097 67.0329 8.4969 67.0329 9.40893C67.0329 10.3465 67.2247 11.1598 67.605 11.8284C67.9794 12.4879 68.5171 13.0036 69.2014 13.3597C70.2618 13.9107 71.7318 14.0982 73.3542 13.6936C73.8994 13.557 74.3827 13.3506 74.7906 13.0801C74.9263 12.9912 75.0176 12.8983 75.0628 12.8054C75.1064 12.7182 75.1198 12.6442 75.1081 12.5718C75.0963 12.506 75.0712 12.4567 75.0251 12.4156C74.9992 12.3917 74.9523 12.3588 74.8459 12.3514C74.742 12.3564 74.6549 12.3695 74.4841 12.4707C74.0611 12.733 73.5945 12.9279 73.1079 13.0422C71.3406 13.4551 69.9125 13.1162 69.054 12.2116C68.5916 11.7248 68.2985 11.066 68.1796 10.2486H67.7809V8.21894H68.208C68.27 7.88834 68.3655 7.57912 68.4911 7.29704C68.7466 6.72055 69.1269 6.26084 69.6227 5.93353C70.1202 5.60211 70.7292 5.43434 71.4336 5.43434C72.0685 5.43434 72.6154 5.57826 73.0602 5.86116C73.5074 6.14817 73.8475 6.56183 74.0711 7.09062C74.211 7.42287 74.3057 7.80117 74.3534 8.21976H75.1742C75.1298 7.90643 75.062 7.61119 74.9724 7.3357C74.8007 6.81019 74.5427 6.35952 74.2068 5.99438C73.8751 5.63336 73.4689 5.35374 72.9999 5.16295C72.5241 4.97133 71.9705 4.87347 71.3548 4.87347ZM73.9849 9.42702H74.8668C75.0913 9.42702 75.1709 9.37521 75.1901 9.35877C75.2329 9.3234 75.2421 9.23952 75.2421 9.17537C75.2421 8.92126 75.2295 8.67619 75.2044 8.43934L73.9849 9.42702ZM68.9585 9.42702H73.5543V9.04133H68.961C68.9585 9.10465 68.9577 9.16879 68.9577 9.23376V9.35054C68.9577 9.37604 68.9577 9.40235 68.9585 9.42702ZM69.064 8.21894H73.5116C73.4697 7.91466 73.3986 7.64162 73.2989 7.40478C73.1397 7.02566 72.9128 6.74604 72.6054 6.55032C72.2988 6.35541 71.9051 6.25672 71.4353 6.25672C70.9017 6.25672 70.4503 6.37679 70.0926 6.61528C69.7257 6.85789 69.4535 7.18849 69.2609 7.626C69.1788 7.80857 69.1135 8.00676 69.064 8.21894Z" fill="#0B376B"/>
</g>
<g id="Group_6">
<path id="Vector_8" d="M81.5899 14.2783C81.3119 14.2783 81.0715 14.2067 80.8663 14.0636C80.661 13.9205 80.4927 13.701 80.3604 13.4008L77.0485 5.84469C76.9422 5.61114 76.902 5.38991 76.9296 5.18267C76.9556 4.97461 77.0536 4.80931 77.2261 4.68595C77.3978 4.56342 77.629 4.50092 77.9205 4.50092C78.1709 4.50092 78.3694 4.5593 78.516 4.67608C78.6609 4.79368 78.7932 4.99435 78.9122 5.27972L81.9074 12.5249H81.3521L84.4067 5.27972C84.5265 4.99352 84.6614 4.79286 84.813 4.67608C84.9646 4.5593 85.1798 4.50092 85.4579 4.50092C85.6958 4.50092 85.8842 4.56259 86.0233 4.68595C86.1623 4.80931 86.2486 4.97214 86.2821 5.17281C86.3148 5.37429 86.2787 5.59222 86.1724 5.82578L82.8203 13.4016C82.7006 13.7009 82.5356 13.9213 82.3245 14.0644C82.1117 14.2067 81.868 14.2783 81.5899 14.2783Z" fill="#0B376B"/>
<path id="Vector_9" d="M81.59 14.6895C81.2248 14.6895 80.9007 14.5916 80.6243 14.3992C80.3571 14.2125 80.1385 13.932 79.976 13.5644L76.6642 6.0067C76.5276 5.70817 76.4765 5.41047 76.5142 5.12921C76.5544 4.81259 76.7153 4.54285 76.9799 4.3537C77.4481 4.01899 78.3142 3.98692 78.7799 4.35699C78.9851 4.52311 79.1543 4.77394 79.3 5.12592L81.6369 10.7765L84.0207 5.12346C84.1689 4.76819 84.344 4.51654 84.5559 4.35288C84.9906 4.01817 85.8483 3.97952 86.3048 4.38002C86.5158 4.56835 86.6465 4.81177 86.6959 5.10619C86.7428 5.38991 86.6951 5.68761 86.5552 5.99354L83.2057 13.5653C83.0616 13.9255 82.8439 14.2125 82.5633 14.4024C82.2785 14.5932 81.9518 14.6895 81.59 14.6895ZM77.9205 4.91293C77.722 4.91293 77.5713 4.94829 77.4724 5.01901C77.3937 5.07494 77.3568 5.13826 77.3451 5.23448C77.3275 5.36688 77.3568 5.51491 77.4306 5.67775L80.7449 13.2396C80.8454 13.4649 80.9685 13.631 81.1092 13.7289C81.3798 13.9181 81.8053 13.9164 82.0892 13.7256C82.2282 13.631 82.3438 13.4707 82.4309 13.2519L85.7888 5.66212C85.8625 5.50093 85.8885 5.35948 85.8692 5.23777C85.8516 5.13004 85.8114 5.05109 85.7436 4.99023C85.7227 4.97214 85.6556 4.9121 85.4597 4.9121C85.2838 4.9121 85.1472 4.94335 85.0735 4.99928C85.0208 5.03957 84.9161 5.1506 84.7963 5.43514L82.0867 11.8604L82.5306 12.9353H80.7273L81.1813 11.8572L78.5261 5.4335C78.4063 5.14566 78.3025 5.03382 78.2514 4.99188C78.1835 4.94089 78.0713 4.91293 77.9205 4.91293Z" fill="#0B376B"/>
</g>
<g id="Group_7">
<path id="Vector_10" d="M91.5481 14.3169C90.966 14.3169 90.3688 14.252 89.7532 14.1229C89.1384 13.9929 88.5722 13.7717 88.0571 13.46C87.8854 13.3432 87.7656 13.2133 87.7003 13.0702C87.6333 12.9271 87.6106 12.7815 87.6299 12.6327C87.65 12.483 87.7103 12.3531 87.8091 12.2429C87.908 12.1319 88.0345 12.0636 88.1861 12.0381C88.3377 12.0126 88.5002 12.0447 88.6719 12.1351C89.187 12.4213 89.6828 12.6195 90.1586 12.7297C90.6343 12.8399 91.1042 12.895 91.5674 12.895C92.2685 12.895 92.7978 12.7717 93.1546 12.525C93.5123 12.2782 93.6915 11.9476 93.6915 11.5315C93.6915 11.1943 93.5717 10.932 93.3339 10.7428C93.096 10.5545 92.7392 10.409 92.2626 10.3053L90.3789 9.93526C89.5589 9.76667 88.9365 9.46815 88.5136 9.03886C88.0897 8.6104 87.8787 8.06515 87.8787 7.40313C87.8787 6.80608 88.0437 6.28716 88.3745 5.84471C88.7054 5.40391 89.1677 5.06262 89.7632 4.82249C90.3579 4.58235 91.0456 4.46228 91.8262 4.46228C92.4075 4.46228 92.957 4.53383 93.4721 4.67692C93.988 4.82002 94.4646 5.03466 94.9002 5.31921C95.0719 5.41049 95.1849 5.53056 95.2377 5.67941C95.2905 5.82826 95.3005 5.97465 95.2679 6.11774C95.2335 6.26084 95.1648 6.38666 95.0585 6.49769C94.9529 6.60789 94.8248 6.67285 94.6723 6.69177C94.5199 6.71068 94.3515 6.67532 94.1664 6.58486C93.7686 6.33814 93.3757 6.16215 92.9854 6.05853C92.596 5.95491 92.2081 5.9031 91.8254 5.9031C91.1235 5.9031 90.5983 6.02975 90.2482 6.28304C89.8973 6.53634 89.7222 6.87681 89.7222 7.30527C89.7222 7.63011 89.8277 7.89657 90.0396 8.10381C90.2516 8.31187 90.5816 8.46154 91.0322 8.55201L92.9167 8.92208C93.7753 9.09067 94.4269 9.37686 94.87 9.77901C95.3131 10.1812 95.5342 10.7264 95.5342 11.4147C95.5342 12.3103 95.1707 13.0184 94.4437 13.5373C93.7175 14.0579 92.7509 14.3169 91.5481 14.3169Z" fill="#0B376B"/>
<path id="Vector_11" d="M91.548 14.7281C90.9408 14.7281 90.3084 14.6599 89.666 14.525C89.006 14.3852 88.3912 14.1442 87.8375 13.8103C87.5829 13.6393 87.4145 13.4501 87.3182 13.2396C87.2202 13.0307 87.185 12.8079 87.2144 12.5801C87.2462 12.3473 87.3408 12.1434 87.4949 11.9715C87.6549 11.7922 87.8693 11.6754 88.1148 11.6335C88.3585 11.5915 88.6156 11.6392 88.8703 11.7741C89.3569 12.0439 89.8201 12.2305 90.254 12.3309C90.6979 12.4328 91.1393 12.4855 91.5665 12.4855C92.1762 12.4855 92.6294 12.386 92.9116 12.1902C93.1604 12.0192 93.2709 11.8169 93.2709 11.5332C93.2709 11.2593 93.1629 11.1392 93.0691 11.0644C92.8831 10.9172 92.5808 10.7979 92.1704 10.7083L90.2958 10.3399C89.3921 10.154 88.6919 9.81273 88.2119 9.3267C87.7127 8.82257 87.4598 8.17618 87.4598 7.40478C87.4598 6.72138 87.6533 6.11528 88.036 5.60375C88.4121 5.1021 88.9389 4.71229 89.6032 4.44419C90.2473 4.18514 90.9944 4.05273 91.8253 4.05273C92.4426 4.05273 93.0347 4.13004 93.585 4.28218C94.1404 4.43679 94.6605 4.67035 95.1321 4.97874C95.3649 5.10045 95.545 5.29865 95.6329 5.54537C95.7125 5.76741 95.7268 5.9911 95.6773 6.20985C95.6246 6.42861 95.5199 6.6194 95.3641 6.78141C95.1907 6.96234 94.9754 7.07007 94.7267 7.10214L94.591 7.11037C94.3958 7.11037 94.1898 7.05856 93.9804 6.95576C93.5817 6.71069 93.2232 6.55114 92.8773 6.45904C92.5247 6.36528 92.1712 6.31759 91.8269 6.31759C91.2205 6.31759 90.7733 6.41874 90.4977 6.61693C90.2556 6.7921 90.1426 7.01086 90.1426 7.30856C90.1426 7.52485 90.2037 7.68604 90.336 7.81515C90.4893 7.96565 90.7515 8.07831 91.1175 8.15151L92.9996 8.52158C93.931 8.70497 94.6563 9.02653 95.1555 9.47966C95.6849 9.96076 95.9537 10.6129 95.9537 11.4172C95.9537 12.4485 95.5291 13.275 94.6907 13.872C93.8949 14.4403 92.8371 14.7281 91.548 14.7281ZM88.289 12.4411C88.1994 12.4542 88.1592 12.4748 88.124 12.5151C88.0787 12.5653 88.0545 12.6195 88.0444 12.6878C88.0352 12.7593 88.0469 12.8268 88.0804 12.8991C88.1148 12.974 88.1885 13.0505 88.2948 13.122C88.7488 13.395 89.2748 13.6006 89.8419 13.7207C90.4257 13.8432 91.0003 13.9066 91.548 13.9066C92.6562 13.9066 93.5482 13.6714 94.1982 13.2059C94.8155 12.7651 95.1161 12.1796 95.1161 11.4156C95.1161 10.8415 94.9428 10.4048 94.586 10.0816C94.2023 9.73296 93.6127 9.47884 92.8354 9.32587L90.9508 8.9558C90.4114 8.84725 90.0186 8.66468 89.7447 8.39493C89.4524 8.10957 89.305 7.74278 89.305 7.30609C89.305 6.74852 89.5462 6.2814 90.0018 5.95245C90.4299 5.64323 91.0271 5.49273 91.8269 5.49273C92.2449 5.49273 92.6721 5.54948 93.0967 5.66297C93.5231 5.77646 93.9586 5.96972 94.3916 6.23781C94.4469 6.26249 94.5282 6.28634 94.5918 6.28634C94.6756 6.27811 94.7149 6.25755 94.7543 6.21643C94.8096 6.15969 94.8431 6.09719 94.8615 6.02399C94.8766 5.95985 94.8707 5.89241 94.8439 5.81593C94.8372 5.79784 94.818 5.74274 94.7015 5.68106C94.2702 5.40145 93.8305 5.20325 93.3589 5.07332C92.2483 4.7641 90.8704 4.82084 89.9231 5.20408C89.403 5.41378 88.9959 5.71149 88.712 6.08896C88.4339 6.4615 88.2982 6.89243 88.2982 7.40396C88.2982 7.96154 88.4666 8.40234 88.8142 8.75349C89.1768 9.1211 89.7321 9.38344 90.465 9.53394L92.3446 9.90319C92.8974 10.0233 93.3045 10.1935 93.5968 10.4238C93.9326 10.6902 94.1102 11.0734 94.1102 11.5332C94.1102 12.0809 93.8631 12.5406 93.3949 12.863C92.9619 13.1623 92.3647 13.3079 91.5673 13.3079C91.0756 13.3079 90.5697 13.2487 90.063 13.1311C89.5512 13.0126 89.0135 12.7988 88.4657 12.4954C88.4021 12.46 88.3401 12.4411 88.289 12.4411Z" fill="#0B376B"/>
</g>
</g>
</g>
<g id="Group_8">
<path id="Vector_12" d="M60.7232 28.573H54.9925V17.9404C54.9925 17.4913 54.8618 17.1352 54.603 16.8819C54.3442 16.6262 53.9874 16.4971 53.5418 16.4971C53.0962 16.4971 52.7394 16.6262 52.4814 16.8811C52.2217 17.1352 52.0911 17.4913 52.0911 17.9404V29.6849C52.0911 30.1207 52.2259 30.4743 52.4914 30.7342C52.7569 30.9949 53.1171 31.1281 53.561 31.1281H60.7224C61.1269 31.1281 61.4536 31.0089 61.6932 30.7737C61.9319 30.5393 62.0533 30.2252 62.0533 29.8403C62.0533 29.4521 61.9302 29.1388 61.6865 28.9102C61.4494 28.6873 61.1253 28.573 60.7232 28.573Z" fill="#0B376B"/>
<path id="Vector_13" d="M71.7852 26.5606C71.9426 26.429 72.1311 26.1806 72.1311 25.7514C72.1311 24.9857 72.0272 24.2826 71.8228 23.6584C71.6151 23.0227 71.2985 22.47 70.8814 22.0177C70.4643 21.5654 69.9567 21.2159 69.3721 20.9782C68.7933 20.7455 68.1324 20.6263 67.4071 20.6263C66.4229 20.6263 65.5309 20.8549 64.7536 21.3072C63.9763 21.7595 63.3574 22.396 62.9134 23.1979C62.472 23.9964 62.2476 24.9331 62.2476 25.9849C62.2476 27.0639 62.4754 28.0129 62.926 28.8049C63.3808 29.6059 64.0316 30.2309 64.8617 30.6627C65.6792 31.0886 66.6616 31.3041 67.7848 31.3041C68.372 31.3041 68.9885 31.2243 69.6141 31.0673C70.2532 30.9085 70.8244 30.6627 71.3111 30.3386C71.5724 30.1676 71.7609 29.9644 71.8706 29.7383C71.9887 29.4998 72.0281 29.2564 71.987 29.0129C71.9443 28.7671 71.8312 28.559 71.6528 28.3929C71.4685 28.2235 71.2365 28.1272 70.8806 28.1042C70.6377 28.1042 70.3788 28.1832 70.0999 28.3443C69.7448 28.5656 69.3637 28.7251 68.9667 28.818C68.5563 28.9134 68.1651 28.9628 67.8041 28.9628C66.8719 28.9628 66.1901 28.7218 65.7202 28.2267C65.3977 27.8871 65.1833 27.4175 65.0811 26.8246H70.9191C71.2834 26.8246 71.5758 26.7358 71.7852 26.5606ZM65.3131 24.2012C65.5058 23.7637 65.7788 23.4331 66.1448 23.1905C66.5025 22.9528 66.954 22.8319 67.4875 22.8319C67.9582 22.8319 68.351 22.9306 68.6576 23.1255C68.965 23.3212 69.192 23.6008 69.3511 23.9799C69.4508 24.2168 69.522 24.4898 69.5639 24.7941H65.1163C65.1657 24.5828 65.231 24.3837 65.3131 24.2012Z" fill="#0B376B"/>
<path id="Vector_14" d="M80.2751 21.0769C79.2926 20.6114 77.8629 20.4692 76.2086 20.8113C75.6106 20.933 74.9991 21.1402 74.4229 21.4116C74.113 21.5259 73.8877 21.7077 73.7553 21.9511C73.633 22.1715 73.5753 22.4034 73.5845 22.6411C73.5945 22.8788 73.6682 23.1008 73.8039 23.3023C73.9538 23.521 74.1691 23.6707 74.4288 23.7349C74.6859 23.7965 74.9615 23.7587 75.2957 23.6041C75.7538 23.3738 76.1977 23.2085 76.6165 23.1131C77.0412 23.0169 77.4533 22.9676 77.8411 22.9676C78.4467 22.9676 78.8721 23.0885 79.1067 23.3278C79.3445 23.5712 79.466 24.0128 79.466 24.6403V24.7349H79.2105C77.759 24.7349 76.5847 24.8262 75.722 25.0071C74.7956 25.2004 74.1105 25.5392 73.6875 26.0153C73.2578 26.4997 73.04 27.1511 73.04 27.9512C73.04 28.5911 73.2176 29.1733 73.5677 29.6815C73.9111 30.1807 74.3894 30.5812 74.9891 30.8707C75.5804 31.1577 76.2539 31.3025 76.9893 31.3025C77.5865 31.3025 78.1292 31.1997 78.605 30.9957C78.9651 30.8411 79.2859 30.6322 79.5615 30.3707C79.6226 30.5648 79.7231 30.7326 79.8605 30.8732C80.1135 31.1322 80.4485 31.2638 80.8572 31.2638C81.3908 31.2638 81.6998 31.0451 81.864 30.8625C82.0918 30.6117 82.2074 30.2737 82.2074 29.8592V24.8533C82.2074 23.9109 82.0533 23.123 81.7493 22.5112C81.4293 21.8722 80.9335 21.3886 80.2751 21.0769ZM78.4534 28.8008C78.1476 28.9883 77.7984 29.0787 77.3854 29.0787C76.8795 29.0787 76.5043 28.9636 76.2379 28.7259C75.9833 28.5022 75.8602 28.2103 75.8602 27.8345C75.8602 27.5746 75.9305 27.3813 76.0763 27.2473C76.1927 27.1395 76.454 26.9915 77.0378 26.8961C77.5689 26.8098 78.3068 26.7654 79.2298 26.7654H79.4652V26.8805C79.4652 27.3147 79.373 27.6996 79.1896 28.0269C79.0053 28.3559 78.7641 28.6091 78.4534 28.8008Z" fill="#0B376B"/>
<path id="Vector_15" d="M90.4969 20.8944C90.2909 20.7028 90.0245 20.6049 89.7071 20.6049L89.6133 20.6074C88.6534 20.6781 87.8468 20.9396 87.2178 21.3853C87.0947 21.4717 86.9782 21.5679 86.8693 21.6707C86.8157 21.4199 86.7069 21.2102 86.5435 21.0432C86.2964 20.7924 85.9514 20.6649 85.5183 20.6649C85.0995 20.6649 84.7595 20.7899 84.5074 21.0383C84.2552 21.2858 84.1279 21.6329 84.1279 22.0696V29.86C84.1279 30.2811 84.2536 30.6224 84.5007 30.874C84.7536 31.1331 85.1096 31.2647 85.5577 31.2647C86.0226 31.2647 86.3827 31.1314 86.629 30.8699C86.8668 30.6166 86.9883 30.277 86.9883 29.86V25.4389C86.9883 24.7522 87.17 24.2341 87.5453 23.855C87.9197 23.4758 88.4926 23.2489 89.2514 23.1798L89.62 23.1411C90.0337 23.1066 90.3545 22.9651 90.5732 22.7209C90.7976 22.4717 90.8914 22.1477 90.8554 21.7776C90.837 21.3993 90.7172 21.1016 90.4969 20.8944Z" fill="#0B376B"/>
<path id="Vector_16" d="M99.2999 21.0975C98.7286 20.7841 98.0167 20.6263 97.1808 20.6263C96.3005 20.6263 95.5073 20.8327 94.8221 21.2406C94.6211 21.3606 94.4343 21.498 94.2635 21.6518C94.2082 21.4092 94.101 21.206 93.9427 21.0448C93.6964 20.7932 93.3505 20.6657 92.9158 20.6657C92.4987 20.6657 92.1586 20.7907 91.9065 21.0391C91.6535 21.2875 91.5254 21.6345 91.5254 22.0704V29.8608C91.5254 30.2811 91.6519 30.6224 91.8998 30.8748C92.1527 31.1339 92.502 31.2655 92.9359 31.2655C93.8455 31.2655 94.3665 30.7539 94.3665 29.8608V25.3426C94.3665 24.6148 94.565 24.0572 94.9737 23.6411C95.3774 23.2283 95.9118 23.0276 96.6062 23.0276C97.169 23.0276 97.561 23.165 97.8031 23.4462C98.0602 23.7447 98.1901 24.2587 98.1901 24.9726V29.8608C98.1901 30.2811 98.3165 30.6224 98.5645 30.8748C98.8174 31.1339 99.1734 31.2655 99.6215 31.2655C100.056 31.2655 100.405 31.1347 100.656 30.8757C100.905 30.6215 101.031 30.2802 101.031 29.8608V24.855C101.031 23.9462 100.893 23.1732 100.619 22.558C100.332 21.9125 99.8878 21.4215 99.2999 21.0975Z" fill="#0B376B"/>
<path id="Vector_17" d="M104.362 20.7044C103.926 20.7044 103.575 20.8401 103.321 21.1082C103.076 21.3672 102.952 21.7241 102.952 22.1674V29.763C102.952 30.2038 103.074 30.5615 103.317 30.8263C103.492 31.0171 103.815 31.2457 104.363 31.2457C104.815 31.2457 105.172 31.1051 105.428 30.8263C105.67 30.5615 105.793 30.2038 105.793 29.763V22.1674C105.793 21.7208 105.664 21.3623 105.408 21.1024C105.146 20.8384 104.794 20.7044 104.362 20.7044Z" fill="#0B376B"/>
<path id="Vector_18" d="M104.362 16.4592C103.862 16.4592 103.459 16.5883 103.163 16.8441C102.851 17.113 102.693 17.4954 102.693 17.9806C102.693 18.451 102.85 18.8285 103.157 19.1016C103.453 19.3664 103.858 19.5012 104.362 19.5012C104.864 19.5012 105.269 19.3672 105.565 19.1024C105.873 18.8285 106.03 18.451 106.03 17.9806C106.03 17.4954 105.873 17.113 105.559 16.8433C105.265 16.5883 104.861 16.4592 104.362 16.4592Z" fill="#2197F9"/>
<path id="Vector_19" d="M115.545 21.0975C114.975 20.785 114.263 20.6263 113.427 20.6263C112.546 20.6263 111.752 20.8327 111.067 21.2406C110.866 21.3606 110.679 21.498 110.508 21.6518C110.453 21.4092 110.347 21.206 110.188 21.044C109.941 20.7932 109.595 20.6657 109.162 20.6657C108.744 20.6657 108.404 20.7907 108.151 21.0391C107.899 21.2866 107.771 21.6345 107.771 22.0704V29.8608C107.771 30.2811 107.897 30.6232 108.145 30.8748C108.398 31.1339 108.747 31.2655 109.181 31.2655C110.091 31.2655 110.611 30.7539 110.611 29.8608V25.3426C110.611 24.6156 110.81 24.0581 111.219 23.6411C111.622 23.2283 112.157 23.0276 112.851 23.0276C113.415 23.0276 113.807 23.165 114.049 23.4462C114.306 23.7447 114.436 24.2587 114.436 24.9726V29.8608C114.436 30.2811 114.562 30.6232 114.809 30.8748C115.062 31.1339 115.418 31.2655 115.867 31.2655C116.301 31.2655 116.65 31.1347 116.902 30.8757C117.151 30.6224 117.276 30.2802 117.276 29.8608V24.855C117.276 23.9446 117.138 23.1715 116.865 22.558C116.578 21.9125 116.133 21.4207 115.545 21.0975Z" fill="#0B376B"/>
<path id="Vector_20" d="M128.62 21.0391C128.367 20.7907 128.021 20.6657 127.59 20.6657C127.176 20.6657 126.834 20.7891 126.577 21.0325C126.405 21.1937 126.289 21.3976 126.228 21.6411C126.1 21.5259 125.96 21.4182 125.81 21.3187C125.114 20.8582 124.292 20.6254 123.365 20.6254C122.664 20.6254 122.01 20.7513 121.424 21.0004C120.834 21.2504 120.324 21.6098 119.907 22.0687C119.496 22.5235 119.175 23.0671 118.952 23.6855C118.733 24.299 118.621 24.9939 118.621 25.7505C118.621 26.758 118.816 27.6544 119.199 28.4167C119.59 29.1898 120.15 29.8033 120.86 30.2375C121.572 30.6733 122.413 30.8946 123.363 30.8946C124.278 30.8946 125.096 30.6618 125.797 30.2021C125.948 30.1034 126.088 29.9973 126.217 29.8822V30.152C126.217 30.9316 126.025 31.5188 125.643 31.8987C125.067 32.4719 123.931 32.615 122.488 32.3115C122.006 32.2087 121.487 32.0097 120.943 31.7186C120.678 31.578 120.4 31.541 120.153 31.6035C119.92 31.6627 119.719 31.7844 119.559 31.9612C119.404 32.1306 119.301 32.3313 119.253 32.5615C119.202 32.8017 119.228 33.0385 119.329 33.2663C119.434 33.5007 119.629 33.6948 119.892 33.8321C120.472 34.1792 121.126 34.4316 121.835 34.5838C122.53 34.7326 123.257 34.8067 123.997 34.8067C125.598 34.8067 126.844 34.3872 127.702 33.5591C128.562 32.7293 128.998 31.5031 128.998 29.9159V22.0671C129 21.6345 128.872 21.2866 128.62 21.0391ZM125.1 28.2103C124.763 28.4249 124.338 28.5343 123.839 28.5343C123.114 28.5343 122.556 28.3008 122.133 27.8197C121.7 27.3279 121.482 26.633 121.482 25.7514C121.482 25.1666 121.585 24.6601 121.788 24.2439C121.986 23.8368 122.251 23.5326 122.599 23.3113C122.943 23.0934 123.35 22.9873 123.839 22.9873C124.577 22.9873 125.139 23.2201 125.554 23.6995C125.981 24.1921 126.198 24.8821 126.198 25.7505C126.198 26.3377 126.098 26.8501 125.9 27.2736C125.706 27.6856 125.446 27.9915 125.1 28.2103Z" fill="#0B376B"/>
</g>
<g id="Group_9">
<path id="Vector_21" d="M37.4818 24.6338H1.46558V29.9431H37.4818V24.6338Z" fill="#0B376B"/>
<path id="Vector_22" d="M37.9007 30.3543H1.04688V24.2226H37.9007V30.3543ZM1.88446 29.5319H37.0631V25.045H1.88446V29.5319Z" fill="#0B376B"/>
</g>
<g id="Group_10">
<g id="Group_11">
<g id="Group_12">
<path id="Vector_23" d="M19.4931 29.1043C19.1095 29.1043 18.7988 28.9867 18.5609 28.7531C18.323 28.5195 18.2041 28.2218 18.2041 27.8575C18.2041 27.4949 18.323 27.1988 18.5609 26.9718C18.7988 26.7448 19.1095 26.6305 19.4931 26.6305C19.8768 26.6305 20.1808 26.7448 20.4061 26.9718C20.6306 27.1988 20.7428 27.4949 20.7428 27.8575C20.7428 28.221 20.6298 28.5195 20.4061 28.7531C20.1816 28.9867 19.8768 29.1043 19.4931 29.1043Z" fill="#2197F9"/>
<path id="Vector_24" d="M19.4932 29.5155C18.9966 29.5155 18.5828 29.3576 18.2645 29.0442C17.9462 28.7317 17.7854 28.3329 17.7854 27.8583C17.7854 27.3814 17.9479 26.9841 18.2687 26.6774C18.587 26.3739 18.9991 26.2193 19.4932 26.2193C19.9924 26.2193 20.4003 26.3756 20.7061 26.6848C21.0084 26.9916 21.1617 27.3863 21.1617 27.8575C21.1617 28.3263 21.0101 28.7235 20.7111 29.0352C20.4045 29.3534 19.995 29.5155 19.4932 29.5155ZM19.4932 27.0417C19.221 27.0417 19.0116 27.1157 18.8525 27.2662C18.695 27.4159 18.623 27.6034 18.623 27.8575C18.623 28.1141 18.6975 28.3057 18.8567 28.462C19.1699 28.7704 19.8115 28.772 20.1013 28.4702C20.2513 28.3148 20.3241 28.1133 20.3241 27.8575C20.3241 27.6034 20.2521 27.4069 20.1047 27.258C19.9615 27.1124 19.7613 27.0417 19.4932 27.0417Z" fill="#2197F9"/>
</g>
</g>
</g>
<g id="Group_13">
<path id="Vector_25" d="M20.5284 20.0744C20.0142 20.0744 19.5158 19.8088 19.2478 19.3376C18.8524 18.6435 19.1054 17.7668 19.8123 17.3795L25.327 14.3539L19.8123 11.3292C19.1054 10.9418 18.8524 10.0652 19.2478 9.37107C19.6414 8.6778 20.5318 8.42697 21.2421 8.81678L29.0467 13.0973C29.5107 13.3514 29.7972 13.8325 29.7972 14.3531C29.7972 14.8737 29.5099 15.3556 29.0467 15.6089L21.2421 19.8902C21.0151 20.016 20.7697 20.0744 20.5284 20.0744Z" fill="#2197F9"/>
<g id="Group_14">
<g id="Group_15">
<path id="Vector_26" d="M12.2146 20.8598C12.1485 21.067 12.0429 21.2175 11.8972 21.308C11.7515 21.3985 11.5931 21.4445 11.4214 21.4445C11.2497 21.4445 11.0939 21.4018 10.9549 21.3179C10.8159 21.234 10.717 21.1131 10.6576 20.9577C10.5989 20.8022 10.6023 20.6139 10.6676 20.3927L15.3296 6.21393C15.395 6.00669 15.5013 5.85372 15.6471 5.75586C15.792 5.65882 15.9469 5.61358 16.1136 5.62016C16.2786 5.62674 16.431 5.67197 16.5692 5.75586C16.7083 5.84139 16.8071 5.95734 16.8666 6.10702C16.9261 6.25669 16.9294 6.44091 16.8766 6.66213L12.2146 20.8598Z" fill="#2197F9"/>
<path id="Vector_27" d="M11.4213 22.0613C11.1324 22.0613 10.8643 21.9873 10.6248 21.8417C10.3693 21.6871 10.1775 21.456 10.0695 21.1731C9.96227 20.8886 9.96059 20.5695 10.0645 20.2192L14.7315 6.02314C14.837 5.68843 15.0271 5.42445 15.2918 5.24681C15.5331 5.08398 15.7986 5.00174 16.0817 5.00174C16.4108 5.01408 16.6663 5.08974 16.8975 5.22954C17.1571 5.38744 17.3414 5.60619 17.4511 5.88005C17.5583 6.14815 17.5709 6.45819 17.4871 6.80277L12.8126 21.0481C12.702 21.3935 12.5069 21.6575 12.2346 21.8269C11.9867 21.9832 11.7128 22.0613 11.4213 22.0613ZM16.0867 6.23614C16.0624 6.23614 16.0398 6.23943 16.0004 6.26492C15.977 6.28137 15.9493 6.32989 15.9292 6.39568L11.2647 20.5818C11.232 20.6937 11.2463 20.7422 11.2463 20.7422C11.4021 20.8894 11.4699 20.8442 11.5604 20.7874C11.5604 20.7874 11.5872 20.7636 11.6148 20.6748L16.2785 6.47217C16.2927 6.40555 16.2869 6.34552 16.2819 6.33154C16.1931 6.25259 16.1445 6.23861 16.0892 6.23614C16.0875 6.23614 16.0867 6.23614 16.0867 6.23614Z" fill="#2197F9"/>
</g>
</g>
</g>
</g>
</g>
<defs>
<clipPath id="clip0_133_147">
<rect width="129" height="38" fill="white"/>
</clipPath>
</defs>
</svg>
