<svg width="460" height="337" viewBox="0 0 460 337" fill="none" xmlns="http://www.w3.org/2000/svg">
<g clip-path="url(#clip0_381_972)">
<path d="M241.714 153.079C229.713 146.122 202.398 150.125 202.398 150.125L199.922 156.3C199.922 156.3 214.468 179.626 218.2 210.868C221.145 235.505 229.775 295.874 229.775 295.874L256.09 295.363L283.506 208.304C283.506 208.304 253.715 160.037 241.714 153.079ZM228.509 243.676C228.044 243.676 227.666 243.297 227.666 242.833C227.666 236.72 227.346 230.514 227.036 224.517C226.72 218.387 226.391 212.048 226.405 205.78C226.408 204.522 226.417 203.265 226.425 202.004C226.486 192.845 226.548 183.371 224.251 174.328C223.125 169.902 220.931 166.102 218.81 162.427C217.161 159.572 215.455 156.619 214.246 153.376C214.082 152.94 214.305 152.454 214.741 152.291C215.172 152.125 215.66 152.348 215.825 152.786C216.984 155.898 218.655 158.788 220.269 161.584C222.448 165.357 224.702 169.26 225.884 173.914C228.236 183.167 228.172 192.751 228.111 202.018C228.103 203.272 228.094 204.529 228.091 205.783C228.077 212.004 228.406 218.321 228.721 224.431C229.032 230.448 229.352 236.675 229.352 242.833C229.351 243.297 228.973 243.676 228.509 243.676Z" fill="#0B376B"/>
<path d="M179.962 257.34C174.313 256.317 174.313 256.317 174.313 256.317C174.313 256.317 169.164 218.532 166.307 148.726C166.307 148.726 123.446 145.638 112.709 162.493C101.973 179.348 85.1283 263.904 93.129 276.123C99.0596 285.183 118.45 292.672 135.75 294.546C141.781 295.202 147.56 295.171 152.423 294.29C171.237 290.873 175.989 288.798 175.989 288.798C175.989 288.798 180.27 267.858 188.685 265.589C188.685 265.589 185.61 258.369 179.962 257.34ZM164.001 254.138C163.89 254.187 163.774 254.21 163.661 254.21C163.339 254.21 163.029 254.023 162.891 253.706C161.598 250.777 161.337 247.344 161.084 244.025C160.978 242.646 160.878 241.342 160.71 240.091C159.95 234.482 158.788 228.687 157.663 223.085L156.701 218.242C154.171 205.397 151.783 193.267 153.013 179.59C153.262 176.813 153.627 173.882 153.979 171.048C154.833 164.205 155.714 157.13 155.241 150.612C155.207 150.148 155.558 149.744 156.021 149.71C156.482 149.671 156.887 150.027 156.922 150.491C157.405 157.175 156.514 164.335 155.65 171.257C155.283 174.207 154.936 176.993 154.69 179.742C153.482 193.177 155.741 204.639 158.354 217.915L159.315 222.751C160.446 228.38 161.613 234.2 162.378 239.862C162.553 241.165 162.66 242.552 162.763 243.895C163.006 247.072 163.257 250.357 164.431 253.024C164.619 253.454 164.426 253.949 164.001 254.138Z" fill="#0B376B"/>
<path d="M136.213 303.283L174.3 302.685L173.501 289.631L135.304 290.754L136.213 303.283Z" fill="#0B376B"/>
<path d="M198.359 161.155C198.221 161.155 198.083 161.121 197.955 161.05C197.588 160.848 197.424 160.408 197.571 160.015C198.388 157.836 199.255 155.689 200.121 153.546C202.284 148.197 204.517 142.663 205.789 136.885C205.888 136.43 206.34 136.147 206.793 136.243C207.248 136.344 207.534 136.793 207.435 137.248C206.134 143.164 203.87 148.763 201.683 154.177C201.037 155.773 200.391 157.372 199.766 158.985C199.917 159.255 199.914 159.597 199.729 159.87C199.559 160.121 199.373 160.367 199.188 160.61L199.031 160.817C198.87 161.037 198.617 161.155 198.359 161.155Z" fill="black"/>
<path d="M171.923 147.809C171.666 147.809 171.266 147.713 170.95 147.209C170.702 146.815 170.82 146.295 171.214 146.046C171.364 145.952 171.522 145.903 171.698 145.918C171.797 145.69 171.907 145.405 171.991 145.186C172.171 144.718 172.368 144.216 172.587 143.784C174.42 140.169 175.887 136.368 176.796 133.814C177.975 130.507 178.56 127.03 179.124 123.668C179.417 121.923 179.72 120.12 180.104 118.348C180.204 117.895 180.657 117.607 181.106 117.703C181.561 117.802 181.849 118.251 181.752 118.706C181.376 120.438 181.076 122.222 180.786 123.948C180.209 127.383 179.612 130.934 178.385 134.381C177.458 136.98 175.962 140.851 174.089 144.546C173.896 144.93 173.724 145.379 173.562 145.795C173.128 146.917 172.814 147.726 172.023 147.804C171.992 147.807 171.959 147.809 171.923 147.809Z" fill="black"/>
<path d="M177.105 118.852C176.143 118.852 175.429 118.503 174.977 118.185C172.638 116.536 172.107 112.363 172.959 109.442C173.089 108.995 173.552 108.736 174.004 108.869C174.45 108.999 174.706 109.467 174.576 109.914C173.813 112.533 174.455 115.753 175.947 116.806C176.869 117.458 178.097 117.241 179.589 116.159C179.968 115.884 180.494 115.97 180.765 116.346C181.038 116.723 180.953 117.249 180.578 117.522C179.2 118.524 178.038 118.852 177.105 118.852Z" fill="black"/>
<path d="M207.198 135.377C200.902 135.377 197.224 131.665 193.754 127.494C193.456 127.136 193.505 126.606 193.862 126.307C194.219 126.007 194.749 126.059 195.047 126.415C199.634 131.93 203.427 134.677 210.341 133.381C212.795 132.924 220.934 130.996 222.661 125.441C224.03 121.04 223.717 114.531 223.489 109.779L223.414 108.176C223.1 101.394 222.575 90.0405 219.369 84.8374C219.125 84.4413 219.248 83.9222 219.646 83.6778C220.04 83.4317 220.559 83.5565 220.804 83.9542C224.239 89.5282 224.754 100.705 225.096 108.099L225.17 109.698C225.418 114.848 225.726 121.256 224.269 125.941C222.261 132.399 213.336 134.537 210.65 135.04C209.417 135.269 208.27 135.377 207.198 135.377Z" fill="black"/>
<path d="M211.474 115.876C211.145 115.876 210.834 115.682 210.699 115.36C210.519 114.932 210.719 114.438 211.147 114.256C211.873 113.949 212.695 113.814 213.685 113.853C213.697 111.994 213.05 109.764 212.602 108.22C212.473 107.774 212.729 107.307 213.177 107.177C213.626 107.044 214.09 107.305 214.219 107.752C214.773 109.658 215.609 112.542 215.304 114.871C215.245 115.328 214.827 115.652 214.369 115.599C213.284 115.473 212.444 115.539 211.801 115.81C211.694 115.854 211.583 115.876 211.474 115.876Z" fill="black"/>
<path d="M210.331 125.234C210.237 125.234 210.142 125.232 210.048 125.228C208.158 125.159 204.683 124.298 202.645 119.289C202.47 118.857 202.677 118.367 203.107 118.192C203.533 118.015 204.03 118.224 204.203 118.653C205.8 122.577 208.295 123.479 210.107 123.545C212.492 123.622 214.422 122.361 214.756 121.687C214.961 121.271 215.467 121.101 215.884 121.305C216.302 121.51 216.472 122.016 216.267 122.434C215.583 123.818 213.066 125.234 210.331 125.234Z" fill="black"/>
<path d="M198.748 104.622C198.546 104.622 198.342 104.549 198.182 104.402C197.839 104.089 197.813 103.556 198.127 103.213L198.418 102.887C200.008 101.112 203.316 97.4161 206.798 100.013C207.172 100.292 207.247 100.821 206.97 101.193C206.69 101.568 206.163 101.643 205.79 101.365C203.719 99.8196 201.632 101.824 199.673 104.011L199.371 104.345C199.205 104.529 198.977 104.622 198.748 104.622Z" fill="black"/>
<path d="M213.516 101.532C213.259 101.532 213.004 101.414 212.839 101.192C212.563 100.818 212.64 100.29 213.014 100.012L213.2 99.8737C214.662 98.7848 216.878 97.1347 218.871 97.669C219.829 97.9219 220.569 98.6281 221.066 99.7658C221.253 100.192 221.059 100.689 220.633 100.877C220.208 101.067 219.71 100.87 219.523 100.443C219.238 99.7911 218.883 99.4169 218.44 99.2989C217.227 98.9804 215.26 100.44 214.205 101.227L214.017 101.367C213.867 101.478 213.691 101.532 213.516 101.532Z" fill="black"/>
<path d="M186.437 164.939C185.489 164.939 184.491 164.843 183.454 164.645C178.093 163.627 171.994 159.811 171.246 154.748C171.177 154.288 171.495 153.86 171.957 153.792C172.42 153.722 172.844 154.044 172.912 154.504C173.521 158.64 178.911 162.067 183.767 162.99C188.018 163.799 191.46 162.722 192.962 160.105C193.194 159.7 193.707 159.564 194.112 159.795C194.515 160.027 194.655 160.541 194.422 160.946C192.937 163.533 190.053 164.939 186.437 164.939Z" fill="black"/>
<path d="M191.135 174.827C187.615 174.827 184.046 174.03 182.169 173.351C176.934 171.456 168.871 164.569 168.155 158.089C168.105 157.627 168.437 157.209 168.9 157.158C169.385 157.116 169.779 157.441 169.83 157.903C170.466 163.658 178.024 170.057 182.742 171.768C186.705 173.203 196.958 174.667 198.804 169.778C198.969 169.341 199.457 169.124 199.89 169.287C200.325 169.452 200.545 169.938 200.38 170.374C199.087 173.792 195.144 174.827 191.135 174.827Z" fill="black"/>
<path d="M224.51 296.717C224.476 296.717 224.443 296.715 224.409 296.71C223.947 296.656 223.617 296.236 223.671 295.775C223.791 294.768 226.386 271.075 208.563 264.908C200.579 262.146 194.37 264.752 187.183 267.765C186.294 268.139 185.391 268.519 184.466 268.894C184.039 269.071 183.545 268.862 183.37 268.433C183.195 268.001 183.402 267.509 183.831 267.335C184.748 266.961 185.647 266.585 186.531 266.213C194.039 263.064 200.52 260.344 209.115 263.315C228.204 269.921 225.47 294.912 225.345 295.972C225.293 296.402 224.931 296.717 224.51 296.717Z" fill="black"/>
<path d="M219.736 296.206C219.731 296.206 219.726 296.206 219.719 296.206C219.255 296.196 218.884 295.813 218.894 295.347C218.983 290.735 217.597 279.596 212.743 274.602C212.419 274.268 212.426 273.734 212.76 273.41C213.093 273.085 213.627 273.093 213.951 273.427C218.99 278.61 220.69 289.643 220.58 295.379C220.57 295.839 220.194 296.206 219.736 296.206Z" fill="black"/>
<path d="M214.984 297.081C214.959 297.081 214.933 297.079 214.908 297.077C214.445 297.035 214.103 296.624 214.145 296.162C214.458 292.702 212.976 286.853 212.55 285.593C211.64 282.896 210.141 280.497 207.97 278.252C207.647 277.919 207.654 277.384 207.989 277.061C208.322 276.739 208.856 276.744 209.18 277.081C211.531 279.508 213.155 282.115 214.147 285.053C214.615 286.44 216.166 292.537 215.824 296.316C215.782 296.752 215.415 297.081 214.984 297.081Z" fill="black"/>
<path d="M210.825 296.717C210.772 296.717 210.718 296.712 210.665 296.702C210.208 296.614 209.908 296.172 209.996 295.714C210.863 291.197 205.086 283.184 203.496 281.642C203.162 281.318 203.154 280.784 203.477 280.45C203.802 280.115 204.335 280.108 204.668 280.43C206.152 281.869 212.704 290.528 211.65 296.033C211.572 296.435 211.219 296.717 210.825 296.717Z" fill="black"/>
<path d="M201.771 297.302C201.695 297.302 201.618 297.292 201.54 297.27C201.092 297.143 200.833 296.676 200.959 296.23C201.087 295.775 200.919 295.217 200.457 294.57C198.121 291.285 190.072 287.853 188.382 287.753C186.831 287.662 185.362 288.202 183.804 288.771C182.79 289.144 181.742 289.527 180.651 289.734C179.467 289.961 178.465 289.842 177.579 289.739C177.04 289.677 176.533 289.611 176.024 289.636C175.763 289.628 175.514 289.535 175.345 289.336C175.177 289.137 175.111 288.873 175.167 288.616L175.35 287.737C176.189 283.695 177.934 275.282 182.024 270.351C182.32 269.993 182.852 269.945 183.21 270.241C183.567 270.538 183.617 271.069 183.319 271.428C179.528 276 177.836 284.039 177.018 287.984C177.274 288.006 177.527 288.035 177.774 288.065C178.615 288.163 179.405 288.256 180.336 288.079C181.291 287.898 182.231 287.553 183.223 287.19C184.874 286.585 186.583 285.972 188.478 286.071C190.818 286.208 199.206 289.904 201.828 293.594C202.6 294.679 202.851 295.721 202.578 296.688C202.475 297.061 202.137 297.302 201.771 297.302Z" fill="black"/>
<path d="M140.597 296.095C136.959 296.095 135.071 295.397 134.52 293.983C134.35 293.55 134.566 293.061 134.998 292.892C135.428 292.72 135.92 292.938 136.088 293.371C136.361 294.066 138.519 295.436 152.694 293.088L153.774 292.913C155.438 292.66 157.409 292.176 159.496 291.667C163.779 290.62 168.205 289.538 171.369 290.036C171.828 290.108 172.142 290.539 172.071 291C171.999 291.458 171.569 291.775 171.108 291.701C168.285 291.256 163.828 292.343 159.896 293.304C157.773 293.823 155.765 294.313 154.028 294.578L152.97 294.752C147.574 295.645 143.52 296.095 140.597 296.095Z" fill="black"/>
<path d="M186.07 260.442C185.901 260.442 185.731 260.391 185.583 260.285C183.407 258.736 180.466 258.254 177.623 257.787C176.809 257.652 176.009 257.521 175.243 257.367C169.92 256.295 164.535 255.085 159.327 253.912C156.688 253.317 154.049 252.726 151.408 252.146C143.414 250.391 136.319 248.894 129.717 247.57C128.76 247.377 127.642 247.266 126.457 247.148C123.245 246.83 119.606 246.466 117.318 244.286C116.981 243.966 116.968 243.432 117.29 243.095C117.61 242.758 118.144 242.747 118.48 243.064C120.348 244.846 123.683 245.178 126.626 245.471C127.852 245.593 129.009 245.709 130.048 245.918C136.661 247.244 143.766 248.743 151.77 250.501C154.414 251.08 157.057 251.674 159.7 252.269C164.898 253.438 170.274 254.649 175.576 255.716C176.323 255.866 177.102 255.994 177.897 256.123C180.789 256.599 184.067 257.138 186.56 258.913C186.939 259.183 187.028 259.708 186.759 260.088C186.594 260.319 186.333 260.442 186.07 260.442Z" fill="black"/>
<path d="M139.235 241.148C139.06 241.148 138.882 241.092 138.73 240.978C137.135 239.774 137.64 236.434 138.407 232.515C138.558 231.743 138.691 231.069 138.749 230.588C139.116 227.546 139.049 224.649 138.978 221.579C138.936 219.714 138.89 217.782 138.956 215.837C138.971 215.372 139.362 215.021 139.825 215.023C140.29 215.04 140.654 215.427 140.639 215.894C140.576 217.792 140.62 219.7 140.662 221.544C140.731 224.536 140.802 227.629 140.421 230.791C140.359 231.3 140.221 232.019 140.059 232.84C139.7 234.674 138.86 238.967 139.742 239.633C140.115 239.912 140.189 240.44 139.909 240.812C139.742 241.032 139.49 241.148 139.235 241.148Z" fill="black"/>
<path d="M174.123 255.695C173.936 255.695 173.746 255.633 173.589 255.505C173.23 255.208 173.178 254.677 173.473 254.318C174.552 252.837 173.21 238.77 172.703 233.476C172.553 231.911 172.427 230.585 172.353 229.655C171.33 216.863 169.979 204.952 168.229 193.238C166.555 182.051 165.701 171.898 165.615 162.195C165.608 161.466 165.58 160.666 165.548 159.821C165.413 156.103 165.245 151.477 166.836 148.343C167.047 147.927 167.552 147.763 167.968 147.974C168.383 148.185 168.548 148.692 168.337 149.107C166.942 151.851 167.102 156.235 167.23 159.759C167.262 160.62 167.291 161.436 167.298 162.178C167.384 171.802 168.233 181.879 169.895 192.985C171.652 204.74 173.004 216.688 174.032 229.518C174.106 230.442 174.232 231.758 174.381 233.314C175.632 246.415 176.065 253.814 174.775 255.387C174.61 255.589 174.367 255.695 174.123 255.695Z" fill="black"/>
<path d="M228.224 275.98C227.793 275.98 227.424 275.65 227.385 275.212C226.241 262.139 223.851 248.849 221.542 235.995C220.26 228.861 218.935 221.482 217.84 214.244C217.493 211.947 217.175 209.643 216.858 207.337C215.453 197.118 213.998 186.552 209.826 176.887C208.782 174.465 207.377 172.056 206.019 169.724C204.397 166.941 202.721 164.064 201.61 161.101C201.446 160.664 201.667 160.179 202.101 160.015C202.538 159.855 203.021 160.073 203.186 160.507C204.247 163.337 205.888 166.152 207.473 168.874C208.856 171.249 210.286 173.705 211.37 176.218C215.633 186.093 217.104 196.776 218.525 207.106C218.842 209.403 219.157 211.702 219.504 213.99C220.594 221.205 221.919 228.572 223.2 235.697C225.515 248.586 227.912 261.917 229.063 275.062C229.103 275.525 228.761 275.935 228.296 275.975C228.273 275.979 228.247 275.98 228.224 275.98Z" fill="black"/>
<path d="M2.99673 306.053C1.99623 306.053 1.2669 306.048 0.820553 306.036C0.355673 306.022 -0.0115142 305.636 0.000276178 305.171C0.0120666 304.706 0.439891 304.372 0.864346 304.35C6.48501 304.49 58.2163 303.678 123.692 302.64C237.805 300.833 394.094 298.36 429.14 299.029C429.605 299.039 429.973 299.422 429.965 299.889C429.957 300.347 429.579 300.715 429.123 300.715C429.118 300.715 429.113 300.715 429.106 300.715C394.087 300.041 237.82 302.517 123.717 304.325C63.3755 305.282 14.7147 306.053 2.99673 306.053Z" fill="black"/>
<path d="M429.227 337C428.811 337 428.449 336.69 428.393 336.265C427.647 330.556 427.922 323.122 428.186 315.933C428.405 310.041 428.61 304.473 428.284 299.933C428.25 299.469 428.6 299.065 429.064 299.031C429.528 298.994 429.931 299.348 429.965 299.811C430.296 304.445 430.089 310.056 429.87 315.997C429.608 323.117 429.336 330.479 430.064 336.048C430.123 336.508 429.8 336.931 429.336 336.993C429.301 336.998 429.264 337 429.227 337Z" fill="black"/>
<path d="M417.438 337C417.43 337 417.422 337 417.413 337C416.95 336.986 416.583 336.599 416.596 336.132C416.632 334.949 416.682 333.744 416.736 332.485C416.943 327.656 417.179 322.181 416.598 314.096C416.564 313.632 416.915 313.228 417.378 313.194C417.844 313.159 418.245 313.511 418.279 313.975C418.867 322.158 418.628 327.683 418.419 332.557C418.366 333.808 418.313 335.004 418.281 336.181C418.267 336.638 417.893 337 417.438 337Z" fill="black"/>
<path d="M153.271 303.863C153.271 303.863 155.661 297.612 157.766 297.612C159.871 297.612 250.405 295.363 250.405 295.363C250.405 295.363 280.302 207.017 287.461 202.382L398.206 206.418C398.206 206.418 379.258 287.217 370.415 299.577L153.271 303.863Z" fill="black"/>
<path d="M191.453 86.0813C191.453 86.0813 194.882 103.184 184.15 107.711C173.417 112.238 167.872 107.711 167.872 107.711C167.872 107.711 166.226 99.3444 167.111 89.6327C168.325 76.2836 174.32 60.3995 195.945 60.2377C213.631 60.1046 218.66 69.5079 218.66 69.5079C218.66 69.5079 229.069 69.2281 229.351 79.9023C229.632 90.5765 223.428 96.7336 223.428 96.7336C223.428 96.7336 221.549 84.3958 218.431 84.3958C215.313 84.3958 199.593 94.7886 191.453 86.0813Z" fill="black"/>
<path d="M1.65571 320.974C1.37948 320.974 1.11335 320.974 0.842173 320.974C0.377294 320.974 0 320.597 0 320.132C0 319.666 0.377294 319.289 0.842173 319.289C37.8927 319.264 101.704 318.069 163.351 316.869C224.128 315.687 286.97 314.465 323.689 314.465C328.163 314.465 332.64 314.48 337.12 314.497C355.175 314.556 373.847 314.623 392.047 313.624C393.743 313.53 397.032 313.518 401.198 313.504C410.652 313.471 426.478 313.415 428.878 312.048C429.279 311.819 429.796 311.957 430.027 312.365C430.258 312.768 430.116 313.283 429.71 313.514C427.137 314.981 415.279 315.143 401.205 315.191C397.228 315.207 393.793 315.218 392.139 315.308C373.893 316.311 355.197 316.245 337.115 316.184C332.636 316.167 328.161 316.152 323.689 316.152C286.986 316.152 224.151 317.374 163.383 318.556C102.183 319.746 38.9033 320.974 1.65571 320.974Z" fill="black"/>
<path d="M379.177 163.302C379.177 163.302 381.311 153.076 386.103 152.309C390.051 151.677 392.66 152.918 392.37 157.952C392.081 162.987 391.444 168.881 391.444 168.881C391.444 168.881 387.609 161.933 379.177 163.302Z" fill="black"/>
<path d="M390.051 296.717C389.826 296.717 389.6 296.626 389.435 296.449C389.118 296.108 389.137 295.574 389.477 295.257C393.073 291.905 422.071 227.253 423.297 223.135C423.299 220.804 409.342 202.217 401.845 192.23C397.408 186.321 394.205 182.053 393.558 180.878C393.332 180.47 393.481 179.958 393.888 179.734C394.289 179.506 394.806 179.656 395.032 180.064C395.623 181.134 399.13 185.807 403.193 191.217C418.724 211.901 425.546 221.49 424.914 223.616C424.744 224.184 395.202 292.223 390.627 296.491C390.462 296.643 390.257 296.717 390.051 296.717Z" fill="black"/>
<path d="M390.699 195.287C390.689 195.287 390.679 195.287 390.669 195.287C390.206 195.279 389.835 194.895 389.844 194.428C389.852 194.005 390.17 193.661 390.58 193.609C390.903 193.324 391.887 191.728 393.177 182.899L393.243 182.458C394.176 176.213 392.035 166.474 384.353 164.382C381.092 163.492 376.46 165.132 371.956 168.76C366.578 173.093 362.966 179.017 363.175 183.165C363.199 183.631 362.84 184.027 362.377 184.049C361.92 184.098 361.518 183.715 361.493 183.25C361.218 177.789 366.02 171.377 370.9 167.447C375.897 163.42 380.97 161.711 384.794 162.756C393.475 165.119 395.934 175.845 394.908 182.707L394.844 183.142C393.371 193.224 392.163 195.287 390.699 195.287Z" fill="black"/>
<path d="M410.138 299.577C410.138 299.577 393.692 288.052 379.177 299.577H410.138Z" fill="black"/>
<path d="M38.2752 282.943C38.2752 282.943 34.7314 266.766 38.2752 261.75C41.9269 256.582 46.7795 256.493 46.099 252.638C45.4186 248.78 43.6685 245.274 43.6685 245.274L60.5726 244.576C60.5726 244.576 56.2725 249.478 58.3729 254.386C60.4732 259.291 69.7742 260.523 66.9159 273.305C64.6807 283.304 59.2571 305.212 59.2571 305.212L42.9729 304.708L38.2752 282.943Z" fill="black"/>
<path d="M50.3299 246.115C50.0031 246.115 49.6932 245.925 49.5551 245.604C48.2177 242.49 47.1953 238.144 46.9511 234.534L46.9241 234.136C46.3615 225.866 45.7787 217.313 45.6204 208.906C45.612 208.428 45.5733 207.672 45.5261 206.713C44.9012 194.116 45.0006 181.057 50.4781 179.714C51.2899 179.516 52.026 179.692 52.6121 180.228C55.2313 182.618 54.1685 192.425 52.7823 201.706C52.6728 202.437 52.5936 202.972 52.5633 203.24C51.1636 215.975 50.4562 234.517 52.2079 245.134C52.2837 245.593 51.9738 246.026 51.5139 246.102C51.2663 246.144 51.0305 246.071 50.852 245.93C50.7947 245.973 50.7307 246.014 50.66 246.043C50.5539 246.093 50.441 246.115 50.3299 246.115ZM51.1063 181.321C51.0406 181.321 50.9665 181.33 50.8806 181.352C47.6517 182.144 46.4154 190.651 47.2088 206.632C47.2576 207.612 47.2947 208.384 47.3048 208.874C47.4614 217.241 48.0425 225.771 48.6051 234.022L48.632 234.421C48.7988 236.895 49.3479 239.727 50.1159 242.223C48.9066 231.217 49.6089 214.714 50.8891 203.058C50.9211 202.778 51.0019 202.222 51.1164 201.46C53.3229 186.683 52.5296 182.436 51.4769 181.475C51.3775 181.382 51.2697 181.321 51.1063 181.321Z" fill="black"/>
<path d="M54.8809 246.115C54.4985 246.115 54.1532 245.854 54.0623 245.464C52.6222 239.338 59.1254 230.59 62.6204 225.889L62.8546 225.574C63.4373 224.79 73.4811 213.46 77.6869 213.046C78.4887 212.972 79.0007 213.256 79.2837 213.513C79.7115 213.899 79.9507 214.44 79.9726 215.073C80.0517 217.367 77.2978 221.332 71.3066 227.549L70.9209 227.951C67.6836 231.365 64.2458 235.078 61.0304 239.08C60.6885 239.505 60.2843 240.054 59.848 240.644C58.2428 242.822 57.025 244.404 55.9757 244.964C55.8864 245.011 55.7921 245.041 55.6961 245.055C55.6978 245.063 55.6995 245.07 55.7011 245.078C55.8073 245.532 55.526 245.985 55.0729 246.091C55.0089 246.108 54.9449 246.115 54.8809 246.115ZM77.953 214.719C77.921 214.719 77.8874 214.721 77.8503 214.726C74.8016 215.026 65.6085 224.694 64.2054 226.58L63.9713 226.897C61.214 230.603 55.8039 237.885 55.5496 243.221C56.3732 242.522 57.5792 240.887 58.4938 239.646C58.9452 239.036 59.3646 238.466 59.7183 238.026C62.9725 233.98 66.4372 230.236 69.6981 226.796L70.0922 226.383C77.3029 218.901 78.3219 216.123 78.2882 215.134C78.2798 214.88 78.1922 214.802 78.1552 214.767C78.1215 214.736 78.049 214.719 77.953 214.719Z" fill="black"/>
<path d="M53.3706 246.115C52.9411 246.115 52.579 245.791 52.5335 245.363C51.8059 238.608 56.8134 203.388 58.9896 197.18C60.5089 192.842 63.7917 185.084 68.6965 181.888C68.902 181.753 69.1563 181.718 69.3921 181.783C69.6279 181.852 69.8216 182.021 69.9227 182.242C72.0585 186.927 68.8397 194.59 66.2542 200.747C65.4524 202.653 64.7619 204.296 64.3408 205.601C62.168 212.313 54.9202 237.801 54.2094 245.352C54.169 245.783 53.8086 246.112 53.3774 246.115C53.374 246.115 53.3706 246.115 53.3706 246.115ZM68.7302 183.946C64.7198 187.2 61.9305 193.88 60.5779 197.738C59.1159 201.906 56.2155 220.539 54.8647 233.445C57.3878 223.015 61.2062 209.816 62.7373 205.082C63.1803 203.712 63.8843 202.034 64.7012 200.094C66.8471 194.982 69.7256 188.131 68.7302 183.946Z" fill="black"/>
<path d="M49.0184 246.115C48.8264 246.115 48.6411 246.049 48.4929 245.931C48.375 246.027 48.2301 246.09 48.0684 246.108C47.6187 246.179 47.1875 245.835 47.1303 245.374C46.8742 243.262 43.0474 239.009 40.2514 235.903C38.8668 234.364 37.6726 233.036 37.036 232.127C36.0287 230.686 27.3055 217.856 30.7281 211.2C31.4338 209.828 32.3552 209.592 33.002 209.655C36.5795 209.938 42.1951 221.704 49.6938 244.625L49.8202 245.009C49.965 245.453 49.7241 245.928 49.2828 246.073C49.1936 246.102 49.1043 246.115 49.0184 246.115ZM32.847 211.333C32.6044 211.333 32.3754 211.677 32.2255 211.97C29.8118 216.665 34.9811 226.242 38.4154 231.161C38.9932 231.986 40.1554 233.278 41.5028 234.777C43.5628 237.064 45.3768 239.127 46.6856 240.922C39.4075 219.412 34.7217 211.482 32.8672 211.333C32.8605 211.333 32.8537 211.333 32.847 211.333Z" fill="black"/>
<path d="M265.972 33.7182L265.404 51.6602L460 19.6663V0L265.972 33.7182Z" fill="#0B376B"/>
<path d="M268.268 185.825C268.265 185.825 268.261 185.825 268.256 185.825C267.791 185.818 267.419 185.437 267.426 184.971L269.302 51.3956C269.309 50.9304 269.629 50.5191 270.156 50.5646C270.621 50.5714 270.993 50.954 270.987 51.4192L269.11 184.994C269.105 185.456 268.728 185.825 268.268 185.825Z" fill="black"/>
<path d="M393.595 186.547C393.159 186.547 392.788 186.209 392.756 185.766C392.722 185.303 393.071 184.896 393.534 184.863L446.659 180.949C447.046 169.376 451.691 30.895 451.691 20.895C451.691 20.4298 452.069 20.0522 452.534 20.0522C452.999 20.0522 453.376 20.4298 453.376 20.895C453.376 31.3079 448.365 180.26 448.316 181.763C448.301 182.195 447.964 182.543 447.536 182.576L393.659 186.545C393.637 186.547 393.615 186.547 393.595 186.547Z" fill="black"/>
<path d="M354.837 189.872C354.806 189.872 354.774 189.87 354.744 189.867C354.282 189.816 353.947 189.4 354 188.937C355.194 178.112 355.937 49.3377 355.937 37.6235C355.937 37.1583 356.314 36.7808 356.779 36.7808C357.244 36.7808 357.621 37.1583 357.621 37.6235C357.621 49.3461 356.873 178.24 355.674 189.12C355.627 189.552 355.261 189.872 354.837 189.872Z" fill="black"/>
<path d="M270.612 97.578C270.164 97.578 269.792 97.2258 269.771 96.7741C269.75 96.3089 270.11 95.9145 270.575 95.8942C271.678 95.8437 272.775 95.7442 273.817 95.6482L275.177 95.5285C280.691 95.0801 286.288 94.4043 291.7 93.7486L296.128 93.216C306.834 91.9519 317.706 90.5816 328.218 89.2568C342.389 87.4702 357.041 85.6246 371.494 84.0099C386.076 82.3817 400.783 80.0675 415.006 77.8309C422.719 76.6173 430.694 75.3633 438.56 74.2307C439.21 74.1379 440.227 74.0301 441.464 73.902C443.813 73.6559 447.03 73.3205 449.911 72.8317C450.367 72.7609 450.803 73.0626 450.882 73.5227C450.96 73.9812 450.65 74.4161 450.194 74.4953C447.259 74.9925 444.01 75.333 441.639 75.579C440.431 75.7055 439.436 75.8083 438.801 75.901C430.945 77.0303 422.975 78.2843 415.267 79.4961C401.026 81.7361 386.3 84.052 371.681 85.6852C357.24 87.2982 342.592 89.1439 328.429 90.9288C317.912 92.2536 307.038 93.6239 296.325 94.8897L291.902 95.4206C286.473 96.078 280.861 96.7572 275.313 97.2089L273.971 97.3269C272.903 97.4247 271.781 97.5258 270.652 97.578C270.637 97.578 270.624 97.578 270.612 97.578Z" fill="black"/>
<path d="M270.665 90.3068C270.26 90.3068 269.902 90.0152 269.834 89.6039C269.757 89.1455 270.065 88.7123 270.523 88.6331C272.074 88.3702 447.149 62.3041 451.004 62.3041C451.469 62.3041 451.846 62.6816 451.846 63.1468C451.846 63.612 451.469 63.9896 451.004 63.9896C447.16 63.9896 272.396 90.0321 270.804 90.295C270.757 90.3034 270.71 90.3068 270.665 90.3068Z" fill="black"/>
<path d="M270.66 83.634C270.239 83.634 269.877 83.3188 269.824 82.8924C269.769 82.4305 270.099 82.0109 270.561 81.9552L271.49 81.844C275.176 81.4024 278.986 80.9456 282.634 80.3018C299.644 77.3033 316.998 74.529 333.781 71.8473C340.619 70.7535 347.459 69.6613 354.293 68.5505C364.685 66.8617 375.3 65.37 385.564 63.9272C399.127 62.0226 413.149 60.0523 426.816 57.6033C428.995 57.2123 431.244 56.8398 433.526 56.4605C439.271 55.5082 445.212 54.5239 450.799 53.1249C451.242 53.007 451.705 53.2867 451.82 53.7368C451.931 54.1885 451.658 54.6469 451.207 54.7582C445.556 56.174 439.58 57.1651 433.801 58.1224C431.525 58.5 429.285 58.8708 427.11 59.2601C413.413 61.7142 399.373 63.6862 385.797 65.5942C375.541 67.0353 364.936 68.5253 354.561 70.2124C347.724 71.3232 340.884 72.417 334.044 73.5092C317.267 76.1909 299.92 78.9635 282.924 81.9586C279.23 82.6109 275.396 83.071 271.689 83.5143L270.759 83.6255C270.727 83.6323 270.692 83.634 270.66 83.634Z" fill="black"/>
<path d="M270.205 77.2055C269.773 77.2055 269.406 76.8768 269.366 76.4386C269.324 75.9751 269.666 75.5655 270.129 75.5234C275.317 75.0565 384.84 57.4044 431.605 49.8652C442.451 48.1173 449.633 46.9594 450.871 46.7656C451.307 46.6982 451.76 47.0066 451.833 47.4684C451.905 47.9286 451.59 48.3601 451.13 48.4325C449.894 48.6264 442.714 49.7843 431.872 51.5305C385.087 59.0713 275.524 76.7319 270.279 77.2038C270.257 77.2038 270.232 77.2055 270.205 77.2055Z" fill="black"/>
<path d="M270.695 70.1484C270.299 70.1484 269.946 69.8669 269.868 69.4624C269.782 69.0056 270.081 68.5657 270.535 68.4781C270.854 68.4174 275.892 67.6421 287.252 65.8959C329.361 59.4236 441.213 42.2333 451.325 39.7557C451.784 39.6461 452.232 39.9225 452.342 40.3742C452.453 40.8259 452.175 41.2827 451.725 41.3923C441.542 43.8851 329.636 61.0855 287.507 67.5595C277.675 69.0714 271.18 70.0692 270.852 70.1315C270.8 70.1433 270.748 70.1484 270.695 70.1484Z" fill="black"/>
<path d="M270.646 63.9895C270.24 63.9895 269.883 63.6963 269.816 63.2816C269.741 62.8232 270.053 62.39 270.513 62.3142C271.973 62.0765 273.445 61.7529 274.869 61.4377C275.721 61.2506 276.558 61.0652 277.372 60.9034C281.559 60.0708 285.846 59.3376 289.991 58.628C292.612 58.1797 295.231 57.7313 297.843 57.2577C315.527 54.0401 333.713 51.463 351.299 48.9702C357.378 48.1089 363.455 47.2476 369.519 46.361C381.018 44.6772 392.69 42.8603 403.979 41.1023C416.296 39.1842 429.033 37.2021 441.585 35.3868C443.734 35.075 445.921 34.7278 448.126 34.3772L451.848 33.7906C452.301 33.7249 452.737 34.035 452.808 34.4952C452.879 34.9536 452.564 35.3851 452.104 35.4559L448.39 36.0408C446.178 36.3913 443.985 36.7402 441.826 37.0537C429.284 38.869 416.551 40.8495 404.238 42.7676C392.946 44.5255 381.27 46.3442 369.763 48.028C363.698 48.9162 357.619 49.7775 351.537 50.6388C333.966 53.1299 315.797 55.7037 298.145 58.9162C295.527 59.3932 292.901 59.8416 290.275 60.2899C286.14 60.9961 281.865 61.7276 277.702 62.5552C276.898 62.7153 276.073 62.8973 275.232 63.0827C273.786 63.4013 272.29 63.7317 270.784 63.9761C270.737 63.9862 270.69 63.9895 270.646 63.9895Z" fill="black"/>
<path d="M270.511 57.4482C270.068 57.4482 269.697 57.1027 269.67 56.6544C269.643 56.1892 269.997 55.7914 270.462 55.7644C276.516 55.4105 282.615 54.4228 288.515 53.4671C289.793 53.2598 291.072 53.0525 292.348 52.8519C297.265 52.08 302.178 51.3013 307.091 50.5226C324.306 47.7955 342.106 44.9739 359.695 42.4457L362.702 42.0142C392.075 37.7921 422.451 33.425 452.08 28.1292C452.53 28.0449 452.974 28.3517 453.057 28.8101C453.139 29.2686 452.833 29.7068 452.376 29.7877C422.718 35.0886 392.33 39.4573 362.941 43.6812L359.934 44.1143C342.355 46.6426 324.562 49.4607 307.354 52.1878C302.441 52.9648 297.528 53.7452 292.61 54.5189C291.334 54.7194 290.059 54.9251 288.783 55.1324C282.842 56.0948 276.697 57.0892 270.56 57.4499C270.545 57.4466 270.528 57.4482 270.511 57.4482Z" fill="black"/>
<path d="M455.767 97.578C455.759 97.578 455.752 97.578 455.744 97.578C455.279 97.5645 454.912 97.1769 454.925 96.7117L454.999 94.0941C456.476 42.4457 456.788 25.3245 456.788 20.0556C456.788 19.5904 457.165 19.2129 457.63 19.2129C458.095 19.2129 458.472 19.5904 458.472 20.0556C458.472 25.3346 458.161 42.4726 456.684 94.1413L456.61 96.7572C456.596 97.2156 456.22 97.578 455.767 97.578Z" fill="black"/>
<path d="M275.315 194.376C274.872 194.376 274.501 194.03 274.474 193.58C274.447 193.117 274.803 192.717 275.266 192.692L367.905 187.352C368.361 187.308 368.767 187.679 368.794 188.146C368.821 188.61 368.466 189.009 368.002 189.034L275.363 194.374C275.347 194.376 275.33 194.376 275.315 194.376Z" fill="black"/>
<path d="M375.617 191.715C383.793 194.829 390.877 196.153 391.44 194.672C392.003 193.192 385.832 189.467 377.656 186.353C369.48 183.24 362.396 181.916 361.833 183.396C361.27 184.877 367.441 188.602 375.617 191.715Z" fill="#0B376B"/>
<path d="M458.149 103.926C458.149 105.242 457.083 106.309 455.767 106.309C454.452 106.309 453.386 105.242 453.386 103.926V94.6452C453.386 93.3289 454.452 92.262 455.767 92.262C457.083 92.262 458.149 93.3289 458.149 94.6452V103.926Z" fill="black"/>
<path d="M204.766 108.942C205.609 108.942 206.292 108.207 206.292 107.3C206.292 106.393 205.609 105.658 204.766 105.658C203.923 105.658 203.24 106.393 203.24 107.3C203.24 108.207 203.923 108.942 204.766 108.942Z" fill="black"/>
<path d="M218.768 107.062C219.611 107.062 220.294 106.327 220.294 105.421C220.294 104.514 219.611 103.779 218.768 103.779C217.925 103.779 217.242 104.514 217.242 105.421C217.242 106.327 217.925 107.062 218.768 107.062Z" fill="black"/>
</g>
<defs>
<clipPath id="clip0_381_972">
<rect width="460" height="337" fill="white"/>
</clipPath>
</defs>
</svg>
