<svg width="245" height="306" viewBox="0 0 245 306" fill="none" xmlns="http://www.w3.org/2000/svg">
<path d="M122.202 85.0748C119.151 85.0748 116.234 84.2109 113.472 82.4849C102.609 75.6955 97.4505 57.1675 97.3804 46.7839C97.3764 46.2306 97.823 45.7796 98.3757 45.7756H98.3817C98.9325 45.7756 99.3791 46.2206 99.3831 46.7719C99.4492 56.7124 104.31 74.3966 114.531 80.7871C119.185 83.6977 124.388 83.81 129.99 81.1178C137.558 77.4836 140.606 68.7738 142.773 59.9057C143.672 56.2133 145.002 54.301 146.406 52.2764C147.207 51.1217 148.036 49.929 148.873 48.2933C150.067 45.958 150.653 42.2877 149.566 40.1829C149.159 39.3951 148.549 38.886 147.704 38.6354C146.722 40.213 146.161 41.9088 146.111 43.4724C146.095 44.0156 145.651 44.4426 145.11 44.4426C145.102 44.4426 145.09 44.4426 145.078 44.4426C144.527 44.4265 144.093 43.9635 144.109 43.4102C144.175 41.2794 145 38.9822 146.424 36.9395C146.642 36.6308 146.995 36.4665 147.389 36.5226C149.182 36.7812 150.549 37.7293 151.344 39.2648C152.78 42.0451 152.059 46.4632 150.655 49.2094C149.756 50.9654 148.849 52.2703 148.05 53.423C146.696 55.3714 145.527 57.0552 144.714 60.3848C142.539 69.283 139.194 78.9229 130.855 82.9279C127.873 84.3572 124.981 85.0748 122.202 85.0748Z" fill="black"/>
<path d="M95.8024 51.5331C95.3658 51.5331 94.9192 51.4469 94.4686 51.2685C91.1361 49.9535 88.3344 43.7795 89.1174 39.4717C89.6181 36.7254 91.5266 35.1258 94.3604 35.0837C94.9052 35.0196 95.3678 35.5167 95.3758 36.072C95.3838 36.6252 94.9432 37.0803 94.3905 37.0883C92.4999 37.1163 91.4185 38.0144 91.0901 39.8325C90.4372 43.4146 92.9485 48.5142 95.2056 49.4042C95.552 49.5405 96.4733 49.9054 97.5407 48.2416C97.8371 47.7765 98.4559 47.6382 98.9225 47.9389C99.3871 48.2376 99.5233 48.857 99.2249 49.3241C98.2957 50.7713 97.0921 51.5331 95.8024 51.5331Z" fill="black"/>
<path d="M122.412 61.1426C122.412 61.1426 122.412 61.1426 122.408 61.1426C121.751 61.1406 121.1 60.9321 120.467 60.7297C119.824 60.5212 119.163 60.3027 118.573 60.3548C118.258 60.3749 117.946 60.2526 117.737 60.0141C117.529 59.7735 117.447 59.4488 117.515 59.1381C117.719 58.22 117.97 57.2839 118.224 56.3297C118.979 53.4912 119.762 50.5566 119.418 47.5578C119.356 47.0085 119.748 46.5114 120.297 46.4473C120.852 46.3731 121.34 46.778 121.406 47.3273C121.795 50.7049 120.962 53.826 120.159 56.8449C120.016 57.3861 119.87 57.9193 119.74 58.4445C120.213 58.5387 120.661 58.683 121.08 58.8173C121.589 58.9797 122.069 59.1341 122.418 59.1341C122.972 59.1361 123.419 59.5871 123.415 60.1403C123.413 60.6956 122.962 61.1426 122.412 61.1426Z" fill="black"/>
<path d="M112.266 45.0382C111.884 45.0382 111.523 44.8177 111.359 44.4549L111.026 43.7453C111.02 43.7413 111.016 43.7373 111.012 43.7333C110.287 43.0156 109.54 41.7548 110.105 39.8164C110.259 39.2852 110.814 38.9805 111.347 39.1348C111.409 39.1529 111.469 39.1769 111.523 39.205C111.749 39.2872 111.944 39.4495 112.064 39.666C112.126 39.6039 112.192 39.5398 112.264 39.4716C112.575 39.1589 113.055 39.0887 113.442 39.2992C113.83 39.5077 114.038 39.9467 113.95 40.3797C113.762 41.3318 113.414 41.9572 113.077 42.5606L113.073 42.5666C113.139 42.9435 113.199 43.3825 113.263 43.9217C113.32 44.4108 113.015 44.8699 112.54 45.0042C112.446 45.0262 112.356 45.0382 112.266 45.0382Z" fill="black"/>
<path d="M130.357 44.5686C130.321 44.5686 130.287 44.5666 130.251 44.5626C129.894 44.5246 129.586 44.298 129.442 43.9673C129.277 43.5904 129.151 43.2096 129.065 42.8247C128.769 42.54 128.662 42.085 128.843 41.6881C128.855 41.624 128.839 41.3333 128.827 41.1429C128.807 40.766 128.785 40.3431 128.881 39.9401C128.955 39.6555 129.143 39.423 129.393 39.2927C129.43 39.2045 129.468 39.1143 129.508 39.0241C129.73 38.5169 130.325 38.2884 130.825 38.5109C131.334 38.7334 131.564 39.3247 131.342 39.8319C131.296 39.9361 131.252 40.0404 131.216 40.1426C131.22 40.1446 131.228 40.1466 131.232 40.1486C131.354 40.1947 131.458 40.2448 131.548 40.299C131.865 39.9983 132.345 39.868 132.734 40.0624C133.203 40.303 133.457 40.78 133.247 41.2672C133.042 41.7402 132.816 42.1131 132.578 42.4378C132.363 42.8247 132.135 43.2617 131.979 43.6305C131.823 43.9913 131.478 44.2199 131.102 44.2379C130.911 44.4484 130.641 44.5686 130.357 44.5686Z" fill="black"/>
<path d="M105.725 39.7617C105.597 39.7617 105.467 39.7377 105.343 39.6855C104.83 39.4751 104.588 38.8877 104.8 38.3766C105.99 35.5 108.094 33.4073 110.434 32.7779C112.23 32.2928 114.048 32.6997 115.683 33.9545C116.121 34.2913 116.205 34.9187 115.869 35.3597C115.534 35.8007 114.906 35.8829 114.467 35.5461C113.325 34.6722 112.142 34.3895 110.954 34.7143C109.24 35.1753 107.59 36.8732 106.652 39.1423C106.49 39.5292 106.116 39.7617 105.725 39.7617Z" fill="black"/>
<path d="M136.431 38.4256C136.298 38.4256 136.16 38.3995 136.032 38.3414C135.527 38.1209 135.293 37.5295 135.511 37.0224C136.052 35.7796 135.519 34.8935 134.975 34.3724C133.841 33.2759 131.494 32.7046 129.521 33.6487C129.029 33.8893 128.422 33.6808 128.184 33.1777C127.945 32.6785 128.156 32.0812 128.656 31.8406C131.202 30.6178 134.446 31.0769 136.367 32.9271C137.758 34.2701 138.115 36.0542 137.348 37.8202C137.186 38.2011 136.817 38.4256 136.431 38.4256Z" fill="black"/>
<path d="M119.074 69.9629C116.022 69.9629 113.741 68.2169 112.777 65.1179C112.613 64.5887 112.909 64.0274 113.438 63.863C113.971 63.7007 114.528 63.9953 114.69 64.5225C115.621 67.5133 117.77 68.0365 119.404 67.9503C122.733 67.7739 126.175 64.9696 126.774 61.9507C126.88 61.4075 127.415 61.0567 127.947 61.1609C128.49 61.2691 128.843 61.7963 128.739 62.3396C127.951 66.3066 123.814 69.7223 119.514 69.9509C119.366 69.9589 119.216 69.9629 119.074 69.9629Z" fill="black"/>
<path d="M107.728 91.2116C107.173 91.2116 106.727 90.7626 106.727 90.2093V76.847C106.727 76.2937 107.173 75.8447 107.728 75.8447C108.279 75.8447 108.729 76.2937 108.729 76.847V90.2093C108.729 90.7626 108.279 91.2116 107.728 91.2116Z" fill="black"/>
<path d="M140.436 89.8753C139.947 89.8753 139.521 89.5185 139.447 89.0233C139.31 88.1153 139.142 87.1932 138.974 86.2631C138.247 82.254 137.492 78.1066 138.814 73.873C138.982 73.3458 139.537 73.0511 140.07 73.2155C140.598 73.3818 140.891 73.9431 140.726 74.4703C139.553 78.2308 140.262 82.1297 140.945 85.9023C141.117 86.8544 141.289 87.7946 141.425 88.7227C141.507 89.2699 141.133 89.7811 140.584 89.8633C140.538 89.8713 140.486 89.8753 140.436 89.8753Z" fill="black"/>
<path d="M44.7503 276.999C44.7222 276.999 44.6962 276.997 44.6682 276.995L44.2296 276.959C43.9672 276.939 43.7369 276.821 43.5727 276.641L41.0573 275.745C22.9792 269.332 -4.34526 259.642 0.585324 233.663C1.59267 228.363 4.90309 224.388 10.4225 221.846C22.4385 216.316 41.0834 219.385 49.1581 224.023C52.6007 225.996 55.5387 228.597 58.3805 231.115C61.4646 233.847 64.6548 236.674 68.4559 238.636C74.1295 241.567 80.2456 243.888 86.1595 246.133C91.6388 248.214 97.3064 250.365 102.662 253.013L105.922 254.613C112.851 257.998 121.473 262.214 126.341 265.796C126.788 266.125 126.884 266.752 126.555 267.197C126.227 267.646 125.596 267.738 125.156 267.412C120.431 263.936 111.898 259.764 105.043 256.413L101.774 254.809C96.5053 252.205 90.8838 250.072 85.4466 248.008C79.4806 245.74 73.3124 243.399 67.5367 240.416C63.5153 238.34 60.2309 235.431 57.0527 232.615C54.1608 230.053 51.4252 227.631 48.1628 225.759C40.6428 221.441 22.5286 218.474 11.2596 223.664C6.36304 225.919 3.43312 229.407 2.55195 234.036C-2.0582 258.323 23.2476 267.299 41.7262 273.852L45.0887 275.051C45.5593 275.221 45.8337 275.714 45.7276 276.206C45.6254 276.673 45.2169 276.999 44.7503 276.999Z" fill="black"/>
<path d="M107.061 296.339C106.719 296.339 106.386 296.162 106.198 295.848C105.916 295.372 106.072 294.755 106.55 294.472C111.016 291.83 118.064 292.544 124.278 293.172C126.942 293.444 129.367 293.667 131.496 293.665C138.066 293.665 146.586 293.502 154.987 292.336C167.245 290.636 182.231 286.027 200.798 278.248C215.075 272.262 244.779 259.804 242.912 237.96C242.428 232.299 239.818 227.929 235.16 224.973C226.665 219.582 214.066 220.368 205.953 223.383C201.349 225.095 198.521 228.162 195.525 231.411C193.921 233.149 192.263 234.947 190.264 236.623C184.33 241.592 176.902 244.878 169.721 248.055C166.322 249.556 162.81 251.11 159.593 252.794C151.402 257.08 142.911 261.189 134.7 265.164L128.958 267.952C119.832 272.424 109.484 277.498 99.4069 274.241C98.8802 274.072 98.5938 273.507 98.762 272.98C98.9322 272.452 99.497 272.164 100.022 272.334C109.326 275.335 119.291 270.458 128.079 266.152L133.829 263.36C142.028 259.393 150.503 255.291 158.666 251.018C161.936 249.306 165.483 247.736 168.91 246.221C175.965 243.1 183.261 239.874 188.976 235.084C190.877 233.492 192.493 231.744 194.049 230.052C197.213 226.62 200.201 223.381 205.256 221.503C213.818 218.322 227.163 217.526 236.231 223.279C241.374 226.542 244.374 231.56 244.907 237.786C246.898 261.085 216.287 273.922 201.571 280.092C182.838 287.942 167.69 292.594 155.259 294.318C146.74 295.503 138.127 295.667 131.498 295.667C131.362 295.667 131.223 295.667 131.091 295.667C129.022 295.665 126.621 295.423 124.078 295.164C118.168 294.567 111.467 293.885 107.572 296.198C107.412 296.295 107.235 296.339 107.061 296.339Z" fill="black"/>
<path d="M122.412 292.993C122.022 292.993 121.649 292.762 121.489 292.375C121.433 292.241 121.387 292.113 121.353 291.995C119.4 288.226 118.549 284.012 117.722 279.935C117.42 278.444 117.119 276.964 116.767 275.521C116.636 274.982 116.967 274.441 117.502 274.31C118.034 274.178 118.581 274.509 118.711 275.046C119.07 276.511 119.374 278.017 119.681 279.534C120.422 283.189 121.185 286.959 122.745 290.295C122.787 290.317 122.831 290.341 122.871 290.369C123.051 290.495 123.404 290.836 123.301 291.517C123.313 291.544 123.321 291.572 123.337 291.602C123.548 292.113 123.305 292.7 122.797 292.913C122.671 292.967 122.54 292.993 122.412 292.993Z" fill="black"/>
<path d="M185.832 225.841C185.832 225.841 227.888 200.447 227.888 190.425C227.888 180.402 190.593 104.896 171.856 96.2107C153.119 87.525 143.442 88.874 143.442 88.874C143.442 88.874 124.917 108.765 103.388 88.7979C103.388 88.7979 86.3655 91.3817 72.3468 98.8988C58.3281 106.416 13.268 183.09 22.28 195.618C31.292 208.147 69.8435 230.197 69.8435 230.197L71.8461 197.623L51.8194 183.591L73.3482 154.024L77.8542 206.142L171.856 208.147V148.511L196.014 183.09L179.992 205.14L185.832 225.841Z" fill="#0B376B"/>
<path d="M98.3795 272.625C98.3795 272.625 41.9762 258.594 41.6438 286.994C41.3113 315.391 90.7012 305.368 107.728 298.685C107.728 298.685 95.7039 301.691 98.3795 272.625Z" fill="#0B376B"/>
<path d="M142.11 295.336C142.11 295.336 177.49 310.711 196.851 300.023C216.209 289.331 202.797 278.494 202.797 278.494C202.797 278.494 174.822 292.989 142.11 295.336Z" fill="#0B376B"/>
<path d="M94.1818 34.795C94.1818 34.795 89.9802 21.7173 94.1818 15.3689C98.3874 9.02048 102.068 0 110.908 0C119.748 0 125.752 4.0091 125.752 4.0091C125.752 4.0091 139.11 -0.332755 144.449 7.35069C149.788 15.0341 153.125 19.376 152.792 25.7244C152.46 32.0728 156.825 33.4179 151.138 39.4275C151.138 39.4275 147.195 35.4184 146.155 39.4275C145.112 43.4366 149.113 29.7335 140.438 26.7267C131.766 23.7199 132.329 20.0796 132.329 20.0796C132.329 20.0796 122.746 26.7267 115.072 23.0523C107.401 19.378 102.383 23.0543 99.7192 29.4008C97.0517 35.7472 98.3814 42.0655 98.3814 42.0655L94.1818 34.795Z" fill="black"/>
<path d="M192.177 155.017C192.177 155.017 60.0008 149.004 55.9955 155.017C51.9901 161.031 55.9955 230.196 55.9955 230.196C55.9955 230.196 65.1217 241.115 82.589 245.842C100.054 250.566 113.737 259.611 113.737 259.611L145.948 258.573C145.948 258.573 180.017 242.602 184.163 239.752C188.308 236.901 192.686 232.999 193.803 231.792C194.919 230.589 197.148 155.232 192.177 155.017Z" fill="black"/>
<path d="M73.0178 150.673C72.8696 150.673 72.7174 150.639 72.5712 150.569C72.0765 150.321 71.8742 149.719 72.1206 149.224C73.8929 145.664 74.2013 141.256 74.5278 136.591C74.8542 131.905 75.1947 127.058 77.1132 122.86C77.3415 122.359 77.9363 122.135 78.441 122.365C78.9417 122.596 79.164 123.191 78.9337 123.694C77.1653 127.561 76.8409 132.222 76.5244 136.73C76.2 141.386 75.8636 146.199 73.913 150.118C73.7387 150.469 73.3862 150.673 73.0178 150.673Z" fill="white"/>
<path d="M167.813 144.326C167.258 144.326 166.811 143.877 166.811 143.323C166.811 137.406 166.659 131.162 164.855 125.591C164.687 125.064 164.973 124.499 165.5 124.328C166.036 124.158 166.591 124.447 166.759 124.972C168.652 130.819 168.812 137.244 168.812 143.321C168.814 143.877 168.363 144.326 167.813 144.326Z" fill="white"/>
<path d="M126.48 108.956C125.655 108.956 124.829 108.918 124.004 108.843C116.63 108.166 104.967 103.7 102.119 95.894C101.927 95.3749 102.197 94.7995 102.716 94.6091C103.235 94.4187 103.809 94.6873 104.002 95.2065C106.521 102.112 117.536 106.236 124.189 106.847C133.032 107.657 142.11 103.485 146.264 96.6958C146.554 96.2228 147.171 96.0785 147.642 96.3651C148.115 96.6538 148.261 97.2712 147.974 97.7442C143.753 104.636 135.331 108.956 126.48 108.956Z" fill="white"/>
<path d="M55.9954 234.533C55.8552 234.533 55.711 234.503 55.5768 234.44C54.181 233.793 52.4787 233.22 50.6763 232.61C46.2063 231.099 41.1396 229.389 38.5 225.771C38.1756 225.324 38.2717 224.696 38.7183 224.372C39.1649 224.041 39.7898 224.143 40.1162 224.588C42.3812 227.693 47.1276 229.297 51.3171 230.71C53.1716 231.337 54.922 231.929 56.418 232.62C56.9186 232.853 57.1369 233.448 56.9046 233.951C56.7344 234.316 56.3739 234.533 55.9954 234.533Z" fill="black"/>
<path d="M197.52 232.527C197.089 232.527 196.695 232.251 196.56 231.82C196.396 231.288 196.693 230.729 197.221 230.567C199.524 229.857 201.767 228.789 204.137 227.662C206.844 226.371 209.648 225.036 212.59 224.26C212.926 224.176 213.275 224.26 213.529 224.495C213.779 224.729 213.894 225.078 213.829 225.415C213.681 226.203 213.121 226.461 212.91 226.56C212.558 226.959 211.979 226.987 211.564 226.66C209.331 227.408 207.133 228.454 204.998 229.47C202.667 230.583 200.253 231.729 197.812 232.481C197.716 232.513 197.618 232.527 197.52 232.527Z" fill="black"/>
</svg>
