<svg width="400" height="274" viewBox="0 0 400 274" fill="none" xmlns="http://www.w3.org/2000/svg">
<g clip-path="url(#clip0_407_708)">
<path d="M136.244 110.781H123.851V121.416H136.244V110.781Z" fill="#0B376B"/>
<path d="M152.079 110.781H139.686V121.416H152.079V110.781Z" fill="#0B376B"/>
<path d="M163.447 112.509C164.064 112.177 164.838 112.409 165.172 113.032C165.221 113.124 165.233 113.221 165.259 113.318C166.273 112.756 167.177 112.504 167.868 112.784C167.909 112.8 167.932 112.83 167.97 112.846V110.778H155.577V119.527C157.878 116.643 160.461 114.112 163.447 112.509Z" fill="#0B376B"/>
<path d="M167.97 121.416V121.063C167.903 121.181 167.84 121.301 167.771 121.416H167.97Z" fill="#0B376B"/>
<path d="M178.627 115.345C179.325 115.424 179.83 116.057 179.751 116.756C179.736 116.884 179.685 116.996 179.636 117.111C180.136 117.32 180.584 117.662 180.948 118.193C180.683 117.603 180.887 116.901 181.458 116.572C182.069 116.22 182.847 116.429 183.198 117.042C183.998 118.435 183.856 119.933 183.211 121.416H183.807V110.781H171.414V118.195C173.751 116.274 176.199 115.074 178.627 115.345Z" fill="#0B376B"/>
<path d="M199.978 110.781H187.586V121.416H199.978V110.781Z" fill="#0B376B"/>
<path d="M215.813 110.781H203.421V121.416H215.813V110.781Z" fill="#0B376B"/>
<path d="M231.702 110.781H219.309V121.416H231.702V110.781Z" fill="#0B376B"/>
<path d="M244.352 118.484C244.382 117.894 244.604 117.266 245.126 116.664C245.037 116.577 244.945 116.488 244.882 116.373C244.545 115.756 244.775 114.98 245.391 114.643C246.092 114.26 246.81 114.02 247.537 113.844V110.781H235.144V115.084C235.715 114.916 236.306 114.806 236.93 114.829C239.302 114.929 241.903 116.452 244.352 118.484Z" fill="#0B376B"/>
<path d="M261.224 121.416H263.071V110.781H250.678V113.704C251.132 113.772 251.583 113.852 252.044 113.994C255.249 114.995 258.329 117.762 261.224 121.416Z" fill="#0B376B"/>
<path d="M277.183 111.021H265.942V121.656H277.183V111.021Z" fill="#0B376B"/>
<path d="M291.27 111.021H280.029V121.656H291.27V111.021Z" fill="#0B376B"/>
<path d="M136.246 123.555H123.851V134.19H134.017C134.786 133.003 135.533 131.921 136.246 130.984V123.555Z" fill="#0B376B"/>
<path d="M144.402 125.584C145.085 125.757 145.498 126.451 145.324 127.135C145.301 127.227 145.248 127.296 145.207 127.378C147.307 127.541 148.293 128.835 148.761 129.986C149.793 128.174 150.897 126.301 152.084 124.445V123.555H139.691V127.24C141.424 125.798 142.988 125.231 144.402 125.584Z" fill="#0B376B"/>
<path d="M178.485 129.131C180.217 127.679 181.998 126.459 183.805 125.545V123.555H181.955C181.512 124.165 181.012 124.762 180.487 125.336C179.942 126.592 179.252 127.876 178.485 129.131Z" fill="#0B376B"/>
<path d="M190.365 124.956C190.452 125.637 189.983 126.252 189.313 126.367C190.146 126.947 190.546 127.863 190.567 128.983C191.145 129.067 191.624 129.557 191.647 130.175C191.703 131.663 191.173 133 190.421 134.19H199.981V123.555H187.588V124.147C188.039 124.04 188.49 123.909 188.941 123.853C189.642 123.782 190.276 124.259 190.365 124.956Z" fill="#0B376B"/>
<path d="M215.813 123.555H203.421V134.19H215.813V123.555Z" fill="#0B376B"/>
<path d="M231.702 123.555H230.198C230.703 123.756 231.205 124.012 231.704 124.3L231.702 123.555Z" fill="#0B376B"/>
<path d="M225.977 132.431C224.611 131.117 223.719 129.858 223.319 128.73C222.975 129.322 222.226 129.549 221.625 129.223C221.003 128.894 220.766 128.12 221.097 127.497C222.137 125.535 223.411 124.246 224.873 123.552H219.306V134.187H226.509C226.407 134.09 226.31 133.998 226.211 133.901C225.811 133.505 225.742 132.913 225.977 132.431Z" fill="#0B376B"/>
<path d="M241.564 134.19H242.352C241.343 132.508 240.189 130.691 238.79 128.603C238.461 128.115 238.125 127.526 237.773 126.901C237.118 125.747 236.349 124.415 235.473 123.555H235.149V126.878C237.597 129.106 239.824 131.89 241.564 134.19Z" fill="#0B376B"/>
<path d="M263.071 123.555H262.826C262.908 123.67 262.987 123.789 263.071 123.907V123.555Z" fill="#0B376B"/>
<path d="M267.588 127.135C267.31 127.015 267.066 126.806 266.928 126.507C266.633 125.869 266.908 125.111 267.545 124.813C269.652 123.833 271.723 123.891 273.703 124.989C274.931 125.67 276.088 126.788 277.181 128.23V123.797H265.94V128.307C266.072 128.524 266.205 128.74 266.335 128.96C266.625 128.273 267.045 127.635 267.588 127.135Z" fill="#0B376B"/>
<path d="M291.27 134.43V123.795H280.029V133.008C280.254 133.47 280.475 133.94 280.692 134.43H291.27Z" fill="#0B376B"/>
<path d="M132.664 136.328H123.851V146.963H127.375C128.356 144.447 129.426 142.02 130.649 139.814C131.344 138.561 132.012 137.41 132.664 136.328Z" fill="#0B376B"/>
<path d="M183.805 145.448V141.515C182.342 143.041 180.938 144.572 179.725 146.285C179.575 146.497 179.43 146.747 179.282 146.964H182.021C182.571 146.377 183.168 145.869 183.805 145.448Z" fill="#0B376B"/>
<path d="M187.586 137.586V144.306C188.189 144.419 188.653 144.87 188.674 145.496C188.681 145.771 188.584 146.019 188.442 146.233C188.645 146.435 188.847 146.682 189.045 146.963H199.978V136.328H188.755C188.434 136.685 188.116 137.03 187.815 137.346C187.736 137.431 187.665 137.502 187.586 137.586Z" fill="#0B376B"/>
<path d="M215.813 136.328H203.421V146.963H215.813V136.328Z" fill="#0B376B"/>
<path d="M225.465 144.419C227.021 143.051 229.653 143.347 231.34 144.327C231.47 144.401 231.579 144.5 231.704 144.582V139.256C230.741 138.263 229.75 137.295 228.736 136.328H219.311V146.963H224.41C224.384 145.651 224.991 144.837 225.465 144.419Z" fill="#0B376B"/>
<path d="M243.615 136.375C243.608 136.359 243.595 136.341 243.587 136.326H243.134C244.021 137.533 244.861 138.73 245.664 139.922C245.18 138.975 244.65 137.942 244.087 136.854C243.898 136.747 243.73 136.584 243.615 136.375Z" fill="#0B376B"/>
<path d="M237.638 146.964C237.088 146.06 236.504 145.159 235.883 144.253C235.646 143.909 235.391 143.605 235.146 143.278V146.961L237.638 146.964Z" fill="#0B376B"/>
<path d="M291.27 147.203V136.568H281.583C282.827 139.715 283.968 143.311 285.008 147.203H291.27Z" fill="#0B376B"/>
<path d="M123.851 149.1V159.112C124.531 155.649 125.423 152.28 126.534 149.1H123.851Z" fill="#0B376B"/>
<path d="M175.623 159.056C175.888 158.464 176.171 157.767 176.48 157.006C177.463 154.595 178.694 151.591 180.347 149.1H177.881C175.904 152.259 174.013 155.891 172.324 159.735H175.292C175.394 159.51 175.522 159.283 175.623 159.056Z" fill="#0B376B"/>
<path d="M187.025 159.735H226.853C226.606 158.277 226.448 156.907 226.405 155.684C225.816 153.109 225.531 151.129 225.462 149.625C225.24 149.511 225.059 149.334 224.935 149.1H190.814C190.146 152.17 188.908 155.161 187.71 158.055C187.476 158.622 187.254 159.178 187.025 159.735Z" fill="#0B376B"/>
<path d="M242.619 155.896C242.186 155.825 241.789 155.572 241.623 155.128C240.859 153.079 239.931 151.08 238.851 149.1H235.396C236.058 150.391 236.609 151.739 237.101 152.971L238.143 155.513C238.721 156.909 239.299 158.321 239.875 159.735H242.899C242.815 158.285 242.711 156.953 242.619 155.896Z" fill="#0B376B"/>
<path d="M291.27 159.977V149.342H285.561C286.414 152.736 287.201 156.314 287.923 159.977H291.27Z" fill="#0B376B"/>
<path d="M239.982 125.64C240.303 126.204 240.604 126.737 240.899 127.181C242.968 130.262 244.538 132.788 245.837 135.136C246.181 135.752 245.959 136.53 245.345 136.872C245.149 136.982 244.938 137.033 244.726 137.033C244.502 137.033 244.28 136.974 244.087 136.859C244.65 137.944 245.18 138.98 245.664 139.927C246.902 141.767 248.069 143.597 249.121 145.417C249.921 146.805 250.64 148.117 251.397 149.495L251.695 150.041C251.876 150.371 252.138 151.078 252.385 151.777C252.416 151.864 252.446 151.95 252.477 152.04C252.89 152.229 253.185 152.634 253.216 153.122C253.241 153.546 253.32 154.834 252.146 155.074C252.026 155.1 251.911 155.113 251.807 155.113C250.864 155.113 250.52 154.143 249.983 152.637C249.789 152.091 249.6 151.529 249.458 151.272L249.16 150.728C248.413 149.365 247.707 148.071 246.915 146.701C245.111 143.579 243.037 140.443 240.754 137.375C237.959 133.618 231.653 125.175 227.105 125.52C225.651 125.63 224.42 126.673 223.342 128.705C223.335 128.718 223.322 128.725 223.314 128.741C223.714 129.869 224.606 131.127 225.972 132.441C226.03 132.324 226.091 132.207 226.188 132.107C226.68 131.604 227.485 131.594 227.989 132.087C228.705 132.788 229.416 133.465 230.112 134.128C232.922 136.808 235.577 139.34 237.969 142.811C240.568 146.583 242.54 150.32 244.005 154.245C244.252 154.906 243.916 155.641 243.256 155.889C243.108 155.942 242.961 155.968 242.81 155.968C242.739 155.968 242.68 155.917 242.612 155.906C242.703 156.96 242.808 158.295 242.889 159.745C243.037 162.358 243.108 165.311 242.905 167.606C243.376 168.92 243.822 170.227 244.237 171.534C244.451 172.205 244.079 172.922 243.409 173.136C243.282 173.177 243.149 173.195 243.024 173.195C242.484 173.195 241.982 172.848 241.809 172.304C240.15 167.072 237.929 161.697 235.778 156.498L234.729 153.931C233.641 151.215 232.288 147.834 230.058 146.542C228.97 145.914 227.625 145.92 227.138 146.343C226.723 146.711 227.052 147.645 227.21 148.03C227.48 148.681 227.174 149.426 226.524 149.697C226.163 149.85 225.778 149.804 225.452 149.633C225.521 151.136 225.806 153.117 226.395 155.692C226.364 154.865 226.372 154.084 226.473 153.431C226.58 152.737 227.243 152.264 227.926 152.364C228.621 152.471 229.098 153.124 228.991 153.819C228.471 157.19 230.425 164.609 231.72 169.515C231.964 170.439 232.188 171.291 232.374 172.036C234 178.476 236.484 184.478 239.977 190.384C241.913 193.659 244.352 196.54 246.935 199.587C249.132 202.183 251.404 204.863 253.33 207.806C254.431 209.487 255.659 211.167 256.897 212.867C259.537 216.486 262.248 220.232 263.988 224.257C274.582 220.37 287.016 219.546 295.752 220.296C295.337 218.578 294.822 216.863 294.282 215.097C293.739 213.326 293.179 211.496 292.735 209.641C292.343 207.994 291.823 203.865 291.1 198.145C288.644 178.652 282.891 133.003 272.46 127.222C271.196 126.525 269.97 126.497 268.607 127.128C268.266 127.288 267.896 127.271 267.575 127.133C267.03 127.633 266.612 128.271 266.324 128.955C269.127 133.631 271.683 138.689 273.907 143.107C275.736 146.741 277.316 149.875 278.478 151.634C278.865 152.221 278.704 153.015 278.118 153.403C277.902 153.546 277.657 153.614 277.415 153.614C277.002 153.614 276.6 153.413 276.353 153.043C275.109 151.159 273.497 147.961 271.632 144.258C266.523 134.11 258.806 118.782 251.269 116.424C249.626 115.911 248.1 116.056 246.599 116.878C246.1 117.154 245.503 117.039 245.114 116.658C244.591 117.261 244.37 117.889 244.339 118.478C248.742 122.13 252.64 127.442 253.756 129.236C255.516 132.059 257.792 135.78 259.759 139.511C260.291 140.522 260.778 141.609 261.269 142.701C261.611 143.464 261.955 144.23 262.314 144.97C262.854 146.083 263.45 147.367 263.807 148.137L264.1 148.768L262.974 149.357L262.842 150.626C262.118 150.552 261.937 150.156 261.499 149.209C261.145 148.451 260.559 147.18 260.026 146.085C259.654 145.322 259.297 144.534 258.946 143.743C258.477 142.704 258.016 141.665 257.506 140.7C255.578 137.04 253.335 133.37 251.598 130.586C249.226 126.781 241.603 117.575 236.808 117.368C235.743 117.325 234.955 117.73 234.267 118.647C234.165 118.784 234.041 118.892 233.9 118.973C233.949 119.364 234.153 119.782 234.474 120.239C234.604 120.234 234.736 120.232 234.866 120.267C237.327 120.962 238.803 123.555 239.982 125.64Z" fill="white"/>
<path d="M165.256 113.318C165.401 113.874 165.177 114.476 164.647 114.76C158.385 118.118 153.748 126.326 150.023 132.919C149.419 133.991 148.833 135.024 148.267 135.994C147.569 137.191 146.043 140.573 144.428 144.153C138.596 157.083 137.829 158.224 136.514 158.295C136.491 158.298 136.465 158.298 136.443 158.298C135.77 158.298 135.209 157.772 135.171 157.091C135.143 156.567 135.431 156.1 135.869 155.881C136.863 154.725 140.007 147.752 142.106 143.102C143.821 139.299 145.301 136.017 146.068 134.703C146.629 133.743 147.207 132.72 147.806 131.658C148.114 131.114 148.438 130.545 148.759 129.984C148.29 128.833 147.307 127.539 145.205 127.375C144.94 127.898 144.359 128.197 143.773 128.057C143.23 127.916 140.155 127.901 132.878 141.047C129.836 146.53 127.53 153.165 126.208 160.232C124.282 170.515 123.953 181.827 123.632 192.765C123.53 196.257 123.428 199.72 123.278 203.112C123.219 204.431 123.117 205.822 122.998 207.224C123.02 207.229 123.043 207.226 123.066 207.231C123.759 207.351 124.226 208.01 124.108 208.704C124.001 209.327 123.464 209.766 122.855 209.766C122.827 209.766 122.799 209.76 122.771 209.758C122.575 211.738 122.355 213.719 122.147 215.58C121.927 217.527 121.721 219.357 121.576 220.942C121.555 221.169 121.459 221.365 121.339 221.539C129.617 222.966 139.602 225.398 148.789 229.535C148.784 229.502 148.767 229.479 148.764 229.446C148.023 220.99 155.365 212.333 160.943 205.904C160.976 205.866 161.004 205.828 161.042 205.792C161.134 205.687 161.226 205.577 161.315 205.475C162.082 204.59 162.81 203.75 163.473 202.967C164.928 201.239 166.487 199.585 167.995 197.985C171.305 194.47 174.434 191.152 176.627 187.043C179.494 181.673 181.117 175.918 181.889 168.376C182.286 164.487 183.848 160.72 185.354 157.078C186.256 154.898 187.183 152.662 187.84 150.429C187.84 150.422 187.84 150.417 187.838 150.411C187.606 148.906 188.353 148.102 188.819 147.755C188.995 147.627 189.203 147.581 189.41 147.55C189.308 147.377 189.219 147.206 189.094 147.027C189.076 147.002 189.058 146.986 189.04 146.963C188.839 146.683 188.638 146.435 188.437 146.233C188.217 146.563 187.866 146.8 187.438 146.815C183.32 146.956 180.62 153.584 178.831 157.974C178.513 158.76 178.217 159.479 177.945 160.095C177.043 162.131 175.901 164.183 174.8 166.166C173.091 169.247 171.32 172.434 170.357 175.681C170.191 176.235 169.684 176.592 169.137 176.592C169.017 176.592 168.895 176.574 168.772 176.538C168.097 176.337 167.712 175.627 167.914 174.951C168.403 173.307 169.073 171.71 169.822 170.145C169.827 168.412 170.041 165.931 170.749 162.899C170.528 163.073 170.268 163.19 169.98 163.19C169.819 163.19 169.659 163.16 169.503 163.098C168.851 162.833 168.535 162.09 168.798 161.437C171.3 155.225 174.439 149.322 177.636 144.809C179.44 142.262 181.603 140.06 183.695 137.929C184.411 137.199 185.127 136.469 185.83 135.723C187.384 134.082 189.163 132.207 189.089 130.275C189.061 129.57 189.611 128.978 190.312 128.95C190.396 128.945 190.472 128.973 190.554 128.986C190.536 127.868 190.133 126.949 189.3 126.37C189.282 126.372 189.27 126.385 189.249 126.388C178.429 127.778 166.693 146.251 163.093 155.365C162.894 155.866 162.415 156.172 161.908 156.172C161.75 156.172 161.592 156.144 161.44 156.082C160.785 155.822 160.466 155.082 160.724 154.429C163.48 147.446 170.413 135.889 178.469 129.134C179.236 127.878 179.927 126.594 180.475 125.339C179.287 126.643 177.975 127.835 176.902 128.804C176.263 129.386 175.715 129.879 175.358 130.254C175.109 130.517 174.772 130.65 174.436 130.65C174.12 130.65 173.804 130.535 173.557 130.297C173.048 129.813 173.027 129.004 173.511 128.493C173.901 128.082 174.495 127.541 175.195 126.908C177.483 124.836 182.245 120.523 180.976 118.312C180.954 118.274 180.954 118.231 180.936 118.19C180.571 117.659 180.125 117.317 179.624 117.108C179.404 117.613 178.895 117.952 178.329 117.878C173.455 117.35 166.968 126.666 163.473 131.683C162.734 132.743 162.082 133.679 161.539 134.404C159.552 137.056 157.939 140.121 156.382 143.087C154.884 145.943 153.332 148.893 151.47 151.404C151.22 151.741 150.835 151.917 150.446 151.917C150.181 151.917 149.916 151.836 149.686 151.665C149.121 151.243 149.003 150.442 149.424 149.878C151.169 147.53 152.606 144.794 154.127 141.9C155.732 138.845 157.391 135.685 159.501 132.87C160.031 132.163 160.665 131.252 161.383 130.221C163.063 127.809 165.078 124.928 167.282 122.337C167.404 122.1 167.526 121.86 167.649 121.607C167.575 121.73 167.516 121.86 167.437 121.98C167.193 122.358 166.785 122.564 166.367 122.564C166.13 122.564 165.891 122.498 165.677 122.36C165.086 121.977 164.917 121.189 165.3 120.597C166.041 119.448 166.65 118.111 167.236 116.817C167.552 116.125 167.868 115.433 168.199 114.765C168.398 114.367 168.78 114.142 169.188 114.094C168.953 113.555 168.561 113.124 167.954 112.845C167.916 112.828 167.893 112.8 167.852 112.784C167.175 112.503 166.27 112.756 165.256 113.318Z" fill="white"/>
<path d="M147.806 131.661C147.207 132.722 146.629 133.743 146.068 134.705C145.301 136.02 143.821 139.302 142.106 143.105C140.007 147.755 136.863 154.728 135.869 155.884C135.431 156.103 135.143 156.57 135.171 157.093C135.207 157.775 135.77 158.301 136.443 158.301C136.465 158.301 136.491 158.301 136.514 158.298C137.831 158.227 138.596 157.086 144.428 144.156C146.043 140.578 147.566 137.194 148.267 135.997C148.833 135.027 149.419 133.993 150.023 132.921C153.748 126.329 158.385 118.121 164.647 114.763C165.177 114.479 165.399 113.877 165.256 113.321C165.231 113.224 165.218 113.127 165.17 113.035C164.838 112.412 164.061 112.18 163.445 112.511C160.459 114.114 157.875 116.646 155.574 119.533C154.328 121.095 153.164 122.748 152.079 124.448C150.891 126.306 149.791 128.177 148.756 129.989C148.438 130.548 148.114 131.117 147.806 131.661Z" fill="black"/>
<path d="M161.396 130.221C160.678 131.253 160.043 132.164 159.513 132.871C157.404 135.686 155.745 138.843 154.14 141.9C152.619 144.795 151.182 147.53 149.437 149.879C149.016 150.445 149.133 151.244 149.699 151.665C149.926 151.834 150.193 151.918 150.458 151.918C150.848 151.918 151.233 151.742 151.483 151.405C153.345 148.896 154.897 145.943 156.395 143.087C157.954 140.121 159.564 137.056 161.552 134.404C162.094 133.68 162.747 132.743 163.485 131.684C166.981 126.666 173.468 117.353 178.342 117.879C178.908 117.953 179.417 117.613 179.636 117.108C179.685 116.996 179.736 116.884 179.751 116.753C179.83 116.054 179.325 115.421 178.627 115.342C176.199 115.074 173.751 116.271 171.409 118.193C169.988 119.362 168.607 120.796 167.295 122.338C165.091 124.928 163.075 127.812 161.396 130.221Z" fill="black"/>
<path d="M160.739 154.426C160.479 155.082 160.8 155.822 161.455 156.08C161.61 156.141 161.768 156.169 161.924 156.169C162.431 156.169 162.91 155.863 163.108 155.362C166.708 146.249 178.444 127.773 189.265 126.385C189.282 126.382 189.298 126.372 189.316 126.367C189.986 126.252 190.454 125.637 190.368 124.955C190.279 124.259 189.644 123.781 188.941 123.85C188.49 123.907 188.039 124.037 187.588 124.144C186.322 124.442 185.061 124.907 183.807 125.542C182.001 126.456 180.22 127.676 178.487 129.128C170.428 135.887 163.496 147.443 160.739 154.426Z" fill="black"/>
<path d="M187.586 144.307C187.509 144.294 187.438 144.263 187.359 144.261C186.036 144.307 184.864 144.748 183.805 145.448C183.168 145.869 182.571 146.377 182.019 146.964C181.415 147.604 180.859 148.326 180.347 149.102C178.694 151.593 177.463 154.595 176.479 157.009C176.171 157.77 175.888 158.464 175.623 159.058C175.522 159.286 175.397 159.513 175.29 159.74C174.492 161.442 173.572 163.139 172.581 164.926C171.636 166.631 170.681 168.369 169.83 170.148C169.081 171.712 168.41 173.31 167.921 174.954C167.72 175.63 168.105 176.339 168.78 176.541C168.902 176.577 169.024 176.595 169.144 176.595C169.695 176.595 170.202 176.235 170.365 175.684C171.328 172.44 173.096 169.249 174.808 166.169C175.909 164.186 177.048 162.134 177.952 160.097C178.225 159.482 178.518 158.762 178.839 157.976C180.627 153.587 183.328 146.958 187.445 146.818C187.871 146.803 188.223 146.565 188.444 146.236C188.587 146.022 188.684 145.774 188.676 145.499C188.653 144.868 188.189 144.416 187.586 144.307Z" fill="black"/>
<path d="M244.882 116.372C244.943 116.487 245.037 116.577 245.126 116.663C245.516 117.044 246.112 117.158 246.612 116.883C248.112 116.061 249.639 115.918 251.282 116.428C258.818 118.784 266.536 134.115 271.644 144.263C273.507 147.966 275.12 151.164 276.366 153.048C276.613 153.418 277.015 153.619 277.428 153.619C277.673 153.619 277.915 153.55 278.131 153.407C278.715 153.02 278.878 152.226 278.49 151.639C277.329 149.883 275.749 146.746 273.92 143.112C271.695 138.694 269.14 133.633 266.337 128.96C266.205 128.743 266.072 128.523 265.942 128.306C265.012 126.778 264.054 125.303 263.071 123.906C262.989 123.792 262.91 123.669 262.826 123.554C262.299 122.814 261.766 122.1 261.224 121.416C258.327 117.761 255.246 114.994 252.041 113.994C251.58 113.851 251.129 113.772 250.676 113.703C249.608 113.539 248.561 113.593 247.537 113.843C246.81 114.019 246.095 114.259 245.391 114.642C244.775 114.979 244.545 115.752 244.882 116.372Z" fill="black"/>
<path d="M236.82 117.375C241.615 117.582 249.238 126.788 251.611 130.593C253.351 133.38 255.593 137.048 257.519 140.708C258.029 141.672 258.492 142.711 258.959 143.75C259.31 144.541 259.664 145.33 260.039 146.093C260.571 147.188 261.157 148.459 261.511 149.217C261.95 150.164 262.131 150.557 262.854 150.633L262.987 149.365L264.113 148.775L263.82 148.145C263.463 147.374 262.867 146.088 262.327 144.977C261.965 144.237 261.624 143.472 261.282 142.709C260.793 141.616 260.304 140.529 259.771 139.518C257.804 135.787 255.529 132.066 253.769 129.243C252.653 127.449 248.752 122.135 244.352 118.486C241.903 116.457 239.302 114.93 236.93 114.828C236.306 114.805 235.712 114.915 235.144 115.083C234.028 115.415 233.029 116.076 232.244 117.123C231.821 117.687 231.933 118.486 232.499 118.909C232.925 119.228 233.485 119.241 233.916 118.983C234.056 118.899 234.181 118.792 234.283 118.657C234.971 117.738 235.755 117.332 236.82 117.375Z" fill="black"/>
<path d="M221.097 127.501C220.766 128.124 221.003 128.894 221.625 129.226C222.226 129.553 222.975 129.326 223.319 128.734C223.327 128.721 223.34 128.713 223.347 128.698C224.425 126.666 225.653 125.625 227.11 125.513C231.658 125.168 237.967 133.611 240.759 137.368C243.042 140.435 245.116 143.575 246.92 146.693C247.712 148.064 248.418 149.358 249.165 150.721L249.463 151.264C249.605 151.525 249.794 152.084 249.988 152.63C250.525 154.136 250.869 155.106 251.812 155.106C251.916 155.106 252.031 155.093 252.151 155.067C253.325 154.827 253.246 153.538 253.221 153.115C253.19 152.63 252.895 152.222 252.482 152.033C252.451 151.946 252.421 151.859 252.39 151.77C252.14 151.073 251.881 150.364 251.7 150.034L251.402 149.488C250.645 148.11 249.929 146.798 249.126 145.41C248.074 143.59 246.907 141.757 245.669 139.92C244.866 138.728 244.023 137.528 243.139 136.324C242.981 136.112 242.854 135.903 242.693 135.691C242.347 135.226 241.967 134.716 241.567 134.185C239.827 131.888 237.6 129.104 235.146 126.873C234.033 125.862 232.881 124.972 231.704 124.295C231.205 124.007 230.703 123.754 230.198 123.55C229.105 123.111 228.005 122.886 226.917 122.963C226.193 123.017 225.521 123.244 224.876 123.55C223.413 124.249 222.14 125.538 221.097 127.501Z" fill="black"/>
<path d="M225.462 149.626C225.788 149.797 226.173 149.843 226.535 149.69C227.184 149.419 227.49 148.674 227.22 148.023C227.059 147.638 226.733 146.701 227.149 146.336C227.633 145.912 228.981 145.907 230.068 146.535C232.298 147.827 233.651 151.206 234.739 153.924L235.788 156.491C237.939 161.69 240.161 167.068 241.819 172.297C241.99 172.841 242.494 173.188 243.034 173.188C243.162 173.188 243.294 173.167 243.419 173.129C244.092 172.915 244.461 172.198 244.247 171.526C243.832 170.22 243.384 168.913 242.915 167.598C241.972 164.975 240.938 162.343 239.878 159.738C239.302 158.321 238.724 156.912 238.145 155.516L237.103 152.974C236.611 151.744 236.061 150.394 235.399 149.103C234.474 147.306 233.304 145.647 231.707 144.583C231.582 144.504 231.472 144.404 231.342 144.327C229.656 143.347 227.026 143.051 225.467 144.419C224.991 144.838 224.387 145.649 224.41 146.961C224.42 147.543 224.542 148.212 224.873 149.006C224.889 149.044 224.919 149.064 224.937 149.1C225.059 149.335 225.24 149.514 225.462 149.626Z" fill="black"/>
<path d="M317.343 0.0608105H96.5305C96.5305 0.0608105 89.2487 -0.842671 89.3099 4.31534C89.4067 12.4441 102.052 73.641 106.722 73.6461C107.54 73.6461 108.926 73.6461 110.618 73.6461C111.193 73.1688 111.853 72.7681 112.62 72.4644C113.272 72.2066 114.014 72.5231 114.274 73.179C114.335 73.3322 114.358 73.4904 114.358 73.6486C122.605 73.6486 133.895 73.6461 133.895 73.6461V77.9848H277.425V75.351C277.425 75.351 299.082 74.0672 301.63 73.6461C304.178 73.225 305.875 74.2688 310.122 58.8586C314.369 43.4483 322.013 8.14365 322.013 8.14365C322.013 8.14365 324.561 0.0608105 317.343 0.0608105ZM291.016 67.6943H120.31L103.323 8.56987H307.452L291.016 67.6943Z" fill="black"/>
<path d="M112.62 72.4644C111.853 72.7707 111.191 73.1714 110.618 73.6461C108.837 75.1289 107.927 77.3621 107.496 79.8684C106.393 79.4294 105.196 79.2584 103.917 79.4064C98.9356 79.9756 93.9087 84.9575 91.929 88.3136C88.0818 94.8345 90.2296 98.3872 92.7214 102.499C93.3151 103.481 93.9546 104.533 94.5712 105.717C97.4299 111.207 94.8693 119.239 92.8132 125.691C92.2807 127.362 91.7736 128.95 91.3838 130.402C89.9697 135.662 88.9353 141.068 87.934 146.297C87.0626 150.853 86.1607 155.567 85.0142 160.128C83.9976 164.181 82.5759 168.264 81.2 172.215C78.7261 179.32 76.168 186.671 75.7222 194.381C75.6814 195.085 76.2164 195.69 76.9196 195.728C76.9451 195.731 76.9706 195.731 76.9961 195.731C77.6662 195.731 78.2267 195.208 78.2675 194.529C78.6955 187.173 81.1924 179.997 83.6078 173.055C85.0014 169.053 86.441 164.911 87.4856 160.75C88.65 156.118 89.557 151.368 90.436 146.775C91.4271 141.594 92.4539 136.234 93.8425 131.066C94.2221 129.649 94.7164 128.1 95.2362 126.469C97.4375 119.563 100.179 110.97 96.8286 104.538C96.1865 103.303 95.519 102.203 94.8998 101.179C92.4182 97.0805 91.05 94.8218 94.1227 89.6153C95.8502 86.6853 100.314 82.3874 104.205 81.9433C105.331 81.8208 106.319 82.0403 107.203 82.5712C107.071 85.0468 107.237 87.6169 107.387 89.8858C107.481 91.2844 107.565 92.5733 107.565 93.6426C107.56 97.0805 107.703 100.628 107.838 104.058C108.037 109.012 108.243 114.137 108.014 119.109C107.415 132.084 107.473 145.32 107.532 158.122C107.552 162.44 107.57 166.756 107.565 171.059L107.547 175.408C107.509 182.115 107.468 189.049 108.09 195.756C108.592 201.154 109.764 205.001 111.573 207.193C113.718 209.794 116.615 209.704 119.183 209.63C119.525 209.62 119.874 209.62 120.223 209.615C120.032 211.547 119.818 213.479 119.614 215.299C119.392 217.267 119.186 219.112 119.036 220.712C119.02 220.873 119.043 221.026 119.087 221.174C110.375 219.811 104.011 219.574 103.359 219.553C102.638 219.553 102.067 220.087 102.044 220.789C102.024 221.493 102.574 222.083 103.277 222.106C103.675 222.118 142.909 223.545 162.522 241.16C160.955 244.92 154.321 260.733 148.833 272.172C148.527 272.808 148.795 273.571 149.429 273.877C149.607 273.961 149.796 274.002 149.979 274.002C150.456 274.002 150.909 273.737 151.128 273.28C157.394 260.215 165.142 241.5 165.218 241.313C165.422 240.823 165.3 240.257 164.912 239.892C160.823 236.058 155.911 232.952 150.675 230.426C151.08 230.181 151.34 229.732 151.297 229.226C150.665 222.011 157.261 214.053 162.487 208.017L251.595 209.771C252.62 211.299 253.723 212.828 254.849 214.375C257.389 217.856 259.99 221.452 261.619 225.189C256.594 227.322 252.115 230.204 248.846 234.04C248.39 234.576 248.456 235.38 248.991 235.839C249.524 236.296 250.326 236.235 250.788 235.693C259.672 225.257 280.717 221.347 296.28 222.904C296.379 223.522 296.478 224.14 296.534 224.767C296.59 225.431 297.148 225.931 297.801 225.931C297.839 225.931 297.877 225.929 297.915 225.926C298.616 225.865 299.136 225.245 299.072 224.543C299.026 224.035 298.94 223.537 298.868 223.037C299.826 223.045 299.987 223.109 300.545 224.025C301.391 225.413 301.243 229.798 301.146 232.697C301.098 234.07 301.062 235.285 301.105 236.097C301.824 249.031 304.456 259.899 309.391 270.291C309.607 270.751 310.066 271.019 310.54 271.019C310.723 271.019 310.912 270.978 311.088 270.894C311.722 270.592 311.992 269.832 311.689 269.194C306.904 259.11 304.349 248.546 303.648 235.956C303.605 235.196 303.648 234.065 303.691 232.781C303.847 228.223 303.87 224.584 302.718 222.693C301.467 220.635 300.298 220.482 298.657 220.48C298.58 220.48 298.486 220.477 298.399 220.475C297.936 218.387 297.332 216.343 296.723 214.349C296.193 212.614 295.643 210.822 295.217 209.043C295.184 208.908 295.151 208.727 295.115 208.551C295.355 208.622 295.612 208.671 295.91 208.671C295.966 208.671 296.025 208.671 296.083 208.668C298.244 208.569 302.532 206.586 303.865 205.07C306.28 202.316 306.542 197.89 306.716 194.958C307.207 186.663 307.307 178.246 307.403 170.107C307.493 162.537 307.582 154.712 307.989 146.976C308.499 137.306 308.466 127.508 308.433 118.034C308.423 115.592 308.415 113.142 308.415 110.684C308.415 110.107 308.453 109.117 308.497 107.823C309.006 93.7652 308.899 78.8705 304.231 74.9962C303.156 74.1029 301.859 73.7967 300.489 74.108C299.801 74.2663 299.373 74.9477 299.528 75.6368C299.683 76.3234 300.359 76.7521 301.052 76.599C301.661 76.4586 302.14 76.5735 302.606 76.9614C306.935 80.5549 306.193 101.008 305.951 107.731C305.903 109.066 305.867 110.089 305.867 110.684C305.867 113.147 305.875 115.599 305.885 118.044C305.921 127.919 305.951 137.245 305.447 146.843C305.037 154.63 304.945 162.483 304.856 170.079C304.761 178.19 304.662 186.574 304.173 194.81C304.017 197.39 303.791 201.29 301.949 203.385C300.991 204.477 297.074 206.113 295.91 206.124C295.541 205.899 295.092 205.886 294.71 206.07C294.409 203.985 294.048 201.124 293.632 197.829C292.33 187.503 290.526 173.221 287.912 159.98C287.191 156.317 286.404 152.739 285.551 149.345C285.37 148.625 285.186 147.908 284.998 147.206C283.958 143.314 282.819 139.718 281.573 136.571C281.283 135.831 280.985 135.119 280.679 134.432C280.462 133.942 280.241 133.472 280.017 133.01C279.12 131.16 278.172 129.552 277.171 128.23C276.075 126.788 274.921 125.67 273.693 124.989C271.713 123.891 269.642 123.833 267.535 124.813C266.898 125.111 266.623 125.869 266.918 126.507C267.056 126.806 267.298 127.015 267.578 127.135C267.899 127.273 268.268 127.288 268.61 127.13C269.973 126.497 271.199 126.525 272.462 127.225C282.896 133.005 288.649 178.654 291.102 198.148C291.823 203.867 292.343 207.997 292.738 209.643C293.184 211.499 293.744 213.326 294.285 215.1C294.825 216.866 295.339 218.581 295.755 220.299C287.018 219.548 274.585 220.37 263.991 224.26C262.248 220.235 259.54 216.488 256.9 212.869C255.662 211.169 254.431 209.49 253.333 207.808C251.407 204.868 249.137 202.186 246.938 199.59C244.352 196.543 241.913 193.661 239.98 190.387C236.487 184.481 234 178.478 232.377 172.039C232.191 171.294 231.967 170.441 231.722 169.517C230.428 164.609 228.474 157.193 228.993 153.821C229.1 153.127 228.624 152.474 227.928 152.366C227.243 152.267 226.583 152.739 226.476 153.433C226.374 154.087 226.366 154.868 226.397 155.694C226.44 156.917 226.598 158.288 226.845 159.745C227.426 163.175 228.425 167.008 229.261 170.173C229.503 171.084 229.725 171.929 229.911 172.667C231.595 179.348 234.173 185.573 237.788 191.693C239.837 195.154 242.461 198.253 244.999 201.249C246.614 203.155 248.219 205.138 249.723 207.188L164.657 205.503C164.907 205.212 165.187 204.893 165.422 204.613C166.831 202.941 168.365 201.31 169.847 199.738C173.127 196.259 176.52 192.661 178.875 188.248C181.904 182.572 183.616 176.523 184.426 168.634C184.729 165.663 185.8 162.751 187.025 159.735C187.252 159.176 187.476 158.619 187.71 158.055C188.908 155.161 190.146 152.17 190.814 149.1C190.816 149.082 190.821 149.066 190.826 149.049C190.939 148.53 190.717 147.994 190.271 147.709C190.009 147.54 189.711 147.51 189.415 147.548C189.206 147.578 189 147.624 188.824 147.752C188.358 148.099 187.609 148.903 187.843 150.409C187.843 150.414 187.843 150.419 187.845 150.427C187.188 152.66 186.261 154.896 185.359 157.075C183.85 160.717 182.291 164.482 181.894 168.374C181.122 175.916 179.499 181.673 176.632 187.041C174.439 191.15 171.31 194.468 168 197.982C166.492 199.582 164.933 201.236 163.478 202.964C162.818 203.75 162.089 204.59 161.32 205.473C161.231 205.575 161.136 205.685 161.047 205.789C161.009 205.825 160.981 205.863 160.948 205.902C155.371 212.331 148.028 220.988 148.769 229.443C148.772 229.476 148.789 229.499 148.795 229.532C139.607 225.395 129.622 222.963 121.344 221.536C121.464 221.363 121.561 221.164 121.581 220.939C121.729 219.357 121.933 217.524 122.152 215.577C122.361 213.716 122.58 211.736 122.776 209.755C122.804 209.758 122.832 209.763 122.86 209.763C123.469 209.763 124.009 209.324 124.114 208.701C124.231 208.007 123.767 207.349 123.071 207.229C123.049 207.224 123.026 207.226 123.003 207.221C123.12 205.817 123.224 204.426 123.283 203.109C123.433 199.718 123.535 196.254 123.637 192.763C123.956 181.824 124.287 170.513 126.213 160.23C127.535 153.163 129.841 146.53 132.883 141.045C140.16 127.898 143.235 127.914 143.778 128.054C144.361 128.194 144.945 127.896 145.21 127.373C145.25 127.291 145.304 127.219 145.327 127.13C145.5 126.446 145.087 125.752 144.405 125.578C142.991 125.226 141.426 125.793 139.689 127.235C138.616 128.128 137.469 129.371 136.246 130.979C135.533 131.916 134.789 132.998 134.017 134.184C133.571 134.874 133.128 135.55 132.664 136.323C132.012 137.405 131.344 138.556 130.651 139.81C129.428 142.017 128.358 144.442 127.377 146.958C127.1 147.673 126.794 148.362 126.537 149.097C125.423 152.277 124.531 155.643 123.854 159.109C123.81 159.331 123.747 159.541 123.706 159.763C121.744 170.242 121.41 181.653 121.089 192.689C120.987 196.167 120.888 199.618 120.738 202.995C120.682 204.291 120.577 205.667 120.46 207.058C120.006 207.06 119.555 207.063 119.112 207.076C116.503 207.15 114.829 207.121 113.54 205.562C112.085 203.799 111.079 200.322 110.633 195.514C110.021 188.932 110.062 182.061 110.1 175.415L110.118 171.056C110.123 166.746 110.105 162.425 110.085 158.104C110.029 145.333 109.97 132.13 110.564 119.218C110.798 114.137 110.592 108.956 110.391 103.948C110.253 100.546 110.113 97.0243 110.118 93.6401C110.121 92.5197 110.032 91.1721 109.935 89.7071C109.812 87.8568 109.688 85.7818 109.728 83.7656C109.881 83.7069 110.024 83.6201 110.149 83.5002C110.658 83.0152 110.679 82.2062 110.195 81.6957C110.095 81.5911 109.981 81.5248 109.876 81.4278C110.21 78.383 111.17 75.7848 113.563 74.8303C114.062 74.6312 114.36 74.1489 114.36 73.641C114.36 73.4827 114.337 73.3245 114.276 73.1714C114.016 72.5257 113.272 72.2066 112.62 72.4644Z" fill="black"/>
<path d="M134.972 85.9863H123.851V93.1146H134.972V85.9863Z" fill="#0B376B"/>
<path d="M149.184 85.9863H138.066V93.1146H149.184V85.9863Z" fill="#0B376B"/>
<path d="M163.447 85.9863H152.326V93.1146H163.447V85.9863Z" fill="#0B376B"/>
<path d="M177.659 85.9863H166.538V93.1146H177.659V85.9863Z" fill="#0B376B"/>
<path d="M192.179 85.9863H181.055V93.1146H192.179V85.9863Z" fill="#0B376B"/>
<path d="M206.394 85.9863H195.27V93.1146H206.394V85.9863Z" fill="#0B376B"/>
<path d="M220.649 85.9863H209.53V93.1146H220.649V85.9863Z" fill="#0B376B"/>
<path d="M234.864 85.9863H223.745V93.1146H234.864V85.9863Z" fill="#0B376B"/>
<path d="M248.808 85.9863H237.684V93.1146H248.808V85.9863Z" fill="#0B376B"/>
<path d="M263.071 85.9863H251.947V93.1146H263.071V85.9863Z" fill="#0B376B"/>
<path d="M277.01 85.9863H265.884V93.1146H277.01V85.9863Z" fill="#0B376B"/>
<path d="M291.27 85.9863H280.146V93.1146H291.27V85.9863Z" fill="#0B376B"/>
<path d="M136.244 97.4707H123.851V108.106H136.244V97.4707Z" fill="#0B376B"/>
<path d="M152.079 97.4707H139.686V108.106H152.079V97.4707Z" fill="#0B376B"/>
<path d="M167.97 97.4707H155.577V108.106H167.97V97.4707Z" fill="#0B376B"/>
<path d="M183.802 97.4707H171.409V108.106H183.802V97.4707Z" fill="#0B376B"/>
<path d="M199.978 97.4707H187.586V108.106H199.978V97.4707Z" fill="#0B376B"/>
<path d="M215.813 97.4707H203.421V108.106H215.813V97.4707Z" fill="#0B376B"/>
<path d="M231.702 97.4707H219.309V108.106H231.702V97.4707Z" fill="#0B376B"/>
<path d="M247.537 97.4707H235.144V108.106H247.537V97.4707Z" fill="#0B376B"/>
<path d="M263.071 97.4707H250.678V108.106H263.071V97.4707Z" fill="#0B376B"/>
<path d="M291.27 97.4707H265.884V108.106H291.27V97.4707Z" fill="#0B376B"/>
<path d="M120.31 67.6948H291.016L307.452 8.57031H103.323L120.31 67.6948ZM277.273 50.8681C277.14 51.4525 276.625 51.866 276.029 51.866H237.684C236.981 51.866 236.41 51.2943 236.41 50.5899V39.2019C236.41 38.4975 236.981 37.9258 237.684 37.9258H278.58C278.964 37.9258 279.334 38.1019 279.576 38.4056C279.818 38.7093 279.91 39.1049 279.826 39.4827L277.273 50.8681ZM203.421 20.0272H278.58C279.283 20.0272 279.854 20.5989 279.854 21.3033C279.854 22.0077 279.283 22.5794 278.58 22.5794H203.421C202.717 22.5794 202.147 22.0077 202.147 21.3033C202.147 20.5989 202.715 20.0272 203.421 20.0272ZM203.421 27.6915H278.58C279.283 27.6915 279.854 28.2632 279.854 28.9676C279.854 29.672 279.283 30.2437 278.58 30.2437H203.421C202.717 30.2437 202.147 29.672 202.147 28.9676C202.147 28.2632 202.715 27.6915 203.421 27.6915ZM202.399 36.0065C207.033 36.0065 210.804 39.3576 210.804 43.4743C210.804 45.169 210.139 46.7182 209.064 47.9713L219.021 55.2885C219.589 55.707 219.711 56.5059 219.294 57.0725C219.044 57.4119 218.657 57.5931 218.267 57.5931C218.002 57.5931 217.739 57.514 217.513 57.3456L207.072 49.6736C205.734 50.4725 204.126 50.9395 202.396 50.9395C197.762 50.9395 193.991 47.5885 193.991 43.4718C193.991 39.3551 197.767 36.0065 202.399 36.0065ZM124.942 20.5019C125.184 20.2033 125.548 20.0272 125.933 20.0272H184.956C185.659 20.0272 186.23 20.5989 186.23 21.3033V50.5899C186.23 51.2943 185.659 51.866 184.956 51.866H132.198C131.597 51.866 131.079 51.4449 130.952 50.8578L124.687 21.5713C124.605 21.1935 124.7 20.8005 124.942 20.5019Z" fill="white"/>
<path d="M238.958 49.3133H275.01L276.987 40.4775H238.958V49.3133Z" fill="white"/>
<path d="M183.682 49.3135V22.5791H127.507L133.227 49.3135H183.682Z" fill="white"/>
<path d="M202.399 48.3897C205.634 48.3897 208.256 46.1889 208.256 43.4741C208.256 40.7594 205.634 38.5586 202.399 38.5586C199.164 38.5586 196.541 40.7594 196.541 43.4741C196.541 46.1889 199.164 48.3897 202.399 48.3897Z" fill="white"/>
<path d="M102.763 226.365C102.064 226.439 101.557 227.07 101.634 227.772C101.909 230.321 101.445 233.039 100.999 235.671C100.742 237.182 100.477 238.741 100.347 240.28C100.148 242.626 99.9675 244.976 99.7892 247.327C99.2185 254.784 98.6299 262.494 97.3967 269.965C97.2821 270.659 97.7509 271.317 98.4464 271.432C98.5178 271.445 98.5866 271.45 98.6554 271.45C99.2669 271.45 99.807 271.006 99.9115 270.383C101.162 262.801 101.756 255.032 102.332 247.521C102.51 245.178 102.691 242.835 102.887 240.494C103.01 239.063 103.254 237.626 103.514 236.1C103.991 233.297 104.482 230.4 104.169 227.499C104.09 226.799 103.466 226.276 102.763 226.365Z" fill="black"/>
<path d="M256.046 254.541C254.76 248.666 253.43 242.589 248.923 238.973C248.38 238.531 247.577 238.618 247.134 239.17C246.693 239.718 246.78 240.522 247.33 240.961C251.132 244.016 252.367 249.644 253.557 255.085C254.724 260.412 255.932 265.919 259.557 269.388C259.807 269.625 260.123 269.742 260.439 269.742C260.775 269.742 261.112 269.61 261.359 269.349C261.845 268.839 261.827 268.03 261.318 267.545C258.253 264.612 257.18 259.72 256.046 254.541Z" fill="black"/>
<path d="M150.458 246.349C150.604 246.349 150.751 246.323 150.897 246.272C151.556 246.027 151.898 245.295 151.653 244.634C150.112 240.417 143.462 237.898 138.606 236.066C137.551 235.668 136.601 235.308 135.841 234.979C131.721 233.197 127.405 232.212 123.232 231.26C119.382 230.382 115.744 229.553 112.294 228.151C111.642 227.891 110.898 228.202 110.635 228.856C110.37 229.509 110.686 230.252 111.339 230.517C114.979 231.992 118.888 232.886 122.666 233.748C126.728 234.675 130.926 235.632 134.83 237.319C135.62 237.661 136.608 238.034 137.704 238.45C141.852 240.017 148.117 242.388 149.261 245.509C149.452 246.03 149.939 246.349 150.458 246.349Z" fill="black"/>
<path d="M288.407 231.559C288.348 231.582 288.287 231.608 288.228 231.631C286.694 231.876 285.008 232.083 283.237 232.302C274.465 233.387 263.542 234.737 258.156 241.743C257.728 242.302 257.832 243.101 258.39 243.532C258.622 243.708 258.895 243.797 259.168 243.797C259.547 243.797 259.927 243.626 260.176 243.3C264.91 237.141 275.244 235.862 283.55 234.837C284.442 234.727 285.308 234.62 286.149 234.51C286.483 234.808 286.957 234.918 287.41 234.77C288.042 234.556 288.952 234.173 289.357 233.999C289.691 233.859 289.938 233.588 290.053 233.269C290.195 232.961 290.211 232.593 290.07 232.256C289.803 231.6 289.064 231.289 288.407 231.559Z" fill="black"/>
<path d="M38.0598 49.9033C22.6988 49.9033 10.2449 62.3785 10.2449 77.7658C10.2449 93.153 22.6988 105.628 38.0598 105.628C53.4208 105.628 65.8722 93.1556 65.8722 77.7658C65.8722 62.376 53.4208 49.9033 38.0598 49.9033ZM38.0598 101.004C25.2518 101.004 14.8642 90.6008 14.8642 77.7683C14.8642 64.9358 25.2518 54.533 38.0598 54.533C50.8704 54.533 61.2554 64.9358 61.2554 77.7683C61.2554 90.6008 50.8704 101.004 38.0598 101.004Z" fill="black"/>
<path d="M38.0598 101.001C50.8704 101.001 61.2555 90.5981 61.2555 77.7656C61.2555 64.9331 50.8704 54.5303 38.0598 54.5303C25.2492 54.5303 14.8642 64.9331 14.8642 77.7656C14.8642 90.5981 25.2492 101.001 38.0598 101.001Z" fill="#0B376B"/>
<path d="M7.69706 74.5166H2.54785C1.13889 74.5166 0 76.1577 0 78.1867C0 80.2157 1.13889 81.8568 2.54785 81.8568H7.69706C9.10347 81.8568 10.2449 80.2157 10.2449 78.1867C10.2449 76.1577 9.10093 74.5166 7.69706 74.5166Z" fill="black"/>
<path d="M190.564 128.984C190.483 128.973 190.406 128.943 190.322 128.948C189.619 128.973 189.071 129.568 189.099 130.272C189.173 132.204 187.395 134.08 185.84 135.721C185.137 136.467 184.419 137.199 183.705 137.927C181.613 140.058 179.453 142.26 177.646 144.807C174.449 149.32 171.31 155.223 168.808 161.435C168.546 162.091 168.861 162.834 169.514 163.096C169.669 163.158 169.832 163.188 169.99 163.188C170.276 163.188 170.535 163.071 170.76 162.897C170.93 162.765 171.086 162.606 171.172 162.392C171.537 161.491 171.934 160.618 172.324 159.735C174.013 155.892 175.904 152.26 177.881 149.1C178.345 148.36 178.813 147.645 179.282 146.961C179.432 146.744 179.578 146.494 179.725 146.282C180.938 144.57 182.342 143.039 183.805 141.512C184.375 140.915 184.928 140.32 185.522 139.713C186.177 139.044 186.847 138.36 187.586 137.585C187.665 137.5 187.736 137.429 187.815 137.345C188.116 137.028 188.434 136.684 188.755 136.326C189.339 135.678 189.925 134.968 190.419 134.188C191.17 133.001 191.7 131.661 191.644 130.173C191.621 129.558 191.142 129.068 190.564 128.984Z" fill="black"/>
<path d="M231.702 139.256C232.907 140.496 234.056 141.821 235.144 143.278C235.388 143.605 235.643 143.908 235.88 144.253C236.502 145.156 237.088 146.06 237.636 146.963C238.069 147.673 238.461 148.388 238.851 149.102C239.931 151.083 240.859 153.084 241.623 155.131C241.786 155.575 242.186 155.825 242.619 155.899C242.688 155.911 242.747 155.96 242.818 155.96C242.968 155.96 243.116 155.934 243.264 155.881C243.924 155.633 244.26 154.898 244.013 154.237C242.548 150.312 240.573 146.573 237.977 142.803C235.585 139.33 232.93 136.798 230.119 134.121C229.424 133.457 228.713 132.781 227.997 132.079C227.493 131.586 226.687 131.597 226.196 132.099C226.099 132.199 226.038 132.314 225.979 132.434C225.742 132.916 225.814 133.508 226.216 133.904C226.316 134.003 226.412 134.093 226.514 134.19C227.136 134.795 227.752 135.389 228.364 135.969C228.491 136.088 228.611 136.208 228.736 136.328C229.75 137.296 230.741 138.263 231.702 139.256Z" fill="black"/>
<path d="M237.768 126.901C238.122 127.526 238.459 128.116 238.785 128.603C240.186 130.691 241.34 132.508 242.347 134.19C242.785 134.925 243.203 135.64 243.585 136.329C243.593 136.344 243.605 136.362 243.613 136.377C243.728 136.587 243.893 136.75 244.087 136.86C244.28 136.972 244.502 137.033 244.726 137.033C244.938 137.033 245.149 136.982 245.345 136.873C245.959 136.531 246.181 135.752 245.837 135.137C244.535 132.792 242.966 130.262 240.899 127.182C240.604 126.74 240.303 126.207 239.982 125.64C238.8 123.555 237.327 120.962 234.879 120.278C234.746 120.242 234.614 120.245 234.486 120.25C233.949 120.273 233.462 120.618 233.309 121.164C233.121 121.843 233.516 122.547 234.193 122.736C234.644 122.861 235.065 123.165 235.467 123.555C236.346 124.415 237.113 125.747 237.768 126.901Z" fill="black"/>
<path d="M183.196 117.039C182.844 116.426 182.069 116.217 181.455 116.569C180.885 116.899 180.683 117.6 180.946 118.19C180.964 118.231 180.964 118.274 180.987 118.313C182.258 120.523 177.496 124.836 175.206 126.908C174.507 127.541 173.911 128.082 173.521 128.493C173.037 129.004 173.058 129.813 173.567 130.298C173.814 130.533 174.13 130.65 174.446 130.65C174.783 130.65 175.119 130.517 175.369 130.254C175.725 129.879 176.273 129.384 176.913 128.805C177.985 127.835 179.297 126.64 180.485 125.339C181.01 124.762 181.506 124.167 181.952 123.557C182.462 122.858 182.89 122.141 183.206 121.419C183.853 119.931 183.996 118.432 183.196 117.039Z" fill="black"/>
<path d="M168.212 114.765C167.878 115.434 167.565 116.125 167.249 116.817C166.663 118.111 166.054 119.448 165.312 120.597C164.93 121.189 165.101 121.98 165.689 122.36C165.903 122.498 166.143 122.565 166.38 122.565C166.798 122.565 167.208 122.358 167.45 121.98C167.526 121.86 167.585 121.727 167.661 121.608C167.7 121.544 167.733 121.477 167.771 121.414C167.84 121.299 167.903 121.179 167.97 121.061C168.558 120.017 169.086 118.938 169.567 117.874C169.87 117.21 170.171 116.546 170.492 115.906C170.808 115.275 170.551 114.51 169.921 114.193C169.687 114.078 169.442 114.063 169.2 114.091C168.793 114.145 168.413 114.369 168.212 114.765Z" fill="black"/>
<path d="M190.373 167.233C194.248 167.233 198.231 166.98 202.085 166.738C206.916 166.432 211.902 166.125 216.682 166.304C216.82 166.355 216.962 166.383 217.118 166.383H218.269C218.96 166.383 219.52 165.835 219.543 165.148C219.564 164.459 219.036 163.877 218.348 163.834C212.965 163.497 207.352 163.849 201.922 164.191C198.108 164.433 194.167 164.681 190.37 164.681C189.667 164.681 189.096 165.253 189.096 165.957C189.096 166.661 189.667 167.233 190.373 167.233Z" fill="black"/>
<path d="M225.508 175.03H186.617V194.455H225.508V175.03Z" fill="#0B376B"/>
<path d="M132.198 51.8661H184.956C185.659 51.8661 186.23 51.2945 186.23 50.59V21.3034C186.23 20.599 185.659 20.0273 184.956 20.0273H125.933C125.548 20.0273 125.184 20.2009 124.942 20.5021C124.7 20.8032 124.605 21.1937 124.687 21.5714L130.952 50.858C131.077 51.445 131.597 51.8661 132.198 51.8661ZM183.682 22.5796V49.3139H133.227L127.507 22.5796H183.682Z" fill="black"/>
<path d="M203.42 22.5796H278.58C279.283 22.5796 279.853 22.0079 279.853 21.3034C279.853 20.599 279.283 20.0273 278.58 20.0273H203.42C202.717 20.0273 202.147 20.599 202.147 21.3034C202.147 22.0079 202.715 22.5796 203.42 22.5796Z" fill="black"/>
<path d="M203.42 30.2436H278.58C279.283 30.2436 279.853 29.6719 279.853 28.9675C279.853 28.2631 279.283 27.6914 278.58 27.6914H203.42C202.717 27.6914 202.147 28.2631 202.147 28.9675C202.147 29.6719 202.715 30.2436 203.42 30.2436Z" fill="black"/>
<path d="M278.58 37.9258H237.684C236.981 37.9258 236.41 38.4975 236.41 39.2019V50.5898C236.41 51.2942 236.981 51.8659 237.684 51.8659H276.029C276.625 51.8659 277.143 51.4525 277.273 50.868L279.823 39.4801C279.907 39.1023 279.815 38.7068 279.573 38.403C279.331 38.0993 278.964 37.9258 278.58 37.9258ZM275.01 49.3137H238.958V40.478H276.987L275.01 49.3137Z" fill="black"/>
<path d="M399.48 107.228C397.531 105.794 395.799 104.451 394.221 103.229C391.123 100.832 388.677 98.936 386.313 97.6395C383.034 95.8402 378.723 93.3059 375.26 91.2666C373.63 90.3096 372.226 89.4801 371.263 88.9288C370.659 88.5792 369.874 88.7885 369.525 89.4035C369.174 90.0161 369.385 90.7945 369.999 91.1467C370.954 91.6929 372.353 92.5172 373.971 93.4692C377.449 95.5161 381.778 98.0606 385.09 99.8778C387.279 101.08 389.656 102.92 392.665 105.248C394.092 106.353 395.646 107.555 397.368 108.836C396.818 111.651 394.051 115.395 391.992 118.185C391.077 119.425 390.282 120.497 389.781 121.347C385.289 128.96 371.25 151.386 365.749 156.292C365.517 156.499 364.05 157.315 358.236 153.125C357.441 152.553 355.492 151.381 353.023 149.899C348.46 147.163 338.023 140.897 336.505 138.789C344.775 125.007 351.209 115.306 356.167 109.147C358.605 106.115 361.084 102.769 363.479 99.5333C365.334 97.0346 367.173 94.5462 368.99 92.211C369.423 91.6546 369.324 90.8532 368.768 90.4193C368.21 89.988 367.413 90.085 366.98 90.6414C365.15 92.9919 363.298 95.4931 361.433 98.0121C359.051 101.228 356.59 104.553 354.179 107.542C349.102 113.854 342.528 123.774 334.079 137.87C333.142 139.437 334.597 141.129 340.077 144.832C343.647 147.244 348.118 149.929 351.711 152.088C354.034 153.482 356.039 154.686 356.748 155.197C359.224 156.978 362.468 159.051 365.049 159.051C365.95 159.051 366.768 158.798 367.441 158.196C373.612 152.696 388.596 128.371 391.974 122.646C392.41 121.908 393.164 120.885 394.041 119.701C396.591 116.25 399.763 111.955 400.003 108.338C400.025 107.905 399.832 107.486 399.48 107.228Z" fill="black"/>
<path d="M367.966 148.737C368.929 147.645 388.991 114.91 392.117 111.518C394.968 108.425 390.555 106.952 388.188 105.194C385.658 103.315 374.565 95.6001 372.702 95.156L370.84 94.7119C370.575 96.4117 342.933 132.283 343.486 134.871C343.603 135.415 357.757 143.77 360.926 145.976C363.451 147.734 366.134 150.812 367.966 148.737Z" fill="#0B376B"/>
<path d="M352.686 147.566C354.006 147.566 355.076 146.494 355.076 145.172C355.076 143.85 354.006 142.778 352.686 142.778C351.367 142.778 350.297 143.85 350.297 145.172C350.297 146.494 351.367 147.566 352.686 147.566Z" fill="#0B376B"/>
<path d="M202.399 50.9388C204.129 50.9388 205.736 50.4692 207.074 49.6729L217.515 57.3449C217.742 57.5108 218.004 57.5924 218.269 57.5924C218.659 57.5924 219.049 57.4112 219.296 57.0718C219.711 56.5026 219.589 55.7038 219.024 55.2878L209.067 47.9706C210.142 46.7149 210.807 45.1683 210.807 43.4736C210.807 39.3569 207.038 36.0059 202.401 36.0059C197.767 36.0059 193.996 39.3569 193.996 43.4736C193.996 47.5903 197.767 50.9388 202.399 50.9388ZM202.399 38.5581C205.629 38.5581 208.256 40.7632 208.256 43.4736C208.256 46.1841 205.629 48.3892 202.399 48.3892C199.168 48.3892 196.541 46.1841 196.541 43.4736C196.541 40.7632 199.171 38.5581 202.399 38.5581Z" fill="black"/>
</g>
<defs>
<clipPath id="clip0_407_708">
<rect width="400" height="274" fill="white"/>
</clipPath>
</defs>
</svg>
