<?xml version="1.0" encoding="UTF-8" standalone="no" ?>
<!DOCTYPE svg PUBLIC "-//W3C//DTD SVG 1.1//EN" "http://www.w3.org/Graphics/SVG/1.1/DTD/svg11.dtd">
<svg xmlns="http://www.w3.org/2000/svg" xmlns:xlink="http://www.w3.org/1999/xlink" version="1.1" width="1080" height="1080" viewBox="0 0 1080 1080" xml:space="preserve">
<desc>Created with Fabric.js 5.2.4</desc>
<defs>
</defs>
<rect x="0" y="0" width="100%" height="100%" fill="transparent"></rect>
<g transform="matrix(1 0 0 1 540 540)" id="783b07bb-231e-4691-af69-cd709a0177ce"  >
<rect style="stroke: none; stroke-width: 1; stroke-dasharray: none; stroke-linecap: butt; stroke-dashoffset: 0; stroke-linejoin: miter; stroke-miterlimit: 4; fill: #fff; fill-rule: nonzero; opacity: 1; visibility: hidden;" vector-effect="non-scaling-stroke"  x="-540" y="-540" rx="0" ry="0" width="1080" height="1080" />
</g>
<g transform="matrix(1 0 0 1 540 540)" id="f81ddbaf-d3e6-4eb6-809e-ac2ea47be535"  >
</g>
<g transform="matrix(11.89 0 0 11.89 539.58 538.78)"  >
<path style="stroke: none; stroke-width: 1; stroke-dasharray: none; stroke-linecap: butt; stroke-dashoffset: 0; stroke-linejoin: miter; stroke-miterlimit: 4; fill: #fff; fill-rule: nonzero; opacity: 1;" vector-effect="non-scaling-stroke"  transform=" translate(-50, -50)" d="M 87.5 62.5 L 87.34375 62.5 C 86.40625 60.4688 85.15625 58.5938 83.59375 57.0312 C 79.99995 53.4374 75.31255 51.5624 70.31275 51.5624 L 57.656749999999995 51.5624 C 56.875499999999995 47.968599999999995 53.75055 45.3124 50.00055 45.3124 C 46.25055 45.3124 43.12555 47.968599999999995 42.34435 51.5624 L 29.68835 51.5624 C 23.90715 51.5624 18.59435 48.4374 15.93835 43.2812 C 18.594549999999998 42.0312 20.31335 39.375 20.31335 36.25 C 20.31335 33.125 18.43835 30.3125 15.62585 29.0625 C 16.4071 27.5 17.34465 26.0937 18.59465 24.8437 C 21.563450000000003 21.874899999999997 25.46965 20.3125 29.688650000000003 20.3125 L 42.34465 20.3125 C 43.1259 23.9063 46.25085 26.5625 50.00085 26.5625 C 53.75085 26.5625 56.87585 23.9063 57.65705 20.3125 L 67.34455 20.3125 C 68.1258 27.3437 74.06335 32.8125 81.25055 32.8125 C 89.06305 32.8125 95.31255 26.5625 95.31255 18.750500000000002 C 95.31255 10.938500000000005 89.06255 4.688500000000003 81.25055 4.688500000000003 C 74.06305 4.688500000000003 68.12555 10.157300000000003 67.34455 17.188500000000005 L 57.65705 17.188500000000005 C 56.8758 13.594700000000005 53.75085 10.938500000000005 50.00085 10.938500000000005 C 46.25085 10.938500000000005 43.12585 13.594700000000005 42.34465 17.188500000000005 L 29.688650000000003 17.188500000000005 C 24.688650000000003 17.188500000000005 20.001150000000003 19.063500000000005 16.407650000000004 22.657300000000006 C 14.688850000000004 24.376100000000008 13.438850000000004 26.407300000000006 12.501450000000004 28.438500000000005 C 8.126450000000004 28.438500000000005 4.688950000000004 31.876000000000005 4.688950000000004 36.251000000000005 C 4.688950000000004 40.626000000000005 8.126450000000004 44.063500000000005 12.501450000000004 44.063500000000005 L 12.813950000000004 44.063500000000005 C 15.938950000000004 50.4697 22.501450000000006 54.688500000000005 29.688950000000006 54.688500000000005 L 42.344950000000004 54.688500000000005 C 43.126200000000004 58.282300000000006 46.25115 60.938500000000005 50.00115 60.938500000000005 C 53.75115 60.938500000000005 56.87615 58.282300000000006 57.65735 54.688500000000005 L 70.31335 54.688500000000005 C 74.53215 54.688500000000005 78.43835 56.251000000000005 81.40735 59.2197 C 82.50115 60.313500000000005 83.59485 61.7197 84.21985 63.1259 C 81.56365 64.5321 79.68865 67.1884 79.68865 70.3134 C 79.68865 73.4384 81.56365 76.0946 84.21985 77.3446 C 81.56365 82.5008 76.25104999999999 85.9384 70.31384999999999 85.9384 L 57.65784999999999 85.9384 C 56.87659999999999 82.3446 53.75164999999999 79.6884 50.00164999999999 79.6884 C 46.25164999999999 79.6884 43.12664999999999 82.3446 42.34544999999999 85.9384 L 20.157449999999994 85.9384 C 19.376199999999994 82.3446 16.25124999999999 79.6884 12.501249999999994 79.6884 C 8.126249999999994 79.6884 4.6887499999999935 83.1259 4.6887499999999935 87.5009 C 4.6887499999999935 91.8759 8.126249999999994 95.3134 12.501249999999994 95.3134 C 16.25124999999999 95.3134 19.37624999999999 92.6572 20.157449999999994 89.0634 L 42.34544999999999 89.0634 C 43.12669999999999 92.6572 46.25164999999999 95.3134 50.00164999999999 95.3134 C 53.75164999999999 95.3134 56.87664999999999 92.6572 57.65784999999999 89.0634 L 70.31384999999999 89.0634 C 77.65764999999999 89.0634 84.37584999999999 84.6884 87.34484999999998 78.1254 L 87.50109999999998 78.1254 C 91.87609999999998 78.1254 95.31359999999998 74.6879 95.31359999999998 70.3129 C 95.31359999999998 65.9379 91.87609999999998 62.5004 87.50109999999998 62.5004 z M 75.625 17.5 C 76.40625 17.03125 77.3438 17.1875 77.8125 17.96875 L 79.6875 20.78125 L 84.6875 13.28125 C 85.15625 12.5 86.0937 12.34375 86.875 12.8125 C 87.6563 13.28125 87.8125 14.2187 87.34375 15 L 81.09375 24.375 C 80.625 24.6875 80.15625 25 79.68755 25 C 79.21885 25 78.75005 24.6875 78.43755 24.375 L 75.31255 19.6875 C 74.8438 18.90625 75.00005 17.9687 75.62505 17.5 z" stroke-linecap="round" />
</g>
</svg>