<?xml version="1.0" encoding="UTF-8" standalone="no" ?>
<!DOCTYPE svg PUBLIC "-//W3C//DTD SVG 1.1//EN" "http://www.w3.org/Graphics/SVG/1.1/DTD/svg11.dtd">
<svg xmlns="http://www.w3.org/2000/svg" xmlns:xlink="http://www.w3.org/1999/xlink" version="1.1" width="1080" height="870" viewBox="0 0 1080 870" xml:space="preserve">
<desc>Created with Fabric.js 5.2.4</desc>
<defs>
</defs>
<g transform="matrix(1 0 0 1 540 435)" id="ff1f58e9-937d-44a1-b01c-3831f31e95ab"  >
<rect style="stroke: none; stroke-width: 1; stroke-dasharray: none; stroke-linecap: butt; stroke-dashoffset: 0; stroke-linejoin: miter; stroke-miterlimit: 4; fill: rgb(255,255,255); fill-rule: nonzero; opacity: 1; visibility: hidden;" vector-effect="non-scaling-stroke"  x="-540" y="-435" rx="0" ry="0" width="1080" height="870" />
</g>
<g transform="matrix(Infinity NaN NaN Infinity 0 0)" id="7dc26c75-1072-4f86-adae-bd943c2bcf38"  >
</g>
<g transform="matrix(1.41 0 0 1.41 540 435)"  >
<g style="" vector-effect="non-scaling-stroke"   >
		<g transform="matrix(1.56 0 0 1.56 0 0)"  >
<path style="stroke: none; stroke-width: 1; stroke-dasharray: none; stroke-linecap: butt; stroke-dashoffset: 0; stroke-linejoin: miter; stroke-miterlimit: 4; fill: rgb(255,255,255); fill-rule: nonzero; opacity: 1;" vector-effect="non-scaling-stroke"  transform=" translate(-256, -256.05)" d="M 12.3 95.5 L 12.3 416.6 C 12.3 436.90000000000003 28.8 453.5 49.2 453.5 L 462.9 453.5 C 483.2 453.5 499.7 437 499.7 416.6 L 499.7 95.5 C 499.7 75.2 483.2 58.6 462.9 58.6 L 49.2 58.6 C 28.9 58.6 12.3 75.1 12.3 95.5 z M 462.8 428.9 L 49.2 428.9 C 42.400000000000006 428.9 36.800000000000004 423.4 36.800000000000004 416.5 L 36.800000000000004 175.7 L 475.1 175.7 L 475.1 416.6 C 475.2 423.3 469.6 428.9 462.8 428.9 z M 475.2 95.5 L 475.2 151.2 L 36.8 151.2 L 36.8 95.5 C 36.8 88.7 42.3 83.1 49.199999999999996 83.1 L 462.9 83.1 C 469.6 83.1 475.2 88.7 475.2 95.5 z" stroke-linecap="round" />
</g>
		<g transform="matrix(1.56 0 0 1.56 -289.14 -216.99)"  >
<path style="stroke: none; stroke-width: 1; stroke-dasharray: none; stroke-linecap: butt; stroke-dashoffset: 0; stroke-linejoin: miter; stroke-miterlimit: 4; fill: rgb(255,255,255); fill-rule: nonzero; opacity: 1;" vector-effect="non-scaling-stroke"  transform=" translate(-70.95, -117.18)" d="M 70.9 129.4 C 74.10000000000001 129.4 77.30000000000001 128.1 79.60000000000001 125.80000000000001 C 81.9 123.50000000000001 83.2 120.4 83.2 117.10000000000001 C 83.2 113.9 81.9 110.7 79.60000000000001 108.4 C 75.00000000000001 103.80000000000001 66.80000000000001 103.80000000000001 62.30000000000001 108.4 C 60.000000000000014 110.7 58.70000000000001 113.80000000000001 58.70000000000001 117.10000000000001 C 58.70000000000001 120.30000000000001 60.00000000000001 123.50000000000001 62.30000000000001 125.80000000000001 C 64.5 128.1 67.6 129.4 70.9 129.4 z" stroke-linecap="round" />
</g>
		<g transform="matrix(1.56 0 0 1.56 -216.95 -216.99)"  >
<path style="stroke: none; stroke-width: 1; stroke-dasharray: none; stroke-linecap: butt; stroke-dashoffset: 0; stroke-linejoin: miter; stroke-miterlimit: 4; fill: rgb(255,255,255); fill-rule: nonzero; opacity: 1;" vector-effect="non-scaling-stroke"  transform=" translate(-117.15, -117.18)" d="M 117.2 129.4 C 120.4 129.4 123.60000000000001 128.1 125.8 125.80000000000001 C 128.1 123.50000000000001 129.4 120.4 129.4 117.10000000000001 C 129.4 113.9 128.1 110.7 125.80000000000001 108.4 C 121.20000000000002 103.80000000000001 113.10000000000001 103.80000000000001 108.50000000000001 108.4 C 106.20000000000002 110.7 104.90000000000002 113.80000000000001 104.90000000000002 117.10000000000001 C 104.90000000000002 120.30000000000001 106.20000000000002 123.50000000000001 108.50000000000001 125.80000000000001 C 110.7 128.1 113.9 129.4 117.2 129.4 z" stroke-linecap="round" />
</g>
		<g transform="matrix(1.56 0 0 1.56 -144.61 -216.99)"  >
<path style="stroke: none; stroke-width: 1; stroke-dasharray: none; stroke-linecap: butt; stroke-dashoffset: 0; stroke-linejoin: miter; stroke-miterlimit: 4; fill: rgb(255,255,255); fill-rule: nonzero; opacity: 1;" vector-effect="non-scaling-stroke"  transform=" translate(-163.45, -117.18)" d="M 163.4 129.4 C 166.6 129.4 169.8 128.1 172.1 125.80000000000001 C 174.4 123.50000000000001 175.7 120.4 175.7 117.10000000000001 C 175.7 113.9 174.39999999999998 110.7 172.1 108.4 C 167.5 103.80000000000001 159.29999999999998 103.80000000000001 154.79999999999998 108.4 C 152.49999999999997 110.7 151.2 113.80000000000001 151.2 117.10000000000001 C 151.2 120.30000000000001 152.5 123.50000000000001 154.79999999999998 125.80000000000001 C 157 128.1 160.2 129.4 163.4 129.4 z" stroke-linecap="round" />
</g>
		<g transform="matrix(1.56 0 0 1.56 171.92 73.98)"  >
<path style="stroke: none; stroke-width: 1; stroke-dasharray: none; stroke-linecap: butt; stroke-dashoffset: 0; stroke-linejoin: miter; stroke-miterlimit: 4; fill: rgb(255,255,255); fill-rule: nonzero; opacity: 1;" vector-effect="non-scaling-stroke"  transform=" translate(-366.03, -303.4)" d="M 337.6 232.3 C 332.40000000000003 227.9 324.70000000000005 228.60000000000002 320.3 233.70000000000002 C 315.90000000000003 238.9 316.6 246.60000000000002 321.7 251.00000000000003 L 383.5 303.3 L 321.7 355.8 C 316.5 360.2 315.9 367.90000000000003 320.3 373.1 C 322.7 376 326.2 377.40000000000003 329.6 377.40000000000003 C 332.40000000000003 377.40000000000003 335.20000000000005 376.40000000000003 337.5 374.50000000000006 L 410.4 312.70000000000005 C 413.09999999999997 310.40000000000003 414.7 307.00000000000006 414.7 303.30000000000007 C 414.7 299.70000000000005 413.09999999999997 296.30000000000007 410.4 294.00000000000006 L 337.6 232.3 z" stroke-linecap="round" />
</g>
		<g transform="matrix(1.56 0 0 1.56 -172.24 73.8)"  >
<path style="stroke: none; stroke-width: 1; stroke-dasharray: none; stroke-linecap: butt; stroke-dashoffset: 0; stroke-linejoin: miter; stroke-miterlimit: 4; fill: rgb(255,255,255); fill-rule: nonzero; opacity: 1;" vector-effect="non-scaling-stroke"  transform=" translate(-145.77, -303.28)" d="M 128.4 303.3 L 190.10000000000002 251 C 195.3 246.6 195.90000000000003 238.9 191.50000000000003 233.7 C 187.10000000000002 228.5 179.40000000000003 227.89999999999998 174.20000000000002 232.29999999999998 L 101.40000000000002 293.9 C 98.70000000000002 296.2 97.10000000000002 299.59999999999997 97.10000000000002 303.2 C 97.10000000000002 306.8 98.70000000000002 310.2 101.40000000000002 312.5 L 174.20000000000002 374.3 C 176.50000000000003 376.3 179.3 377.2 182.10000000000002 377.2 C 185.60000000000002 377.2 189.00000000000003 375.7 191.40000000000003 372.9 C 195.80000000000004 367.7 195.20000000000005 360 190.00000000000003 355.59999999999997 L 128.4 303.3 z" stroke-linecap="round" />
</g>
		<g transform="matrix(1.56 0 0 1.56 -0.44 74)"  >
<path style="stroke: none; stroke-width: 1; stroke-dasharray: none; stroke-linecap: butt; stroke-dashoffset: 0; stroke-linejoin: miter; stroke-miterlimit: 4; fill: rgb(255,255,255); fill-rule: nonzero; opacity: 1;" vector-effect="non-scaling-stroke"  transform=" translate(-255.72, -303.41)" d="M 291.1 214.9 C 284.8 212.4 277.70000000000005 215.4 275.20000000000005 221.70000000000002 L 213.5 376 C 211 382.3 214 389.4 220.3 391.9 C 221.8 392.5 223.3 392.79999999999995 224.8 392.79999999999995 C 229.70000000000002 392.79999999999995 234.3 389.9 236.20000000000002 385.09999999999997 L 297.90000000000003 230.79999999999995 C 300.5 224.5 297.4 217.4 291.1 214.9 z" stroke-linecap="round" />
</g>
</g>
</g>
</svg>