<svg width="20" height="23" viewBox="0 0 20 23" fill="none" xmlns="http://www.w3.org/2000/svg">
<path d="M20 4.28585C20 2.70996 18.7188 1.42871 17.1429 1.42871H2.85714C1.28125 1.42871 0 2.70996 0 4.28585V18.5716C0 20.1475 1.28125 21.4287 2.85714 21.4287H17.1429C18.7188 21.4287 20 20.1475 20 18.5716V4.28585ZM11.8661 18.201C11.8661 18.1207 11.8661 17.9332 11.8705 17.6832C11.875 17.1742 11.875 16.3975 11.875 15.7323C11.875 15.0359 11.6429 14.5939 11.3705 14.3617C13.0223 14.1787 14.7634 13.951 14.7634 11.0984C14.7634 10.2859 14.4732 9.8796 14 9.35728C14.0759 9.16532 14.3304 8.37514 13.9241 7.34835C13.3036 7.15639 11.8839 8.14746 11.8839 8.14746C11.2946 7.98228 10.6563 7.89746 10.0268 7.89746C9.39732 7.89746 8.75893 7.98228 8.16964 8.14746C8.16964 8.14746 6.75 7.15639 6.12946 7.34835C5.72321 8.37068 5.97321 9.16085 6.05357 9.35728C5.58036 9.8796 5.35714 10.2859 5.35714 11.0984C5.35714 13.9376 7.02232 14.1787 8.67411 14.3617C8.45982 14.5537 8.26786 14.8841 8.20089 15.3573C7.77679 15.5492 6.69196 15.8796 6.04464 14.7367C5.63839 14.0314 4.90625 13.9734 4.90625 13.9734C4.18304 13.9644 4.85714 14.4287 4.85714 14.4287C5.33929 14.6519 5.67857 15.5091 5.67857 15.5091C6.11161 16.835 8.18304 16.3885 8.18304 16.3885C8.18304 16.7903 8.1875 17.3573 8.1875 17.7546C8.1875 17.9689 8.19196 18.1385 8.19196 18.201C8.19196 18.393 8.05804 18.6251 7.67857 18.5582C4.73214 17.5716 2.66964 14.768 2.66964 11.4912C2.66964 7.393 5.80357 4.28139 9.90179 4.28139C14 4.28139 17.3214 7.393 17.3214 11.4912C17.3259 14.768 15.3259 17.576 12.3795 18.5582C12.0045 18.6251 11.8661 18.393 11.8661 18.201ZM7.82589 15.7546C7.81696 15.6876 7.875 15.6296 7.95982 15.6117C8.04464 15.6028 8.125 15.6385 8.13393 15.6966C8.14732 15.7546 8.08929 15.8126 8 15.8305C7.91518 15.8484 7.83482 15.8126 7.82589 15.7546ZM7.41964 15.8975C7.32143 15.9064 7.25446 15.8573 7.25446 15.7903C7.25446 15.7323 7.32143 15.6832 7.41071 15.6832C7.49554 15.6742 7.57589 15.7234 7.57589 15.7903C7.57589 15.8484 7.50893 15.8975 7.41964 15.8975ZM6.78125 15.7992C6.69643 15.7814 6.63839 15.7144 6.65625 15.6564C6.67411 15.5984 6.76339 15.5716 6.83929 15.5894C6.92857 15.6162 6.98661 15.6832 6.96429 15.7412C6.94643 15.7992 6.85714 15.826 6.78125 15.7992ZM6.22321 15.4734C6.15625 15.4153 6.13839 15.3305 6.18304 15.2903C6.22321 15.2412 6.30804 15.2501 6.375 15.3171C6.43304 15.3751 6.45536 15.4644 6.41518 15.5001C6.375 15.5492 6.29018 15.5403 6.22321 15.4734ZM5.84375 15.0269C5.79464 14.96 5.79464 14.8841 5.84375 14.8528C5.89286 14.8126 5.96875 14.8439 6.00893 14.9109C6.05804 14.9778 6.05804 15.0582 6.00893 15.0939C5.96875 15.1207 5.89286 15.0939 5.84375 15.0269ZM5.5625 14.6341C5.51339 14.576 5.50446 14.5091 5.54464 14.4778C5.58482 14.4376 5.65179 14.46 5.70089 14.5046C5.75 14.5626 5.75893 14.6296 5.71875 14.6609C5.67857 14.701 5.61161 14.6787 5.5625 14.6341ZM5.29464 14.3484C5.23661 14.3216 5.20982 14.2725 5.22768 14.2323C5.24554 14.2055 5.29464 14.1921 5.35268 14.2144C5.41071 14.2457 5.4375 14.2948 5.41964 14.3305C5.40179 14.3707 5.34375 14.3796 5.29464 14.3484Z" fill="#2197F9"/>
</svg>
