<svg width="20" height="23" viewBox="0 0 20 23" fill="none" xmlns="http://www.w3.org/2000/svg">
<path d="M18.5714 1.42871H1.42411C0.638393 1.42871 0 2.07603 0 2.87068V19.9867C0 20.7814 0.638393 21.4287 1.42411 21.4287H18.5714C19.3571 21.4287 20 20.7814 20 19.9867V2.87068C20 2.07603 19.3571 1.42871 18.5714 1.42871ZM6.04464 18.5716H3.08036V9.02693H6.04911V18.5716H6.04464ZM4.5625 7.72335C3.61161 7.72335 2.84375 6.95103 2.84375 6.0046C2.84375 5.05818 3.61161 4.28585 4.5625 4.28585C5.50893 4.28585 6.28125 5.05818 6.28125 6.0046C6.28125 6.9555 5.51339 7.72335 4.5625 7.72335ZM17.1562 18.5716H14.192V13.9287C14.192 12.8216 14.1696 11.3975 12.6518 11.3975C11.1071 11.3975 10.8705 12.6028 10.8705 13.8484V18.5716H7.90625V9.02693H10.75V10.3305H10.7902C11.1875 9.5805 12.1563 8.79032 13.5982 8.79032C16.5982 8.79032 17.1562 10.768 17.1562 13.3394V18.5716Z" fill="#2197F9"/>
</svg>
